<svg version="1.1" xmlns="http://www.w3.org/2000/svg" viewBox="0 0 318.3714428667688 332.6599710680366">
  <!-- svg-source:excalidraw -->
  
  <defs>
    <style>
      @font-face {
        font-family: "Virgil";
        src: url("https://excalidraw.com/FG_Virgil.woff2");
      }
      @font-face {
        font-family: "Cascadia";
        src: url("https://excalidraw.com/Cascadia.woff2");
      }
    </style>
  </defs>
  <g><g transform="translate(185.82064849813696 10.88447210442564) rotate(0 -98.89153048228718 155.50158670591372)" fill-rule="evenodd"><path d="M-20.349526872069358 -0.6982100009918213 L-23.736129926954177 312.3562167210876 L-143.64015400348498 243.35975257686218 L-175.8336942859482 58.970044329117314 L-19.865914811522483 -0.2604353427886963" stroke="none" stroke-width="0" fill="#dd0031" fill-rule="evenodd"></path><path d="M-23.13721788314785 2.3043644514982193 C-23.25190887270706 109.28518797385556, -22.623391267514602 221.56540525590654, -24.039385593546562 311.3019091496283 M-23.648175997576363 -0.20316793801702349 C-26.93702464844889 66.16750858119623, -26.866755497847176 131.18167770173517, -24.1456883538004 310.12745289704907 M-28.329468416486648 307.3139884991943 C-62.19773509148356 289.12778778753375, -97.36921427611418 264.68123194746255, -146.70111334262683 239.79149286082824 M-25.65631608894911 311.04999106362453 C-63.32261337086226 285.5739515617388, -101.22680231111818 263.2201500544916, -142.9114487165053 242.69266037276824 M-145.47009527622058 238.264576356922 C-153.88995790794556 194.4759142546733, -163.0367936635025 145.43186257527617, -168.79580718954318 64.8180748962865 M-145.27158665595843 240.47418503097137 C-154.00641044960756 198.35785654446053, -161.08300326380888 155.17178890130864, -174.21577162225955 61.71494324440815 M-175.82064849813693 64.70326776738025 C-140.30866098292285 46.82686424696414, -104.95997328779484 39.66916196830263, -25.68084143582058 3.416483163833618 M-172.83860487421268 62.93103821511127 C-138.5224478141378 45.86667115371861, -105.78130587746757 29.941050871201515, -21.96241246643734 -0.29873573780059814 M-23.085399379164695 0 C-23.085399379164695 0, -23.085399379164695 0, -23.085399379164695 0 M-23.085399379164695 0 C-23.085399379164695 0, -23.085399379164695 0, -23.085399379164695 0" stroke="#dd0031" stroke-width="4" fill="none"></path></g></g><g><g transform="translate(158.00858913242723 11.01093590259552) rotate(0 74.44860528342292 155.31904963142279)" fill-rule="evenodd"><path d="M2.7709906101226807 -1.512258768081665 L3.1068546589953923 305.61542886894557 L114.81671039671063 245.60137746593622 L150.09942647680364 64.09013331928969 L-1.9123895168304443 -0.95436692237854" stroke="none" stroke-width="0" fill="#c3002f" fill-rule="evenodd"></path><path d="M1.7330134877709131 0.5162060793294687 C5.738945345281888 120.44654187579229, 3.4046423172454876 234.70509773956684, -0.6680893442430591 311.64903516544103 M1.3332032337594355 0.6913655269839131 C1.4462834259696928 104.53211552287424, 2.206081222421919 208.23577590671724, 0.9637423522528038 310.3117152051415 M1.016400080595734 309.28247493904445 C37.1571864002597 289.6739701460829, 71.5158780557029 271.3310156074192, 121.0857834062016 244.02461860439448 M2.2351494845492863 307.5349531809649 C41.409176485815586 285.71758467419767, 81.90138386501079 263.9345116912025, 119.62575702280164 243.0910655047622 M120.68203584760785 242.72621772548823 C122.60006575696701 207.13117545935836, 129.84667472593003 162.4818220704505, 150.36285373434148 59.98728192845106 M119.09862689584851 245.99270735046534 C125.04602807167967 199.6300437321014, 134.55705421952302 156.75102672760514, 149.93208989366613 62.58592868843794 M147.14074680074773 61.66349042454481 C97.15289170542269 36.07207746003761, 53.105182177329354 19.729235371238822, -1.4656431674957275 3.938661813735962 M148.923514454213 61.640890846641064 C91.01784737237068 34.68509647858731, 35.170621297899956 11.861413301456139, -0.9839657545089722 -1.01093590259552 M0 0 C0 0, 0 0, 0 0 M0 0 C0 0, 0 0, 0 0" stroke="#c3002f" stroke-width="4" fill="none"></path></g></g><g><g transform="translate(70.01341196636326 303.17934036816996) rotate(0 92.94111499228279 -156.7896738928689)" fill-rule="evenodd"><path d="M0 -50.71741356095253 L29.023676516287225 -50.25462616638671 L44.8458339041495 -91.7232698698197 L135.07385749256576 -92.41848951294627 L154.45470259119662 -51.62111525716376 L185.8822299845657 -52.26378999702526 L89.0721463523414 -263.3247216193513 L0 -50.71741356095253" stroke="none" stroke-width="0" fill="#ffffff" fill-rule="evenodd"></path><path d="M0 -50.71741356095253 C6.542241526771065 -50.613096421492415, 13.08448305354213 -50.50877928203231, 29.023676516287225 -50.25462616638671 M0 -50.71741356095253 C8.644450022165541 -50.57957635411323, 17.288900044331083 -50.44173914727393, 29.023676516287225 -50.25462616638671 M29.023676516287225 -50.25462616638671 C35.192603822707085 -66.42290475389146, 41.36153112912694 -82.5911833413962, 44.8458339041495 -91.7232698698197 M29.023676516287225 -50.25462616638671 C33.37459863000552 -61.658054566965205, 37.72552074372382 -73.06148296754371, 44.8458339041495 -91.7232698698197 M44.8458339041495 -91.7232698698197 C66.53682057791904 -91.89040198038427, 88.22780725168857 -92.05753409094882, 135.07385749256576 -92.41848951294627 M44.8458339041495 -91.7232698698197 C77.85260066009687 -91.97759166134543, 110.85936741604422 -92.23191345287115, 135.07385749256576 -92.41848951294627 M135.07385749256576 -92.41848951294627 C141.63358724254826 -78.61002304696477, 148.19331699253073 -64.80155658098326, 154.45470259119662 -51.62111525716376 M135.07385749256576 -92.41848951294627 C139.1810541396631 -83.77269321763595, 143.28825078676047 -75.12689692232564, 154.45470259119662 -51.62111525716376 M154.45470259119662 -51.62111525716376 C166.69111163045224 -51.871342737605055, 178.92752066970786 -52.12157021804635, 185.8822299845657 -52.26378999702526 M154.45470259119662 -51.62111525716376 C161.0908418105511 -51.75682046212949, 167.72698102990557 -51.89252566709523, 185.8822299845657 -52.26378999702526 M185.8822299845657 -52.26378999702526 C162.44535866997816 -103.35978855809746, 139.00848735539066 -154.45578711916966, 89.0721463523414 -263.3247216193513 M185.8822299845657 -52.26378999702526 C155.1328252206786 -119.30224067074963, 124.38342045679153 -186.340691344474, 89.0721463523414 -263.3247216193513 M89.0721463523414 -263.3247216193513 C63.29003345880122 -201.78510634309694, 37.50792056526104 -140.2454910668426, 0 -50.71741356095253 M89.0721463523414 -263.3247216193513 C67.54524026141284 -211.94190732503782, 46.01833417048428 -160.55909303072434, 0 -50.71741356095253 M0 -50.71741356095253 C0 -50.71741356095253, 0 -50.71741356095253, 0 -50.71741356095253 M0 -50.71741356095253 C0 -50.71741356095253, 0 -50.71741356095253, 0 -50.71741356095253" stroke="#ffffff" stroke-width="4" fill="none"></path></g></g><g><g transform="translate(158.33461459163732 106.40230474939017) rotate(0 -13.47116304916733 39.31116419830471)" fill-rule="evenodd"><path d="M2.487948490441097 -2.260251760482788 L1.1092776077823991 76.6761472185164 L-28.24024263166939 77.57205872622744 L-3.6005906330940594 1.8677160739898682" stroke="none" stroke-width="0" fill="#dd0031" fill-rule="evenodd"></path><path d="M-2.28680078858112 3.81730055809021 C3.221328801045874 30.56463130773655, 2.699157311874602 53.79571781892667, -0.22983324350544265 76.45624470310503 M-0.5351694094536175 0.8156024217605591 C2.864394501623728 24.67724094837407, 0.6581830229878047 50.17962031713304, 0.3311281221943254 78.62232839660936 M0.8272346275883073 78.17945026951128 C-9.57454001545882 76.88946425996544, -20.337728755201937 76.08555272255118, -28.968971402879106 77.10554366198794 M3.0862855928974504 76.82859670715624 C-5.942954282144438 78.34360727822086, -10.149790792219425 78.14552864078932, -26.499589474435197 76.64061157790438 M-26.062294156785356 73.32288985339419 C-26.569043668002298 58.28858680804373, -14.399959524102389 44.63930416608797, 2.529597832024349 0.1951158046722412 M-30.028611691232072 75.20918457595126 C-14.837829708374201 50.95105543197286, -8.061786973879482 20.763646948084137, -1.3527315127251018 0.27531540393829346 M0.37674839621807443 0 C0.37674839621807443 0, 0.37674839621807443 0, 0.37674839621807443 0 M0.37674839621807443 0 C0.37674839621807443 0, 0.37674839621807443 0, 0.37674839621807443 0" stroke="#dd0031" stroke-width="2" fill="none"></path></g></g><g><g transform="translate(158.28165263548658 109.15985124195572) rotate(0 16.76047777556778 38.30020007845667)" fill-rule="evenodd"><path d="M3.4448564052581787 -1.3364617824554443 L1.8180354666359122 74.32195961713441 L31.758626449572965 73.13647896760514 L0.8956239223480225 0.6623556613922119" stroke="none" stroke-width="0" fill="#c3002f" fill-rule="evenodd"></path><path d="M0.8952505588531494 -1.3602735996246338 C4.109117813521967 20.30376829682421, 4.664581950940123 41.61015860165241, -0.0683928895347421 70.53877890348085 M-0.20102226734161377 0.45413315296173096 C2.7217271201475777 15.457513878366607, -0.22889494047447978 29.430776268447786, 0.6489367317802603 72.7569293999637 M3.029690606559008 74.1272188448871 C9.975659741673912 78.63690999496124, 25.523912098810282 76.98301044939394, 32.548009860980436 73.46313101762345 M3.1179613899833853 75.04620552301057 C10.238574469234711 72.77461678109117, 21.795160996099593 73.21098991479381, 33.72197781847708 78.07040733808091 M33.058202732074186 76.9832115840297 C25.101589555357993 55.595272187733244, 19.49917731494162 43.064747086643365, 3.968729257583618 -1.4700071811676025 M33.625572789180204 76.50323814862779 C25.44570618085931 50.5232545610044, 11.827337670232733 25.542200134009065, 0.7415474653244019 -0.7623013257980347 M0 0 C0 0, 0 0, 0 0 M0 0 C0 0, 0 0, 0 0" stroke="#c3002f" stroke-width="2" fill="none"></path></g></g></svg>