<svg version="1.1" xmlns="http://www.w3.org/2000/svg" viewBox="0 0 362.7913006162855 372.58525966459683">
  <!-- svg-source:excalidraw -->
  
  <defs>
    <style>
      @font-face {
        font-family: "Virgil";
        src: url("https://excalidraw.com/FG_Virgil.woff2");
      }
      @font-face {
        font-family: "Cascadia";
        src: url("https://excalidraw.com/Cascadia.woff2");
      }
    </style>
  </defs>
  <g><g transform="translate(97.28924047664395 89.46169075733474) rotate(0 84.10640983149881 96.83093907496368)" fill-rule="evenodd"><path d="M6.903807104834836 -69.52435266420788 C6.903807104834836 -69.52435266420788, 6.903807104834836 -69.52435266420788, 6.903807104834836 -69.52435266420788 M6.903807104834836 -69.52435266420788 C6.903807104834836 -69.52435266420788, 6.903807104834836 -69.52435266420788, 6.903807104834836 -69.52435266420788 M-7.450510915814714 -36.56670335797043 C3.1574180734424786 -48.987068534949415, 13.68898112635961 -68.49800879076398, 23.93196409709566 -74.12025421130264 M-9.201362509726362 -35.92399306712122 C-1.7961574361510912 -45.74294316427447, 5.206739558790559 -57.374762126614286, 20.35119101919048 -73.61749777215326 M-41.79765771449179 8.634569477025806 C-18.5115368009501 -13.21284291275876, -6.999781310116347 -35.16068241615104, 27.408488766613544 -71.75902707288319 M-40.35973305374951 6.6958681677621 C-19.86316633641109 -16.69582284646551, -1.0667583084589722 -34.12931315495843, 30.811207824709953 -71.10737370113188 M-48.18651339577061 29.863626775745367 C-37.13743549467151 11.902713716305904, -14.187922685299664 -6.185268131372652, 23.922846586311294 -45.511064134515195 M-46.77834122793299 31.74234046548984 C-21.17567262922083 1.0945617313815532, 6.124925240444725 -26.10036844932212, 22.452101298475696 -47.856853246665864 M-60.640730336144856 56.6592482979531 C-28.00417600247533 21.720900783443142, -2.080743993465994 -5.19407666966422, 10.456315803163612 -28.11694712890903 M-56.51965776814549 52.95317819520184 C-40.615300554540994 33.660142209650004, -23.780978156892616 14.16962152237788, 11.192893828087414 -24.759106032090582 M-67.17368310037403 74.03772055717621 C-44.081784494707335 50.21424430326904, -26.34704073770323 29.086722796622887, 1.79296976543948 -6.811885801869156 M-63.72181309852152 75.25457997980033 C-39.60153818632398 43.984342199931206, -13.495428430626852 13.461340154388303, 2.919465402439087 -1.7409921938354986 M-70.31418028220811 93.87941464716474 C-45.76758866490039 70.13036080224514, -21.92123890907296 37.22720260549157, 8.446864488189558 5.419964755676215 M-70.87430917218605 95.89776652241031 C-49.76268309810206 69.11628543050918, -25.647534197956183 43.947974105638075, 5.661741177206378 4.732620286546176 M-79.95040547539715 115.67407666166864 C-53.133219733442594 82.8686053368967, -22.391240036381248 48.61292381347433, 0.6454934209771057 21.45814178482856 M-75.41196044226412 110.95427102615676 C-58.20430452901732 90.05055098650682, -38.7081724845968 67.88958992799436, -0.17285375742245712 23.021493259530917 M-80.86174018671954 125.75669895376961 C-67.32437056412172 108.21699361622109, -45.9292593105186 90.37953332075998, -4.2203686820617925 38.82962641666461 M-78.99671677490915 128.3018104534964 C-61.3764312658862 105.17433461151465, -42.922288674327596 88.67361859429982, -4.099550506686331 42.84376996557046 M-83.40359024184943 141.37345425899986 C-59.62494658671722 117.65319023566138, -36.82091995243367 91.23387206703836, -11.179912356696121 58.717870584488836 M-83.95248985517026 141.44021964933637 C-57.17816626805735 114.52468801323717, -30.709419143554186 87.30734032873451, -8.88948296572923 60.03500194734427 M-81.9816739446317 150.29511786888165 C-62.632367050628474 127.42517160874056, -42.8193399639166 106.87493742950613, -21.118647602542985 83.99105450517003 M-81.48944134626734 154.854873514574 C-62.88507941762731 132.4425279817991, -46.938926378465304 112.88530325469993, -25.756041993543256 88.32640653109614 M-78.85802906275939 161.97719335850155 C-63.198240084469724 143.21123528647522, -40.82458639848744 120.87281460029928, -24.91486214363716 99.41951186577504 M-81.25998987526845 164.92681273367083 C-63.603804068008365 145.1753545199806, -47.649029731111185 123.36897614880831, -26.241333673538186 101.31229201326792 M-77.9055961320015 174.94688266116412 C-59.71151977038649 157.95691643775086, -47.540690748668666 141.49929892604726, -32.64099306656727 117.85430162384097 M-74.86339433731757 173.06971384930642 C-62.967412252332466 156.98910292462807, -47.64782437430457 138.9654761674895, -29.167550951677647 116.37862946077172 M-71.29304486207005 180.8690201915104 C-59.172226740549135 165.5417879720851, -43.61182523683235 147.91028016551473, -29.139494791140265 128.8975373917812 M-72.28058030150171 183.54582338549682 C-57.48339187457167 165.67913832159115, -42.75025021562732 147.4961266781557, -25.962841607143588 129.12338209539593 M-73.11206578873404 188.98955788284485 C-63.184791132110924 179.39034793737395, -49.89873556772328 162.99186603461933, -24.453082172020736 145.08135148535075 M-69.2514316629649 189.65944288492148 C-53.692149465903896 170.6438788867743, -38.08100694275294 155.0946811811669, -28.841551353975596 141.28546934227052 M-70.78190153473395 202.4279514091402 C-53.17886771330418 187.23495590439077, -43.216035562392776 165.00346082532593, -26.330841571034597 147.2171883565173 M-68.4293219038226 199.79931513092814 C-56.350407690642946 183.80781799194074, -43.625016583889064 171.19928983275133, -25.06033491337459 151.84406026273822 M-63.26905166482929 207.90361228392374 C-53.83939503218377 189.3497807022849, -35.4103084720099 179.42156825600543, -18.78576561092237 153.51825367925375 M-63.35081894820932 204.91507624641906 C-46.03065092010742 188.05081497352953, -31.18669940588083 167.83946472802532, -21.225690767456086 155.8910226401469 M-57.2115088017606 212.25474618116823 C-49.63231409771307 204.40030485941264, -32.821521653443796 187.35463880646753, -16.31445803038659 161.32596644842388 M-60.30992127824061 212.78609401474205 C-45.308832200670466 198.57690205617502, -34.84110815199718 185.6233983364999, -15.263666014297627 164.10737507873537 M-58.45058153927782 217.67422419462363 C-39.177919271750625 205.4276498326854, -23.65435078927274 187.2769055639991, -10.18048436519625 172.3081535973322 M-55.6398808470414 221.00733913902204 C-43.080929255739555 208.57002113716092, -35.711402894387504 196.10476959492414, -8.4532070490432 169.7114816211831 M-49.53089444214048 231.2095828378172 C-30.74586830981937 209.8203228430656, -15.906753899209392 194.20552068318992, -1.1310212670823319 178.26085538017418 M-50.96320307874622 228.2393852421613 C-33.34087225539464 211.13411314242435, -17.775275923692412 193.1162992592115, -3.8928088827987892 176.01085713106062 M-49.82462416207957 237.28186236494452 C-33.748524920670704 218.9378607811132, -14.718350903840484 201.84933348200497, 5.663733786167143 179.06122956980886 M-47.06588298446107 236.47724718773037 C-31.249719610522057 220.39630387078597, -22.14658519253609 206.82397164634267, 0.8100751472725847 180.10507149060192 M-39.783027205873594 241.14793012908717 C-26.98206245023585 222.49581578852016, -8.518801097745097 197.18794353429695, 6.581795113830708 185.97877600065442 M-41.89893293033944 240.2627044381859 C-33.17275248044254 228.06277945474815, -22.044834926189765 215.83707725037698, 9.760266001074456 185.9469741436002 M109.90843996784561 68.31743507980775 C109.78246806777157 67.01615817516455, 111.61405636559819 66.18139768821487, 111.5507689068362 66.0572571707514 M109.23005142739885 68.22419917433929 C110.56051204454765 67.61044279848139, 110.87689858651262 66.56113661853216, 112.2458629275009 65.34072867609531 M-37.830375397770624 250.16265583238572 C-17.044774614028967 224.8114150230086, 8.460955145931344 202.7967528625266, 15.181991546627316 193.23998230927708 M-33.82137601283095 248.57196625522346 C-18.278800907270025 229.6050605884677, -5.822773303491633 213.17196722345494, 14.024262196596894 188.48652699076655 M106.27792364453798 80.86407331003178 C117.43767844317075 75.01378648892538, 123.64139321489971 62.465125416207, 123.63361036365609 64.09534031690572 M110.10727582221752 79.52304207904567 C116.66285912013646 71.27292956585283, 122.77239297547798 64.32506920899831, 126.63147703146319 62.11726203353617 M-27.80246724201139 251.87653925052805 C-9.78905217694806 233.03811513765876, 3.9655822208334506 216.05418271395095, 20.601393981070686 191.01399612752073 M-27.076857425400576 253.78799687108918 C-18.354997277479136 238.78252241372996, -4.547964611070444 225.29965285756055, 23.42670877853172 191.78458436903827 M113.8126765479228 90.38125926795983 C117.49784696781418 80.67375564131054, 124.37137067355361 73.65963545109209, 136.71126814813013 58.612865560207375 M112.3310054902813 88.63763585481429 C120.90599541001316 78.30565894972023, 127.73305120573289 70.3184117466304, 137.3330023276865 62.3434469257331 M-18.336212459605406 256.64033955329137 C-9.216235423293254 239.4493528937931, 2.418454381167642 221.74890096486794, 29.672033667160804 192.28128620538536 M-23.894083764057825 256.63460233056026 C-2.6458505084316073 236.0326715481565, 14.165948738579765 213.72337589288296, 30.020340121878917 197.38216190341535 M118.32698267396385 99.91205606573165 C126.9614402673123 79.98654445797914, 141.58272212920008 69.44690091985926, 150.04386978026042 63.5248610183528 M115.72267339076693 99.29864686691106 C123.03263093402269 89.70438503697602, 130.71481658408874 82.44686281125115, 147.92414554383168 62.31624436675816 M-17.130638829543173 262.0642350708984 C-1.4796287293501642 243.4516750181811, 14.69401125038829 228.3119266739641, 34.81988282590717 196.52703087309374 M-14.9388796827932 260.47000783885943 C5.756572806772779 237.37713319276014, 25.346927107731275 215.1780973268688, 38.07683157264799 200.69998479912056 M115.24681424367066 105.94164203356998 C129.48259922403454 96.75950853705662, 143.4746499592031 81.61990697226469, 156.49450553903745 63.68208586111919 M119.05395486968393 108.42680032055871 C132.76428416795653 93.21886611359417, 143.31228502229268 78.14949445172098, 159.42620008388923 59.509460401388566 M-5.634774130815188 267.50840413357196 C8.957166709550402 243.5018954183236, 27.71564540668841 224.5105396761531, 46.72091367831929 204.98640846086863 M-10.002069835597197 265.7774386012095 C8.09393076389693 246.94541105928943, 25.226175984177395 223.70196694128344, 44.74285847684844 202.28377826137665 M118.24814347805271 122.70519550169759 C130.3603010192824 107.98722142184725, 140.49984263912063 94.24836980092263, 165.2080886164802 63.9494279989521 M117.97152527304182 118.06782142098002 C138.5736590253669 95.36565106437527, 157.2275363229263 75.0792945689686, 167.76728226487813 62.78602981506987 M184.529825517099 43.769104205818856 C185.32268699319633 42.52414044798889, 185.88425374524226 41.8496690058235, 187.33959525198804 39.84358511023904 M183.93945897028934 43.78552315607854 C184.98498509317307 42.79482727736679, 186.15393135944157 41.322758382417284, 186.88739479900468 40.47551914953376 M0.5102583508376597 270.790328820659 C22.866928818178817 246.92114665597654, 39.9190874941217 223.90163855399967, 57.552552812373364 203.3177572637327 M-1.7496243004317762 267.9948693937195 C15.975558768854944 249.0686471767916, 33.939151119567 230.15104038910425, 55.723529011583054 202.50986931468321 M118.91949233905218 132.98614541986794 C126.43057754270009 122.89725459288849, 135.80139796509343 114.20112669965262, 155.0121183158872 90.98948023016429 M118.26584352300308 128.70414591381163 C129.5265418005363 119.19207216228763, 137.36116971923684 110.75465939359465, 153.14092899728988 90.80988221908784 M156.27199338637683 87.51851793085707 C161.07916092793036 74.64350640875371, 175.69596511698384 70.20911140053022, 177.84030896961877 60.75670524878453 M157.35004379861448 86.08996705418004 C162.96825025758702 78.18646752462625, 170.5687982650291 69.27874576550798, 179.64055429190586 60.39865736855219 M186.71124337967612 53.650535334101754 C191.42983653403488 48.31741257734595, 193.09841234927327 44.99896768489875, 193.71588217418696 41.20860939501857 M187.94751888420558 51.50541447644575 C189.46250841376957 48.62261480354912, 192.74584724949457 46.43662234612841, 194.6381342316797 44.0376766267333 M10.396721591920482 268.67644194997627 C26.517940776066105 255.2355315246462, 43.42020073236419 234.46270460633616, 67.24582405284343 208.87261285369817 M5.979605702430831 274.07534039504606 C24.843096307253813 252.12713813246393, 40.88258381335519 234.1609818248909, 63.35102819547353 203.18178175126735 M120.03020063336717 135.44600696831114 C129.82193866095622 124.62256945692968, 143.6532892691304 111.33414061533965, 154.23703911862742 99.36153193514679 M123.37889499511348 140.27154282449848 C135.93674828403735 125.31291631171779, 146.56329599148924 110.22442443686901, 155.17156822196614 102.01587919842336 M172.48655614166773 81.91520360741134 C176.48428975101533 72.32213255917021, 182.82242614967518 62.31534813443302, 204.348051264202 44.6617563337593 M174.2118777102164 80.91263902071233 C180.930252258932 73.05749064435999, 189.54698433136787 59.887571278524305, 202.71710704944076 45.35356559311437 M16.27113158400917 275.3600749035202 C43.905852115998414 242.11290411602315, 66.34708567077757 212.44337403094414, 81.90736371050741 199.91125499998694 M16.265391455551622 274.27833412930596 C33.66700979745067 253.13480733695218, 48.9691393183961 233.5087918246433, 81.82420453946258 197.7349094951666 M116.38959236210944 158.14471560302502 C134.76201949113167 140.1787639875702, 148.60285466676564 121.48105402818766, 162.12135348169497 110.4196442938555 M118.99065827346207 154.1973225060416 C131.8924136044901 136.07806536521315, 149.87452575312074 121.64818474563509, 158.62135685680798 106.08256437398083 M183.3940698404813 84.16776589674816 C188.64963624306796 77.20439198075601, 196.65665608802814 63.44618896803374, 209.4424472182048 47.287756841014186 M182.79942866908553 84.24378145111666 C188.56095883232072 74.80287511943193, 194.97149061819138 65.95124406865739, 210.14717228254204 49.07133746458129 M23.14598084352877 273.8075392348459 C68.23529567233906 230.98120045571025, 104.72111846434277 185.0369558309623, 165.7223839535148 116.37251057831028 M23.08498927635694 274.3585282834429 C66.64906835025184 226.30607329951567, 107.79125502133179 179.21435173864182, 163.1050176113584 115.90572514767128 M194.24761439674606 83.89575023199136 C198.28209868053167 72.84313838791782, 209.39909013847543 64.9995491443947, 220.16109715820113 55.65801322747258 M193.86280875467767 84.94260194892699 C197.1148127435114 78.82164358261473, 203.30843432616808 70.61474356936488, 220.3049820926861 53.12768575091151 M38.491112706638816 275.24616513620936 C66.67887598476051 242.72957132479826, 90.44736702414805 206.89201645391756, 165.80077573933008 121.35091795761383 M36.551400457896236 275.3962060831102 C67.38793148436677 243.12332319496727, 91.36023994764557 212.57653483748862, 166.9217746359885 125.08865855623282 M187.61440138388542 104.09136887720203 C202.13041222029963 82.79551785214389, 213.7847991162464 66.4138516305889, 225.94523782085378 54.330942953774695 M184.89637096841005 102.04518346568918 C200.45454508034084 87.958563153555, 210.0860978110249 72.78766652192829, 227.65026138525207 53.52342002356983 M47.77931912813797 274.5370461999682 C83.88530484486458 233.5214290788062, 116.83269663089287 195.08189179824353, 172.44682625013678 136.31491177687002 M47.73949062649622 275.97544345103773 C77.05341810375617 240.57006501360632, 104.4178001232545 207.27989229124137, 168.99927932846634 135.7774558232124 M189.84988224051017 104.1669977932466 C207.7678218573939 85.05900356315775, 225.83306300144488 69.18464250756745, 235.03295948515316 58.78230518969781 M193.53876987389344 106.46194883726963 C204.19330558817853 93.63288730053587, 210.94122424445675 85.31500990516068, 234.5168035642304 55.41984632733352 M57.97971766724588 271.3531464524569 C93.00074835351852 234.85901564879663, 122.77213790667405 200.98079860680724, 169.3751643585997 139.58353206096993 M57.205892297470584 274.0287220291795 C99.49457298772904 222.31890271826558, 143.41459677126113 171.98522202979683, 171.10898006586604 144.60153751402007 M208.03685210065822 103.24694405101607 C216.67538086618086 88.4271610139533, 230.09665079672249 81.98158635623804, 246.63205728513725 58.011407006132956 M208.78100373016576 100.19025200955937 C223.0607328503738 86.42990102151961, 233.11681658019208 73.13333299010975, 244.83310688865907 60.876818608093615 M68.01980831304805 271.46732086568045 C94.57346805799374 242.45048843859422, 118.50914697307644 215.35060530321158, 174.19888034370942 151.25753797969085 M68.09880858490483 272.8894436645405 C103.36199782500898 236.4758273837707, 132.35753725179524 201.9992535347153, 175.89717025217814 149.40970967343313 M228.94751580846258 97.75261052362931 C235.61223312287353 88.80618120683243, 239.48319425387064 82.04018364793251, 251.4487985867681 68.72987883218913 M225.92848050636002 93.89954273067725 C234.46172296941506 83.20264658277631, 241.1536652334242 72.64039212567644, 248.65114184950014 67.04151416995911 M84.19827163444 267.30823280718835 C104.96168200999323 243.92532123982082, 128.33010024128905 214.90723933480942, 178.84471031051334 165.71594618414662 M85.5626231826945 265.92181859967025 C110.00392885439501 235.9058515851471, 137.84228031718547 204.9872050271857, 174.94878911745008 161.7040358275654 M108.4299490517368 258.04578836068356 C134.0987778428032 231.24871874635897, 150.9881867874938 198.81778608153058, 173.94098139709996 170.79774539964174 M107.98747901528975 255.5746590252205 C126.52533235649956 231.4909916443706, 145.4684527769336 211.0848009053862, 176.39940957880782 173.58450461970543 M128.3181141609951 242.00121249400362 C141.5964889029083 229.07855276294472, 150.97385653345086 215.9525109223154, 173.5588899188696 186.60037429804342 M124.8710457454129 244.56172392659172 C141.9692757893313 226.81550597890512, 161.74134836041912 206.78511278212554, 176.79327544653998 189.6241804751231" stroke="#e51138" stroke-width="1" fill="none"></path><path d="M2.6679344668984415 0.6646516546607018 C-1.9581605562317232 24.327903515724415, -35.844693912425946 105.94971743861029, -29.307928837089456 139.54378511832996 C-22.771163761752966 173.13785279804964, 19.181404981452978 195.21046395595386, 41.88852491891739 202.2290577329788 C64.5956448563818 209.24765151000372, 94.42445551766292 194.99495698237584, 106.93479078769703 181.6553477804795 C119.44512605773113 168.31573857858317, 116.28686975730017 141.550792137276, 116.95053653912203 122.19140252160076 C117.61420332094389 102.83201290592552, 105.90311380831514 75.97464747755583, 110.9167914786282 65.49901008642803 C115.93046914894126 55.02337269530022, 134.42606688701596 60.57525847481342, 147.03260256100037 59.33757817483391 C159.63913823498478 58.0998978748544, 180.00441037703447 61.402287559371395, 186.55600552253475 58.07292828655099 C193.10760066803502 54.743569013730585, 175.1749721110739 37.19398857628069, 186.34217343400195 39.36142253791147 C197.50937475693 41.52885649954226, 252.66182170315824 60.817839660662884, 253.55921346010302 71.0775320563357 C254.4566052170478 81.33722445200851, 202.2301750527992 99.50549814765577, 191.72652397567063 100.91957691194837 C181.22287289854205 102.33365567624097, 197.12731650984648 81.85948895021166, 190.5373069973315 79.56200464209125 C183.94729748481654 77.26452033397085, 154.82723325165344 73.73679515029384, 152.18646690058085 87.13467106322594 C149.54570054950827 100.53254697615803, 172.51452058440836 139.59160320513473, 174.69270889089594 159.9492601196838 C176.87089719738353 180.30691703423287, 176.48449876166165 193.54087876418498, 165.25559673950636 209.28061255052037 C154.02669471735106 225.02034633685577, 131.56887332563582 244.01975264170272, 107.3192967579642 254.3876628376962 C83.06972019029257 264.7555730336897, 45.68546162176076 274.6896207655078, 19.758137333476604 271.48807372648133 C-6.16918695480755 268.28652668745485, -30.8462841672394 257.1713880851834, -48.244648971740716 235.1783806035375 C-65.64301377624203 213.1853731218916, -85.9292544619961 177.66426777083205, -84.63205149353129 139.53002883660582 C-83.33484852506649 101.39578990237959, -55.810177510204944 41.30938957328251, -40.46143116095193 6.372946998180174 C-25.11268481169892 -28.563495576922158, -4.369043839297616 -57.16751665458589, 7.460426601986775 -70.08862661400818 C19.289897043271168 -83.00973657343047, 27.80261492579061 -71.37381497891597, 30.515391486754417 -71.15371275835358 C33.22816804771823 -70.93361053779118, 28.931775439022772 -81.04857474298139, 23.737085967769616 -68.76801329063382 C18.54239649651646 -56.48745183828624, 3.1329957983577237 -8.900611390598955, -0.6527453407645227 2.5296559557318687 M0.6717175354063514 -1.44284840002656 C-4.0965721323339 22.92938015419054, -37.48712226143411 110.02421579891632, -31.003068645893254 143.21007435025618 C-24.519015030352396 176.39593290159604, 16.651755313564095 192.0913452918382, 39.576039228651496 197.6723029080126 C62.500323143738896 203.253260524187, 92.91408665695126 189.07301490345762, 106.54263484463114 176.69582004730256 C120.17118303231102 164.3186251911475, 121.28744496263617 141.0898622453619, 121.34732835473076 123.40913377108221 C121.40721174682535 105.72840529680253, 102.35630122138176 80.55759694997327, 106.90193519719867 70.6114492016245 C111.44756917301558 60.66530145327572, 135.58004994897533 66.09164231441072, 148.6211322096322 63.73224728098955 C161.6622144702891 61.37285224756837, 179.42206491186116 61.084338177851045, 185.14842876114 56.45507900109743 C190.87479261041884 51.82581982434382, 171.25371007555503 33.580938710865986, 182.97931530530528 35.956692220467865 C194.70492053505552 38.33244573006974, 255.1051016035601 59.60857862409799, 255.50206013964151 70.70960005870869 C255.89901867572294 81.81062149331939, 196.79067902820051 100.04622807820563, 185.36106652179387 102.56282082813208 C173.93145401538723 105.07941357805852, 192.40846074880523 87.43971439499542, 186.92438510120166 85.80915655826733 C181.4403094535981 84.17859872153925, 154.7696784088734 80.5736459819515, 152.4566126361725 92.77947380776354 C150.1435468634716 104.98530163357557, 170.7276821974058 139.88915753849375, 173.0459904649962 159.04412351313957 C175.3642987325866 178.1990894877854, 176.8497243340987 191.26448587292697, 166.36646224171483 207.7092696556384 C155.88320014933095 224.15405343834982, 133.88761941065374 246.95868920836347, 110.146417910693 257.71282620940815 C86.40521641073225 268.46696321045283, 49.492470905313326 275.7947471314774, 23.919253241950333 272.2340916619064 C-1.6539644214126596 268.67343619233543, -24.758139116385905 258.4744711673726, -43.29288806948494 236.34889339198227 C-61.82763702258397 214.22331561659195, -88.0591274422629 178.35230397833908, -87.28924047664387 139.48062500956442 C-86.51935351102483 100.60894604078976, -54.06773827053411 38.540594390726596, -38.67356627577074 3.118819579334282 C-23.27939428100737 -32.302955232058025, -6.747967662485364 -60.17271908373147, 5.075791491936335 -73.05002385878944 C16.899550646358033 -85.92732863384742, 29.35615763976056 -75.75346893565707, 32.26898865075946 -74.14500907101356 C35.18181966175836 -72.53654920637005, 27.455629589645852 -76.05820334946971, 22.552777557929744 -63.39926467092838 C17.649925526213636 -50.74032599238706, 7.137198667941886 -8.823893693465337, 2.851876460462809 1.8086230002343653" stroke="#e51138" stroke-width="2" fill="none"></path></g></g><g transform="translate(106.37550573249473 179.5194047872924) rotate(0 34.219401367016076 34.219401367016076)"><path d="M15.109058665821347 3.8590133656441488 C15.109058665821347 3.8590133656441488, 15.109058665821347 3.8590133656441488, 15.109058665821347 3.8590133656441488 M15.109058665821347 3.8590133656441488 C15.109058665821347 3.8590133656441488, 15.109058665821347 3.8590133656441488, 15.109058665821347 3.8590133656441488 M6.855029515133063 28.539332838056083 C14.11987627897687 16.06077822351273, 17.605586686165324 12.990910357958546, 26.39095449480312 5.771087061164181 M6.350997700498263 26.419608601627345 C14.063464229925778 17.065283004258873, 22.049032332823092 11.825672109909851, 25.506818376808333 3.636535334882538 M7.131799914709141 34.88356734941123 C14.087263843846703 28.699959107123757, 28.43015729890226 17.200844494722716, 39.167377084847274 0.6043460180132243 M6.35558348970752 38.14051609615205 C20.70349601358164 22.41079778717412, 30.109214143674922 8.590245684427238, 37.04776137357551 0.6343472187487933 M4.776528146986664 48.540246211207666 C21.553106395075293 36.57847587958764, 31.887383672471945 19.246079775631685, 50.76711123538084 3.650235302444642 M8.114990820114315 51.471940756059446 C19.654793279911047 34.483228901792685, 35.66107157085506 16.48711897244702, 50.15215112370319 2.9106845107638293 M11.996564479658673 58.23355334835877 C25.893254084248937 44.56685801758073, 38.98424014035433 25.64564419470802, 52.977350953182295 6.690950061376757 M9.99648206878669 56.255498146887916 C22.911077022426987 41.7841771377141, 36.48778774436595 28.77958351158898, 54.16553124334486 9.341736498470969 M19.23592583253213 59.38481264845115 C31.933330156445205 52.00273874056265, 45.14431271592624 35.747159498800855, 59.099196505944704 10.856924219722934 M18.064923764906606 61.944006296849075 C34.669236480223375 45.72206136927572, 47.98684897719087 24.473147699884798, 61.15828910956857 13.315993747408577 M23.172240241376016 72.53713467818037 C32.16589765361027 54.53508498892532, 48.706534779411854 38.75084717478901, 63.606768987418036 20.44747418373317 M19.829731053618048 70.27613241326347 C32.81133415871177 56.375635625620156, 46.14017151680592 39.78042830061875, 67.3347704254993 18.80489180445165 M32.153101031864395 73.32715920201426 C45.483741813632015 54.16825774134976, 63.297490126880234 33.26663756359797, 68.30326934639979 24.676089260771338 M31.43122186997007 71.49813540122395 C41.897314692397245 56.15926824349124, 53.71269733207867 43.78300545720762, 68.93933824930954 28.35810161758906 M44.60670915279472 72.34337552731665 C48.47084239195416 61.58698539405665, 56.230101273138466 55.86854584262325, 67.03762770563043 35.868626276864646 M41.80125927213514 70.47218620871934 C52.69570779019497 59.61329111238679, 63.09595053734375 48.425506247477244, 68.72302231311477 39.55172415347302" stroke="#e51138" stroke-width="1" fill="none"></path><path d="M45.995057872967635 0.6060178023801299 C52.56837106819635 2.3158008771229452, 59.68078399931862 8.67051896296012, 63.495490563768854 14.989455161223223 C67.31019712821909 21.308391359486325, 69.74637944192597 31.298155378318235, 68.88329725966904 38.51963499195874 C68.0202150774121 45.74111460559924, 63.48746083921365 53.28664087570844, 58.31699747022726 58.318332843066244 C53.14653410124087 63.350024810424046, 44.9387302501203 67.622234371088, 37.86051704575071 68.70978679610553 C30.78230384138112 69.79733922112307, 21.950588333289417 68.57912862872979, 15.847718244009702 64.84364739317148 C9.744848154729986 61.10816615761316, 3.6016447596943433 53.46310801125905, 1.243296510072419 46.29689938275564 C-1.1150517395495054 39.13069075425223, -0.6162797242267373 28.92276803900379, 1.6976287462781556 21.846395622151 C4.011537216783049 14.770023205298212, 8.745868755156295 7.207657516318397, 15.126747333101775 3.838664881638902 C21.507625911047256 0.46967224695940724, 31.10894787090637 -1.9465993898039056, 39.98290021395104 1.6324398140740328 C48.85685255699571 5.211479017951971, 64.78377785919696 16.543834224744813, 68.37046139136979 25.312900104906532 C71.95714492354261 34.08196598506825, 62.111690540098245 54.101230509830216, 61.50300140698805 54.24683509504436 M51.2114651748381 6.466141162818552 C57.79029297172251 9.874272161696437, 63.78885007449202 16.059927063466024, 66.3748198816086 21.993045588390167 C68.96078968872519 27.92616411331431, 68.62294923526699 35.75572027600127, 66.72728401753761 42.064852312363406 C64.83161879980824 48.37398434872554, 60.68491625019532 55.85209388922614, 55.00082857523236 59.84783780656297 C49.3167409002694 63.8435817238998, 39.810858769369936 65.71850612733, 32.62275796775987 66.0393158163844 C25.434657166149798 66.3601255054388, 16.913654825847836 66.24378420901081, 11.872223765571942 61.77269594088935 C6.830792705296049 57.301607672767894, 3.7305561294844196 46.290122143977435, 2.374171606104511 39.212786207655654 C1.0177870827246025 32.13545027133387, 1.1205854383340204 25.27543166571713, 3.7339166252924905 19.308680322958676 C6.347247812250961 13.341928980200223, 11.800716786624658 6.230035829186811, 18.05415872785533 3.4122781511049247 C24.307600669086003 0.5945204730230382, 35.690762054378034 2.4597773165231627, 41.25456827267653 2.402134254467356 C46.818374490975025 2.344491192411549, 50.16063037229742 3.0448961855415164, 51.43699603764632 3.066419778770083 C52.713361702995215 3.0879433719986493, 48.867875141366085 1.823853194314626, 48.912762264769924 2.5312758138387537" stroke="#e51138" stroke-width="2" fill="none"></path></g></svg>