<svg version="1.1" xmlns="http://www.w3.org/2000/svg" viewBox="0 0 445.3336857399977 317.63903144529104">
  <!-- svg-source:excalidraw -->
  
  <defs>
    <style>
      @font-face {
        font-family: "Virgil";
        src: url("https://excalidraw.com/FG_Virgil.woff2");
      }
      @font-face {
        font-family: "Cascadia";
        src: url("https://excalidraw.com/Cascadia.woff2");
      }
    </style>
  </defs>
  <g><g transform="translate(79.8949514757096 162.5687898544354) rotate(0 142.77189139428924 34.44956626563828)" fill-rule="evenodd"><path d="M-70.53497966408354 12.885605253408375 C-70.53497966408354 12.885605253408375, -70.53497966408354 12.885605253408375, -70.53497966408354 12.885605253408375 M-70.53497966408354 12.885605253408375 C-70.53497966408354 12.885605253408375, -70.53497966408354 12.885605253408375, -70.53497966408354 12.885605253408375 M-68.99240901630942 24.933326589007763 C-64.69569214204081 22.92922287084517, -65.64110846833167 17.936787842180884, -59.56925036498062 12.683311128715184 M-68.56969460372453 22.380736474756986 C-65.5060467638827 19.540544035683197, -62.181887224471815 16.22128894312685, -60.49054538757257 13.851275592768696 M-62.30760247913793 32.90937108269249 C-62.475765873255895 23.95751993264799, -53.55142559869269 19.860376375610066, -46.31733465736582 9.724456413893844 M-66.30228999910548 33.34809472879682 C-59.73282716011322 21.550001515635856, -52.29375924422914 15.683810233406554, -45.31426116620972 9.084948010056163 M-60.03919054447378 41.50155794394879 C-53.58544355934235 26.952067394373465, -39.06742417216724 12.709487121823567, -34.78384940057005 6.869996081320869 M-63.64425036935772 41.65875097138552 C-53.86169239540785 29.11529126955885, -45.12584658361823 19.148717283047482, -35.01879561423267 9.781316372780429 M-57.96065158765507 47.35513324744327 C-54.740206725565024 36.17607582905791, -45.31225573954655 33.733280020165516, -28.902639465369703 13.65338903473606 M-58.047444496263985 45.774641786583494 C-51.65584298759258 40.42740380169239, -46.4944044515762 31.015045553287102, -23.713518897034646 9.692343136238955 M-53.7254122604128 52.67238724737145 C-39.004358939114724 36.65495855791301, -25.816285166472905 26.900852741674807, -12.40544747450529 8.506590948112189 M-55.907242390930286 57.550157037961256 C-44.822020536112326 47.3900864881109, -38.134401615106 35.62814451922026, -15.395554496731148 9.050521083779513 M-51.72203809851597 62.2461468770378 C-34.5344202904713 49.85184354291238, -22.19466109077324 25.895966801901757, -7.227332021726821 12.216222915199255 M-50.94009044850061 63.64116076819829 C-36.37736818261551 46.429545383852265, -21.432928336758195 27.188728718480718, -4.6012793664471845 10.403945918527102 M-45.166646724705075 74.24274281041508 C-30.98913372827423 54.24914474659099, -15.415984485088586 28.46871327338701, 2.369096212244192 12.442409770415576 M-48.02592465109048 70.03795826064234 C-33.82335923771908 55.18296746695578, -25.871944713707116 43.40469417899118, 5.719439953720728 12.885154584275039 M-38.32261270373961 77.92846156103053 C-25.99867134945887 58.788222014661784, -6.109824781791069 35.59874799819763, 10.854264749619773 13.67168428662006 M-43.17787542283436 77.54174813819566 C-22.404590964514327 51.18584736150899, 0.7954774270627922 28.21174403169126, 15.513837626609615 11.914029463257233 M-35.280862687350584 82.94309338307968 C-19.302274528496273 63.44820048022338, -8.970074484036864 51.17683327958589, 23.37104902564043 14.264082977339939 M-38.07256277483828 84.78817026442877 C-20.383772735228458 63.230216770671106, 1.146886715523344 41.10732843006748, 25.815658228084985 13.994894178375915 M-36.867462211306986 91.51696520986702 C-8.61217688500091 60.417095533886766, 22.79360310305833 33.445938263047964, 38.23477238857515 15.953146096770753 M-34.70768310224622 90.21433868202116 C-17.899948132184576 73.68330568843803, -0.8717555331418296 52.05577094250151, 35.495156747040824 11.966513593201627 M-31.392087927339837 98.00861729558805 C-5.392997477393692 81.61744943066469, 9.089216411321338 60.22443519958023, 49.36956027366445 12.817660158439736 M-27.900481416164205 97.34651825454334 C-14.353357839972197 78.80662621625814, 3.18036457517087 61.03832297297956, 45.94545275934264 11.723836330636601 M-22.243496342227616 107.6124169933245 C1.603016696337285 73.75465513925761, 23.181101370518697 47.97473561158749, 56.87198602917729 13.309915416542431 M-22.63322008274571 107.25773844445203 C-2.122755543804498 81.39152548689017, 20.960479348524256 53.47720967436632, 57.89617625388442 11.996252254251381 M-19.950114107701324 113.40565455727184 C8.062045208005614 88.41346347770049, 28.111504382859103 57.444629136880486, 69.4474250903542 13.227448384606056 M-19.863769113096737 109.36488911531771 C13.640258794682342 75.02010821240441, 47.89133248442721 34.50738030225237, 68.09982180653166 11.069334986948185 M-15.08762481751097 116.56557608118017 C23.521260485355437 82.65802569497068, 52.71240271745911 43.638911950728584, 76.94187789243568 15.477170576157853 M-11.183192960342296 115.39575347026546 C11.407282915993308 87.70033709022766, 38.87507601303132 54.59927627733347, 80.11357149314989 12.298970651629254 M-4.435028036416057 120.62409307857664 C27.27549403315991 82.74684121550891, 59.14527719995667 50.39176433103168, 86.8737927836907 9.839497245393353 M-6.721809548616889 123.39371763219745 C24.82277250916902 88.47147945446426, 56.08918645321058 53.655941127109614, 91.08111780263306 9.62548661186512 M-2.442816387157073 127.23191122343405 C36.256223119377886 85.94454176690685, 79.99653892039218 36.945287151404074, 102.87042019935981 9.940089905839798 M-0.3673673600360061 127.23189938446149 C30.646109695924412 89.01290467528167, 64.26640111503711 48.615933663908834, 100.41901781084673 10.295393990558026 M7.891260565506485 134.63969202927962 C42.046743677698515 94.73722932163648, 71.79097228459217 57.42553904975064, 113.19963557468347 9.0139850710244 M5.609190681265858 132.84430984995976 C37.795366418542876 93.14732267289023, 74.63126931641546 53.01258485416629, 112.59851609365634 12.375516410610182 M15.554019227824604 133.46218158986335 C56.49088738483472 93.08894029059364, 95.96747511999644 46.188842981299075, 119.30176225793069 7.66972299514272 M11.335550122163689 135.7399822318173 C47.13090817478932 93.4894523144072, 83.00264788643103 51.55656001399967, 123.92736763995593 10.267118735592149 M21.328960035037795 138.6687914187125 C58.062154080330416 103.31130855762842, 89.99598916489538 59.875414845597774, 130.22592568434197 10.86109019172197 M21.400143038522998 138.74355265293633 C48.52697206855353 106.58548744774805, 70.40871445103578 79.4093842978621, 131.236192025611 9.42764958840614 M33.67203133541506 138.10243677002256 C54.062175069197735 107.01807177616394, 87.31413024673645 72.1245495430179, 143.16187628915782 7.6512481742893925 M30.97791191923779 142.2640984768874 C60.598018488106135 108.70595671430377, 88.52756311364074 74.98218593540281, 142.660296326487 11.884870091954397 M39.8040425931874 144.69656957709802 C69.4617046779155 107.73337827054266, 96.46595573352806 75.16321714129602, 155.97181242064724 6.976862197040532 M39.172722869164055 142.26217124634994 C70.6810220474088 109.48774018759859, 97.5579441805132 77.84066814347332, 156.42149803147802 9.750982609807465 M46.96219215662381 140.0128550941344 C83.9537887963156 107.20660436948302, 115.72609946378776 65.71221647847392, 161.62673451405072 10.619843773502595 M48.5188933771958 143.5374733248945 C89.79729892906388 100.07711372389251, 128.066421304242 56.89801502323854, 165.5144792164495 7.944373264867551 M60.836421431974266 143.21291441488177 C108.45097362159657 92.63753557983611, 147.24922683401584 42.701822568888616, 176.73826800460876 8.971479417202815 M61.667546490208004 142.45060041564614 C100.37069816539126 99.73020750754165, 135.2778906055834 57.484224373298204, 176.48860945726693 9.703740680036887 M66.7572968254888 142.06774363309003 C104.79275351538166 101.37259346671115, 139.47234895416898 67.09297612294428, 190.09048624059034 8.796559382336753 M68.82449275507568 143.68246072172977 C100.9780982957453 109.87163247418607, 131.63360200225785 74.002573587829, 188.22976874282432 10.102224718886035 M82.22783265644586 144.72184258317756 C116.0363949862699 103.84307020556078, 151.6107865431254 60.23458594335813, 197.076264657236 6.205120182431642 M78.5320531317023 145.74840368693876 C101.71457950830158 116.8953958090408, 125.00454148878694 89.66435959712464, 196.6467016489872 10.769149004317228 M258.0255951073782 -56.51334333339697 C260.9480045432653 -59.0525200020966, 258.57436154663935 -63.599257054918645, 269.363935023137 -71.76893541490413 M257.17182776786547 -57.316588951218776 C259.00899146348655 -61.643660412956955, 262.1439687519792 -66.26454093392437, 267.0041111006966 -69.22949553591884 M86.58474893280103 142.94593143961583 C123.43185956060401 105.6492234997956, 165.23412889000002 60.915499413869355, 207.1248618417943 11.558328911916789 M90.84341858484581 145.18870529285823 C129.89990808307832 101.5431375804013, 166.61669985588372 59.97466293618842, 210.31803719490415 9.325798876838263 M250.44656803245886 -35.78792239910763 C255.09859008929124 -44.20264459531821, 255.7158604765575 -52.37475349363656, 273.6582232632766 -65.1821948330246 M249.5715880968724 -35.94439309275549 C255.89296057075586 -45.47363775095356, 260.7462975607906 -50.63333215882982, 272.3950332694779 -64.62638549165354 M102.18293718181242 144.60941238589785 C137.43405843928633 107.96994738754574, 172.34304016291875 60.426533498319685, 217.90906259501833 10.611498686468451 M99.97311289541115 146.18128351010583 C139.6547600068471 100.8570929882957, 181.43272632795464 55.68073951419474, 218.43582225675243 9.82713025341019 M251.46407063866226 -25.83992966398047 C260.8496811523615 -39.43710980779315, 268.05784641789785 -41.21064884103427, 275.2959267441737 -58.89787774257336 M251.32782637888758 -26.486593247795568 C255.96032295813154 -34.15265247942492, 261.04339755098994 -42.40538226738367, 278.19513270450705 -59.326966491564846 M112.85442865348008 145.69275417202363 C144.745998630616 107.14708687332252, 181.46423478854894 63.819827991927895, 234.0419571958986 4.4653886758638635 M113.4738704383984 142.76715396368155 C157.95006170606624 91.48897424651173, 204.79658568517033 39.64626561985939, 230.1463502385226 7.62194917881024 M256.65858306353147 -22.070882133786796 C261.38312532680624 -30.499138634524254, 279.9430565223562 -44.86456341439984, 285.1045896977271 -48.22885606227834 M253.90356105183417 -17.738408773784755 C262.8000092040958 -30.360006528859238, 269.47430774313597 -39.57291792522657, 281.66121724695813 -51.260427130148 M123.30549071376603 140.90758722710206 C150.5641125388481 106.16145235360243, 184.15346046282286 77.56886807688062, 238.38663592342562 3.97075804988026 M126.39766170476955 139.0934939576943 C160.63576975452253 103.2496477942401, 191.54704305392266 67.50118228766898, 243.47091454420513 7.18406169781565 M260.5492546150474 -9.384730218972123 C267.87256252887227 -21.158061071651126, 274.6304053789606 -31.794220681679626, 288.4162433739366 -46.69466104213956 M258.4761445486931 -12.480743206168569 C265.38383565410993 -19.4474370018242, 274.68485442860543 -29.163467005056354, 285.596021271831 -45.63575178240302 M141.45239462777553 134.81852293450257 C177.2725245180537 95.09816732050011, 212.9649940082772 53.21277272744882, 292.5219028946062 -36.63812287411256 M139.91072600816744 136.27214583271035 C173.30541256914333 95.20647809112722, 210.02893177429323 54.50234338422796, 290.1933306674053 -36.31309249127487 M149.164404082663 136.65135318159543 C196.16196937957983 82.63759119753466, 241.05958231841566 34.381921031427765, 281.07335605578396 -12.967450515554788 M152.35709878391737 135.21727743118487 C187.36566241898092 95.79629729029693, 221.45208047043974 53.879549267547915, 281.9377161871073 -13.439551406727674 M165.8818330970224 130.42562227715482 C213.0629617574855 82.89474647363133, 259.8169621907449 27.5661505441161, 285.5725640959743 -9.756747741646478 M163.3576644044932 134.27866520006884 C213.1067781259405 80.9268089351037, 255.0420071276884 32.0058041178298, 286.58118296486174 -10.715327676779935 M173.82033859854678 134.5495756590383 C211.56496192926048 85.87057463792597, 246.23436238436304 43.38080230867342, 322.248923044674 -38.32308782127467 M174.63306954171244 133.0032180088953 C209.5051366598083 92.559897952883, 244.6427837903341 52.77782143636212, 324.2419251999965 -38.80533784724339 M192.67368354727657 125.13533248115901 C249.08520094961904 58.291219005173495, 300.74023033795527 -4.50662270851511, 330.94453973287807 -35.38401426347731 M191.97647844292513 125.27074833322686 C226.82979585976003 86.32127358513203, 260.33044416180326 47.57463529829794, 333.91461450267883 -36.316833211358144 M209.60448297596145 116.79160565570254 C234.7390748337416 87.27133422358833, 257.62061713411975 62.770432133674404, 296.8707202941342 16.540355659794557 M211.33827817922997 116.81986263081689 C242.6893078017322 80.1831045867414, 272.9512555789885 45.457719725168744, 295.7963530466123 15.758950531255948 M300.1303295165463 17.137130714726197 C310.8446686959641 0.7289042045843264, 325.1430057652554 -15.023109426838687, 342.2445350360246 -32.65509721669426 M296.33711117954687 18.694785415899503 C308.7599794989273 1.863000159999002, 321.3148546234114 -10.191424637585545, 344.30994044208245 -37.47074139895906 M315.10289885365 5.749135155808062 C319.4223557021917 -1.5840574618813665, 328.48974091754985 -5.60717659906677, 349.0630175062663 -30.508577397176822 M313.80339604132405 9.448881369661422 C323.23988156628207 0.046289170804918456, 333.44458498030355 -10.430230441675851, 347.68174689647026 -29.82218286217173 M335.4019211726204 -7.327462625512965 C344.4820027788167 -13.18172837545511, 345.53596068959297 -15.677890931034778, 353.66857144068155 -27.255312474975653 M335.3592945905343 -4.955206502983458 C340.6052032265295 -11.791166171605578, 348.9930220948519 -16.591851367053916, 354.973170286223 -24.96443934232957 M-4.150718035853281 125.19084874548739 C-4.150718035853281 125.19084874548739, -4.150718035853281 125.19084874548739, -4.150718035853281 125.19084874548739 M-4.150718035853281 125.19084874548739 C-4.150718035853281 125.19084874548739, -4.150718035853281 125.19084874548739, -4.150718035853281 125.19084874548739 M11.380262799047692 127.38436412246637 C0.8434536955499219 121.7256022056657, -5.245202792861795 116.52839862061244, -32.26281692232402 96.22823224628428 M15.930909856640561 131.66848118783645 C0.9205174685918625 122.36017725234753, -9.463245607394825 109.04235764733087, -28.242553690033272 94.35471815282563 M36.690157853407555 133.4762549040343 C11.410008004457016 116.79206411541438, -11.231051848852843 99.9295029863421, -50.79081068968559 61.60382026504173 M31.63237810168951 137.38985972231882 C3.8945935363719464 112.56665168673655, -28.519870610783848 86.39139139498914, -54.482451744733105 62.39845206658735 M42.93396888834485 140.2069715653701 C12.809259897627186 114.3603583322, -14.402906125372603 83.51159936403388, -60.03883799375936 43.84853584804178 M45.6412745953823 136.56075597006514 C2.9362376682581797 102.27718378916738, -36.933711168590015 65.51228464188426, -60.29323630245372 43.78777686246276 M57.3455197914462 139.90886437416685 C26.16062766593273 111.19484013357257, -8.649805283620438 87.14344909896208, -67.62989903275073 31.721569509224288 M59.00416736593055 136.4859323081435 C34.812421014338476 111.15523977012285, 7.982658363507532 87.24591422854122, -68.25860092077554 27.652732663766734 M79.78984028985272 145.71154054013658 C15.060734227947442 97.34073406868723, -38.38565743732221 40.74391477656518, -71.94275823996419 16.02478540032027 M77.56289278110037 140.72834555564094 C36.73111058411412 108.46085823333584, -6.145529178906585 72.71276670532484, -67.30394089237804 16.37697073160527 M87.47976714023518 144.19133946894286 C45.059724319036846 106.67009093911183, -0.9291826180441726 64.71505766056957, -65.02476265803647 8.040267698731542 M86.97982557771716 140.0004311616726 C32.564946376045015 89.40743664409193, -22.88371228578907 42.939047133721104, -65.32404984994653 9.602025407733839 M98.3246717952683 143.75408428881607 C43.597990589329065 92.26252511722514, -14.681031131557193 43.07310477558231, -55.57225835494785 3.2220236149462034 M98.07375586009496 140.26217753687374 C59.55760088324671 105.20785025798064, 22.98419980249731 73.93624797731697, -54.24985518883524 6.220935036345618 M110.41271976664645 142.10552279992353 C70.9358936998945 106.22537968847261, 40.3989694478762 77.48210398160754, -50.560779881233096 2.6866960339952652 M109.1504383210437 139.1251965095407 C66.46240918467673 101.23567612704208, 23.794572475259066 62.59308188179071, -48.536899433493254 3.5024512837903683 M122.32448699863313 141.00742534624789 C81.90161594379603 106.88320458188979, 46.35053527709029 77.47680097801583, -34.37601963536522 -0.6119402656232955 M123.33492184755383 139.89034239677994 C90.73916408922413 109.24589254074043, 55.286904833540646 80.132120035036, -34.65381024845863 3.2412439021459365 M127.65472383409444 136.7754239377923 C71.48237651285052 85.8235868485518, 7.512256295534563 27.66079249129678, -19.901957106495406 3.1644687166741816 M127.62205261384652 133.53716575081253 C84.09363452174173 97.15478036705407, 42.04516675752114 61.05136549977078, -20.839744304599 2.735051458050558 M141.87301936207123 133.47022843084974 C91.48385437839002 90.43764186889194, 48.40003601758323 52.30281434516793, -8.299011648359059 3.8682895061835403 M139.12987226454325 131.01668365768833 C106.73558510916692 104.85524390495394, 77.69756604675186 79.13473071513368, -5.016252898337602 5.915911791966831 M145.12833193437126 128.04209464938145 C99.79796377975626 84.82580500438378, 46.25452280035152 42.08143465585488, 8.73180553964522 8.522581341768767 M148.27286703632143 129.8960008859704 C101.10968302843004 87.02739654011907, 52.03360288460658 41.73907692271291, 8.750429167367484 11.503715123142268 M161.2296070310853 130.0709768591241 C117.53490211616683 93.41095572189235, 66.12214750712786 53.63777871306098, 23.94134084675416 11.589815809381381 M159.14559050683002 128.50933453270952 C118.7640313050227 89.88189960706688, 75.20574813810802 55.724795666402784, 22.870855292118634 10.181607997966186 M170.56220895957728 131.82691629878025 C125.72278323384242 97.08407224009731, 85.50697741125465 58.479735385710654, 36.99000274077716 11.136527205704935 M172.83677612405796 131.45851294598322 C120.78024614190605 90.457166303675, 71.36547087030674 48.52215251398577, 35.43536558435025 11.246349322497137 M179.82206416342393 127.53632571421375 C143.77930417228254 94.51734908322548, 107.48531685619864 64.02913287717946, 43.141148047741446 10.590152595498918 M179.40978197220699 126.26267348103036 C126.3974346977516 80.22814753425016, 73.0761528456335 30.86329267604573, 47.051311010714564 10.06653827086961 M192.4399156906574 123.15617343109872 C141.64999408568806 87.52110338764173, 106.2713561446886 49.44799538073009, 56.06288733434258 11.455681130494344 M190.57684523993422 122.88244657290008 C141.81989826550281 82.6136259174315, 92.99595892035052 40.29164681234276, 57.894858778532125 10.549263604189623 M198.17590704641384 116.22403539823257 C147.99334153047104 75.24432908606497, 102.78080299445713 39.97889649727304, 69.79982742660776 10.879299875450702 M195.54366607300085 119.32000777976477 C161.3998673778647 88.31097978820733, 124.9460250970288 58.828561655324116, 71.93273485445515 8.453749496591659 M205.73261211827992 113.10351188330841 C167.85285598793516 83.88425694568753, 131.53681895045048 54.95564083842923, 84.29190973078701 5.772629924118007 M203.8724374996185 112.61449447869254 C157.1643064827075 74.95740367047604, 113.85525129200178 36.13499028007949, 80.69106228535864 9.265591651200737 M210.91555315206003 110.01910592209515 C180.5919295104364 89.21895933382142, 151.58924909761666 58.328685190035905, 94.36499107290754 9.000608341255742 M211.89236340621662 109.6268843148273 C165.86202620305446 70.027731966315, 118.57192815154524 29.224697396922167, 94.49594203789482 10.134639242151337 M217.17087739355867 107.80469555036183 C182.56127518927815 74.24123733513105, 142.17043601753056 39.406823797628846, 107.24968201966493 5.5057242785949185 M217.48733517922466 103.53846743331309 C178.21153043993718 72.59200545606001, 139.68051635405106 40.38917246865188, 106.24229131938426 9.749231030549474 M221.10419540947134 100.02776991983946 C194.1956317250459 73.6676215490843, 162.63597982503575 44.53135624053052, 120.55308939708635 5.871664800895026 M223.86477002596314 99.72508259525593 C198.06715002343662 78.77770183019726, 174.67876661949884 62.14655748939207, 115.61558609647915 7.649841190529635 M230.4523236060481 94.55307512427802 C200.56634266430578 74.43670227531686, 175.64035755361382 49.265946508444756, 131.77765461142187 10.447551001906085 M227.77735349330712 95.0707630037808 C191.6215675488187 59.93679059851427, 157.24712196045385 30.773970165378145, 128.86069941605453 10.103315425216842 M232.09270338953894 92.35473225742751 C200.66278166009604 57.925662405125834, 164.1533211061175 22.631387631332395, 143.31173448869868 9.535819946387562 M233.78245862813156 90.52985436201268 C208.57501182761388 64.35239536408406, 177.7159640843653 41.80979279238732, 142.0224822447626 8.04075290874556 M238.54340116619383 81.01623741303793 C217.59467044308977 61.653054870646315, 191.83278768588065 40.42099239666832, 155.94843959561229 3.516460786070496 M238.99214597731148 82.37701487307659 C208.64962139419669 54.298465484954704, 175.5310386646218 29.72349798335152, 152.7146017899239 6.931742402221829 M245.70839876204002 75.57440265586878 C219.27996302690838 52.57487612959947, 188.82474482797713 25.240335447351967, 162.85737675818996 8.410660585714353 M245.0684540074991 76.80115621110703 C226.4071154050094 60.43093911113746, 207.15053659434435 43.206698629873, 164.34128401819066 6.098008079780115 M249.64172216355024 73.98753310866059 C231.1303121109163 55.265906654430665, 207.48976637640817 36.940868934238544, 174.34877780245895 3.3489814100786504 M249.23752784579216 71.12362060821951 C228.04306554578392 51.64321695542857, 205.03638067091276 29.14690199253149, 177.11144239621515 7.931586615554934 M258.02860319675176 64.01119083617283 C237.9641327577327 42.93860729156805, 218.20465912990335 27.580395708724964, 186.63762829511478 6.039537410894383 M254.02078095884292 66.42394473854853 C234.26696509188517 48.072023103268606, 214.93127015133246 32.03143805738492, 187.05280663131788 7.113004270652283 M260.4590274283401 59.97848999013651 C239.6844334958668 39.54838764032653, 218.44116590316943 24.720476995748413, 199.81541006218464 6.331640652921067 M259.7584430539719 58.070154863200074 C242.28860376223255 43.23324793195547, 228.5008367116468 31.463263967105885, 198.23366519015104 5.924922719206677 M262.3994766843426 52.36374263531113 C256.0576287406702 42.27656648381781, 244.95795718227276 32.53639560812141, 211.36893950991856 2.3400372299086882 M264.83130259783144 51.03241265630865 C245.085928702383 35.86570559102307, 223.4502935134978 17.514031238193006, 210.53170361958968 4.126375164343102 M270.71176737100905 43.90669486544667 C258.0789294779923 34.49983404385526, 242.88708457583354 20.556951825029003, 221.1709484643438 8.632789206616721 M269.4295451372964 45.757251320999245 C255.9550986753382 34.73967046614145, 243.21706669804541 20.1730108020882, 222.87458538628604 4.890648280196032 M274.6436313143668 41.80040874530265 C264.3221054968859 29.20413983649794, 256.4425340776672 19.194609081208817, 232.99892249215588 4.355510734776217 M274.793334139019 40.10545753140637 C263.40095761209085 30.858883694799708, 252.03737566579716 20.499276398622218, 237.00879019756064 4.67951832787152 M279.3475540811114 29.815498426610063 C274.0204670552391 23.502579215582063, 261.7460456606403 21.88436723652042, 248.506843419382 2.7950138791466372 M278.9816493103199 35.22630754863603 C266.2738263836337 22.978458071633696, 254.85826244136078 12.107835800754938, 245.72135652006568 4.556896981504025 M283.8525174972701 29.86377597412843 C278.6764610482738 21.371109178677134, 272.71761593593067 11.187974900844198, 256.97047975115834 4.223249588525462 M285.0940291178513 26.87121304682273 C273.23230387009795 18.727485506491334, 264.22165072311066 5.26629246176163, 256.83517199956236 0.7827722992660284 M289.8281283888701 17.466428452617208 C281.33846917005667 15.161148050259571, 270.4460702361862 2.649472068063581, 254.31564415306656 -6.66633813030883 M292.2846995282653 22.61189820010094 C279.1049542504533 10.886306235052341, 272.3552500607824 5.550991801350467, 258.4872309422573 -8.000437102688991 M294.34874732260687 13.222195013807436 C277.16133664848405 2.354967718825481, 266.65245414331145 -15.925997519339118, 248.8634838709111 -19.914871241587264 M294.7767027488826 15.058576769576689 C287.2864652842267 7.113173969362343, 274.53102635105137 -0.1126414473920132, 251.12392473458002 -22.17394107921706 M301.3746502849533 9.683130780439654 C278.6308463319554 -9.90826634354499, 255.48315334845006 -25.190403597098104, 244.1322861131697 -39.581388361654746 M303.59305890680093 10.485715987365523 C284.6697693651719 -5.171732661168361, 268.6484976085041 -18.522887299984852, 248.55284722563317 -38.67592863728808 M310.7426095217138 3.5424887882827534 C305.6886990869867 3.3604538986736063, 298.73352916877275 -8.934819745343523, 288.50702293901315 -18.62471971531187 M309.79734688844974 6.769918498611332 C303.7424389709595 -0.06108807415756434, 294.9288053345611 -9.22478828943936, 285.8623396152126 -16.13344289232765 M280.02142431919447 -17.165433270789265 C271.20526768893916 -26.463608932430073, 255.44950399484355 -35.50681187591941, 251.2852264893516 -43.31692191560256 M284.5992351207601 -17.660230895436882 C271.5975007838162 -26.378781407152996, 261.92492382690307 -34.40268918100867, 249.7173656848534 -45.5258158480047 M315.32527689066177 2.438271428421956 C309.6734841823255 -6.219564464506926, 304.8554391117113 -9.200384348240787, 295.75172787660983 -20.373636644144796 M316.41783745762353 -2.570600760205764 C307.16500327847405 -4.0433052793089, 301.2142379067158 -11.567768263072088, 293.6842506876054 -19.56502707656219 M287.2659479473295 -24.085811795440208 C278.98407638576 -32.24865982137449, 271.53457224771245 -38.37520459791364, 248.49193883818975 -57.425563379706645 M285.0839287508788 -24.334443667676936 C273.0844791213309 -36.397412951236305, 260.7275843878545 -47.5501834204733, 253.7939630014955 -55.4171764473932 M324.71963913337987 -2.9931336966425306 C319.05820303170475 -8.76409584045461, 307.2020640880758 -20.50785627282227, 297.68497041186276 -27.724177108133915 M321.8567672853331 -4.680110762742174 C316.2779499193864 -7.7099521775997175, 309.6831776050628 -15.712782461190752, 301.0852328049201 -25.658201836968544 M290.43809375334354 -30.686129826256888 C281.05494301939467 -39.104916877877216, 272.8062839787187 -44.4859392473025, 256.3391639899069 -65.27078497497644 M287.2852155061421 -35.27200048709835 C281.3085320085884 -39.83126334656959, 275.78371812116916 -45.24412145445801, 255.09008313078226 -63.65293578146304 M337.0030179196453 -0.42731686590124696 C325.31141375570866 -8.74658508586851, 319.9650820124348 -14.05663076662438, 305.2637817947719 -29.820872357279313 M337.4121611663556 -2.6736549129884395 C325.83462559226587 -11.553569205003425, 313.31752456147746 -19.79927148124842, 305.0555203421566 -30.809451548546804 M293.23076424656824 -39.07909570021084 C281.0652283305114 -55.115928186241376, 266.96858105848224 -62.443647947008856, 256.9089331945031 -73.122117951412 M288.4292010208817 -43.33756281567267 C277.7368801048356 -53.722431235583855, 267.17804502215597 -63.48255785257208, 260.03346044771365 -69.06707822521427 M344.20092953678477 -7.006517677240282 C330.36963270160015 -11.247383868063226, 327.2132191820841 -25.120973880920225, 315.69519327533726 -30.05825364158099 M342.9552385130178 -9.757925933830649 C330.8784152818492 -17.022262561010052, 319.5077211379937 -29.080654301692118, 311.460347674315 -34.29026058629697 M344.4197143640763 -17.08490333772974 C343.44545881403263 -20.27318464119556, 331.59098596096123 -25.91138895219708, 323.1020013890509 -38.92475622944099 M345.44984335717027 -15.728277698827554 C338.6122961798296 -21.814345918886026, 325.05264119780145 -33.77202048941901, 320.49555301436226 -38.79425082407457 M352.9315541085046 -23.039471790517723 C349.74096330393206 -23.10467291494937, 339.48295738837913 -30.476806465459738, 327.19412749592857 -42.80641079484002 M351.57488257402593 -18.93111261012689 C344.5619447529276 -28.26928896629471, 331.8720573718156 -36.628117448113755, 325.79784056876497 -42.97267190902011" stroke="#0091e2" stroke-width="1" fill="none"></path><path d="M9.31000089301697 12.01595170023474 C42.22491292491374 11.195296008911008, 166.33037693262344 10.176188079679822, 207.80231279272581 8.767578265106678 C249.2742486528282 7.358968450533535, 251.89139498540007 10.906463832649813, 258.1416160536313 3.5642928127958804 C264.3918371218626 -3.7778782070580528, 244.12599499047258 -22.02444457808467, 245.3036392021133 -35.28544785401692 C246.481283413754 -48.546451129949176, 258.2541831144923 -75.165092652368, 265.20748132347563 -76.00172684279764 C272.16077953245895 -76.83836103322727, 284.1364989662284 -50.51476752323954, 287.023428456013 -40.30525299659476 C289.9103579457976 -30.09573846994998, 276.91900705676557 -14.937184963002506, 282.5290582621835 -14.74463968292894 C288.1391094676015 -14.552094402855372, 308.5949885626999 -36.99376519142582, 320.68373568852076 -39.14998131615336 C332.77248281434163 -41.306197440880894, 352.4744366005494 -33.19416073085139, 355.0615410171088 -27.681936431294158 C357.64864543366826 -22.169712131736926, 346.44606149061116 -12.853668134504215, 336.20636218787735 -6.076635518809973 C325.96666288514353 0.7003970968842683, 317.81850572526247 -8.616057788488309, 293.62334520070596 12.980259262871293 C269.42818467614944 34.57657631423089, 238.45711234804932 102.96937704223743, 191.03539904053838 123.50126678934762 C143.61368573302744 144.03315653645782, 52.46132343974185 153.4063572240797, 9.093065355640316 136.17159774553252 C-34.27519272846122 118.93683826698535, -64.88682066399103 41.279282061289535, -69.1741494640708 20.092709918064532 C-73.46147826415056 -1.0938622251604677, -29.402615109570696 10.759010966290107, -16.630907444838225 9.052164886182528 C-3.8591997801057563 7.345318806074947, 3.380671849341274 9.788668491692434, 7.456096524324025 9.85163343741905 M13.817266598930274 10.078841841394038 C47.691115476288566 9.671986756797905, 172.89129348501802 6.552422054126675, 213.41231669310474 4.785853457039595 C253.93333990119146 3.0192848599525153, 251.69490884277465 6.963873161418464, 256.9434058474505 -0.5205697411284411 C262.19190285212636 -8.005012643675347, 243.89170398201006 -27.51238073850007, 244.90329872115984 -40.12080395824184 C245.91489346030963 -52.7292271779836, 255.4477837021882 -75.69779065328584, 263.01297428234915 -76.17110905957902 C270.5781648625101 -76.64442746587221, 286.9112966615572 -53.90854964045733, 290.2944422021256 -42.96071439600096 C293.677587742694 -32.01287915154459, 277.42242683734776 -11.000956480130261, 283.3118475257598 -10.484097592840811 C289.2012682141718 -9.967238705551361, 314.2000852889684 -36.4896914832194, 325.63096633259784 -39.85956107226426 C337.06184737622726 -43.229430661309124, 349.76307209908305 -37.36334434654583, 351.8971337875363 -30.70331512710996 C354.03119547598953 -24.043285907674086, 348.1837483041345 -7.346825881147042, 338.4353364633173 0.10061424435097077 C328.6869246225001 7.548054369848984, 318.52091752931267 -6.46919781427288, 293.40666274263305 13.981325625878123 C268.2924079559534 34.43184906602912, 235.294927700976 102.59427816463858, 187.74980774323973 122.80375488525698 C140.20468778550347 143.01323160587538, 51.07673619937371 152.3690107475149, 8.135942996215487 135.23818594958854 C-34.804850206942746 118.10736115166219, -65.865257590346 41.0437433141279, -69.89495147570968 20.018806097698864 C-73.92464536107335 -1.006131118730174, -29.25347934845872 10.384668935754966, -16.042220315966546 9.088562651014309 C-2.8309612834743714 7.792456366273652, 5.943182554186464 12.022902073861253, 9.372602719243373 12.242168389254921" stroke="#0091e2" stroke-width="2" fill="none"></path></g></g><g transform="translate(43.35002791063175 115.0324647887901) rotate(0 20.86739624663653 20.86739624663653)"><path d="M0 0 C0 0, 0 0, 0 0 M0 0 C0 0, 0 0, 0 0 M-1.5776277891267432 10.509169656455098 C7.199187732819281 4.5455119818987395, 11.209060834922997 2.969599669435003, 9.60780124808563 -2.927342761020386 M1.629797358168255 10.528454733311712 C3.1602483880647534 7.407404671377617, 8.029179357297215 4.662705599861903, 9.95920546795143 -0.2942456190392613 M2.009147636797211 25.525933025120853 C6.893465912689898 15.819472024328455, 13.638778593786391 10.435223550745796, 18.460215157175327 2.84307380525167 M-1.3798842130043294 25.569511254965423 C7.732175262995844 15.021831849593124, 12.867804147702994 7.216038728988282, 22.008031232559944 -0.5271513039082762 M0.10512141314330492 34.6363676020888 C5.61746929512638 25.935376297228842, 18.032815532341672 14.08830233542708, 28.32773795858661 0.934831626830924 M1.1375776099878827 36.329445486703264 C8.76280246364091 27.72060738339934, 17.772635054002297 16.011208978851005, 30.735800930715 0.5425592364057188 M5.29913888558702 43.75337063995826 C20.775166532755417 28.78570002904649, 30.609598101666755 17.13370899115371, 40.83242988042145 -0.8027006051561116 M4.291878600269122 46.29213805971372 C18.03200826725569 30.516951395205552, 33.98104375656265 12.974095857935069, 43.79798248611002 1.387128587899518 M10.812009518359357 43.81039407203373 C19.55168629522587 34.134093586038304, 30.438230086529394 23.4849491757657, 43.96378092306274 9.623657326159368 M12.18688486269539 46.418140516676274 C20.477889421001166 36.459738512630324, 24.80951473942276 30.134787297331574, 40.5436850397529 14.175274076816926 M25.944577485786265 46.897360633847356 C32.04788373597402 42.14153842497187, 35.25856328172921 32.65212278624068, 45.8776179276181 25.429882811185784 M24.420559712217635 45.03541270249808 C30.81465930964275 38.24550793494466, 36.31178534029314 29.59191494695923, 40.15241707337625 24.259447702941365 M36.523088068930825 43.880330502318074 C39.70088373465513 41.46296179562687, 38.443128933641525 38.024571928816144, 43.50991043679949 38.40177209958102 M35.56457116980704 45.71109289795332 C38.62241770323014 42.25351969485178, 40.83972064958812 37.846995957604186, 41.85330044523414 37.7808692487296 M-0.2871575148070029 41.485170273987066 C-0.2871575148070029 41.485170273987066, -0.2871575148070029 41.485170273987066, -0.2871575148070029 41.485170273987066 M-0.2871575148070029 41.485170273987066 C-0.2871575148070029 41.485170273987066, -0.2871575148070029 41.485170273987066, -0.2871575148070029 41.485170273987066 M14.564886427653999 43.75665391652977 C5.248365326820992 37.43387814065794, 7.640011440477865 37.730272714809054, 1.8397331984570218 30.69662172476994 M14.161356827227443 43.57931172630882 C9.32197273852395 37.51983891617239, 3.970389243539404 35.9634196485092, -1.3133424410739951 29.58242592307972 M21.131347802681475 39.40211287994074 C20.552541782676233 34.4062735440515, 9.737784593093227 30.104364403812276, 0.5592088808243822 21.377116762701014 M22.636040394408255 40.41820812333511 C16.053465902936228 35.14469317158251, 11.774655366632967 29.426225876685834, 1.1348436360185694 19.842384741309623 M36.154497001391974 45.42550884657678 C27.56579975951278 34.168301448591016, 17.476987816942334 29.690659209823696, 2.6185411584198643 11.945232152877896 M35.80412734679612 40.731911850209805 C25.501414615487775 31.136212101050177, 15.532689751892452 21.68956015516984, 0.3892006423890759 11.449182830689995 M47.11676004215268 42.06361394072123 C33.42131974355598 29.344067803799504, 22.89007354350439 16.084304437788553, -3.4515767447933623 -0.24624236972479424 M43.1083267374256 38.979561459963996 C31.347304662635004 28.055988837267442, 20.81075329577199 19.229825727850994, 0.6820533297672801 -1.7889132529631098 M44.523570849876954 24.697945082181047 C37.89329676183857 16.521442210498222, 21.510928608987506 9.102814574004341, 15.478234441221826 0.25794278148156913 M44.24962913183506 29.257273481779645 C31.46757725458368 16.96114395204396, 21.733458057971898 5.628369672483327, 10.814900108815305 0.44638318631393226 M42.351051213265286 17.4723976836018 C39.30032204544151 15.058995939814112, 30.249916282142834 3.7766450245146004, 24.772562839151078 -1.627535763601129 M43.813775459349976 16.634480437677325 C39.99065975344048 11.10192847579146, 32.91325831299028 5.090241766640942, 25.4885107428438 -2.1062766122019934 M46.084048014839794 7.430837969570447 C44.07175213158209 2.914088590479532, 42.455498418496745 2.4930915465325114, 37.73677106217567 -0.6740650358650202 M43.821671128978636 6.236180565594722 C42.6725009908767 4.202411369764604, 40.257234314360595 2.7352220747217304, 36.497631523917356 0.8212836970534811" stroke="#0091e2" stroke-width="1" fill="none"></path><path d="M2.4798039346933365 -1.3842684179544449 C19.021817884520182 -0.926740027026315, 31.345951585323593 -1.0253990655700163, 40.62505260853891 -0.2539760023355484 M-1.4027481749653816 -0.05715375393629074 C9.816562288807912 1.562597831738791, 17.249671275530424 -0.6722103748194366, 41.18668790160541 -1.5567443892359734 M41.00722042470102 -0.6313220411539078 C39.315945425570554 11.200811040763757, 43.98886136108691 18.69003335607986, 43.88876120000009 39.95823491363649 M41.17007298766498 0.42474479228258133 C40.248498651909216 16.091223555323108, 39.992992374824865 31.021564928226915, 41.99168892203693 42.38230535386924 M40.3064514770997 38.28560078888063 C29.0869120692347 39.05599524554452, 19.834062724846266 38.21163918551645, -2.381867989897728 42.5850521400464 M42.45047684012775 40.53389951585655 C25.900979552492448 43.967101146469574, 9.777683131556365 43.860756685028534, 1.7471925541758537 40.46657511590843 M0.9424384981393814 38.18353617935304 C1.2605831576932265 25.943796118387137, 2.332028145943959 9.223449978319671, 0.11331643164157867 -2.102528229355812 M0.652086429297924 42.59882113336448 C0.07454797065853747 31.489307295542076, 2.2196306828319994 23.532816223832953, -0.6214056685566902 0.12697310000658035" stroke="#0091e2" stroke-width="2" fill="none"></path></g><g transform="translate(95.51850393339282 113.11965150958986) rotate(0 20.867396246636645 20.86739624663653)"><path d="M0 0 C0 0, 0 0, 0 0 M0 0 C0 0, 0 0, 0 0 M-0.40847190533768085 11.632836038291035 C0.044639966902977335 9.92034907349192, 5.901457135964875 7.502648997339187, 7.5161172881246925 2.196225964565552 M-1.3391799977887764 13.422505331456243 C2.1626949120263816 9.074069405648705, 6.889152736077964 4.283978109467284, 9.397991783869397 0.56001005723027 M-0.7822151256539609 27.654026744603275 C4.863884203085316 15.852077642216567, 14.51247496339258 7.3630645112291315, 17.487333840036655 0.8890142044215921 M1.8897900881431315 24.017701944052337 C10.588314672690649 15.006704838239123, 16.84718760237565 5.978991864948576, 22.308894498551155 -1.5564386421651122 M0.17423228350463305 34.68719081375872 C10.704373628684333 24.129230825986703, 14.435467771290739 17.99223852764389, 29.234861524260438 -3.303529731811654 M-1.9497427177709064 36.28990424219643 C9.891311976687652 25.410512949185605, 23.281682013694184 9.287590876830116, 33.13865394279996 0.6603055895551329 M3.467004638760848 44.801142093815685 C20.28683299299781 29.312016777517325, 32.81810028592092 14.826337525043897, 43.98283957890778 0.6238550283888102 M2.447173018604083 44.509005506613136 C13.244889635497977 30.501613654034823, 27.618768327719298 16.171924444760165, 40.339934619288734 1.9585492574551822 M10.441911404345685 42.80433251807865 C22.447857675891377 40.30394219485628, 30.282725363272576 25.63318359087594, 45.84575800436157 14.53934870189179 M14.1219034021241 43.69805727998194 C22.81143448317336 35.03986971152537, 35.04408417444821 19.526080839720304, 40.19934566902536 12.56950968777884 M26.524796754585093 46.66168482207978 C31.7960274129356 41.8851736063562, 32.894260558721484 34.150713002439296, 43.104443641729425 25.533928679105706 M25.609911747740096 44.24751940720999 C29.481837729259844 39.4003604179759, 36.329449833329676 31.812521425483236, 42.83389557374246 25.90813888030953 M37.152187914817056 46.758991276549025 C39.13695234487442 42.070032000689366, 40.94740551730405 38.094748152985986, 44.23038601510759 38.878412610140096 M34.93525836844596 45.75285839706831 C37.14585208617375 41.04729263040777, 39.90409623466567 39.571786523970125, 43.25959860578712 35.79937730155552 M-0.2871575148070029 41.485170273987066 C-0.2871575148070029 41.485170273987066, -0.2871575148070029 41.485170273987066, -0.2871575148070029 41.485170273987066 M-0.2871575148070029 41.485170273987066 C-0.2871575148070029 41.485170273987066, -0.2871575148070029 41.485170273987066, -0.2871575148070029 41.485170273987066 M12.534116507304876 45.26182874410546 C9.358453206924032 39.079401612259055, 2.60048701118671 33.47620311312012, 2.0021334441235257 29.51888029258 M13.460114284960598 40.90055396339989 C9.32644683323644 40.05413462074437, 5.6155130741765 36.59440191967341, 0.9022576680263474 31.815292305678597 M26.895649102730303 39.99016753692316 C10.884350209670844 33.600069927825615, 3.4906330015881935 25.91388988136942, -0.20175837381428963 16.726768099370936 M24.338820164305716 43.30048084367203 C16.94368033753765 33.2583862181297, 8.66490284960992 28.45990749315207, -0.20931262924021965 20.075304434302787 M34.1855219342533 41.030042995746705 C30.97045331303551 35.01768737606805, 22.91665215713973 27.33815918370454, 2.1438287865936925 9.104331731735318 M38.19678748778733 40.82957763695297 C21.656236588505788 30.688827498585255, 8.931468475093595 19.561723678446704, -0.30609087677596314 9.03226121508941 M41.652789857826505 34.758846332078654 C31.346047604573435 25.992961929802284, 17.506841225245026 12.095851080919232, -2.276752983807034 -2.3284757986798725 M45.29047662451056 37.53676093811341 C33.06616503069998 25.987608427160396, 18.627059628533466 17.499504954306747, 0.172735931695991 0.9509644478425543 M47.92788679836328 26.43309446572597 C34.177791381102324 16.12745376673508, 21.273737589331603 3.524532947233446, 15.790875585020654 -4.241404905286009 M44.25837814001377 27.58064727633531 C34.34498301063153 21.38189741743951, 26.142675618383077 10.130420632972802, 10.966166206837766 -1.7877991714741537 M47.111934544564114 14.07168280933422 C33.77938314560191 9.109582499215787, 29.887890945198194 4.433861265966289, 21.836302615762406 -1.844778958181207 M44.62373296362244 18.09316917363924 C39.06671185810216 12.196784997340817, 29.949226291417176 5.400387728779522, 25.71246971196001 0.6171215964161707 M45.44941399689546 5.012157778530408 C43.68585611769356 4.325272325350749, 38.54168266253078 0.6673314805355157, 35.513330891887584 -0.35452501206130904 M45.58330881666174 6.249002716778804 C43.189851213720885 4.869146775108696, 40.548099234738444 2.5595296842729454, 36.820762131522336 0.6588433970656882" stroke="#0091e2" stroke-width="1" fill="none"></path><path d="M3.5295056253671646 -3.233957901597023 C6.539787256775766 1.348907331770454, 20.72671988916093 1.553593019789253, 45.001048244525236 1.4313686937093735 M-0.8993092253804207 1.4443816617131233 C11.761679341202417 -1.9154097070020035, 21.907950805734473 -0.5372418393414812, 41.15490956603412 0.4712192490696907 M44.112708248187346 0.3714054673910141 C42.12073535664079 6.71263588482916, 38.86725969059465 15.003924285665743, 38.59007421879892 43.03896535186891 M43.40636105834369 0.2862045243382454 C40.915766677996714 14.450413648111514, 42.655682764193614 28.263251006748064, 43.52674408255939 41.029958933581156 M43.95600668339853 37.96496403961305 C29.78164897910171 39.97704740222626, 15.21851258828146 42.756348568760686, 2.2580436617136 39.76038707046632 M42.39422340690021 41.12442418931846 C32.75959138903473 41.48160632902842, 23.697644612868476 42.01558169180613, 1.2611905857920647 40.66555926202659 M3.7493423372507095 42.23875392227296 C-2.073445131449136 27.595942147523733, 0.37629575523909653 20.51549304367294, -1.5698920339345932 3.74162994325161 M1.215400867164135 42.350051373232645 C-0.6090651986962025 32.8346572239123, -0.8084038732414905 25.982051465705247, -1.7788553908467293 0.8714284375309944" stroke="#0091e2" stroke-width="2" fill="none"></path></g><g transform="translate(150.12146427738526 113.98903514175686) rotate(0 20.867396246636417 20.86739624663653)"><path d="M0 0 C0 0, 0 0, 0 0 M0 0 C0 0, 0 0, 0 0 M-2.304886113749851 9.022581774413167 C3.8635452815763798 11.63413852699679, 5.3567130427280665 7.58991034094051, 13.227688766968381 -0.13691877172442668 M1.1610925742517817 12.879830301224768 C3.014128913866079 6.741623444314979, 7.513275848452507 2.0271836088876074, 10.80243191267265 -0.9105324809357761 M0.9879941569826816 21.42630889797127 C4.762795696351731 18.57000687991679, 16.076375410462056 4.234161517554728, 17.873940026664997 -1.2437510588974234 M-0.8260991124250676 25.330101316510795 C5.4357112566062895 19.462946477471327, 10.407017536198186 14.859259039118506, 21.087243674600387 0.13663843033607037 M1.114679107340006 38.99582417104517 C12.270706041172504 21.73539345021502, 24.593579191239836 9.38759991466058, 29.158862234509385 0.13475469511591243 M-1.9813338798564395 35.352919211426126 C7.712001816286193 28.045807416256352, 14.620380132371537 20.974578784218906, 30.217771494245923 -1.2563685624615069 M0.18825418934182636 48.23819818822372 C18.603900666909077 30.62000571987562, 32.82354615698058 14.356204896910441, 42.53429218582421 -2.207356508733916 M1.9051930053527784 42.59178585288751 C12.891480993580267 32.73189232463321, 22.2513483411661 19.92953981443086, 42.918200062732986 1.4097697549441577 M15.604333554719144 46.083953195311395 C23.72497773549292 35.99743332814073, 36.08550155480028 21.87783740882076, 44.383274568492354 11.001415858921895 M14.170257804308587 45.81340512732443 C22.319513147863105 37.22779845869395, 26.913818634006923 26.693902019680237, 43.91117367731947 14.219298052546868 M22.307316065297908 48.65133224034035 C34.76541069245629 41.25573304385114, 39.52175704910938 27.72521546493766, 41.72394091112144 27.28661950099177 M26.160358988211936 46.886264223394036 C27.29389258602819 39.145157083814595, 34.399865576946716 34.04075277429691, 40.76536097598798 23.674570673880048 M36.36505306032153 44.97242992304437 C35.224851987215196 40.82015236225617, 37.64214023057546 38.47794665533608, 42.58228319071766 35.30697648360993 M35.37028563026937 45.953813875170276 C37.66204468534656 43.00002254335672, 40.66080512007913 38.895566037982015, 42.27205313563879 37.79198777176107 M-0.2871575148070029 41.485170273987066 C-0.2871575148070029 41.485170273987066, -0.2871575148070029 41.485170273987066, -0.2871575148070029 41.485170273987066 M-0.2871575148070029 41.485170273987066 C-0.2871575148070029 41.485170273987066, -0.2871575148070029 41.485170273987066, -0.2871575148070029 41.485170273987066 M13.327298282815189 42.13931440233385 C6.8913017044336975 40.735147852111794, 4.6806408737582 37.28969444493777, -0.6794153196880628 33.27850234340178 M13.351316711662381 42.13289328522181 C8.46327419763567 37.23619527934344, 6.072542965480562 34.008879544930394, -1.3436096789458802 30.55258660930442 M24.72514641026929 43.65469975132631 C13.912611842940215 37.21493779848404, 3.662808057874919 25.314488875885143, 2.857172947091396 18.400559537712077 M26.282801111442595 41.20478008795666 C17.58845393682647 37.11932151206217, 13.438760656879886 33.5661398298579, -1.958471235173409 18.44023743331764 M33.71430951736602 39.135467429693314 C23.60041423669731 31.202585185003443, 16.81270057065003 21.857698449072462, 1.2301448654949834 8.66777637594804 M37.41405573121938 41.58495634519634 C25.561265873269342 31.240103651876446, 12.682468982743398 17.242096773000082, 1.916539400500076 9.618375606773942 M41.01487040205983 41.748797018771846 C26.80364755600433 24.77213082671589, 15.845590097826548 11.02919091685689, -0.7995572738632627 -0.6143611028924425 M43.387126524589334 36.92408764058896 C32.65095201623087 30.415557321598722, 24.30917784995467 19.745656013773285, 1.491315858782821 -1.8773751437797983 M45.057067676764085 25.123275750868867 C36.994831617928895 23.518692396117707, 34.66319266387257 16.79990303460589, 12.04100048655378 1.5377170002792528 M45.26091421334083 28.999442847066472 C33.44614266410075 17.010970776876103, 18.226518139984258 7.128126730005004, 13.06589170658695 -1.9382007786299535 M41.21057781767927 13.68111935112995 C37.05898989600314 10.92670039139552, 33.27050137164723 0.8787455788665159, 27.728710956931764 -1.4017423721349882 M45.494694883049355 16.295981830399455 C38.18746775283336 11.56116400899975, 27.616871623755166 4.3511893692509584, 25.85519686347311 -1.800547714749639 M43.45330020483365 6.603301163106252 C41.363976394983766 3.68966361751081, 39.47832734857148 3.698751263949617, 37.693381250063815 0.8563145128038414 M45.41010261397591 7.412392868935157 C43.05587658192725 4.063973475956066, 40.60230888154055 1.7297797343088535, 38.090697150836625 -0.307839282885503" stroke="#0091e2" stroke-width="1" fill="none"></path><path d="M-2.6264039427042007 -3.144718274474144 C13.942841550593753 2.3833267504013866, 24.330309089790145 -1.3475201314650682, 45.07792962341432 0.5724090486764908 M-0.38363008946180344 1.7919515892863274 C10.51889235672216 0.512432110188881, 23.346898506519405 0.7235777496084367, 42.845399588335795 -1.8849142268300056 M42.25954354553346 2.2580436617136 C39.28992116454177 12.72021297067812, 37.329201579123065 30.0694824993692, 43.05365432052736 40.51405588536386 M42.1030728518856 1.2611905857920647 C40.596406795866535 13.46540368958411, 43.57192573774581 27.162956331950372, 43.60946366189842 41.98677320777301 M41.561073906709 40.16490045933847 C34.289266015061386 38.1983240642672, 18.26048485681222 40.13065467263512, 2.43080173432827 42.96531025319223 M43.13294503091697 39.95593710242633 C31.835734448524434 42.023716716583706, 21.07191772599518 39.979689626511075, 1.646433301270008 40.71667809783344 M2.2054332345724106 44.20245853810434 C-3.900021771574516 35.11134190806181, 2.034186621522408 19.68564581024584, 0.09057794511318207 -3.712011441588402 M1.5587696507573128 41.10460419951801 C0.3720849614387546 26.533324626918564, -1.4692448515647856 13.620911936643338, -0.33851080387830734 -0.25501400977373123" stroke="#0091e2" stroke-width="2" fill="none"></path></g><g transform="translate(204.55052454482166 111.38070911927866) rotate(0 20.867396246636417 20.86739624663653)"><path d="M0 0 C0 0, 0 0, 0 0 M0 0 C0 0, 0 0, 0 0 M-2.5758463493455546 11.101049334227621 C1.5954370276351542 10.229332222380037, 8.06117183701992 1.640853694939681, 12.62750489856018 1.1875692959025264 M-0.0052034309972417425 12.205360925614416 C5.142833213082657 7.972245185420326, 8.523120464507551 4.055627421548094, 11.477505536329877 -0.03164492295237764 M-2.4651165379025723 24.319956091879963 C2.605218274407026 15.783429536609916, 14.931038213237521 6.015329140852497, 18.211448228264118 2.614648332276893 M-1.4062072781660344 22.928832834302543 C6.158379428089355 19.76694789825765, 11.778936687387938 10.472349225353716, 23.184335826242233 0.8718903338700059 M0.41336894956412706 34.05319817159449 C9.385020617874805 27.03141305758752, 25.089586253849433 6.081906640112297, 28.29406941071788 -0.27964254456914617 M0.7972768264729062 37.67032443527256 C11.006582474277604 27.017716201277118, 18.935454080634738 14.66104885579124, 32.37719579920808 0.3142562658771162 M6.1987055061753225 42.73371305791366 C14.775864581166578 32.03866826174292, 29.358602050272953 15.842023060351803, 43.27090927414208 3.03611368322165 M5.726604615002437 45.951595251538635 C19.27488464834692 29.171609427010758, 31.987528432310434 12.82684408624159, 43.652163552265456 2.5613729768374682 M13.380257283662015 47.69827299664196 C22.166174458988447 29.722487650246705, 32.96851539878853 23.468509805033076, 45.6187625064196 9.239667545018087 M12.421677348528558 44.08622416953024 C20.601501711492958 38.356209527774006, 26.004364214146893 31.24877876802194, 41.93500838267225 10.744360136744866 M24.996173143850154 42.47137103581154 C31.796578200744193 39.88500765785337, 31.305159517983277 37.19654020274151, 45.44951063615806 24.262816743728585 M24.43211849825222 46.989573377904534 C32.42441277287739 37.927204906694826, 38.35367537729315 29.21382753530738, 43.49752392841108 23.912447089132733 M36.27870381143542 43.60783694170587 C36.87373003684778 44.39450812352752, 38.01464142422625 41.44705093546876, 43.84762003802295 37.98193275764252 M35.6923417091802 44.52279897973113 C36.81302226121862 41.78031341636677, 40.312912561935285 38.74292664844454, 42.30619341254767 35.777294440042624 M-0.2871575148070029 41.485170273987066 C-0.2871575148070029 41.485170273987066, -0.2871575148070029 41.485170273987066, -0.2871575148070029 41.485170273987066 M-0.2871575148070029 41.485170273987066 C-0.2871575148070029 41.485170273987066, -0.2871575148070029 41.485170273987066, -0.2871575148070029 41.485170273987066 M15.239732622338504 40.45731753229296 C5.125838586005623 39.38368667402037, 1.9204234426763565 36.48568798321264, -1.4609217150280291 28.78329288791167 M11.14643506741342 40.49104374355769 C8.664743478355359 38.31940222705772, 4.672951192299077 34.05596941306364, -1.4293407799819522 30.026608497083657 M25.415346262259035 40.291755148360004 C19.506078891273383 32.86786566525201, 8.481886849100242 31.411920446212378, -0.6698208044344831 22.885179632011393 M26.101740797264128 41.242354379185905 C16.096291857646964 33.29003465063827, 6.609702983915206 24.350669758464193, 1.3540750180309367 18.360425860289077 M35.46099740646514 41.50656213336763 C23.64028381684164 36.35906221857748, 15.260322693165634 20.831833652564093, -2.4444624114215205 7.699912339387982 M37.75187053911122 40.243548092480275 C21.586951967904913 29.461826716005696, 10.274525988026973 18.98163550260844, -0.9234259429752658 9.651280708550065 M44.52800726576832 40.37834509158679 C32.05939409854315 27.474173046948223, 12.524043036236002 12.750975483478136, 2.9319328613296083 2.1459547921881237 M45.55289848580149 36.90242731267758 C32.87760386836043 26.647407675927784, 16.29558650192014 13.04670080982693, -1.3639540501222083 -0.6111478984489878 M48.140364452581956 26.941941255324434 C37.82706279854483 20.76981037950951, 26.55051236549275 10.91454611611534, 10.826048971356027 2.6131268895004442 M46.2668503591233 26.543135912709783 C34.393194568403295 18.47680667945795, 23.888168534875042 6.507013208055017, 12.535649263502233 -1.2711709209944555 M45.76149544310652 19.025816349726142 C40.7443609531214 14.962380333612991, 31.624141686378216 10.533598866056817, 28.308528728843385 2.981925573726828 M46.55612724465214 16.697508758347453 C38.18038332548619 12.059166590903436, 30.89360668861547 8.143213627986242, 22.693438917458707 0.9816402239405466 M44.95817491110196 8.41024744072466 C40.92481061399341 5.863675285047547, 39.69687625141454 1.954213975794057, 35.29815524832431 0.9019845453050626 M44.927795418312456 5.9617509984365 C42.886193394190315 4.950758489552836, 38.55181441041866 2.1557451884033805, 37.31735144198958 -0.4785510386380666" stroke="#0091e2" stroke-width="1" fill="none"></path><path d="M1.3188618272542953 -1.2207366079092026 C11.710000526562032 -0.24389884825088137, 23.246509709268206 0.8240518773045385, 44.25717366485719 -2.138466462492943 M1.8746711686253548 0.2519807144999504 C9.883860058624219 -1.1058579142490328, 21.631520933486364 0.6153127495845854, 40.949846476305765 1.870814971625805 M44.16559422760133 1.2305177599191666 C39.82804127910315 7.926069809096074, 39.42936393001257 19.947198640499543, 38.1770817115796 43.47764936833505 M43.38122579454307 -1.0181143954396248 C40.70128268766754 15.483320979478227, 42.20901293325775 29.1572951117203, 42.9686255156887 40.08861751853351 M41.825370438386244 38.02278105168466 C27.605418414088504 40.22352552126473, 10.643141560689198 44.25738811205453, -1.260376587510109 42.096536792804045 M41.396281689394755 41.47977848349933 C29.771194461915364 42.27404077717295, 21.64873937554926 42.60429652401438, -1.9462328478693962 43.12899298964862 M-3.6808134466409683 45.188909687091154 C-1.9924426176705867 31.649640495256943, 2.669823636754462 16.526768398149294, -3.080245152115822 1.4862622171640396 M-0.5242529436945915 43.52094741164569 C-1.0942078586539328 29.168760134523936, 0.7480408195534648 16.498388958476397, -1.8864229246973991 0.4790019318461418" stroke="#0091e2" stroke-width="2" fill="none"></path></g><g transform="translate(256.19727115023716 112.0762510502102) rotate(0 20.867396246636417 20.86739624663653)"><path d="M0 0 C0 0, 0 0, 0 0 M0 0 C0 0, 0 0, 0 0 M-0.5692537656892434 13.731655008017599 C-0.20847874940442024 7.011482832728063, 7.130266804226919 4.964021713965868, 13.48726902152313 -1.1384511594578863 M1.3422119089495053 13.291235495030463 C1.093788601184439 10.84845926151246, 5.567618974446978 7.670847717574777, 11.642323143732678 0.6790820176794887 M4.053794853594086 26.691735027073978 C3.4417519231266267 12.992451750073588, 13.73077122657368 9.613415583627054, 19.812479561472202 -2.001866380295205 M1.813856631722233 22.63382705086386 C8.387918509986534 15.880889878426434, 15.301385583429388 7.640104645007298, 23.055775983536506 -0.8402769142598387 M1.90269831744018 37.47111491654192 C12.377802787374108 25.163935388933574, 25.591977869279905 12.51449215153108, 28.151682050383485 -1.459913246215951 M-0.3498338890355548 37.4889761263517 C10.83109239995925 23.623644079436914, 26.550663794101837 9.051496749528852, 32.993018337941564 -1.3159765301958437 M0.8183954773838948 41.78831326691139 C17.76172426322644 35.76820882249077, 21.885666401651783 16.987128752687664, 44.096803659718326 -2.2160001657029866 M4.3889397574956845 43.53125854311216 C14.277190115468144 34.00937042676271, 19.983790319251185 22.47115222247383, 40.030297549586585 -0.5324423349520444 M13.021695797656232 43.576782011486856 C24.256377415156123 37.8027573207122, 31.517112885091773 27.961907146071354, 42.63733438985962 12.723053078112493 M14.634043676171952 45.22122584382471 C21.773765124997965 36.39874433456399, 29.34875743904049 24.26164062620859, 42.016722759479464 11.179042997715364 M26.81344345258314 43.92644388580048 C31.79176105545374 40.69702872912833, 39.55329039890679 34.29858836879963, 42.92910108191497 25.57322387563891 M24.483441181944197 44.386837873396516 C31.443876148929334 38.17922736179965, 35.56621496859311 31.4447801825549, 40.63180244935281 24.670931467589803 M33.49632567879411 45.43299621276729 C38.108619237254395 42.77400535567147, 38.942202726656504 38.55912625515437, 44.27889999978777 35.49696710690523 M35.25889718909415 45.92236990600996 C36.85616245633778 43.42692826386666, 38.223638381808875 41.8034723675268, 41.71654736295875 36.57283473334874 M-0.2871575148070029 41.485170273987066 C-0.2871575148070029 41.485170273987066, -0.2871575148070029 41.485170273987066, -0.2871575148070029 41.485170273987066 M-0.2871575148070029 41.485170273987066 C-0.2871575148070029 41.485170273987066, -0.2871575148070029 41.485170273987066, -0.2871575148070029 41.485170273987066 M10.02495570255634 40.36062272756493 C9.87056037502547 38.29228435551375, 6.60422843783407 36.659205095314576, 1.8378395827343659 27.689897176430097 M12.03958634993252 41.796602223135 C6.100937018463023 39.31812377269273, 1.3042138095298117 33.30956336859234, -0.3849908480564168 30.042172474593393 M28.32443251947835 40.79447738189386 C14.865521241947118 32.829292865315864, 8.486508205429937 32.14351200650808, 0.8099107851212572 19.00873907715414 M23.818062489134817 41.80674266923355 C16.072390886801927 32.38964950516933, 6.4373399362054755 26.816655950582547, 1.295869636995132 20.72847788095806 M38.85051140568885 40.73681866102991 C26.57382116259631 35.733316275982936, 17.65349536882195 24.314724111630415, -2.9090772497832607 12.277049779831021 M36.429997097772684 40.09066123985824 C23.12272029254559 29.925767916774472, 12.55213007099259 21.344700180542887, 1.8846992996156384 8.664865814088433 M47.28445413394955 40.82511906767436 C29.365005831635525 22.763715579134924, 14.026613266694305 11.782283300631068, -1.7887654654964873 1.3170205697283308 M45.44366914465216 40.292900693362434 C27.43084038004646 24.47444656452972, 11.399533352141596 9.259528621136482, 0.27764964324384256 1.2407345741853277 M47.13169462917383 25.44089552163417 C36.64620960212446 22.674029594915403, 27.12376035299535 9.265996620125662, 16.3002254080187 -1.4160989665653059 M45.06006919531162 26.009577558928083 C33.798693563466415 14.916487099497587, 21.34650126426866 5.542320284494746, 11.776219078541867 0.27437085721236976 M47.36835468006216 15.728043435554923 C36.72633055978595 7.418546995451372, 33.845650182958224 8.222060302453231, 27.722483493447953 1.992367800851996 M46.36493817907654 15.810124358575763 C39.226490106480135 12.063728398711287, 31.310335583383086 5.035442516550642, 25.581177368820363 -0.9955740975535559 M43.28166459198823 5.58063350179701 C39.990763475587784 3.8387617741660036, 37.28958998763407 1.7160866404603157, 35.26007123307411 -1.451515597388458 M44.85042631696692 7.277859947918941 C43.45483487236641 3.944808880707445, 41.480854660809676 2.880367317197471, 36.24245116503064 -0.9898201237473006" stroke="#0091e2" stroke-width="1" fill="none"></path><path d="M-0.6493769735097885 -2.07588829100132 C17.852967972631703 -3.207720528552999, 31.85618266974976 1.7942063704033, 43.49098888783578 -2.6438380628824234 M1.4560317322611809 0.10774797946214676 C17.05883197439404 1.818112716126807, 30.26605573947612 2.0720740408185794, 43.05572171508197 -1.4255340620875359 M40.81846920399789 0.15850339829921722 C44.07773165855095 11.354567454065954, 41.32193665656731 22.98897074323113, 38.413877166796965 41.83106816558961 M42.25395055114154 0.27861136943101883 C42.47777673017513 9.867820992282912, 43.02256342184078 23.080268224998086, 40.97644539176349 43.56185552476768 M43.026879943896574 44.088121540833754 C30.60125918249689 38.17273226511483, 25.861078484573763 40.616462142586755, 2.771177664399147 41.251830704499525 M41.02507705985431 43.061105936754984 C28.784564452109294 39.633045068963305, 19.360877711063498 43.421720138772265, -0.38670331984758377 43.178840130556864 M1.5407966524362564 41.530002243806166 C2.5965844957693687 27.92396398850041, -2.948181453479899 8.618569654093093, -2.1369582265615463 -1.110554352402687 M-1.5169656947255135 40.28374239801292 C0.8178673175402017 27.437109462595032, -1.1430070015363363 17.10287429329043, 0.3916711136698723 -1.6436720415949821" stroke="#0091e2" stroke-width="2" fill="none"></path></g><g transform="translate(94.04033868878219 62.5163053635456) rotate(0 20.86739624663653 20.86739624663653)"><path d="M0 0 C0 0, 0 0, 0 0 M0 0 C0 0, 0 0, 0 0 M3.2445737251173368 14.99846373242098 C5.495046958512565 5.921274837782713, 6.875456470760163 5.9398746263704725, 8.763379074585568 -2.4300797824666143 M-1.2340230873693123 11.051728189408362 C3.281998874547025 7.880469212847499, 3.76318269123047 5.357226922547563, 10.996232266676557 0.4263556416228176 M-3.560166395995834 21.168256072043537 C1.70579357068552 15.588090656923278, 11.349845281185209 9.073811965276839, 24.24216130962398 -0.8342013457626578 M0.048475548829815196 25.923574750959038 C5.9377260757486745 17.44662020166557, 11.126311556221037 13.008411814613192, 22.38741648038652 0.7781465327530626 M-1.8286230472010097 34.85752232167994 C9.558944883257988 22.18106152441245, 21.582377987998914 11.232494556450323, 31.94053566590587 2.292961634813178 M0.8730381446796933 38.74491559509312 C8.71457561098364 26.819983575665184, 18.209028777406026 15.408401218746722, 29.999694788313306 -0.03704063582576467 M0.31465418323831074 45.692303565420985 C10.709441656136562 32.68101160738803, 23.391118389831266 23.962658281084103, 42.56926151565819 -2.2028360924741506 M3.663190518170161 42.889727060773254 C17.304000836386304 29.292938289017506, 26.36296700771137 16.154785518727817, 43.41820197008162 1.0018393807986499 M12.640279447053128 48.22812204907116 C22.491823610043205 31.918043281821028, 38.41815548581051 18.363292342731828, 38.88638354676384 14.57490600174416 M12.56820893040722 45.31221303442892 C21.02337649253637 37.97860227481581, 26.887745060692836 25.953181997, 42.17808232294935 12.16653125262011 M22.467651606069392 44.20822082066262 C32.6283444431236 38.544373918228224, 36.49687152435969 31.160325415476386, 44.28503328783042 21.776735620376535 M25.74709185259182 46.06836070471728 C29.975164055604836 38.115737116225276, 34.7131170462848 34.21924780184, 42.660504484899114 24.14688932317204 M32.99606597688647 44.596925429330994 C37.19983989623182 41.478425412059785, 38.73600481700319 40.01378055069161, 40.70343892954823 38.81564557388092 M34.34554913048299 45.698232686968375 C37.45987757133096 42.54168556347606, 39.74823240752693 39.78582278263956, 41.280516709094606 36.33714205719198 M-0.2871575148070029 41.485170273987066 C-0.2871575148070029 41.485170273987066, -0.2871575148070029 41.485170273987066, -0.2871575148070029 41.485170273987066 M-0.2871575148070029 41.485170273987066 C-0.2871575148070029 41.485170273987066, -0.2871575148070029 41.485170273987066, -0.2871575148070029 41.485170273987066 M12.113980220986575 42.463151873342156 C12.503191917408497 36.66929660236019, 9.948113552693382 36.29763597706555, 2.7410739915302 32.918044160113205 M13.83670651650247 42.98416272110438 C6.879488458861403 38.58781317446188, 4.357242710084485 32.84302913793009, 0.41828464249577046 31.353376919210426 M23.031478044790774 40.58902973789858 C14.80899433407938 36.534213538863405, 5.967868472190247 26.630525094739053, 1.0486364175503802 22.533742063346843 M26.362942178947478 41.6942496161549 C20.16394612574056 36.6351513010564, 13.90061988213355 31.443211579074866, -0.6871070231372762 20.462116629484633 M39.844249550325 41.47079839282808 C27.12804717485483 35.90443139748037, 20.91581691634785 31.487122695589573, -2.9461895156085323 12.830866128145306 M37.61461916200551 42.98232382261333 C28.810703035469587 33.977034651381466, 17.848662310837458 23.31327098846268, 2.310279100817459 11.827449627159684 M43.43326258345631 35.95778520846911 C36.35461492599977 28.548997016138046, 26.961370372619104 16.668654118335905, -3.5038457565292784 -3.323707874132677 M43.13194044365672 38.8367749422247 C32.21594318411286 27.085865890480804, 22.14853278189107 20.23554887915142, 1.7437591723814538 -0.18618442417530617 M48.60375575659807 27.303577417128633 C28.014425351592855 12.866443905987943, 19.160414386853105 4.952229349916003, 11.023601652325265 2.6785899556015185 M44.786306745689465 27.222371847920964 C33.944544168681254 19.108376504858526, 22.204964972642 7.665584765335954, 12.725866758466832 0.7175285151932886 M47.10040554595076 17.555390743952216 C37.02930074003101 12.628901319312392, 32.304589473829395 9.587746544985048, 20.988045521140748 -4.062993440250223 M43.84949415367924 16.811574405472697 C41.53308088568342 12.443369778435024, 36.01598945506359 8.79580687862307, 25.284031778634244 -0.5103579717076467 M44.364705768188145 5.061249847798635 C41.40161525860506 4.704299820496055, 38.74685455636977 1.576788019221109, 37.94383710638706 -1.3890449079725262 M43.932869680931475 5.901481881081153 C42.634942941634336 5.50729939960915, 41.07112331470259 2.368951719881945, 37.27645860255782 -0.416803249255132" stroke="#0091e2" stroke-width="1" fill="none"></path><path d="M0.9580038636922836 3.8045042902231216 C14.514701925524575 3.6753899677355966, 33.82321578325531 0.6592647655566413, 45.602156765748305 1.5407966524362564 M-1.4874489828944206 -0.6498532965779305 C11.238286670547483 -0.9929561256336755, 24.828959152602668 -1.5327260135578697, 42.71796008943443 -1.5169656947255135 M38.534747250367445 2.616079702973366 C42.66873542782452 6.205129933640645, 38.49915353771832 17.810186634034487, 38.82727111129884 44.770163215686125 M42.49858257173423 0.9108773991465569 C42.24182004952065 14.714000556431358, 41.10594983124367 26.03976012729038, 43.6083059012783 42.100510314096255 M41.74191725998048 41.654406227160734 C25.62330397416976 44.30712586480284, 7.4313111717574785 42.41511565285826, -3.9563480764627457 40.856793560076994 M43.076611489046854 40.679537489999575 C28.794934126632377 40.40862891263632, 10.611103749081181 39.945717545219935, 1.132885403931141 43.24612565337543 M1.881759986281395 44.171090282489104 C3.286947582696906 27.736782716783104, 1.4263561711063297 7.3468019333036665, -1.4924947172403336 3.787504091858864 M-0.08807902783155441 42.07204003631 C0.07231775423079345 25.524702269549856, 1.8500675310710033 12.040528260113934, 0.8093792870640755 1.547565869987011" stroke="#0091e2" stroke-width="2" fill="none"></path></g><g transform="translate(148.81722829700402 63.21187648213322) rotate(0 20.867396246636417 20.86739624663653)"><path d="M0 0 C0 0, 0 0, 0 0 M0 0 C0 0, 0 0, 0 0 M3.0907506593595855 13.80525654000002 C0.5727204795407121 8.525682906972454, 7.178698773418898 3.9985649764938405, 8.234504891884459 -2.115752947787964 M-0.8559848836530342 12.933859777867376 C2.845491677907058 6.452871607029169, 7.22356451741667 3.236006755533996, 11.09094031597389 -0.7213967268273471 M-2.647170074079254 20.41371130728638 C5.53888355462244 16.37053240838612, 12.788852873580554 10.08131681635432, 20.494968002939487 -1.6023083129734275 M2.1081486048362468 24.401661237417816 C6.813254045449094 16.187765710021576, 15.609491766797818 9.34508108049863, 22.107315881455207 0.04213551936442883 M-2.276385506717535 36.9158389994887 C6.123354809402363 28.046679330260808, 16.31706480600643 14.535059294157708, 34.286715657866395 -1.2526464386597986 M1.6110077666956464 37.27653992716347 C9.938118800214841 25.850220387938585, 18.848182207679365 10.949351874950917, 31.956713387227452 -0.7922524510637636 M5.115294319241805 41.39230859009254 C16.055947980367954 30.448329755878397, 31.293957129895656 17.387968269234015, 39.04473399571686 1.3292488195875407 M2.312717814594073 46.22185273943174 C15.921323986843035 27.94220218599815, 29.99696763965518 15.396067859327683, 42.24940946898966 2.219019170937848 M16.904928868029767 43.12032201240238 C21.4799715861701 38.60671055631639, 28.84809063372524 22.403883050653416, 43.91476301687378 11.480307678637395 M13.989019853387529 45.276276216902104 C26.37280265924834 31.302950819388727, 34.03634800154971 20.537284266374876, 41.50638826774973 12.822792711613069 M23.5496123139723 47.53355200195038 C28.24249438035914 41.466210062196375, 31.18046425797548 38.106452295712245, 39.20887956244476 22.760257528898187 M25.40975219802696 46.34589520448172 C28.630898412864088 39.43985662986213, 35.904001451474805 31.464684690340494, 41.57903326524026 24.44964517074532 M34.60290159699174 44.95914353065364 C35.324842554311736 42.86161318228026, 37.719197247352675 40.22930172105187, 44.34007644288774 36.14505198582674 M35.70420885462912 45.36177694469862 C36.463656043396675 43.89189015393197, 37.60854910808964 40.38948202199434, 41.861572926198804 36.70179789386357 M-0.2871575148070029 41.485170273987066 C-0.2871575148070029 41.485170273987066, -0.2871575148070029 41.485170273987066, -0.2871575148070029 41.485170273987066 M-0.2871575148070029 41.485170273987066 C-0.2871575148070029 41.485170273987066, -0.2871575148070029 41.485170273987066, -0.2871575148070029 41.485170273987066 M12.963478470576971 44.59315785139 C7.299518626789796 42.44982300407876, 6.6515937731990125 40.3444402407713, 1.7413113863995267 32.97733189742314 M13.484489318339199 41.10779018185234 C9.013318797007488 39.696161025765235, 3.008518678342341 35.46903731861412, 0.17664414549674512 32.524946279258 M23.26336016993001 41.771092333981265 C21.90126937252933 37.571949000983764, 14.767224200694558 32.91665488112742, 1.9526043047135424 17.967623316350917 M24.36858004818633 43.839835644850005 C14.56969056255104 36.17877650138412, 5.545146590511312 26.164593905230475, -0.11902112914866692 18.536305353644828 M36.319132659656134 40.553368915851685 C25.16449955699745 30.96961277278624, 13.995649597975053 15.480869499150778, 2.9439739358246495 8.910830259262173 M37.830658089441386 43.39739007973251 C28.902535202893933 34.10889172925001, 17.02342383067365 27.355701124615756, 1.940557434839027 8.992911182283013 M42.48687055393246 40.66812806273051 C29.073096536187805 28.477260878715043, 11.371707532678496 8.10186897248029, -2.615005051372952 -2.094029273106142 M45.36586028768805 36.381566178744514 C34.47644338988524 29.15607941364089, 28.56104542646057 23.296034429117686, 0.5225183985844187 1.3004236191377203 M44.428257777672364 23.8406366944247 C29.261416734839507 17.148732486792447, 19.62611845307422 5.140081618646995, 15.561296613157861 1.7520443058345965 M44.347052208464696 27.966605471067975 C38.44616789666669 21.45521818498667, 29.778491162284517 15.37632122362958, 13.600235172749631 -0.6447456398274252 M45.27566611957632 15.558540223579826 C37.42612369766937 10.376807939844905, 31.907894049065764 0.5389725747233651, 20.99371705210274 -2.2925223740137266 M44.5318497810968 18.800065478723468 C40.70471150356963 14.485662086443817, 37.178342043702536 9.989490593827052, 24.546352520645314 -1.0258203553355383 M43.377120238503124 5.320146422176649 C41.88681098609793 2.2193229260474916, 37.6838998402272 2.0711475076746, 35.94031997040931 -1.1647156897041315 M44.21735227178564 6.1606250026217 C43.5868315151236 4.522008291640961, 39.97915102882102 2.740333067883659, 36.91256162912671 -0.08760774238438529" stroke="#0091e2" stroke-width="1" fill="none"></path><path d="M3.8045042902231216 -0.7734066396951675 C12.228822443801894 3.047088190521062, 18.55342441085723 3.667453810180486, 43.27558914570932 -0.20479024946689606 M-0.6498532965779305 -1.0684791132807732 C14.646483247401251 0.8362113314004427, 29.308473783079652 1.6039513426156526, 40.21782679854755 -1.4510500952601433 M44.35087219624643 0.7833422273397446 C37.893333898695104 9.887201621274048, 40.00591658225834 23.63936118610679, 44.770163215686125 42.114934094239516 M42.64566989241962 0.9629342034459114 C44.052737673332224 10.067968497159235, 42.461431225349436 22.35532243198584, 42.100510314096255 43.299721449602885 M41.654406227160734 41.409340985108656 C29.91382903741176 39.00487194693575, 14.070605973639346 37.7799311701108, -0.8779989331960678 43.8482881858838 M40.679537489999575 43.52052947877769 C32.12340481031634 40.62229982689332, 22.739078466082315 43.427683270725716, 1.5113331601023674 43.29776379464988 M2.4362977892160416 44.26537574081544 C0.9808995473425283 33.66616825701557, -3.6271293413598644 22.76506563161414, 3.787504091858864 2.6100181192159653 M0.3372475430369377 41.010942429293436 C-0.21600503093423296 34.24909354920382, 1.5434728228407915 25.464974466477493, 1.547565869987011 -1.447889856994152" stroke="#0091e2" stroke-width="2" fill="none"></path></g><g transform="translate(204.2896890238094 63.21181810681901) rotate(0 20.867396246636417 20.86739624663653)"><path d="M0 0 C0 0, 0 0, 0 0 M0 0 C0 0, 0 0, 0 0 M1.8975434669386253 10.100871187865316 C3.660441118898782 9.21529997972809, 6.206488885535884 0.047117187086578305, 8.548831726563108 2.754883825321472 M1.026146704805981 10.907766282975256 C3.346726666685468 6.635719855058797, 8.904455563304202 3.1998485523244056, 9.943187947523725 0.9240258152678371 M-3.4017148388364102 21.783371714591144 C7.540151337556859 14.613489807488818, 16.175583683558305 9.282696254201648, 19.726861035728717 1.1062774559646371 M0.5862350912950252 24.114449089109062 C8.374108218819094 16.359938601349704, 17.526316215154093 6.044038991951258, 21.371304868066574 0.05450823662574322 M-0.21806882890877333 33.92019350621973 C14.114548805548326 20.974235360777104, 23.766711795941863 12.354892132957232, 30.74110758439342 0.7000389472826605 M0.14263209876599703 37.31467329505955 C12.457283651677379 21.577863748110282, 21.351992655701974 8.830042628469865, 31.201501571989454 0.37821419548832225 M0.8152993439133596 44.33485451070297 C15.71991518294669 33.69227746975281, 28.408068912365774 14.720727690236743, 42.57681890777855 2.6000389494875193 M5.644843493252559 43.26048726318109 C14.370886551758272 31.151525368457303, 28.821881196711235 18.43919230469252, 43.46658925912886 0.704668980179143 M11.79712883136099 44.50475197384533 C26.904644421844438 31.66616767751271, 30.298624132848573 24.228219377175066, 40.82016469376701 16.124652991948018 M13.953083035860711 46.570157379903165 C20.097966656927525 34.61999320252079, 29.398812250325477 27.265351566562984, 42.162649726742686 11.21967976069201 M26.874943495260066 44.595003943678975 C29.64157850664371 38.7838351956379, 35.089836647234286 32.65989726328824, 40.19240147096641 26.34630377757258 M25.687286697791404 43.21373333388293 C30.873604634456903 38.31381594228952, 35.026217136868695 32.441489091552285, 41.88178911281354 22.777163380560346 M34.96511969831439 43.98911247633569 C37.36295668337309 41.74043693215496, 39.205779118412515 40.74571574270453, 41.66948285483356 35.12196302249695 M35.36775311235937 44.7066418413835 C37.450227776588584 42.22320921570676, 37.486339676714444 40.73743555630166, 42.22622876287039 36.80368986822332 M-0.2871575148070029 41.485170273987066 C-0.2871575148070029 41.485170273987066, -0.2871575148070029 41.485170273987066, -0.2871575148070029 41.485170273987066 M-0.2871575148070029 41.485170273987066 C-0.2871575148070029 41.485170273987066, -0.2871575148070029 41.485170273987066, -0.2871575148070029 41.485170273987066 M15.09348444862482 39.31172419904864 C12.591479486281347 38.998049498271776, 10.071781619597017 39.302380999705264, 1.8005991237094592 32.055699585184925 M11.608116779087155 42.72894794649577 C10.207787698454927 38.25826874281195, 6.366747726065439 36.823134540441785, 1.3482135055443243 29.74952513593482 M24.445422766012697 45.114667841383685 C18.009250494152866 36.99861896651851, 10.763620888887527 30.675894530753993, -2.6135144422823835 22.849587076011638 M26.514166076881438 41.42302678633617 C16.026104723679186 32.85491306050372, 4.029282082347944 24.858343326970683, -2.0448324049884725 21.700209290388564 M35.40170318267974 43.315085788305375 C28.72992540505179 38.89461402815546, 17.254955698897184 30.787769257323948, -0.9760619330584834 8.859403401552289 M38.245724346560564 43.06068747961101 C29.204610783523393 34.7966058466236, 23.39255894066637 30.88384141891665, -0.8939810100376437 10.98763854050502 M47.19721340819386 37.628046114688594 C34.78668408684384 22.35743348308469, 13.598921369947039 10.776116668081425, -1.385326450346417 -4.278279121233507 M42.910651524207864 36.99934422666379 C31.40571426756175 28.545200076250097, 19.829994913347836 15.181736333186041, 2.009126441897445 1.357282382236437 M40.96531705496843 24.229011052840303 C36.9550490416702 20.924940568724935, 28.7748124924246 18.509024681957147, 14.634750963390939 -3.533015593257124 M45.09128583161171 28.867828400426458 C33.695855766184835 17.56077800852765, 22.710691264913116 9.233781110620932, 12.237961017728917 1.019517355296438 M43.27881559920393 17.587071327906074 C37.021460802079 13.441250238337705, 26.548323875254173 0.998123171537669, 22.764188118339234 -3.8836840721166777 M46.52034085434757 17.252662366669597 C41.45357392591782 13.79969112587902, 35.84738418976578 8.47535472772191, 24.030890137017423 1.089459542711909 M43.63601681288114 6.516688223271657 C40.708215403365614 3.0257159011692387, 40.678148224735494 0.8617456291664145, 36.16464918867771 -0.5690206560346596 M44.47649539332619 7.258244886337806 C43.25034702640553 4.238781358601301, 41.649468293721156 3.2099470835363544, 37.24175713599745 0.5087044154253493" stroke="#0091e2" stroke-width="1" fill="none"></path><path d="M-0.7734066396951675 2.888095274567604 C11.830962934957777 -0.9219309130724965, 21.035292836759158 0.7468956669751109, 41.530002243806166 2.5698679834604263 M-1.0684791132807732 -0.5552771762013435 C14.924260080089734 -0.8238321392880442, 30.400832586448523 -1.2457507698880197, 40.28374239801292 0.3608516976237297 M42.51813472061281 -3.2873440831899643 C37.68078670959785 8.575103791415229, 38.15950499039008 22.535101104496984, 42.114934094239516 39.55001274495248 M42.69772669671897 1.79693453758955 C41.88062268277197 15.331119049936746, 43.927072105608275 30.61669974148316, 43.299721449602885 42.420443490136904 M41.409340985108656 43.86504188923959 C24.272527567837095 41.956257156617475, 8.316729165213967 40.84001903939946, 2.1134956926107407 38.28537050633554 M43.52052947877769 41.044819787133974 C30.722811077878184 40.14149993382652, 24.18871114621696 42.80571716748436, 1.5629713013768196 39.922481253732485 M2.5305832475423813 43.51873461156015 C0.2773175232038133 22.375055120153046, -1.8851690299883255 12.450995379722507, 2.6100181192159653 -3.8153673261404037 M-0.7238500639796257 40.768354132760805 C1.0906593123561756 33.75956088644403, 0.846138886559667 25.745816163076473, -1.447889856994152 0.9087130352854729" stroke="#0091e2" stroke-width="2" fill="none"></path></g><g transform="translate(202.46372362607462 10) rotate(0 20.867396246636417 20.86739624663653)"><path d="M0 0 C0 0, 0 0, 0 0 M0 0 C0 0, 0 0, 0 0 M-1.6738924614061013 10.117174059569418 C2.81541570942358 10.802570178293939, 7.071511410557502 7.347759512998193, 10.770791794312132 1.389314138431823 M-0.10899409567009344 13.326186502396643 C2.063297981852291 7.624409041156591, 6.408178383545691 5.121463980707628, 12.016915555250776 -0.5706215922639011 M3.186404191162369 20.877068785666584 C1.6668784686581937 18.634512969645694, 9.27317541978332 12.830057365352877, 18.384361779594684 -2.675315389952111 M0.025989815797588633 24.51475555235064 C4.854496858829076 18.83266869552037, 9.460290769346983 10.718092730677204, 22.084107993448043 -0.22582647444908588 M-3.9803678897303065 39.982228589990484 C9.893068404651672 23.97512635729417, 21.837109040361458 8.864068838683025, 28.047701956189073 3.316959895311225 M-1.2129851860087832 36.31271993164097 C6.42216146791172 27.83620823256043, 15.074428400571994 21.067851061401065, 30.41995807871858 -1.507749482871663 M2.596625161021514 46.71337213841903 C9.282051888703123 30.252428629848403, 19.804781496419302 23.351119761967364, 42.098424876253894 -1.9582567772886037 M4.316363964825435 44.225170557477355 C14.72187580563389 33.534762245780016, 25.101566571014644 19.61987384185198, 42.30227141283064 1.9179103189090014 M15.812997495148831 46.50102167675671 C21.118760793391232 36.104974645892085, 33.89436233342949 18.700748198210167, 38.41957522767204 9.270535121617208 M12.200813529406243 46.76881131628927 C21.457769642559843 37.123450471485015, 31.185332577894272 27.21095443409157, 42.703692293042124 11.885397600886712 M26.113147974477595 47.963420253035665 C28.57087778033284 39.29893286563356, 38.751724687911725 33.78168269126601, 39.529284539051126 25.02888329493708 M26.036861978934592 45.56212939673388 C30.16877470571031 40.44725414350874, 34.9862685787705 33.27623777807631, 43.44288935733564 26.64706670659489 M34.54998424318286 46.98555782221429 C37.47378398192469 41.29187572473032, 40.961780207689756 36.55499809091544, 43.88647706889149 34.84966981246735 M35.47974264626058 45.15343278691344 C38.895117540607814 41.007753682003035, 41.27199265299942 38.38361993854697, 41.88105849147375 35.689519281160486 M-0.2871575148070029 41.485170273987066 C-0.2871575148070029 41.485170273987066, -0.2871575148070029 41.485170273987066, -0.2871575148070029 41.485170273987066 M-0.2871575148070029 41.485170273987066 C-0.2871575148070029 41.485170273987066, -0.2871575148070029 41.485170273987066, -0.2871575148070029 41.485170273987066 M10.249096225930423 41.04782651781237 C12.724436546637797 41.77874987401232, 7.295500237529161 39.84619718683397, 2.630248834364672 28.076882622942797 M11.03397853112039 41.90158034271693 C7.234418830648963 36.78812698453718, 3.7630970673280286 33.92277898881627, -1.6054669024566226 31.642550522268287 M26.888400194448977 42.078115889021625 C16.800051168910024 36.19731594377059, 12.259901860513695 28.76617888803505, 2.7074384500210833 22.56665145665739 M24.80871816466525 41.7468561987965 C16.92264430526967 32.228998091548476, 4.965478943178482 25.370741163048145, -1.9752787913257528 19.122694403532485 M36.959106270295706 44.71952809863863 C29.74704991964964 36.1458462783586, 18.606883252545554 25.670735439533395, 3.833828337174671 11.072637826143353 M36.668732550067034 40.08967894041118 C25.655419442472926 33.23942490979708, 15.431621194708693 22.625873734155924, -0.08244589002726777 8.599416561363785 M48.138085123739515 38.44662721896716 C32.80306316234394 29.92562787903433, 24.691166098457362 21.352785938298993, 2.8544191665664247 -3.5176051214471302 M43.09712560906199 38.2898942201788 C31.875999887437473 27.182381654147783, 19.034013876756717 16.82397921952767, -0.5132846661195226 -1.9493127048149546 M42.35557536719377 29.38800048231418 C29.664822716209812 20.512441368745726, 22.55164198835275 7.1796826651231385, 14.542144895733468 -1.7205074870254347 M45.40279806343849 25.874770911031316 C35.3966730236785 20.513265670208114, 27.95368055247716 16.404731875577763, 13.282238447309606 1.3353206447098902 M46.48125347685896 18.465863613825263 C41.39804164179373 7.718705641629427, 31.745552774453188 2.7206316413166913, 26.37389833486145 0.4381776718103243 M46.29502599877201 17.0792688787393 C37.328929478476596 12.056624204299249, 29.16745368264319 2.298095709831596, 22.769053369820767 -1.0331298070347952 M46.7231595187985 5.982245560078908 C42.40390711008 4.787062650998404, 37.59806855046471 3.5585841706354375, 37.48643392340366 -0.6980906995985026 M44.37777305464974 5.832234635292579 C41.52945685684119 5.115608579031268, 39.9465410003455 2.6874146297581762, 36.259661536822954 -0.22796333684058112" stroke="#0091e2" stroke-width="1" fill="none"></path><path d="M-1.9328767210245132 2.1077994257211685 C13.922718737029498 1.920855896292472, 27.768411240981948 -2.5936823918239833, 43.55221856384401 0.9738525301218033 M-0.7712872549891472 1.1929144188761711 C12.56406750548058 -1.3093709926401367, 27.863968469563588 -0.4524734000955811, 42.11814281343345 0.7033044621348381 M40.37836373596315 3.8274558931589127 C45.28748296642292 17.587555895531196, 41.97764228725422 31.31288111763004, 39.625111229707045 45.31051889805917 M40.522300451983256 -0.20332510024309158 C43.8003476750922 15.411706526180271, 41.00902091384647 31.856015191177853, 43.47815415262107 43.545450881112856 M38.902062065888686 39.00433222203378 C30.732757524298314 43.116013860059965, 24.97835471610638 40.483403062177885, 2.3963016122579575 41.60991779713754 M40.58561989663963 42.02438040076618 C31.90464723197742 42.46036604034922, 24.296130927178496 40.20271590340159, 0.5876335576176643 43.39425225554828 M0.06546436250209808 41.76503483204965 C3.059239535861297 31.92335196282554, 0.9255768352082206 17.82521462582799, 0.24699579179286957 2.7338656336069107 M-1.478545717895031 42.85444398223285 C-0.881504552786172 30.879665323943893, 1.619694931085288 19.399691047979154, 0.4017617180943489 1.4398941323161125" stroke="#0091e2" stroke-width="2" fill="none"></path></g></svg>