<svg version="1.1" xmlns="http://www.w3.org/2000/svg" viewBox="0 0 433.60158954874237 407.763279186084">
  <!-- svg-source:excalidraw -->
  
  <defs>
    <style>
      @font-face {
        font-family: "Virgil";
        src: url("https://excalidraw.com/FG_Virgil.woff2");
      }
      @font-face {
        font-family: "Cascadia";
        src: url("https://excalidraw.com/Cascadia.woff2");
      }
    </style>
  </defs>
  <g><g transform="translate(146.5536393739128 338.2281218464011) rotate(0 70.22272438729982 -184.0908464591251)" fill-rule="evenodd"><path d="M41.20184443680469 -308.68716132820936 C41.20184443680469 -308.68716132820936, 41.20184443680469 -308.68716132820936, 41.20184443680469 -308.68716132820936 M41.20184443680469 -308.68716132820936 C41.20184443680469 -308.68716132820936, 41.20184443680469 -308.68716132820936, 41.20184443680469 -308.68716132820936 M14.758604566912695 -267.3746270893346 C29.958021621325408 -284.33295399192593, 42.588144756813115 -306.372428171863, 62.58574745961148 -327.00769614465395 M12.854778650562807 -262.9554352147709 C25.310766868915078 -280.0734566286333, 39.589274806108115 -294.5568872286822, 65.65812522330005 -324.2606651339666 M-34.26628813266143 -193.96220913896258 C0.817898654437613 -232.0499351477899, 33.9809988259089 -273.96711498509154, 77.21727353330297 -322.9537861227732 M-37.9047162619172 -192.52643644431527 C-3.429623120425809 -235.4003637058108, 32.45955511530635 -274.245068197185, 73.9057189449255 -323.00532169190456 M-42.664511974717556 -175.3645225516889 C3.5487697856961447 -223.24336170918602, 42.76756855094024 -273.14398561093583, 80.8504401629649 -319.3285008712556 M-40.52030751463312 -176.47102981576657 C2.895709895162703 -229.6081272089417, 46.5142006421955 -280.14271993192745, 84.00983450914248 -320.2040165333893 M-31.15456745998364 -170.41384900901105 C6.331840995093984 -211.7963860358036, 45.35231865468119 -258.3677615617446, 88.67830941335676 -318.4528144036284 M-33.9412084989379 -172.36344036999728 C6.965373784474409 -215.93190420505394, 44.656295281653136 -263.2989191908192, 89.83125859008548 -316.443104531323 M-27.727455045529283 -166.47139008044635 C6.09086880736265 -204.84907121564893, 35.32614527777671 -244.20141192313022, 99.81543640721905 -315.0164948938643 M-25.428195062526143 -170.89275053589975 C-1.0994163107596862 -200.7945986038849, 25.895867607631367 -229.65452488336658, 95.86320841987002 -313.01367221905343 M-21.2996786376045 -168.0972043597448 C7.234580366759442 -195.30741041998314, 40.445720412791104 -232.1781444189557, 105.48575126729224 -304.06868551593624 M-18.45660900227287 -166.28283726659896 C26.421937694942986 -219.48378774998542, 75.3729578619386 -275.77560582138267, 103.16921373061155 -305.65211862992845 M-16.614721316402324 -155.6824679593198 C35.42816953931513 -212.63870944731576, 89.24392435543899 -274.17071560017195, 111.8983230003549 -303.4990661229258 M-17.86783378899611 -156.6746325338833 C26.83835947052058 -206.0851401738212, 69.61403504620543 -255.19334402598963, 110.00888063846364 -300.7713169764047 M-12.277923785239224 -149.28895653448075 C27.608515080756263 -198.49847854331696, 67.77617957905582 -254.5291656834436, 116.96400881611898 -291.839658629474 M-14.15417301663733 -145.7156053524372 C27.78201532129851 -198.99808821049072, 73.25673999321697 -245.98168496353094, 114.30454096251323 -295.0124200324982 M-25.173927121409065 -122.58434847990279 C-25.173927121409065 -122.58434847990279, -25.173927121409065 -122.58434847990279, -25.173927121409065 -122.58434847990279 M-25.173927121409065 -122.58434847990279 C-25.173927121409065 -122.58434847990279, -25.173927121409065 -122.58434847990279, -25.173927121409065 -122.58434847990279 M-14.379418667771134 -134.00000258106402 C24.445986304995454 -178.46137359951481, 63.45705783275446 -221.05030102635274, 120.51451496519698 -286.26647735773787 M-15.00513523436671 -136.87632471621902 C29.514348303381794 -189.0980566209989, 77.5691213462875 -238.34062098965572, 119.22068768726031 -286.6932378388882 M-33.988182337202666 -94.31784780138418 C18.231224543378378 -162.3666334039855, 78.25400525510369 -233.696716675404, 121.59775543018642 -283.6798195072138 M-35.525059623631414 -96.49890900355426 C28.94598749319773 -166.6070304087601, 91.05657616736266 -242.19518046303085, 125.00201910032925 -283.4940540426949 M-38.51857125302683 -80.08182983217277 C27.67975548761334 -155.09483479220512, 89.73328115877472 -228.95025200798662, 129.6316398049066 -275.8496734450795 M-40.12430863891016 -82.0264606064579 C4.327784409576159 -127.91097775018613, 47.5508387790284 -178.9223180748834, 128.94864851616683 -276.3182938028363 M-34.86427511482087 -78.30938454721549 C23.249575562607532 -135.7438501774554, 81.22411392525864 -201.31773635787226, 131.77413534723303 -267.7988618788155 M-32.98831164206416 -76.31962310803577 C20.57468966670216 -137.95241040918265, 74.22023471256942 -197.9141056842681, 133.14608211425482 -270.3687237699833 M-24.833286808609643 -69.76474464100266 C37.30008038496386 -143.91198235812823, 98.82554536744807 -214.1831744962013, 139.5786287900489 -262.80115578691004 M-27.083877246877005 -72.48169744483945 C37.92112604306422 -145.86496347240714, 103.05014393293361 -220.00202413742298, 139.8233755422574 -262.7693615312166 M-17.090558736449186 -68.08006298129702 C16.814445759555955 -108.94541647494661, 53.610523088252 -148.20389455393405, 141.91564313738948 -254.46420940356873 M-19.30524578155773 -69.14259981572047 C32.70687232513863 -126.41359688362064, 87.01003804135743 -187.9615557909591, 141.66286125417372 -255.38060611085757 M-13.303398326960165 -61.70093615314445 C43.798047956936784 -127.01571507583151, 104.21177601171479 -195.7510770022884, 147.71718935509017 -250.41007846408704 M-13.84722698543897 -62.23940078356101 C27.713394884814562 -114.95241794496589, 72.57358155690862 -162.73159185814413, 146.53535978512807 -247.47789330428952 M-2.584727671680366 -58.63290832054247 C25.23386090174568 -98.44777874352322, 64.67130058272727 -137.9663638303147, 153.37188627258013 -239.2024399813052 M-5.826288471127873 -58.86113845113675 C45.67939528949231 -117.02666090471855, 93.41214594065347 -170.48182528422396, 152.8268568607732 -240.12022691386804 M-0.09043029759734589 -53.93364913766022 C60.734502469948296 -124.01027440826789, 115.42112590493305 -190.03464980037, 154.91209761777282 -235.63343427728185 M1.6826149957301524 -55.925018125983215 C49.68283861079633 -107.79687973730971, 91.67701390536874 -156.4566767506582, 156.5119352876712 -233.33095381206098 M11.609972628893164 -55.53354291177765 C37.36809995174922 -91.20544176125668, 71.73932704297292 -127.80113325039578, 160.78146081338204 -227.36782389912165 M10.943388197813238 -53.9857643707942 C46.43515478686705 -96.63425680690207, 81.05859530251766 -136.17787933863596, 161.88046704418528 -227.3976023959552 M17.862647381640965 -53.17451340131628 C75.13361339743982 -111.15008259800963, 131.73151543194078 -175.8278193550496, 167.7143431365925 -216.89576629753628 M16.67258989556898 -51.33735638215056 C53.900986552326465 -95.56394557197993, 91.99350265430931 -140.72761057869528, 165.63026543833962 -219.49726346262216 M23.237946027716088 -48.95162508752173 C74.92594679438982 -97.3500166566972, 118.1104219952772 -150.68609102562849, 166.81141203184674 -208.8848691532457 M25.333041596475514 -49.05198230124637 C72.98026778327106 -95.6635298706957, 114.96488931184292 -147.9592805916586, 168.13326199044525 -212.54243444488466 M35.47560551184264 -41.3248351936106 C85.90042714276518 -108.5022813136655, 138.9573940840185 -172.02897908120488, 174.36315230200609 -205.43257918544083 M33.189110793570265 -43.053083319331556 C74.5834977803267 -91.12310831508678, 113.69261259568053 -133.12132456929683, 174.64433562874152 -205.126511939597 M45.63299247116521 -40.42042969294822 C84.95013116585996 -85.33049744771982, 122.17742581298657 -140.00011672874476, 175.24602349419433 -198.4969631592044 M42.847621151141965 -40.900538534701525 C89.7932000125021 -100.82949525827586, 142.6096025060213 -158.68582170445686, 178.28397843406069 -196.05502086994764 M47.65728286570624 -38.855729962033685 C81.96664429175027 -72.7544740717876, 110.80635866346118 -108.31398937944039, 170.4986848426388 -172.43814610672376 M49.97704422390775 -41.65520821724599 C81.75974008505807 -72.13330974646337, 106.12846640577456 -103.5045670520736, 166.66742972707016 -170.95382972044132 M167.13663503141694 -174.08487753904245 C171.8580283701253 -176.23115222485316, 172.67394061140826 -182.2551937998038, 182.5594489692288 -191.03524504300353 M168.31814580024772 -173.3785553086438 C171.4556003405193 -178.08099738685445, 176.83088698258092 -183.68058467655098, 180.2611697657543 -191.27067596163747 M64.36022150272171 -37.64597572857456 C89.89314210189585 -73.03783235924237, 112.76987504308391 -104.61877219826891, 153.6567632755334 -146.87187565726447 M60.981507500052864 -39.54959855699854 C88.51575632200274 -71.37465348118849, 115.2308007956019 -107.27261167834189, 152.22119478639908 -143.19841465962338 M70.0380811255477 -38.645217454596036 C102.43560924290018 -73.21815062107393, 139.64647582012117 -110.14103253276775, 151.84478069238122 -132.10296840191333 M71.29801777862531 -36.24303674565124 C92.72583746784903 -61.958425635441834, 110.44849238626867 -83.24876561136489, 154.3709448292082 -131.6339196261808 M77.34962992030617 -35.974734771871766 C101.37223386036428 -64.02750199374093, 119.5541177049968 -85.12108619107146, 157.97949726986405 -125.25966198268033 M80.27887976575133 -38.15544528874179 C102.63463201417636 -61.35428211532264, 124.91158149514598 -86.86278899767193, 158.29664055364844 -128.43621042641496 M90.08187092276606 -40.4507921137062 C117.28522149435531 -66.4991399404127, 134.6395915812 -91.75411717605496, 165.23987784081731 -120.1096287713105 M92.50382110657486 -38.493469478949635 C117.49039592015012 -65.83728332758531, 142.25855879347964 -99.22899033452943, 164.6184089019302 -119.0367777914459 M105.25541828465842 -40.7678672342949 C121.88067494770657 -59.92714474196367, 130.97525359186474 -72.62179802255864, 170.13091155697202 -115.08172152199934 M104.49711806220196 -40.67790542984534 C117.95234220481665 -57.650235169936614, 136.06690073996347 -74.5707592060496, 167.7433386351595 -113.6142303348441 M114.75178892579018 -43.9421362460512 C131.68787557194028 -55.2761171220947, 141.65308926220138 -67.04407506910634, 172.79878548308767 -104.20003924827415 M116.10488716181456 -40.53718511321724 C132.17859628718347 -57.09826443233845, 150.9439387842959 -79.58875609813495, 173.93065392747081 -107.77836042951185 M131.87093728779746 -48.433922705398395 C139.56019630416327 -61.17864149876267, 147.38543157039084 -70.31234009686892, 173.93847139401868 -97.3009601614344 M134.80261995642377 -49.17982544486363 C142.0239738197466 -58.52195747301471, 151.19753891754348 -69.241958361595, 171.9493011630936 -92.53717714612364 M-35.15651810917075 -76.92453993566437 C-35.15651810917075 -76.92453993566437, -35.15651810917075 -76.92453993566437, -35.15651810917075 -76.92453993566437 M-35.15651810917075 -76.92453993566437 C-35.15651810917075 -76.92453993566437, -35.15651810917075 -76.92453993566437, -35.15651810917075 -76.92453993566437 M-11.528787942676242 -70.33430292057974 C-22.48356642722118 -78.44779174603622, -29.834768639724984 -82.64001491690397, -42.28956841269007 -88.27547011173304 M-12.781542548982795 -70.05190394419415 C-23.52728360539766 -77.66259138942343, -35.1689319487131 -87.82146062417716, -37.84167018124333 -91.77993994600114 M5.809019643695315 -60.59693102030322 C-7.264614272164311 -68.95178018574087, -16.666164938430274 -85.7040418492708, -41.22048515165769 -100.08754533471415 M5.949005048603972 -63.3614506745176 C-12.698686015146084 -77.4770273712109, -30.246480327370193 -93.60967673025843, -37.511843063780894 -100.22532143385956 M29.42251764525058 -50.93761569162211 C2.1323131880157575 -73.41353312376083, -16.952705080226306 -93.03731765749893, -33.94915831080052 -105.05021835707865 M28.23395247299554 -52.167045614620065 C7.362463782339223 -70.99157911698225, -10.731990798729118 -90.8839531067627, -34.714978970497576 -107.97928259365997 M48.493440933734604 -52.461571789201 C21.176137117710862 -69.25684498398495, -1.8692536729914835 -86.99303594037926, -29.535930117259646 -119.2227838885386 M42.73525920531196 -49.65178447854112 C27.014536913037382 -65.24421409119738, 8.59324423440971 -81.4308277561814, -30.38275801915946 -116.45243649448943 M66.43534846668452 -38.07585441395126 C30.462535947902808 -68.04842195801326, 1.0206402286144964 -100.045062231868, -27.42234863773058 -125.71179358082497 M69.05764631246537 -41.136540726567134 C44.649411480779804 -59.23730904093668, 23.20989589013326 -75.81247898740943, -27.36712866708706 -124.1885906474539 M76.58279099272656 -43.28925482640457 C51.28600423421431 -63.05449033325701, 24.996708010894125 -87.54149339613636, -22.42174861801783 -130.8589379697068 M79.18776415245699 -42.629861478604795 C59.43422459544627 -59.251739988503054, 35.381018058314645 -78.96462925123632, -21.68088855070988 -128.80262894769743 M89.04923914850677 -37.85181424343432 C54.90815781255206 -70.24039842583468, 19.93663987185238 -100.76588464232799, -12.728670643480264 -135.053164532972 M90.10212047130788 -42.217481310902485 C49.12955027148709 -76.31432381434256, 10.804113241051894 -111.97199503155048, -12.757103646011792 -131.54262973238292 M102.49160444755238 -40.05777528778101 C65.76469874018952 -73.61360778956221, 29.772226740470273 -102.01065247745908, -18.04131022482335 -143.28821244418077 M101.28160139192026 -44.11527370557572 C61.385293923652945 -78.30796380296239, 24.506413129845498 -112.37588151889238, -15.82155735432326 -145.59740053444557 M111.19501172428168 -42.43651946622315 C57.95924648722721 -91.23861440465372, 8.56215888915932 -139.45522686006547, -16.778942984732723 -159.29907083323496 M111.54624385808744 -44.11018852877799 C74.07333288657912 -79.41115111394487, 34.42443001603975 -110.84416951875517, -21.360175688954925 -159.98293634316224 M-42.25935779789381 -178.49987979902048 C-42.25935779789381 -178.49987979902048, -42.25935779789381 -178.49987979902048, -42.25935779789381 -178.49987979902048 M-42.25935779789381 -178.49987979902048 C-42.25935779789381 -178.49987979902048, -42.25935779789381 -178.49987979902048, -42.25935779789381 -178.49987979902048 M119.4274576171024 -49.400932182854724 C57.963882060849514 -104.98153139843262, -6.06377439995724 -152.80780878003736, -39.15658357775108 -189.21280511899658 M117.7879588514563 -50.18469988603768 C68.42026000950867 -88.89499557459052, 19.967470215985188 -129.9482083671973, -40.73703844884781 -185.82007662954936 M129.03004530869612 -54.76201802394044 C66.53303322192845 -105.22082292123655, 12.345745946972094 -156.90479956941633, -36.26402114176553 -198.66781798631027 M127.07014132022007 -54.26965695105745 C70.25425516326689 -99.28549142480888, 14.953942297278186 -149.91684157649814, -39.11350185595664 -196.05139510533 M138.21670770338918 -53.78106726128695 C102.31645797742755 -83.46153432062981, 65.64297130018686 -118.58161097659338, -31.29054643111803 -204.6069162651484 M134.27668548711068 -54.89122444144908 C98.17269047584571 -90.94596094102987, 58.74488780021387 -124.70922537222373, -35.14070862235143 -202.33663649286387 M140.7865878214064 -58.59707391600672 C76.09028877569695 -117.64107801945146, 7.3440778762212595 -178.54790620259587, -28.466296628848013 -206.71267723219725 M144.62470233361415 -60.85402153645058 C82.81027099405912 -108.28522232207759, 25.998830757408285 -158.29015622246942, -30.07663192755985 -208.61387175124912 M150.85085076792024 -63.54184010044127 C88.5141030945204 -119.44566638757911, 25.7401725524106 -169.26302908474386, -22.941432499101843 -215.11487019859467 M147.93129426983546 -66.53954955074049 C100.58900240375844 -107.15189415659306, 49.836328359986545 -148.14328698046455, -24.70085017803894 -215.2424789711269 M156.3268216599545 -68.15650397123352 C122.07896386495821 -103.95537732273708, 81.25393579026955 -134.08789421045998, -23.729495607216638 -220.8914980465817 M155.55648783961826 -69.46186542247558 C109.99769554351202 -105.96836357224316, 62.27357005889044 -148.96213630236042, -20.250753176768015 -225.0969018611727 M164.9304574899854 -73.21017310296077 C117.10146754720229 -108.96343226746671, 77.84208656928705 -144.91736680294963, -15.502735216670665 -228.72232594634357 M162.67395383404744 -74.59071208354455 C91.63362005025701 -134.24326657707675, 25.500538121598428 -195.13524139231282, -16.0459227263329 -230.1807424520788 M163.3219309258244 -84.1625452615699 C106.05732953930399 -137.06666170922216, 46.25566855859894 -192.18912952535385, -9.137680247897094 -235.02482902030917 M166.601612971872 -82.36213569767317 C101.72568402579421 -137.75273926690184, 35.591699835931784 -198.0751693963502, -11.305588917670947 -238.5322404739589 M174.39353390012306 -90.321148738797 C120.94216932978328 -129.5720702653596, 64.77493393773467 -175.35689963471654, -10.404784159313792 -246.78484255942837 M171.7088847312132 -89.51328358677638 C133.7041680381778 -123.91056045793734, 90.60885470936277 -159.89788075328445, -9.474689264283702 -244.04046056194372 M175.7203142194803 -94.09181887620996 C131.44620894650308 -133.16881937495518, 91.39489499303826 -162.4718023512588, -6.161927829184995 -249.92002045522025 M173.02708868008503 -96.31872702398141 C107.17285805270076 -153.57211798730523, 39.12370232291165 -213.85832526004663, -2.838276795163528 -249.98182120498814 M172.37616338408353 -109.1431147352649 C139.99860919171155 -136.6484549700859, 93.93585213779573 -175.02213081868885, 3.519502354449169 -257.45473819487825 M173.65543284328274 -106.14760972899978 C104.39981055653392 -166.84763181900348, 37.56669497336162 -223.90593971571388, 0.026561507850350052 -258.35338436646526 M149.21765528830133 -139.92589762011985 C105.89116297470633 -182.17248387519336, 58.24380724959116 -223.94745566826268, 5.658812348565618 -264.46630023722753 M152.15108532669387 -136.32451437363844 C119.15356170706946 -163.2378291208474, 91.44978454090092 -191.7249211412255, 6.770487692973177 -262.785750339974 M150.38895268966942 -149.89902888936325 C122.81521891679307 -177.7870481624507, 89.1547846091535 -197.40992205576418, 12.511692031364333 -274.2218278048203 M151.71206335207015 -150.02424414408728 C107.39790638812929 -186.77160294625318, 61.47634702231623 -225.53321436226582, 8.260690516869914 -270.31593396492457 M156.78949095630787 -156.69696802500897 C96.35575333382275 -205.6007537220143, 43.59176547294088 -251.62045676851923, 17.645144941846752 -280.3571697565084 M155.66258345121287 -157.64914646599703 C122.31681270958607 -188.50505253514743, 85.39628077878831 -221.53439366240582, 15.295039261321449 -278.3084743934041 M160.15258954018444 -161.8157458527312 C124.47507503447142 -197.3125592932846, 88.23993458554233 -218.36539506896509, 19.55983259354008 -283.51031871503255 M157.6458771854648 -163.3278205244169 C127.82730943867251 -192.12771781755697, 94.54027644877655 -215.95041783873316, 19.682545049229986 -284.0573701075282 M161.86803869549476 -170.55017790829885 C126.51465175409407 -196.85783555426517, 98.3357053025709 -221.8848613721463, 25.120501080194373 -291.5225832741426 M162.42258441839658 -170.07358771449077 C117.3511311030299 -210.12752259053252, 68.62579437861429 -252.13610052567304, 26.807241083720584 -290.8958730604218 M165.4255845159888 -177.3665727854619 C115.44275200979742 -223.78174714144262, 58.358968082927504 -268.1851374389748, 34.301271495559604 -297.5946470275886 M164.06423835313316 -178.90719998934364 C131.99076683297565 -207.4721767320858, 99.53999648979793 -237.13790689087347, 30.123473067918212 -296.10254770521 M171.4243480954165 -182.09061407797037 C135.02875315520916 -211.33241164274017, 104.17760256359232 -246.28843588160208, 33.685639933385744 -297.78656856912056 M170.7126846927995 -182.79472180210053 C123.316302485385 -228.3846601675113, 73.68371215158336 -270.8945960063887, 34.40589920494784 -302.1512709950177 M186.61992132975564 -184.84677008966923 C123.4899533150674 -231.07418272586534, 69.16264450546761 -282.4664103845671, 37.96647748742285 -308.51778149248844 M183.3771774427484 -183.3369398159814 C137.96591199892865 -223.20315568164128, 94.17795579341472 -262.8894148691986, 38.999490197934534 -307.9612323829699 M182.70772622696413 -193.73700916806166 C128.4851611178707 -244.23820197381679, 76.34881005427144 -288.22172633992784, 43.446030251420865 -312.06709439144225 M188.46773822031273 -192.19807823786442 C157.48527256846884 -215.8239905714037, 124.81233967792011 -243.10702098618145, 45.06952925000323 -312.14693382219167 M172.08675139945538 -213.6014940808406 C148.52268502862364 -241.59240150858025, 121.23077577269862 -260.2857352922321, 55.04533847957539 -320.760572801751 M171.3088927472809 -213.61649319481756 C147.97329533500022 -236.10526440376128, 119.57609228474277 -258.7196524082988, 52.36103122472453 -318.95607170782694 M158.64251912565754 -234.92616881295555 C137.38396621433992 -257.0645420245488, 114.9980097126156 -272.3206287022229, 59.275979105190856 -326.40789337514565 M160.6726379114561 -235.0622595311653 C134.11602587428314 -259.52154679885155, 105.1765140947978 -284.64055070380334, 57.92048516477786 -321.45589105098173 M143.02102549932064 -258.83359195815643 C123.39227866121847 -282.6618105374988, 95.7079049296201 -304.0391427918943, 71.02303280224001 -329.20993067638574 M143.8023819159633 -257.97800420003256 C129.78586469769073 -271.89427574936843, 112.25068530417798 -287.0162548276102, 68.62882135351097 -328.19077227579055 M138.77002783619966 -278.90116584927864 C122.37514425359096 -286.2191008584807, 107.00396822550525 -304.7208908194649, 86.59217978759169 -324.69816689335414 M140.30423168593254 -277.34713539362974 C120.13011000351369 -292.1662096793471, 103.83268129728327 -307.22762709077887, 83.9985071171677 -319.8716409295113" stroke="#128379" stroke-width="1" fill="none"></path><path d="M-17.097875672804953 -131.4163302614729 C-16.77426936719719 -133.3702947213004, -14.637857062798396 -134.11989728117808, -15.454682253297165 -140.55043191416055 C-16.271507443795933 -146.98096654714303, -18.276402678674675 -160.64476261502537, -21.998826815797567 -169.9995380593677 C-25.72125095292046 -179.35431350371002, -53.52093848790814 -170.38250644570107, -37.789227076034514 -196.67908458021452 C-22.05751566416089 -222.97566271472797, 36.056155015585475 -327.6002086132818, 72.3914416554442 -327.77900686644847 C108.72672829530292 -327.95780511961516, 165.28068955467205 -223.22516322919887, 180.22249276311783 -197.75187409921458 C195.1642959715636 -172.27858496923028, 167.62251387759005 -184.72042125716192, 162.04226090611894 -174.93927208654273 C156.46200793464783 -165.15812291592354, 145.04461823802558 -150.36151909808157, 146.7409749342912 -139.06497907549945 C148.4373316305568 -127.76843905291732, 172.43515919694775 -120.1146279564011, 172.22040108371263 -107.16003195104994 C172.0056429704775 -94.2054359456988, 163.03131842137734 -72.30145148940862, 145.45242625488046 -61.33740304339259 C127.8735340883836 -50.373354597376554, 97.31285231910857 -38.89453022366605, 66.7470480847314 -41.37574127495374 C36.181243850354235 -43.85695232624143, -21.71031625648158 -62.933537978293785, -37.94239915138251 -76.2246693511187 C-54.174482046283444 -89.51580072394363, -34.005502490334834 -112.1867374026148, -30.645449284674186 -121.12252951190325 C-27.285396079013534 -130.0583216211917, -20.081441153933547 -127.96906660505047, -17.7820799174186 -129.83942200684947 M-12.47990732647741 -133.94628468463225 C-12.311406756330562 -134.28920557839174, -15.418461724054472 -131.91416743983652, -17.124642578806476 -137.44530457405241 C-18.83082343355848 -142.9764417082683, -19.54456461284182 -157.5294867973629, -22.71699245498943 -167.13310748992757 C-25.88942029713704 -176.73672818249224, -51.50861076912373 -168.21785967002822, -36.159209631692136 -195.06702872944047 C-20.809808494260544 -221.9161977888527, 34.093996852246576 -328.616911145305, 69.37941436960011 -328.22812184640105 C104.66483188695365 -327.8393325474971, 159.95276626319747 -217.81036599868696, 175.55329547242908 -192.7342929360168 C191.1538246816607 -167.65821987334664, 166.97962791769658 -186.58859127461295, 162.9825896249898 -177.77168347038017 C158.98555133228302 -168.95477566614738, 149.38303919182587 -152.2836582047228, 151.5710657161885 -139.83284611062018 C153.75909224055115 -127.38203401651757, 176.8850091856169 -115.93915824085552, 176.11074877116565 -103.06681090576448 C175.3364883567144 -90.19446357067345, 164.96995752181968 -73.08010070436181, 146.92550322948102 -62.598762100073984 C128.88104893714237 -52.117423495786156, 97.98993064729085 -37.83321720253271, 67.84402301713376 -40.17877928003754 C37.69811538697668 -42.52434135754237, -17.57613979553001 -64.12825805188446, -33.94994255146152 -76.67213456510295 C-50.323745307393025 -89.21601107832144, -34.09817478585554 -106.63778114913586, -30.398793518455285 -115.4420383593485 C-26.69941225105503 -124.24629556956114, -14.067462806105556 -126.36690526677083, -11.753654947059989 -129.49767782637878" stroke="#128379" stroke-width="2" fill="none"></path></g></g><g><g transform="translate(311.6457352779903 67.76635042592522) rotate(0 6.70625641511765 147.05052550128795)"><path d="M9.332190506575218 -0.3190167412161826 C18.015393903001105 11.145192288836075, 55.669368262201615 31.920137415253613, 63.32440781620658 70.12109741109748 C70.97944737021155 108.32205740694135, 73.37974402943114 191.06333293346594, 55.262427830605 228.886743233847 C37.14511163177886 266.7101535342281, -27.78276278353215 298.32026489557313, -45.37948937675024 297.0615592133838 C-62.97621596996834 295.8028535311945, -49.18681573939334 233.59714229065338, -50.31793172870357 221.3345091407112 M13.707188300458302 -2.960508210808039 C22.05004639843499 8.629132711321345, 54.97844380533702 33.105680104368425, 61.48967914772547 72.33354115936298 C68.00091449011391 111.56140221435754, 70.60422362371146 195.8111617722415, 52.77460035478899 232.40665811915932 C34.94497708586651 269.0021544660771, -27.87021958203594 293.83981098549054, -45.488060465809355 291.9065192408699 C-63.105901349582766 289.97322749624925, -52.35084266888112 232.6665623191313, -52.932444947851494 220.8069076514355" stroke="#128379" stroke-width="4" fill="none"></path></g></g><g><g transform="translate(10.413093929141723 146.75950076759216) rotate(0 104.25135022108259 123.72447682919125)"><path d="M1.9648159250617026 2.0295186534523966 C6.3632830361313815 30.790077091716437, -8.273620592733412 130.28849049113148, 23.9858393384738 170.5785474313063 C56.24529926968101 210.86860437148113, 166.4214630823307 247.88776326915308, 195.521575512305 243.76986029450129 C224.6216879422793 239.6519573198495, 197.69801381531875 162.13941220416382, 198.58651391831955 145.87112958339551 M-0.4130939291417599 0.6629463981091979 C3.8747097885893984 28.71084499261053, -10.45297332756737 124.93929398791946, 22.01650166692567 165.95980413161345 C54.48597666141871 206.98031427530745, 165.06372319991118 249.94589899714475, 194.4037560378165 246.7860072602732 C223.7437888757218 243.62611552340167, 197.541073034093 163.837628322132, 198.0566986943575 147.00045371038416" stroke="#128379" stroke-width="4" fill="none"></path></g></g><g><g transform="translate(389.1420928775283 152.40478627503285) rotate(0 -61.08018009107809 122.28537842692953)"><path d="M34.45949667121406 1.0892615064978597 C31.04361691585794 29.30646594212722, 42.10479277841462 131.54243710241673, 12.83812260570635 171.83499677010008 C-16.428547567001925 212.12755643778343, -113.5383347146058 247.6037017598853, -141.1405243650356 242.84461951259803 C-168.74271401546537 238.08553726531076, -150.89947971125568 160.30081417880373, -152.77501529687237 143.28050328637653 M32.251175381048874 -0.7877360571920873 C28.47954812463735 27.8618449332443, 39.29338547763441 126.87395447390233, 11.32872572826852 167.89832596860953 C-16.63593402109737 208.92269746331672, -108.396629065061 249.01044427003518, -135.53678311514645 245.35849291105103 C-162.6769371652319 241.70654155206688, -148.27177226657793 163.486876218487, -151.51219857224416 145.98661781470472" stroke="#128379" stroke-width="4" fill="none"></path></g></g><g><g transform="translate(97.86959068083513 66.37332992061215) rotate(0 15.17571559509679 146.12523219197186)"><path d="M9.002060208952074 -0.04080943912267676 C-1.2409923057075467 11.299946832140519, -43.445879306762066 31.854027090394, -52.89484669304679 70.3382726086988 C-62.34381407933151 108.8225181270036, -70.07649854217057 193.70018789994748, -47.69174410875627 230.86466367070614 C-25.306989675341963 268.0291394414648, 57.963170831765595 294.8669624998499, 81.41367990743905 293.3251272332508 C104.8641889831125 291.7832919666517, 90.66934928190035 233.3662181908803, 93.01131034528443 221.61365207111163 M12.938798820858839 -2.5312740875780584 C2.6886779852890825 8.867896863848204, -43.91995104781652 34.443681317442156, -54.43389228276203 72.66861146423359 C-64.94783351770754 110.89354161102503, -72.93063803383792 189.79945229195587, -50.14484858881422 226.81830679317056 C-27.35905914379052 263.8371612943853, 59.047970801806315 295.5129830020496, 82.28084438738017 294.7817384715218 C105.51371797295403 294.050493940994, 87.76501096503259 234.74465800110664, 89.25239292462894 222.43083961000366" stroke="#128379" stroke-width="4" fill="none"></path></g></g><g transform="translate(122.88198632152466 211.44620226730547) rotate(0 25.071912070128633 25.07191207012869)"><path d="M34.25596428767462 0.7641236591916538 C38.67375428666318 2.1879422332529774, 42.37944992051409 6.793672456257951, 44.730244846488986 11.458383142741871 C47.08103977246388 16.12309382922579, 48.666302191398366 23.253345093529784, 48.360733843524 28.752387778095173 C48.05516549564964 34.251430462660565, 46.50281846223508 40.575140120248506, 42.89683475924281 44.45263925013421 C39.29085105625053 48.33013838001992, 32.06085818351417 52.07024750528197, 26.724831625570346 52.017382557409405 C21.388805067626517 51.96451760953684, 15.113237049387582 47.40340637056359, 10.880675411579844 44.13544956289885 C6.648113773772107 40.86749275523411, 2.9536583231309326 37.6865572702461, 1.3294617987239263 32.40964171142095 C-0.2947347256830799 27.132726152595804, -1.0092664038438586 17.36311430677974, 1.1354962651378067 12.473956209947962 C3.280258934119472 7.584798113116187, 7.3232925554335155 3.8989750386710655, 14.198037812613919 3.074693130430301 C21.072783069794323 2.2504112221895367, 36.34901394141684 4.9070375107066315, 42.38396780822022 7.528264760503376 C48.4189216750236 10.14949201030012, 50.478448215447706 18.68088201238081, 50.407761013434175 18.802056629210764 M12.510856680567658 4.556146258549617 C16.975510565925568 1.4612847974560856, 22.902519229305046 -1.9782167978090688, 27.667030689610236 -1.0067910392302366 C32.43154214991542 -0.03536528065140432, 37.30254662001386 6.484227699696884, 41.09792544239879 10.384700810022611 C44.89330426478372 14.285173920348338, 50.19716296999086 17.722105456007686, 50.43930362391983 22.39604762272413 C50.68144427784879 27.069989789440573, 46.221834246444374 33.548374969596345, 42.550769365972556 38.428353810321276 C38.87970448550074 43.30833265104621, 32.92771438641974 50.52079220552429, 28.41291434108892 51.67592066707373 C23.898114295758106 52.83104912862318, 19.889329765042024 48.397696549637146, 15.461969093987667 45.359124579617955 C11.03460842293331 42.320552609598764, 4.4124218711357575 37.525735989864316, 1.8487503147627748 33.44448884695856 C-0.7149212416102082 29.363241704052808, -1.9100592555490794 25.866821708021913, 0.07993975574976986 20.87164172218342 C2.069938767048619 15.876461736344925, 11.720999796076724 5.719500367261981, 13.78874438255587 3.473408931927608 C15.856488969035018 1.2273174965932347, 12.72900982980909 7.199516812820716, 12.486407274624657 7.395093110177179" stroke="none" stroke-width="0" fill="#ffffff"></path><path d="M41.71551835156503 5.733324777365336 C45.64109937861731 8.606077992832983, 48.00254912195068 15.29509498725404, 48.75613138674446 20.818055891015856 C49.509713651538235 26.341016794777673, 48.37232677921224 34.49386309899938, 46.23701194032769 38.87109019993623 C44.10169710144314 43.24831730087309, 40.54156164870636 45.352965440653946, 35.94424235343717 47.081418496637 C31.346923058167977 48.80987155262005, 23.804201228355744 50.67960615579963, 18.653096168712537 49.24180853583455 C13.50199110906933 47.80401091586947, 7.868773822146071 43.42204239060641, 5.037611995577933 38.45463277684652 C2.206450169009795 33.48722316308664, 0.8658080538768503 25.112841998450463, 1.6661252093037078 19.437350853275248 C2.466442364730565 13.761859708100033, 5.678101151615456 7.705272794557171, 9.839514928139078 4.401685905795226 C14.0009287046627 1.098099017033281, 20.443298838957208 -1.7214739968628952, 26.63460786844544 -0.38417047929642223 C32.825916897933666 0.9531330382700507, 43.36979344043097 8.484501583542366, 46.98736910506847 12.425507011194064 C50.604944769705966 16.36651243884576, 48.8974750739828 22.92741196869567, 48.34006185627045 23.26186208661376 M6.587259850537258 12.942249046059997 C8.86866533911551 8.922372014335956, 12.106407282579749 2.8244595147934, 16.87707953371497 1.2877159903548403 C21.64775178485019 -0.24902753408371914, 30.16873524078931 2.035620979615384, 35.21129335734858 3.721787899428641 C40.25385147390785 5.407954819241898, 44.46793402934462 6.603206229170833, 47.1324282330706 11.40471750923438 C49.79692243679658 16.206228789297928, 52.21182185740681 27.170138061299244, 51.198258579704444 32.53085557980993 C50.184695302002076 37.89157309832061, 46.05486951772913 40.72036098405581, 41.05104856685641 43.56902262029849 C36.04722761598369 46.41768425654117, 26.656319536144117 49.857142147539925, 21.175332874468122 49.62282539726603 C15.694346212792126 49.38850864699213, 11.613211448140083 45.987156551837025, 8.165128596800429 42.163122118655096 C4.717045745460775 38.33908768547317, 1.4430292013809676 31.745021007451527, 0.4868357664301932 26.67861879817446 C-0.46935766852058103 21.61221658889739, 1.4509542714275057 14.095254216505648, 2.4279679870957835 11.76470886299268 C3.4049817027640614 9.434163509479713, 5.841175401898791 12.15810338908678, 6.3489180604398605 12.695346677096653" stroke="#128379" stroke-width="2" fill="none"></path></g><g transform="translate(257.47234454191107 208.16353859050525) rotate(0 25.071912070128633 25.07191207012869)"><path d="M45.39942454318962 8.539873603715513 C49.26839607372734 12.194824743333859, 51.735274722225284 17.690734535396732, 51.71179569827338 23.222346178092693 C51.68831667432147 28.753957820788653, 49.09053368947306 37.0805570659166, 45.25855039947815 41.72954345989127 C41.426567109483244 46.378529853865935, 33.83245670818537 49.996250497556105, 28.7198959583039 51.116264541940694 C23.607335208422434 52.236278586325284, 18.748123500128525 51.45515256932289, 14.583185900189356 48.44962772619881 C10.418248300250188 45.444102883074734, 6.250178859049692 38.420691626658424, 3.730270358668893 33.08311548319624 C1.2103618582880933 27.74553933973405, -1.7002895429050044 21.034512216930047, -0.5362651020954416 16.4241708654257 C0.6277593387141212 11.813829513921355, 5.688396731131572 7.981437255432521, 10.71441700352627 5.421067374170168 C15.740437275920968 2.860697492907814, 23.376182671361065 -0.8355657614032115, 29.619856532272745 1.0619515778515805 C35.863530393184426 2.9594689171063724, 45.10957462426008 13.007672366376488, 48.17646016899635 16.80617140969892 C51.24334571373262 20.60467045302135, 48.18670052095617 23.921226769760604, 48.02116980069037 23.852945837786166 M40.6593972281358 3.546098476987119 C44.44665333435579 6.283829698373738, 44.26731225116332 12.63577187033583, 45.947060563737224 17.91224791691466 C47.62680887631113 23.188723963493487, 51.93206320135159 30.348263840009015, 50.737887103579254 35.2049547564601 C49.54371100580692 40.06164567291118, 43.431694239206024 44.588026546303944, 38.78200397710323 47.05239341562116 C34.132313715000436 49.51676028493838, 28.706683424890592 51.34757675716552, 22.839745530962507 49.9911559723634 C16.97280763703442 48.63473518756128, 7.512698932712301 43.53494106401997, 3.580376613534707 38.913868706808444 C-0.35194570564288696 34.29279634959692, -0.7934387612281361 26.964374081810657, -0.7541883841030561 22.26472182909427 C-0.7149380069779762 17.565069576377883, 0.4940139113631985 14.720570250527492, 3.8158788762851863 10.715955190510122 C7.137743841207174 6.7113401304927525, 13.836523863456058 -0.5136939516058974, 19.17700140542887 -1.7629685310099497 C24.517478947401685 -3.012243110414002, 32.27013511403367 2.53446421369071, 35.85874412812207 3.220307714085809 C39.44735314221047 3.9061512144809085, 40.47574197109351 1.8332587080440015, 40.70865548995924 2.3520924713606455" stroke="none" stroke-width="0" fill="#ffffff"></path><path d="M23.92351766698362 0.9627375612769562 C29.341872047765523 0.4779417352295147, 35.72991942356836 3.6837552197079355, 40.145197451594015 6.506371895311599 C44.56047547961967 9.328988570915262, 49.02613874115462 12.695629937468262, 50.415185835137564 17.898437614898935 C51.80423292912051 23.101245292329608, 51.242176865113414 32.89765101664314, 48.479480015491674 37.723217959895635 C45.716783165869934 42.54878490314813, 39.06013449545593 44.73386069149452, 33.83900473740712 46.851839274413905 C28.617874979358316 48.96981785733329, 22.239450072124527 51.77730782307684, 17.15270146719883 50.43108945741193 C12.065952862273136 49.08487109174702, 5.9304423241940185 43.52636233536529, 3.318513107852951 38.77452908042446 C0.7065838915118832 34.02269582548362, 0.7479592834641954 27.43080607722524, 1.4811261691524251 21.92008992776693 C2.2142930548406548 16.409373778308623, 3.6053996048523764 9.625534895528359, 7.7175144219823295 5.710232183674609 C11.829629239112283 1.794929471820859, 22.336522382341446 -1.0030789756751606, 26.153815071932144 -1.5717263433555715 C29.97110776152284 -2.1403737110359824, 30.42943484338555 1.6101034961438887, 30.62127055952651 2.298347977592144 M16.063682029600315 0.8494703890615547 C20.553746402146444 -2.038645299533083, 25.46752091249335 -2.37876354148264, 30.067388341835727 -0.173505583861445 C34.667255771178105 2.03175237375975, 40.1225074726101 9.658391933330545, 43.66288660565459 14.081018134788724 C47.20326573869908 18.503644336246904, 51.66670562512701 21.720005738681273, 51.30966314010264 26.362251624887623 C50.95262065507828 31.004497511093973, 45.90339317398791 37.51554266010012, 41.52063169550841 41.93449345202683 C37.13787021702892 46.35344424395354, 29.880420896683678 52.52889543173229, 25.013094269225675 52.8759563764479 C20.145767641767673 53.22301732116352, 16.20801481529942 47.33509322730492, 12.316671930760409 44.01685912032052 C8.425329046221398 40.69862501333612, 3.250931274403869 38.373760834087896, 1.665036961991607 32.96655173454151 C0.07914264957934503 27.559342634995126, 0.6842533382176232 17.17404058488831, 2.801306056286837 11.573604523042215 C4.918358774356051 5.973168461196119, 12.025419908249809 1.0445671528552134, 14.367353270406888 -0.636064636535064 C16.709286632563966 -2.3166964259253415, 16.609921811671455 1.0564912628501844, 16.852906229229305 1.4898137867005516" stroke="#128379" stroke-width="2" fill="none"></path></g></svg>