<svg version="1.1" xmlns="http://www.w3.org/2000/svg" viewBox="0 0 416.5276280300593 410.87805191436064">
  <!-- svg-source:excalidraw -->
  
  <defs>
    <style>
      @font-face {
        font-family: "Virgil";
        src: url("https://excalidraw.com/FG_Virgil.woff2");
      }
      @font-face {
        font-family: "Cascadia";
        src: url("https://excalidraw.com/Cascadia.woff2");
      }
    </style>
  </defs>
  <g><g transform="translate(158.6803828388811 12.526275517046429) rotate(0 49.583431176148565 192.40381434593144)" fill-rule="evenodd"><path d="M-62.26315826514774 0.20099499285555922 C-62.26315826514774 0.20099499285555922, -62.26315826514774 0.20099499285555922, -62.26315826514774 0.20099499285555922 M-62.26315826514774 0.20099499285555922 C-62.26315826514774 0.20099499285555922, -62.26315826514774 0.20099499285555922, -62.26315826514774 0.20099499285555922 M-83.75036032046049 39.233798995716526 C-80.03607795948184 27.856093401650313, -72.58775245768814 21.595591030645235, -56.68697332608572 9.064073105636169 M-81.5165908663985 37.51911602179523 C-76.18933683643498 25.772154382275225, -67.04111902244775 17.741444675938727, -60.984480336486016 8.10317407298379 M-105.37995013843897 69.066911360227 C-83.59139220532917 54.90224807075771, -70.13097366117938 29.179356121111446, -54.40665906366041 18.95371928847084 M-102.5264351914418 71.08691786041153 C-83.26054503694235 50.85751516999533, -66.70048383106996 29.380610390431627, -59.10025157477787 18.54961513763914 M-117.46597108185783 101.3320898022479 C-95.65164928605404 69.35643108477609, -69.31698909174071 48.05887427465751, -58.85557758932103 26.04745177501644 M-117.09991126448408 99.40553425065937 C-101.94581238563077 83.84121254581187, -90.8513100266753 69.41108083519673, -56.378383958089245 30.661224964501514 M-130.03436717932465 126.38659911887086 C-107.42121913734368 98.14066534583571, -81.56208581184164 73.4615457967043, -55.297103467827085 40.6115570788002 M-130.4892814735079 127.21870459900535 C-111.34675417321972 103.09942851465662, -91.14448641691712 80.31785143239637, -54.33200791055465 38.73920217647314 M-141.78868658973184 148.55579170050427 C-119.35277695086964 125.12746977207578, -102.32280258304084 105.90479704564024, -52.82216335090959 45.28582545401768 M-138.7103498367807 150.94919340523288 C-106.27247467809988 114.13871665631936, -78.34645665993422 80.78693842468046, -52.1377434432801 46.91918663712458 M-137.82061984884834 164.08561948045255 C-101.7527097995776 120.84872519991217, -66.18499068182746 80.54438010375283, -49.91288180332803 56.0552934141961 M-140.0030002494464 162.40130221202136 C-105.366135827858 125.95092850649343, -75.8547357174711 85.64337062612219, -49.949345980400075 59.89300196935805 M-143.70241307225334 175.92560099647565 C-114.35473366611834 143.82033822532412, -81.76379692067185 107.96389731826463, -46.5668174188324 70.76908205308546 M-142.67360968645917 177.29383666650577 C-114.14680637145062 147.9650249765907, -89.69864568966855 116.40238969260318, -46.77194247503958 69.17749387629856 M-141.46421165076327 193.26689028076413 C-118.3202857406401 161.02677015450786, -89.20878012080843 127.3387403935362, -45.14090379117271 77.88568746443575 M-142.8223918980105 192.54817541025164 C-111.81671476110004 160.0069637084474, -80.28629073640965 123.10741676450364, -43.05597238032362 79.60982056107109 M-148.7440082071186 201.94769300729078 C-106.04350999274405 157.0310033815278, -66.57323669805436 111.62325464039304, -43.85144951409895 89.97298074199696 M-145.2433453662158 206.4436862266068 C-120.67706795055412 177.8128670691659, -98.14502611876478 148.3365818346357, -43.94718764937718 88.59745272680064 M-139.10281619011684 211.38733236869174 C-118.26528518136567 184.05252493851444, -91.88890999233098 153.35006988356906, -38.274138181361145 97.20820797951913 M-141.4894268992476 215.30179191758234 C-118.84127384574373 189.2114705327246, -97.5676559954239 161.63191217243593, -42.53665273532528 97.36817357661224 M-145.30190948341306 223.9351502609447 C-125.73950756374478 203.90562790481442, -101.71497766751398 179.73520770697786, -38.84402838670927 108.87799027075224 M-142.89979124013598 228.58487148853098 C-109.27957948612607 191.57887706579163, -77.13639419664689 154.36985215880088, -39.110744591292914 106.22007881363086 M-141.84075639085216 233.95567197557202 C-105.62669933836473 198.49511578893805, -72.25620844366304 159.6455976481509, -40.35555372389333 114.87832370944628 M-136.88772505210085 233.73142484035006 C-113.65477389079179 204.71076845858687, -88.58108801029312 176.32080261858812, -36.401152670405075 117.77157664098152 M-134.07514468012718 240.49815108766023 C-101.04352537893189 199.61948292575863, -53.64391572052013 154.73999541280511, -31.46252278666332 127.21457938935126 M-133.80877196221022 242.57561765750114 C-109.78530799584391 216.3746050797963, -89.09404989560149 191.24941987415372, -34.83487892578676 128.2113877617892 M-129.2838829449882 248.1929586909594 C-94.38483677763087 210.7381113156785, -52.995755964850076 167.62639621283606, -36.17811916876926 133.50150340421717 M-131.77743392358917 249.99367064310925 C-111.08834104241285 226.1612839516098, -90.82539373568503 201.35221493397574, -31.784237810562985 134.54854537917893 M-125.4490957501946 256.5251312989967 C-90.56299115046183 213.21761083939106, -54.23624050272832 169.16811753290884, -27.37490146396113 146.46321684779403 M-127.19746636037212 256.92740742007663 C-91.2733678970364 214.08853089347218, -60.078309702667084 172.72402564905468, -28.81685627785874 145.86239519627568 M-122.72440071848692 263.598499585745 C-89.69633936158687 227.95029881516754, -61.647711487536 199.21435305514126, -24.28480326598894 157.4332158138318 M-119.98005525467457 263.8983832717511 C-87.96299419809975 225.02826363850897, -54.08630327205539 186.1378437603634, -26.945673780799027 154.55259541620444 M-114.3106724146247 272.6168500647314 C-91.73022759754312 236.02881061431717, -59.97995054825999 201.66438800047223, -21.999133168602697 161.85437139608052 M-114.16958103063108 267.2390468210347 C-77.0819282230486 228.20152215567174, -42.719467711602874 185.92047295280602, -25.87894227250885 167.58911674209025 M-107.23633749033893 273.1574729901515 C-71.86755471940762 235.91770320835624, -42.74663594351057 198.45446362719395, -24.968574765552376 176.77892968829022 M-112.47391369934762 274.11628793149816 C-87.53308303055348 249.10861805764583, -61.96266298318843 222.53409779090788, -23.270226206113193 173.76224237705813 M-103.26496148139859 285.38819529530986 C-84.13759716569355 255.59308388915824, -54.69789186093832 223.83481150236784, -23.847127621597494 185.61380220398803 M-106.9219996559682 280.49847064582093 C-84.4202829814627 258.07556892950595, -65.43208922941653 235.23572162964862, -21.31234350574657 186.1778584440102 M-97.64372103953465 287.6050572344019 C-75.92449983613727 255.47822842847307, -46.88151689182608 227.4974853507687, -15.616343388469048 190.63940419736957 M-99.36233391159877 288.4431098275735 C-79.51874856635933 261.21764447316076, -55.60836122463 232.33860257378143, -20.611601682514973 192.52629230651712 M-100.0109907295067 292.4493453209548 C-66.14048368607472 259.0486092264576, -41.49079119989847 225.88174211795416, -17.148971630926553 201.98139718196205 M-96.12054689037392 296.06390409965803 C-79.2331734862607 278.6736323514601, -64.10801889288042 257.80708324594326, -15.501443660552923 205.80405508748106 M159.000551386911 1.7407323111816169 C159.000551386911 1.7407323111816169, 159.000551386911 1.7407323111816169, 159.000551386911 1.7407323111816169 M159.000551386911 1.7407323111816169 C159.000551386911 1.7407323111816169, 159.000551386911 1.7407323111816169, 159.000551386911 1.7407323111816169 M-88.75516943476923 300.13845833885114 C-68.02297100322356 276.06447496961204, -41.90976577079651 244.64226397229356, -16.017897385438488 216.90618578651913 M-90.31342888466843 301.39655225473086 C-62.68106162991991 270.4195610775531, -37.99983640620246 241.21136600532236, -16.088771800776527 215.72728300401934 M150.4755478570039 29.11728241705108 C151.67762761355786 19.3274247688106, 157.3622411211355 16.069308028620604, 173.1439000613396 -1.7767934486152086 M146.30532918812582 28.491917003325703 C152.9848759909672 20.074423315885067, 158.17106392547925 13.37475216769663, 168.86076277712033 2.9033600032447424 M-83.31490776338501 307.5688944913685 C-72.14975267920411 287.38745071104955, -50.983816135197394 270.6311537448964, -12.770551167294187 226.39536648091996 M-85.03485268005056 308.1078221284091 C-61.27685766230121 277.19331470451067, -37.3931777290373 250.02364905628775, -14.295271083578271 222.64028753188575 M144.65150842812764 44.930973572027405 C153.80717525080465 31.389570673066203, 165.70779745675995 23.056268793165664, 176.02530024547661 6.710497849952546 M141.07712687549102 45.959046249580105 C150.107110106878 35.67412270588453, 163.7720185884735 22.770067304852905, 179.33929707456912 4.6514349741452605 M-77.29529252333501 310.3555416889523 C-62.52052792478804 295.3933194657925, -54.32255786907993 280.4785270488643, -7.574901726493621 234.42940801516454 M-80.9817019595013 311.6856485061382 C-55.639654095838424 286.9741897239152, -33.537987723143175 266.1915107433102, -10.568207133958126 232.58408429608028 M138.76014722190763 67.05515056684747 C152.93038738595263 42.84183585363215, 170.9173149936644 28.89029296225859, 184.64659219029835 13.653263104032362 M136.4153002952781 62.949155232162624 C151.87891743716114 45.86192454971439, 167.59483181646314 30.759412816343357, 184.88770970496824 8.636813734542216 M-75.42717440663829 318.8444495211571 C-57.49997330466819 296.9895223116936, -36.48544380649252 275.8233828031637, -6.34891781303682 246.73877913925287 M-75.35162429003968 317.72412785247263 C-57.583633932704345 302.8886061713115, -40.96119451735552 284.7082807053047, -8.47984557691612 244.72468892160293 M134.4759086912774 76.93731508995188 C149.54646946802512 58.35800863970038, 161.44734827647792 41.10246330685888, 186.1829842327763 17.39284232295593 M135.83999702542056 74.84529251451386 C147.28157642424733 65.43155250572019, 158.9747756213458 49.97922672686407, 191.33941213028922 15.323883168767296 M-66.81564022127583 324.1505058984285 C-51.73559751899849 310.7300243324233, -38.79794977220884 297.71003868490135, -4.760568176923769 254.80394860318495 M-67.0915033546467 323.961194952858 C-42.81392135428024 296.3226007479676, -21.318608126045845 273.544361795503, -6.727452037452238 251.3531170334537 M131.25811573835088 96.11445085401391 C151.57973461953966 74.2348807479516, 165.35476405009246 56.239421717481726, 190.123330535939 22.54883299739157 M131.28124309303237 92.49498868430709 C150.85784650755866 70.3290371216755, 171.19590965872214 47.863130032509076, 193.46646163856056 22.830287642488827 M-59.69154065926659 332.1197604103208 C-44.679403996259396 310.8648551716804, -31.570694027697407 294.8763729455673, -4.2278215681544395 259.8553851569608 M-63.64898672034133 330.2409462718487 C-50.818283771922346 317.07771672105923, -35.38403665739279 301.5387602129928, -3.1332921405664536 261.8853842566326 M125.96909475808064 111.04347870791969 C145.69342803585374 92.57241868105805, 160.1832340454549 77.09876045751722, 196.14283943675798 30.962575136670964 M130.6970680180661 111.04071146542844 C156.462042502674 78.20283048845765, 183.28127269594077 43.56652272718595, 198.8522696917538 29.870414040038483 M-54.00390349960111 336.61239138705685 C-42.66415862952516 313.94603560154314, -22.547249937325176 292.3055848896994, -3.918646736728874 272.87355755058036 M-57.564899041114074 335.79660701466753 C-41.390354675420824 314.63729543028614, -23.10167679723115 298.2824847232361, -2.644631511258808 270.86250621613965 M122.44087700046663 129.70486740166922 C148.08301982092914 96.25036555652645, 174.2006493652406 69.67630023104141, 204.8546012142237 39.734827910571326 M123.64020617552166 126.52347648287792 C146.9417087787053 99.89805643252986, 169.1408361940055 75.86449390422058, 202.6431296938594 37.793068406193484 M-46.7956974922794 340.4838675786367 C-33.017931970572505 322.0773560090477, -20.62520345111099 304.1137423930471, -0.09495340365660354 281.8342249538209 M-51.849005941964975 340.2316928063145 C-38.481394301111834 324.42161443322044, -24.358012559319143 311.4763914499308, -0.6776767455388324 281.19578895675204 M118.75549371550886 145.8290856852625 C150.93090340722682 109.28426442045195, 172.6092277040858 78.02853517637453, 209.80958808934565 41.22576964931544 M120.5383919403991 144.10929936165553 C140.02230685740173 117.31343657514078, 162.53036683896337 92.66052506411398, 207.54821699088689 42.58147594617661 M-40.203832358310905 347.5849481548375 C-27.654766230101465 327.518186354405, -17.00401710755207 315.944942096406, 3.919230652071974 293.97256569690524 M-43.98001401890346 343.5200096915668 C-27.234635691110288 324.32873357445226, -8.419259293762757 306.1018476255898, 2.914247502603075 290.43095768369255 M115.24497615320736 162.8966023086995 C147.88949622372303 122.93556346462618, 185.88957173723657 84.86653101594965, 214.15271325414284 54.30028826334883 M116.69435968769842 158.08919572676123 C139.36404094017524 128.60361322812042, 168.39604925970244 100.2783710187638, 212.49564789985521 50.09857144543339 M-36.08339490567667 349.7805210261048 C-16.560095454545547 332.5790705008034, -1.3997878228961866 310.20222661078395, 7.7059366804568015 301.5190485298333 M-36.52980695491058 349.02449245587 C-21.58940384797743 335.75026628323826, -7.8988640427424635 317.1773663903676, 5.808875608166858 300.4840280219612 M114.49135556356211 178.1378860219803 C135.76952367075657 148.02540558826576, 161.70734403526825 118.94132582809135, 218.5591850455868 55.79972376200324 M112.28584379241963 175.87918120319512 C145.49926686799466 139.2432327436108, 181.27675264117642 98.93143868798091, 216.56883388273593 59.55874178829556 M-31.4152358263957 353.66663578199314 C-17.507280456584205 338.53701900787013, -1.4392720605281006 322.3058717450413, 5.097195931497879 306.45414220260506 M-28.571032317005347 354.2142375637786 C-16.639575873552758 337.4926139428498, -3.3715908604305866 324.75622074721156, 10.558941946152515 310.3960155965579 M113.32666319657311 190.5334055751048 C134.02485183405466 161.2124375293307, 159.39313331780974 135.65129552466934, 214.6739166556965 68.08896405572412 M108.3655786295627 194.02027141595707 C142.37526491407016 153.58819046517561, 174.66861636225715 118.64674947573205, 216.44589125654804 67.07492176020858 M-22.898382899458483 361.8534707527251 C-11.335515270431097 347.1818513679205, -2.4090743797725302 339.5641932268001, 8.175039655195178 320.5083154652206 M-24.269514759178236 359.94747022051524 C-10.210064776034413 343.09687542242034, 2.691719097550429 327.86881821220146, 12.59218089156002 316.3329360324828 M103.48898933123084 208.0589201378503 C156.14302127516493 151.15877691413354, 197.52065103906347 106.81139672551976, 221.70393933447193 73.77347789451157 M107.51735760311814 209.42377240982438 C139.7023107580107 169.6577168447609, 169.51081686476618 133.57315127655056, 218.99205439629148 76.37562698617255 M-20.325804874864986 361.94649468830096 C-7.691457993259421 353.20942494754536, 4.980803050440489 342.900095150967, 15.271499101548756 325.16203706767993 M-18.26001990642922 363.4527060510801 C-10.874899929777397 355.0952641940613, -2.560869590047904 343.91774079343725, 16.211326819389427 327.5858049547358 M100.99824715955434 226.70431762066235 C138.66906416867133 193.33457591768277, 169.30798602127587 157.1434322373314, 221.76234336090363 88.45402444814276 M103.23179703010497 226.39011897024264 C132.4681262146018 191.8326497543574, 162.4961742403342 155.77845452967802, 224.60361670595682 87.55966351096463 M-7.2404705026152385 367.3011763387205 C-7.099292260997144 357.497405181276, 2.824811707012966 349.58855166593077, 18.968605520558583 335.64577575998294 M-12.302313383758332 367.083460680473 C-5.1283822092994145 362.2370270934234, 1.0200110268354816 354.1543482866656, 18.59411410464071 334.5706379883169 M102.09252696053409 241.9453571933181 C123.1422961713038 210.91872587801765, 151.42335244038802 182.41892766333103, 222.55615998499158 98.23607246661767 M99.84269031451367 240.08061714198897 C131.27148076076912 210.8982119610388, 159.5334369524403 173.28717687474833, 225.89581256054404 94.6055469595848 M-4.93534853270927 369.0229844539838 C3.52454519970843 364.15260735592904, 8.41326006797705 356.5023542088613, 22.098390162224604 344.94000029212975 M-3.2811608161655954 370.3182497336941 C3.5315187769692558 364.79302898889046, 10.967347858912435 355.0112526931293, 21.79327712231381 344.82845075822615 M96.47252432849214 259.552512377201 C132.99943266862684 220.08478939840603, 165.13153255999177 175.26813270461304, 227.04365491904903 105.88324304397861 M94.06412608790652 259.35080106848835 C138.320558497397 212.2492331635071, 182.5161952280353 162.91541757706017, 229.1090996383919 103.78049044449637 M0.2026513138434609 375.2126782038681 C7.945549061686265 371.23818131792797, 10.723440588535656 363.72034255909557, 21.74288427654693 355.7751794141203 M5.449731200339528 377.00587925552054 C9.756644042674694 369.1304548482295, 19.812674043241294 360.6425011171023, 20.736550247408843 355.02525888946354 M92.48604162798138 272.19973850032136 C130.02498562608295 234.19359806580272, 163.6625695048965 188.44686976292715, 229.528951727035 111.59801600434231 M90.93340247976664 274.85693502720346 C122.59152469647917 235.9627766220373, 154.49869535646744 197.59686341976615, 231.2175482712708 112.9501708104383 M14.72450125805247 381.2304359185961 C19.937149280023423 369.30497899998124, 20.932185803990556 361.18274796061144, 27.85835522948753 361.61294355506357 M10.099538011766555 377.629574451175 C17.853109715481796 370.621961182679, 22.223727616318243 365.05174177780134, 29.85090397088777 359.933239686138 M84.94425116712391 288.261424928809 C140.55050230887642 234.56240370243466, 189.893734269552 174.8012937588114, 238.58518624456954 118.53750463925161 M88.78465184480743 289.74204458987435 C143.9739498332414 225.42188345923597, 202.5093063578605 157.21886084762798, 237.70043601820902 120.31111518969276 M18.398769742791192 381.1032696008446 C20.82766129563236 376.3841722819753, 24.304794071302258 370.7001264158326, 29.743879983257074 366.2580214524429 M18.671841969509263 380.772725508711 C26.20054697533941 377.1909737342766, 28.18611917299245 370.19365930970207, 32.96303262045564 367.77497166448944 M84.59272845809022 310.20894684312196 C119.47541882853527 265.2029574236865, 160.6646711542405 220.36401768708615, 236.51415071611996 125.99053789957627 M83.51970024210225 307.73941448732177 C119.18279515484765 271.2853030907949, 151.32728221832292 233.95859050019249, 240.558491579253 129.85863979440964 M28.14228067585242 383.5584242411511 C29.41632673756956 380.28422758990604, 34.426659951450446 378.055030597598, 34.24716460780158 374.6097235481 M29.639259215825916 382.20952730184365 C30.932528286944812 380.9039648869689, 33.903618491189754 378.1963033039254, 35.29638363868847 375.461563489095 M71.06660723781786 328.9135361847964 C135.68483408258842 263.3697051845582, 189.03315659767168 200.53150402769603, 242.01014270301187 139.98499141071545 M72.767527814771 330.16990628995643 C116.22288334987228 282.0935072515104, 157.88018073254077 236.39442716324047, 240.0273604228283 138.28794466895644 M38.65811903949718 384.05088259548467 C38.57247310560703 383.76360977758674, 38.797104285283304 383.56277159936957, 39.24914282295731 382.5997380379291 M38.35075171839337 384.3229255934111 C38.84509384136251 383.86885696982137, 39.372986012048884 383.6512627617917, 39.7763279091182 382.7510321106466 M66.26929279720154 354.0601003608087 C122.26051160456211 293.97844873061644, 168.99818203945114 233.73686578763733, 245.2454096811514 151.7151894148987 M65.09128735742026 353.40962867785726 C109.50616398772512 306.89933928214214, 151.90258375798476 258.3828281583676, 243.50980764849712 150.19264555931125 M45.38569055276744 388.4545004672256 C46.031876058261346 387.28687065432416, 46.65143995470049 386.94942350499934, 47.24305039579791 386.3112874282248 M45.61334792229168 388.1033847718385 C45.93119234066287 387.95946303466377, 46.12184531672918 387.66334017282514, 46.87086838791889 386.71358510010907 M57.3439385592249 376.06523053584567 C125.06931800877196 289.1644604251953, 195.9238606402686 212.1594378338613, 247.25669028953322 158.68686366473005 M59.14535640333247 373.9538874522733 C131.93480651557883 287.6390257483996, 207.57984927890183 201.64914083270185, 244.85558863123563 159.13572398135952 M57.465453770451525 385.48574587008386 C125.81525973908852 306.8262839967446, 195.77772119007196 230.1205096053975, 249.68296958152416 170.62786001020353 M58.84545023883714 384.432944912295 C99.509774167635 333.72931284797716, 145.64931263497724 281.69009614763826, 247.2015050839077 167.16962996587463 M73.08826637560483 381.08800503653316 C128.8836691090332 315.2616292143306, 179.60571114819666 253.26269180204997, 251.69839533797267 176.98799060439268 M72.16906794229784 379.8107860747197 C114.96817076615987 334.4593533805982, 154.09613099980996 291.7208069479255, 249.02089258869697 177.27702991725766 M89.77085998429125 378.75438693058476 C128.71251185896688 326.90683818802825, 172.10836202628627 278.56867104994024, 252.61109868872185 188.63515881304218 M87.30153706818768 375.83811009522134 C130.65485427618984 326.7667068936719, 171.48192467880904 278.05386014492365, 251.62500509514476 189.67041845218446 M109.49345372068909 364.48771819202466 C140.86227248720508 319.64413557956846, 178.09841019214608 278.40009908190495, 242.92058548578726 209.9711628170882 M109.12188474371276 365.1103409667801 C142.32640931822013 326.4005736611089, 172.6927288891565 289.6847833998445, 244.32638593120623 206.1102684365626 M132.20019032065736 352.00124566245256 C164.41844708147084 317.3614376228888, 199.99807072054003 277.7766334438586, 241.54400960765685 226.26548962589175 M127.99179916833506 352.7519319130796 C172.46644479540873 305.08441518400485, 211.38294017269598 254.98106094148625, 238.9207055162629 224.75369394864708 M159.7848760445757 325.721202448985 C182.25179145537575 299.0292651295413, 206.84563381662846 275.82102118013836, 243.1732086887479 235.5543156037929 M162.7596153949542 327.3643845702023 C179.92916124333314 305.7374235860083, 197.9568940547061 285.2728825186224, 242.16349316890242 235.5764571423533" stroke="#fca326" stroke-width="1" fill="none"></path><path d="M-60.68595604730842 0.7089994654059408 C-74.64586976471207 36.40854738466732, -163.44563618922282 151.49629533256666, -145.21411048422243 215.93377945648388 C-126.98258477922205 280.3712635804011, -16.30367006945587 386.8369134502332, 48.70319818269389 387.3339042089093 C113.71006643484364 387.8308949675854, 226.28225369815684 283.04814705568396, 244.82709902867612 218.91572400854045 C263.37194435919537 154.78330096139695, 192.9235277712242 -25.264372809435525, 159.9722701658095 2.5393659260482933 C127.0210125603948 30.343104661532113, 84.20174240134762 386.5824299952925, 47.11955339618786 385.73815642144336 C10.037364391028106 384.8938828475942, -44.278618410325265 61.78454260428094, -62.520863865149 -2.5262755170464515 M-63.3691340097606 -1.3744260634481908 C-77.53204183059596 33.35675510414235, -164.71453627068846 147.7804629045782, -146.08781380201364 211.80092635633304 C-127.46109133333884 275.8213898080879, -15.650801499912902 381.18896719199626, 48.391200802288225 382.74835464708093 C112.43320310448935 384.3077421021656, 220.0017556749747 284.22140336327595, 238.16420001119312 221.15725108684117 C256.32664434741156 158.0930988104064, 189.92541821106238 -22.610951381082934, 157.36586681959878 4.363440988472238 C124.80631542813518 31.33783335802741, 79.24084374276404 383.4699481748582, 42.80689166241153 383.0036053041722 C6.372939582059011 382.5372624334862, -43.288572595960105 65.56604782436631, -61.237845662516335 1.5653837643563753" stroke="#e24329" stroke-width="2" fill="none"></path></g></g><g><g transform="translate(22.75870079232982 148.6061560586927) rotate(0 190.74365374084584 119.19556336098799)" fill-rule="evenodd"><path d="M0 0 C0 0, 0 0, 0 0 M0 0 C0 0, 0 0, 0 0 M4.493341736821067 6.798568797200462 C5.074675647746094 2.5487852644428455, 9.004845033854092 2.9338069196673064, 9.104319530715122 -1.473419933905731 M3.8182453646786327 7.821589109763046 C4.978800719152598 5.428374259625278, 8.052014233368947 4.472941113562098, 10.500310745452417 -1.5814933498854742 M4.389897843356394 18.157978071450273 C11.16953918958811 6.65809637991415, 14.845136653476473 2.508092616209508, 24.323298047462252 0.957074883300999 M7.738631544168257 16.882449960886518 C11.3998867042224 9.176942812667502, 16.05579363778228 6.194784904548715, 24.057068455198554 -2.211573277693054 M9.798820100956354 24.943865386663497 C18.562835458054614 16.023361367109533, 24.558370977142296 10.135903369845183, 31.380594408443848 -5.3916732765650615 M10.466632485621366 20.915485551475108 C21.246815242402526 12.607231892591754, 26.567707368450847 5.910908346682721, 34.617563678255955 -1.6480501763439044 M18.53807988297038 30.452393693087657 C20.219720168693335 24.041602857920317, 32.68450098084871 10.530972752347797, 42.54000997908001 -3.724150181692952 M17.307174625804947 29.42472506052073 C26.090803555560445 21.96192724975216, 33.27205265903754 10.208656114190454, 45.10364155090933 -2.6645464086354913 M20.719493595648466 34.17330908447276 C30.2405256437913 28.406574261308556, 38.46718466980411 12.509324081626119, 57.022927136630244 -5.311525158109909 M18.825443511593996 38.48170169114839 C28.57348989652146 25.280811738492574, 41.04838324438444 15.751948388019542, 56.91661609104318 -5.0520066912200505 M21.59550264524061 48.70573265456879 C31.696215755972545 37.13067602780923, 45.003135110253595 25.619015457263448, 68.34741228734453 -3.5703021120659244 M23.39131218986351 46.228261146483064 C38.412390906334956 29.84999917908795, 52.48797381691266 12.358648841985868, 68.66854784553249 -2.035772820972575 M32.05917343799682 53.25816049712577 C44.11484990143927 40.28889542991782, 51.422862451852254 24.078035862936378, 77.51609780848239 -3.0529003695882295 M29.929341207488495 52.126561629649785 C45.72555657820413 32.68342558207192, 63.12440186669926 11.89101143119197, 79.62012583226178 -3.516164514545295 M35.800256409157605 58.39375412567091 C47.283974529266075 39.50663415335363, 69.25745171191642 22.620248784925934, 86.14041816427479 -4.966492997372377 M33.32483764033446 59.45436426355076 C46.981016462493656 40.524756387606985, 65.52782383607763 25.18876938964037, 89.05490365608702 -3.837317729258764 M41.18094990699194 70.54917879439975 C59.59587232787845 37.64928898806832, 79.92922425735073 9.965116341873589, 99.00425573198127 -9.144749321445587 M38.54961897729538 65.57387141175653 C53.70199032150241 49.227761898877276, 69.51880688332912 32.2103565292491, 101.09294533489275 -6.008927181765202 M43.67225436674034 73.00634601683954 C61.055078346985695 51.63605937691673, 82.41660846892395 30.679727822249575, 109.18817691785182 -7.566673248057853 M41.34836729423677 72.65346919716934 C55.619705835610674 57.186529156575574, 73.93778367132886 38.36260106921576, 112.06506141555394 -5.475084668939601 M45.7297361946528 78.41125188674027 C73.01529666801883 54.69224986597948, 89.32343114261826 28.43253882715225, 119.25731409914592 -5.347184103236415 M46.364393138033634 81.93656582291419 C63.351603780391926 58.18561591555758, 85.92840046431786 35.64737417162076, 121.9506909159551 -5.354859907434204 M47.94958679697932 89.51926749785193 C73.98014410252365 61.75694886806491, 99.5111272919753 28.06813575829171, 134.38560174009456 -6.255954953676806 M48.54569455556096 88.23688199211605 C82.60286641752998 54.461546899274715, 116.53693363869503 16.52089438146271, 133.7521374409522 -8.21113885456954 M55.56862257996991 100.69513894392452 C88.29362208603955 58.62362434577747, 115.19858833921148 26.262161653212033, 140.9194222179573 -6.689155125406259 M53.89495709369376 95.18845090789995 C87.28225941883949 54.433813428814936, 126.1112439443307 12.501991024950911, 146.3082150084298 -8.272366226997846 M60.96428494987455 107.41298731870808 C91.96416122013554 66.54959084073349, 126.35527009888233 26.97983468176338, 155.50184193898411 -5.188288524674775 M56.21955379930702 102.4956182733909 C97.1871891666422 63.103720522567976, 133.38558502467401 16.449669511392443, 157.6684841652629 -7.201383821594121 M58.15464031294327 115.75630871595254 C107.03036216412957 65.94437434369812, 144.7025313693519 16.982036281081122, 166.26049328043445 -7.430774477509587 M61.881545219275765 113.18304229171386 C89.26362928783098 82.04704979350421, 112.4660250569641 50.58555546238551, 168.5311339293359 -9.336011355010598 M65.29838007542604 119.91797422940795 C95.57128325358858 89.01276882039598, 115.4151852029673 62.53752769706914, 181.93181070653935 -11.748786050606228 M66.54767940047496 120.84569366599385 C107.02833979818253 67.4465283446681, 149.33092926065314 21.55722773533742, 177.6172179055049 -9.45788478456781 M67.19482064357287 127.70022995282429 C102.33770497643539 89.47716670903844, 130.65667884369918 59.56491989786946, 186.42467659455832 -11.100992569991945 M67.93939188977963 128.89885559935587 C106.33691705905643 83.69763325897966, 146.36850341559494 38.31555654260434, 190.48430011165436 -9.014198826918005 M77.78390342363377 138.01469697995157 C107.339583613935 94.91220739160369, 152.15541449371742 45.933916406413076, 203.28859832175087 -9.836688361693945 M74.58280573406478 133.82812379492492 C104.09144230500783 95.67898191162996, 137.90388645531846 56.4812756005779, 198.2446320656688 -11.131835698713388 M75.64092705191378 141.587222410677 C125.7406376426269 88.18604456085411, 168.0537339731805 44.06109015760352, 207.82832661797823 -7.98602787384905 M79.15558690237052 139.84184300789977 C116.99961330364329 98.24064801713071, 157.35880420616422 48.93117410732032, 211.5126837607453 -10.835074164529864 M86.40585041393021 148.81338223269205 C133.0460882303699 92.61572890731, 189.01695608806966 31.807414644006087, 219.1351927972805 -12.658250657754694 M81.77705147374088 147.6454747534582 C122.75624939717848 101.89350038853134, 163.7748918754423 54.187048931754646, 220.5781937046774 -10.584806501100081 M84.48697707234143 157.57494430799431 C129.8121475844737 112.94989912593891, 166.69428295986697 62.894857803158196, 233.66870503364646 -13.65755013771397 M86.55339696062414 153.7907028029916 C123.00480622375258 115.64054840333063, 158.7229038188003 76.93176239659019, 232.2560399367176 -10.085035990079597 M95.21508222269397 161.52121530094217 C130.5978738587029 120.11287546700635, 169.59492010597606 75.43105309608899, 244.88094736787897 -8.21673710244095 M90.60198760746289 161.3715234813905 C140.8641852949766 106.42596824806178, 187.5087737335019 54.7679118559118, 241.49014849038412 -11.84627265666945 M98.21982907327117 169.09816583969194 C157.03060337715365 100.34170145841875, 222.8056681808208 25.53258819502784, 252.869202793657 -9.662183674991521 M98.18407337086101 169.85013319907415 C153.47257411621723 105.5849012164787, 210.26342322511655 42.50244436170736, 254.0810877238364 -12.018722186361101 M104.15529535473733 175.18051720113013 C136.86320746048187 135.0319068356917, 175.748520382428 95.60206872596325, 261.20354405459386 -10.41148495120127 M99.5144926881887 175.95831543218267 C141.592106061955 123.99726634247733, 183.65806314085077 77.39834378231457, 262.015412945479 -9.825373033385446 M107.60911131278716 180.54055935026008 C146.61101836094556 136.04009087891285, 189.55646120047132 91.32134949048441, 270.2312490927395 -10.740449725883861 M106.82122782167562 183.9813599047867 C166.3903178613887 114.21427530023061, 225.4073012719265 47.42229089399185, 272.3134036937405 -10.31090480688106 M108.94291064196686 190.52593491022796 C147.50164420734671 148.7125195057541, 187.098096729227 106.14529614675659, 283.2125967122005 -9.537867445425505 M111.20228384410761 189.80918024658655 C165.579820990487 124.73627972291405, 219.83152528786957 61.79156506478807, 281.69915562867135 -7.513770480760898 M114.40796670921291 195.0410212520372 C189.17583665759628 112.48847501749833, 259.5172668852357 28.689697200399365, 296.11859544363176 -8.442914027920793 M114.89553243118772 197.7197530977054 C148.44818413013996 151.45765363125182, 186.1981945387334 108.57932299789711, 294.2399191998244 -9.90071725316479 M118.70209991892187 204.78140425866528 C184.79033733730077 124.52097742142654, 257.0270849012594 46.293066642061156, 303.17855446541637 -9.44117658392843 M121.27423116316548 203.80041514181517 C179.47201845018 131.28884454121297, 243.2860537510694 57.919144236694464, 302.79462572264663 -8.018638821713516 M123.27453502783071 208.96011714266072 C181.3064476577644 143.03529816035024, 235.62652594003058 77.04916096307447, 313.58366020934045 -8.171356307766539 M126.59595201206275 208.64329260766726 C186.46695797312404 134.96605209636155, 248.3974801806181 64.37680316051595, 314.29976021598765 -7.2131898405169546 M133.00902002011517 214.68012645153757 C190.2085159727339 146.56890710271728, 250.63441370733858 73.53227098270258, 323.12657357666933 -7.561273519224353 M131.43151639707483 214.3992666708852 C170.8494148521198 171.72829508073613, 210.24533467548056 126.10884752097876, 323.11045134872387 -5.604682675333538 M136.19489768548235 218.82504853702648 C180.35357560943203 168.0307490014434, 226.22944867431045 116.53233501026064, 335.95352295973225 -4.394467229924598 M136.69678271330065 222.6038887535302 C209.20690105447295 131.18104059008257, 288.1421067120765 43.160725008924665, 334.3229793431059 -6.837718201428606 M139.1638601663273 227.1915817491153 C198.89644705299332 158.24130067262234, 254.1404950569186 96.02076182949601, 344.47832109350236 -3.8787179512075474 M141.3224005867107 227.903570875628 C193.71267893890553 169.3021767249505, 245.19891510792638 106.90377007477915, 342.27130330069014 -3.685909989987408 M146.28693215101774 232.93273546664622 C204.83519261351017 166.9083500643462, 268.74240204759434 96.15003028221705, 354.3740166292895 -3.7860618915796986 M145.10814377975774 232.98537837435805 C211.39302348129584 157.81040472364882, 278.2534193035278 81.64370597703915, 351.3727863885236 -2.1253339023105915 M151.69951791643973 236.4092793360015 C231.8735629263658 144.9471418081936, 309.74621420674964 55.611029771686404, 361.931469543176 -0.6637952548611974 M153.06058923809982 240.199834389606 C221.33008893047005 160.98520069309478, 292.13554032841324 81.17850611700221, 360.81935375186265 0.3869190595621371 M158.35360908318512 244.34367006655725 C220.92885311674775 178.60439304126652, 278.8436426485509 111.56290566812537, 366.0567520802853 3.0912911496739683 M158.9860547703548 244.0311378334612 C226.49315853523575 170.9927511058213, 291.0906306750093 95.6769804075142, 366.9496120131259 2.924894896148121 M163.95960885255758 248.40573424607678 C232.3434416501379 167.37929520668322, 300.05521131881034 92.14180347303711, 372.5684221612762 7.079653028700377 M167.15808106791806 247.50894111212097 C224.01194744626724 179.94290684621583, 279.72465135644 114.73892418486112, 374.7389601895178 7.383572677755822 M174.03981778505977 252.96494744346498 C250.79166398309073 164.4704773104721, 331.4522661978739 74.70767523733156, 380.25435479526647 15.067035532897705 M173.00899240948598 251.71332632147593 C214.14524738999353 203.77557957274672, 253.75994273835894 156.14749942566152, 379.73962443457486 13.45982658876786 M182.46549610752194 253.57467989461648 C244.67440856722448 179.36095456969016, 307.3892076032595 108.88744874861763, 384.46876173543905 20.954480875966063 M181.94432794670075 252.3783888944994 C227.7917081442116 203.08850040574129, 267.8959794289599 156.02217193378695, 381.70983450734946 22.830093764284364 M193.7102053387029 249.98631118327975 C237.76076159762735 200.62945908229642, 287.5551641939747 148.6058671989334, 383.89131582035395 34.85755037918074 M196.77245274237123 251.57486165791397 C248.4767907532926 187.29744327311934, 302.8949817035643 123.61192238170715, 381.8859561424546 35.17471449626531 M214.51874897596406 243.03916576128617 C271.44975227885715 174.79377786051188, 326.8618900944564 112.88708417788332, 363.7624132950774 67.73201409159927 M215.58416853534365 240.43868937446072 C261.24872889139397 184.20496967798906, 306.73369220208457 128.21008253558233, 365.1821236997878 65.04965266372623 M238.5017715332335 224.98563190770193 C280.1146607624304 172.44427278320825, 319.91866977090893 131.61791460788822, 346.75589557092223 107.2719661076858 M243.30276024465022 221.51172070425793 C275.1922874969761 180.1788927810608, 311.51514167543974 141.54734179881024, 344.500781768072 106.6735887234404" stroke="#fca326" stroke-width="1" fill="none"></path><path d="M2.513194610178471 1.6170279249548907 C65.21106462285087 3.2204870523261198, 347.724006891912 -30.988419694281774, 377.5897000122169 10.329754229633316 C407.4553931325218 51.647928153548406, 244.3730461507208 250.97086764085043, 181.70735333200795 249.52607146844542 C119.04166051329511 248.08127529604042, 31.575070378824243 43.3344865772381, 1.5955430999398228 1.6609771952033041 M0.4329760421812532 0.02653213128447529 C62.88017993400658 0.7656718499210653, 346.70372965704973 -35.77749039652661, 376.847243747572 6.263403557537304 C406.9907578380943 48.30429751160121, 243.59451142347524 253.8943821033115, 181.29406058531507 252.27189585566796 C118.99360974715489 250.64940960802443, 33.3683545040033 38.55249309527423, 3.044538718611002 -3.4715139283239846" stroke="#e24329" stroke-width="2" fill="none"></path></g></g></svg>