<svg version="1.1" xmlns="http://www.w3.org/2000/svg" viewBox="0 0 409.5330439855935 352.58936338466856">
  <!-- svg-source:excalidraw -->
  
  <defs>
    <style>
      @font-face {
        font-family: "Virgil";
        src: url("https://excalidraw.com/FG_Virgil.woff2");
      }
      @font-face {
        font-family: "Cascadia";
        src: url("https://excalidraw.com/Cascadia.woff2");
      }
    </style>
  </defs>
  <g><g stroke-opacity="0.9" fill-opacity="0.9" transform="translate(35.99628117988459 27.523795884447452) rotate(0 168.77024081291216 147.92012462284737)" fill-rule="evenodd"><path d="M0 0 C0 0, 0 0, 0 0 M0 0 C0 0, 0 0, 0 0 M0.4333933633101079 12.471414897744449 C3.4429245590712454 8.345585976879736, 5.095285804429012 4.117955378742854, 12.07390288076259 -1.7155297925229176 M-2.0737223373445772 13.88942859542081 C3.424795497357227 9.958516212073532, 6.345242223934684 4.194541916596499, 11.092464366358591 -0.23405858795149181 M-1.6390955238973905 26.700715060094183 C3.8879033306482693 19.898823278380924, 12.066747311560423 12.198400573968947, 20.10904823312333 0.2843849101652154 M-1.6605262137388994 26.219885720619743 C4.40703647398052 18.333018063234668, 12.898727842946421 9.18430964544444, 22.20535424047878 -0.92833403483138 M2.5815196913570464 33.95716535254192 C9.344889802121436 26.977547970000824, 14.986506466139943 16.961238890000985, 32.81908698224155 0.08335651234628116 M3.440739402630955 33.35184825538468 C12.923420881980977 21.38227062159889, 22.388711274759274 11.55793068147355, 33.05475234456984 -2.1139385387217864 M1.6164838176963734 47.83098041464717 C14.914242563649946 30.254778338467727, 30.20929269194874 11.396877571583431, 45.04523138321524 -2.1817511701406183 M1.4571344171462464 47.876066459465335 C14.972280326142402 30.102121658605597, 29.720788504725864 13.536146934527117, 45.217203579764416 -2.911851544809455 M-1.549243279108829 60.138763067084454 C16.53910835990342 42.73625130034964, 32.989814230650396 19.133023160971305, 56.5479794829194 -3.50971743417049 M-0.8081439997349449 61.74207772384872 C10.403370852515186 47.17028147543466, 22.20040820031617 33.35541856891193, 55.09566204762501 -2.3246365296568925 M-0.8426635521835664 76.56923401297878 C13.154142460334445 56.78178391410638, 29.06428697546797 41.06911200634991, 68.14251682822902 -2.079009076618327 M-2.608391746450124 75.10356857197236 C16.98224366003338 52.271139548795475, 36.82063823559597 29.84115464960761, 66.87823809971411 -4.077513219826592 M-3.136091454652835 91.63142645545514 C21.46674733784178 62.88027341412288, 44.443126596005825 35.88997664935861, 79.10477549500963 -6.752489974581906 M-4.411748471436788 90.39156927727373 C22.413634075967643 60.96407852978695, 47.196545847441456 29.55089291522421, 78.81925736658475 -4.998067172103831 M-7.497153939641635 103.90468609763852 C23.882152085221925 69.1959689847483, 55.016899142610775 35.69323277679098, 89.2971979721552 -6.808582764490687 M-6.2761975731324355 104.68945386319032 C23.562709178347397 68.80460757933213, 54.98856484437943 34.64818483790036, 90.2400246418184 -5.622411452605569 M-8.438790460274966 119.28867114265393 C25.15255093621666 82.04436388067904, 57.172721384705724 42.78883283768339, 99.85509133553123 -5.219526323442437 M-8.224566199974568 118.10794010315965 C33.246234073616954 72.57865267371832, 74.03851302278774 26.890548481088913, 101.09017805596804 -6.348444118117072 M-11.16925296967782 134.25335229362636 C21.630927618682616 97.63153898872503, 51.89158227146508 65.17470851100244, 111.31239113201273 -8.38253744831215 M-10.619525250400677 134.1600895206192 C23.564859462109418 96.8896952487864, 55.53719326716115 58.42079353925891, 112.94845296059621 -8.042009895200835 M-10.933077618252039 147.13979110407513 C13.494699587142067 118.20676399653178, 40.20123770923275 86.67093371797648, 124.91165466450084 -7.742550198609447 M-12.440074726044974 148.07010963132058 C39.097447226149214 90.39629048184653, 88.49776809367596 34.30573569590344, 123.39799881252313 -8.446168214885201 M-12.053466447725334 161.25781693557806 C35.04010928553195 104.42323188296857, 87.14994472266403 44.78444499009826, 136.43168168950683 -8.92951839933257 M-14.05266351513009 161.53351464053168 C15.811508549538484 127.15473512949568, 45.924385464911815 92.20965173190787, 135.87336530252452 -10.385539222337878 M-16.911101640354413 178.4033600164309 C24.596658239347214 130.21933627512098, 67.03263431630583 81.9741134091926, 145.96647742651388 -9.82598121496354 M-17.09651215151467 178.42236619964308 C38.53138962342917 112.77084553736508, 93.8504598900592 48.91106024748507, 147.41003436487247 -10.84447850631445 M-17.94010461711168 192.6109411220747 C46.06462810340192 117.67605169631534, 107.93896319034432 46.6339708894527, 157.66135775750305 -13.16634871889561 M-18.200845290727294 192.43014902286353 C18.918786026396337 147.44553881638151, 57.75444611395672 103.39069526720257, 157.88813441790973 -12.23642622845735 M-19.838847869066587 204.68408498115525 C22.087353304191822 157.80389820640718, 62.59966889327475 110.58044577222044, 171.31448609390162 -11.554171908621417 M-19.018563268754622 204.41210824007763 C49.93153820795031 122.66765145767603, 121.35059695787153 41.849598549369404, 169.97547973286987 -12.461154072290093 M-19.134459324926084 219.2846081430513 C45.53504542722088 143.894542847032, 111.96550139626004 67.94321090313228, 181.34727353930973 -13.678942498406395 M-19.573715548375997 218.7743307923169 C37.722422019514795 152.9653775642579, 93.79898785295148 88.06621671741937, 181.61628160535403 -13.336028073243446 M-19.149324364638634 229.40852837247866 C41.36162932647546 159.03032015840833, 100.48524949977211 90.91969064740192, 192.28993197656237 -14.008689759209899 M-20.25297825216239 230.16995891320832 C61.769898662006376 136.14636114924772, 144.81308899360707 40.364085499873575, 192.21958395723266 -14.039592423224443 M-21.4601234495507 244.33917235574668 C51.08262365746786 159.36176091540443, 124.98562265154654 75.42330537065831, 204.67311537814123 -15.396375609428343 M-20.581060042855857 242.52269612257902 C64.42044399350034 144.4331550144522, 149.80774604277124 47.0968320976508, 204.1360564971756 -16.10808750275501 M-18.62715259444194 254.87132952392668 C51.455890337717406 172.56984665954786, 124.04554013509733 89.12712561919965, 215.6558044567258 -16.662428356271782 M-20.17237825136276 254.18245869921734 C66.01524081445892 157.7530163206515, 150.69346215624878 58.72002486375134, 214.8511264541859 -15.292775358559238 M-19.079582906855382 265.8552588260748 C46.773601367177356 189.8517306764007, 113.32290079626077 113.02491105463098, 225.53774801730594 -15.145886294348486 M-19.28404258768229 265.44359923038184 C67.48325487123451 166.32112059961585, 155.35278378553326 65.14986931038688, 225.54768946189617 -15.993848079414274 M-17.226607317671156 275.2879449886483 C35.79336426249271 215.18378354360246, 86.92330399540259 156.385382338481, 235.99446140972245 -16.974894061184486 M-17.159817126988433 275.83481063449614 C58.178172958567046 189.31173251234904, 134.93526661157006 102.8294102321684, 236.20622054564325 -15.429584828666295 M-17.242105994722426 288.92187320175935 C80.94090767044192 174.66542556549058, 180.07380023468534 58.77644635970591, 247.44906145389723 -17.44397678318954 M-18.20430661726329 289.19850253184023 C59.59831942795848 198.0310018441254, 138.04257532904177 107.83888601401482, 247.35108904056105 -16.922180934301235 M-16.381097689600832 297.1239691965623 C75.48878963191603 193.29051611612397, 168.57822531222988 87.07432508603397, 259.3425113177238 -15.863405113727971 M-15.709749332861453 298.3442605630766 C54.38300374893837 218.06866334980185, 124.27395179998788 138.13436529654953, 258.3083948565356 -16.98995752804105 M-10.150207477715039 305.2224094622396 C62.80304207506976 220.63102506397135, 137.42997719146283 135.54745113653564, 268.0856197954339 -17.089401069028256 M-10.818680435627133 304.72951888750714 C80.73467729233373 201.59097176775123, 171.25144885053214 97.48486668852226, 268.7492974966786 -16.77982268820268 M-6.070024957168588 311.0009543053169 C90.61546633944599 204.1968667667047, 184.19521012085644 96.74658948801519, 279.7165633852572 -16.352717813008248 M-5.111312292450576 310.69100730849885 C90.54117433079617 203.34309014012265, 184.11943799115204 95.16590449320297, 279.1529427430259 -16.41647335860287 M3.502155509183755 313.35010403980635 C75.13158981860258 228.94265600840964, 148.8773385311164 145.58198472435183, 290.3972859082191 -18.180022203613316 M3.6294014738913427 312.6580928397703 C63.14643560379477 241.2578643100569, 124.75098975053581 170.9551899128614, 290.74476096418886 -17.374241086114154 M17.03435190937809 310.1966691764052 C92.14783828948363 223.73497340350582, 168.02446191769278 135.8923497435268, 299.65480875072143 -15.590969712742188 M16.32038216031348 311.2552256785006 C93.63990802397134 222.46989610735827, 170.159792387508 134.04979258084435, 300.4187170580754 -15.746595027941874 M21.894569823275255 316.15084568940335 C106.82761875384261 217.02013388226825, 191.3452722946483 120.56586825563167, 311.0242681531395 -14.590385914239699 M22.80245017872181 315.2042354499024 C131.41492297362174 188.89610653620184, 240.82245399521273 63.40592425478872, 310.07868108177877 -14.946641167012887 M40.24790527274848 306.93587471754563 C121.85460911020073 213.72858019143843, 200.444787206382 121.91715700847664, 319.82700578238126 -14.557943905918878 M40.09131970371745 306.6097488206275 C113.7450664526887 223.4728257675974, 185.8421643792751 140.85374811903847, 319.95682890315726 -14.633828125219331 M62.70015539824489 293.3168289933422 C115.53262752246312 230.39099376206576, 169.1141498961974 168.15470173868832, 328.9921023650216 -12.41303801349386 M62.70008362660571 293.1920193984036 C136.4976290425882 207.06184847143095, 211.2669478089069 121.20059287392738, 329.70356898003797 -13.35573095745753 M89.91700073313073 275.28809860323685 C181.9549775673461 170.81466196569997, 275.4824038017711 64.16145961551486, 337.41583312267363 -9.162283771452609 M88.19439211206713 276.3149800425377 C171.4008362963733 181.55334909857032, 253.4568798349902 88.93819764582948, 336.947239184271 -10.275071604896032 M117.21668617731235 255.57425850472626 C174.6153850747967 189.9671392980217, 231.67606695868324 124.42482023527093, 346.88093671082163 -7.24525623864686 M116.66420556983721 255.01571587149067 C166.56130621376568 199.09229994146577, 216.7525076808809 140.98953738868062, 346.59873011007886 -8.158877493724061 M148.13272744433974 233.62188143176766 C225.93724448495803 141.9247432992929, 304.41319787013407 51.067511082939056, 353.24255882733655 -2.801109942374132 M147.1181427484397 234.16265764103892 C220.32686968634874 148.93817283099293, 294.1740273963746 65.0667247345589, 353.3567414701735 -4.435685558847017 M181.66553808805486 204.0803514431336 C248.1227132261547 129.1160486042105, 310.79673077636073 55.18509194091918, 359.4995817543374 0.08101851731222509 M182.6502253320596 203.36177239600144 C244.40596899589298 136.03040851109108, 305.0299322082884 66.01115142033278, 361.125403041932 -0.3618752028150385 M211.07388525121274 185.1225340296316 C244.39394808560382 145.1320747701105, 276.55171290515744 108.24796180873643, 363.1472244373195 6.610963033084801 M210.51402840437524 184.754209136466 C249.8531549111922 139.34547469742193, 287.99302100622134 95.10075385438073, 363.57302331806983 7.372894132685791 M268.9215511985244 128.68494497661018 C296.4974571847702 97.21188833212517, 324.2076563059984 67.02315095763595, 348.68449045885825 37.01373292430384 M268.9308686375739 130.4470453341725 C289.63402054098646 106.31081906350222, 307.9856508242142 83.47767772040598, 350.28233164344454 36.40555408894164" stroke="#43338e" stroke-width="1" fill="none"></path><path d="M-0.18823331147432332 0.18982182294130334 C0.33600361056270633 52.382666424981196, -58.07447462940503 312.14944970558093, 2.5463580567921666 313.3640451301422 C63.16719074298936 314.57864055470344, 364.1534047608575 59.753592301053665, 363.53676280570886 7.47739437030894 C362.92012085056024 -44.79880356043578, 59.415868923139016 0.8087888428852664, -1.1534936740994453 -0.2931424543261528 M-1.7461945293378085 -0.756125665353611 C-1.3547545120434965 51.057330100958104, -59.37719267879527 309.8864875892333, 1.4351505729808627 311.5075940746881 C62.24749382475699 313.1287005601429, 363.61908654460996 60.77897581874925, 363.12786498131896 8.970513247375239 C362.636643418028 -42.83794932399878, 59.2236516070051 1.8667217433270766, -1.512178806765005 0.6568186464440076" stroke="#f6d330" stroke-width="2" fill="none"></path></g></g><g><g stroke-opacity="0.9" fill-opacity="0.9" transform="translate(43.800580225591546 30.380938741590256) rotate(0 160.46732059221426 154.54221452755178)" fill-rule="evenodd"><path d="M-0.21315511016498212 -0.18529291036417572 C-0.21315511016498212 -0.18529291036417572, -0.21315511016498212 -0.18529291036417572, -0.21315511016498212 -0.18529291036417572 M-0.21315511016498212 -0.18529291036417572 C-0.21315511016498212 -0.18529291036417572, -0.21315511016498212 -0.18529291036417572, -0.21315511016498212 -0.18529291036417572 M-7.78348070248315 19.26890475983691 C-1.3662683891813248 12.756618466313522, 1.407881640259336 10.035042945254727, 8.540085389172583 3.2461473777618175 M-6.052683060013743 17.80190440054011 C-1.4642950381331645 12.75487599455895, 1.556572307432844 8.020740573713947, 4.317574735438377 5.6343809738483195 M-13.413463265786493 34.40155398568744 C0.6728553799349957 24.83030077813228, 6.130531188129819 19.24792823569691, 13.955956863048714 8.757261635951332 M-8.640017339179838 33.40987721553678 C-2.9901148590633078 28.591419869478187, 2.6890203744180674 21.66151206178386, 13.913095483365696 7.795602957002453 M-15.10133683507533 53.697355304551095 C-7.515075423315091 40.918782596541774, 1.0149504527817363 38.515060818827024, 17.67162870975643 16.5122708284772 M-15.099877154577683 52.15759260643718 C-3.585618766845288 42.054576173027236, 4.2545009834278495 31.38145157657354, 19.390068132304247 15.301636634162717 M-14.901699614210187 64.74592026024219 C-1.857243097223737 50.74997187657975, 17.04855690063924 31.8238336650519, 25.44929701642508 20.898398795417123 M-15.527061690075456 65.89315616785642 C-5.444837515829221 56.00100330716823, 4.11186642776963 42.89537084233096, 25.130598215324827 20.98857088505345 M-16.354718712374623 81.8014073205701 C-7.538976251041049 69.23640542092028, 6.6504633641403625 54.622976812941545, 29.481641905795172 21.397752362798343 M-17.723700945481713 79.6600330082289 C-3.5549517524531318 62.602783216104, 11.001478477588613 49.779773172243765, 30.96384046454294 24.60438167632688 M-18.642714006828108 89.72092331156209 C-0.7603178403556576 76.55739105788048, 4.890941837869786 64.37354461577542, 40.602541413635706 30.897192097316395 M-15.173140188680925 93.51869909420684 C-1.372178725611997 77.49525860874051, 10.186265489098716 62.60275289179603, 37.07108502510259 27.96586121530355 M-22.306807461801682 106.76632879991368 C-1.0341580871497236 87.08077387185142, 17.90712938108377 65.67160877589004, 46.37948469167767 36.90536524477574 M-19.006589274529134 107.5984466331108 C4.512115207267737 78.22242845534235, 32.20618837286864 47.72046594970091, 43.82817065810976 34.42565088841292 M-18.56209672263077 116.53830396986993 C9.22875900374925 89.34762895508709, 33.93520497514479 59.61338425394078, 47.36509977569007 38.09038237187191 M-17.56829623898676 116.28144994981082 C4.452346332666124 91.56853064517041, 28.558091655790555 65.29515482162904, 49.80701250870847 39.65991790297552 M-14.16730792748941 127.608216869463 C9.554521089174237 102.50919181157599, 32.02793744394506 75.37427912419795, 55.84562581740391 44.74214072440939 M-15.535200110852848 126.08463373296408 C9.35540015538768 101.62837014248394, 30.521651352081285 70.12898352614113, 56.27407433800471 42.380678645420836 M-10.243024837675094 133.37683600382906 C12.025599325884544 110.38506323296234, 26.563000896807992 91.47811555326194, 60.09244085258819 51.31000086908369 M-10.985160042049884 133.7683856283317 C13.697952864987375 104.41376948070322, 40.60238133495427 73.8102662301056, 61.19189629114248 51.12347532306938 M-7.204987475399847 143.1779411001092 C20.632223833240012 104.40516110606713, 54.55875389650504 72.19329312032846, 70.4544750039834 53.619819631922056 M-6.580253945414896 143.69016700367985 C10.649287367355912 123.51235183487779, 28.24416539603679 98.88207060244471, 67.06150810023728 55.714408902573396 M-2.0792657179231355 146.21238898433057 C30.339180723887306 114.81850117391184, 61.81244223669863 75.41863684357483, 78.89003339433006 57.63807883895171 M-5.1319520888323495 149.98857882566062 C15.889969234827696 127.26421324138724, 33.31026497999694 110.00143836551126, 74.20425199740461 58.2842678505851 M1.0613865285049968 154.5763710627433 C28.86943669374092 120.42384242130572, 59.21927373840727 87.07670994574924, 82.49861905939714 64.2360140568682 M1.7125287308227115 153.86161914114916 C29.755037498384365 126.600721161644, 54.09598018528314 97.83791979483895, 82.04360562778847 64.28265687442506 M8.59753132864408 161.76141332182004 C34.616168369128815 135.8886791029578, 57.94089429340765 103.79921832862456, 89.61334615091569 70.40664753147597 M8.720225187684818 160.3166830772431 C33.591505596937864 131.14734592960878, 62.63121309051946 102.1943929662689, 88.94759525249488 69.9450298605227 M16.175164776244102 163.64495716781087 C28.220907337629733 145.71397415029676, 50.99150485336897 129.78478373417562, 92.05246770465465 73.80246482947058 M13.634545484878956 169.41114368081756 C45.22054492310843 131.89552351672268, 77.15022084687607 94.30216679979522, 94.2303235166678 73.08036651619858 M17.54965796505506 173.74506900696576 C41.59265259961929 149.72208198437698, 61.47628391285716 122.37315860205783, 103.21178884335455 81.95244777687927 M19.769210325530125 173.75706149874748 C37.9304341374372 149.15144290837108, 57.61075484173442 125.18656069027907, 101.99438265242276 80.53820530810495 M22.741816017817456 180.96573066531192 C48.06572191538317 153.58680989062228, 68.02221699176876 131.23078760432963, 109.5964896897559 81.02620319972924 M23.914311941753823 178.51647499768507 C53.52047286080173 149.94096300430138, 82.2940337088003 114.9515705369021, 106.41267739187525 83.222772202894 M33.5697009992908 182.36096812932217 C53.8829440593927 158.63075751513543, 77.9525597982816 131.5863526026455, 110.35294827962768 92.59809166471604 M29.618137007684567 184.41552930472815 C53.13453562677576 158.71382495361433, 75.24836226093613 131.62354320702383, 113.01024788016927 87.1071094078863 M39.11680900322507 187.3707228052465 C58.545761273187104 163.01395880976315, 85.08059315142381 134.76605054560707, 123.36115376470089 94.86426041764413 M36.40534372644733 190.2303474667517 C56.26533730765411 165.00723578731882, 79.55573948804852 137.1753920256532, 118.50668287841081 92.7001083095113 M40.57601112337028 193.07556109933483 C71.98388336503268 161.7340641346634, 99.05969691184737 126.1818054109282, 125.48623418074453 99.18032002520907 M42.37090280116712 194.2917400306307 C65.0417684085144 172.80322721258113, 85.54426595909234 146.5937283116854, 124.81764753174389 97.83418611508954 M45.40561248246695 197.9419648376145 C67.27993354408252 170.74743093780205, 86.98743178095637 153.8539461946142, 131.32692867948964 102.52366773321528 M48.08615646395947 198.48049546301743 C78.24503288734189 163.3261642001621, 110.28723515964248 127.55716442953428, 131.55335560127452 104.37760921105045 M58.20511611628403 203.341169586781 C74.97024589538209 186.210551823947, 90.47128198556756 167.44982492981111, 141.46711529670515 108.03116410835833 M53.22458235996832 203.9962184712324 C80.96629608821642 170.2584976541732, 111.72371718150576 138.33720333673293, 138.02009723214664 109.02216980471462 M62.80763617655256 206.76619759263878 C78.6673363744163 189.38312135407656, 100.17173908171037 164.24773358510137, 140.56822415513162 110.21616597666544 M60.40420675029972 210.82436294170503 C81.98071404463442 185.44735182475208, 99.17793111761083 164.36810231314803, 143.06265215647582 114.75021886273426 M67.18748472803205 213.6148248416606 C93.16141856919363 180.88143496170846, 123.99779479371591 151.17703701934892, 152.90106037750954 119.73265516416386 M69.84519130908816 211.76919900153314 C93.77828716315807 181.41474133321668, 121.04058438903436 148.55768663097902, 150.34611260637755 117.84879485176161 M75.58440786447244 216.6707427400965 C104.29048090943766 184.0237125483651, 130.887865317323 144.86752889262144, 153.87762699960786 124.1393672375491 M77.24406923945861 218.1849746975917 C101.11500322548143 189.67569814343213, 124.30700130265592 158.8002889167154, 157.63770622699576 122.92375247911718 M81.34752667962378 219.3582676941965 C115.18449102558444 185.0463179809603, 143.93227702432785 150.75014634979277, 164.14353817315765 129.1168244426256 M80.3676862445361 221.4806255767558 C100.54313950143177 199.01019675705405, 121.6415212530564 181.5522156510642, 164.64920927943655 126.36679563123046 M92.43533726723608 226.24234111021053 C106.4549999568824 206.58568055635712, 123.37781566350729 188.90950947059642, 173.82954693392787 131.005012346089 M90.30320052744564 225.86977468590032 C113.32558228507656 197.05891027200957, 136.9047534345599 169.12829648089757, 171.03847440884385 135.14315401542197 M92.91571072105927 233.5285293943886 C124.2346906339165 198.28188972657088, 150.3242607273098 167.4585305347689, 172.643958404659 142.02041277396643 M94.70808279131217 233.1207325719003 C122.69910220130406 204.88369959485252, 145.44847620801758 176.39846695232353, 176.25184384733316 138.25861609834396 M100.46589313484344 235.56302395298076 C122.98976161228728 215.64341672814547, 135.612066058333 199.46588307541137, 181.4044527080916 143.0201325522851 M101.06011623926076 235.30649728163075 C133.10877412751236 200.5162451395514, 161.6254110960337 167.38869537591256, 180.80597232702004 141.7736578466486 M111.87250560233855 239.33264119223696 C125.76089805720343 217.02631878298547, 146.88306747917713 201.2339985999533, 187.56990787999464 148.26603224774067 M107.9073965744164 239.55475436196667 C132.41760673155005 216.04563318875609, 154.13372351173822 191.09252180144665, 187.56964999304844 147.81757146765653 M112.53154421729458 246.9648225184073 C136.05834077443535 224.48415766051727, 157.0665968989525 193.9118008077894, 198.67675404310862 151.3964686863603 M116.11833199990404 244.79787685978312 C138.78250594017513 219.30409045138774, 157.88018411571286 193.39020510637673, 192.95015657753387 154.81020792801993 M125.94838007346154 246.2276343377416 C145.45921049379564 219.9348635324815, 168.90880929544795 195.9732130673325, 201.2147372911835 158.94513327439395 M124.13164321884871 250.52292532195494 C145.28430387459545 221.73036009313887, 168.20529447759503 195.10662272387827, 199.5190252836013 157.23081527461378 M127.89381829357998 256.2750584762673 C150.4170202954589 230.1560647685522, 172.66857783343676 199.7942951949483, 210.78297871796937 164.08634241809173 M127.86242246336596 252.76693821513456 C152.2504932564472 233.00686620149764, 168.69705445745493 209.82067203333776, 207.91810181437583 165.61332905431314 M133.93592094240935 256.41112092045694 C156.65805988012502 235.0082736463384, 180.31276740560068 210.40851740866924, 210.24603344620667 168.38032794348075 M137.98395640759023 255.13106066641956 C165.38215157420242 226.6154595046201, 192.1558907101522 191.75037103375627, 212.76560340197287 166.54166273377015 M146.90818411369963 262.32576307656075 C167.22332206559213 229.45712193052918, 192.56365716826562 206.86862095809053, 220.60965451166436 175.29207541725663 M145.1459032546465 259.2664157226851 C170.71523420974225 227.92829481714276, 199.1891469553728 197.28779864066024, 219.2818826915364 174.41854602030543 M149.09741987221037 262.1042609310513 C173.90236430603437 239.15988076708862, 198.4323969767643 210.53035620465374, 226.45714703708302 176.16306666544654 M149.91217467866932 263.1335235110288 C178.34243036267674 234.43821442788928, 200.46717457448042 208.69059650789927, 226.47578191518198 179.68726738057114 M154.36799236967252 267.7083867297332 C190.92858778162775 233.44087767948025, 218.16752716565995 206.57147483192307, 230.82513211621261 183.73011809430054 M156.63517194076465 266.7334629178803 C181.95210374988338 243.51890140107025, 210.05708594444673 212.58921560843265, 231.7703967760346 184.60051236144236 M165.7254636708456 270.00466645907915 C185.64984539352167 250.88344335355322, 211.7201086510941 218.73699863869473, 241.35960584280312 189.8706711100686 M164.76943171506701 273.3861290703372 C188.02285231481585 252.0097355794199, 208.4741672319418 227.2401279985347, 238.90913547721922 191.21565400979404 M171.44082986947964 274.24554152533915 C186.43107173356998 256.3820440373258, 202.30209589132872 238.36674352173938, 240.4719983395951 195.34808253877793 M174.7458622047014 275.46139501527455 C195.5281135966408 252.21279569985214, 217.76853322039167 226.42191068321125, 245.86177775085142 193.3900432922784 M177.23840303033413 284.078787914986 C197.71526119488993 251.96826573088623, 222.23141931031142 229.43182068156898, 248.2149376423575 195.33046294712412 M177.90962508380235 280.63853087979015 C202.57331734371274 254.90729223771996, 226.93673726309254 225.8742403074804, 249.45023874207513 200.549847416216 M185.76398827614955 281.7833874540469 C197.28870419171952 270.6271947776785, 216.4658514880279 252.55304599906253, 255.71860387383083 205.36241916113437 M185.73831258448533 286.3920751305362 C208.05521439889512 258.1792833625278, 229.9273460320519 234.91750977848773, 256.53492318300584 205.9117923482591 M196.7727657296664 292.27894696854906 C216.34502211836815 271.64023421885275, 228.61870172979943 250.0691562547439, 264.0664931277651 206.88389258705865 M191.77982943886582 290.251253734165 C212.78093841506106 267.177066606654, 230.60511154289807 246.19082102754123, 260.6404892767686 210.25200113528263 M199.97323148463468 294.38040786474255 C225.18259658818334 264.5343649620492, 247.3828463502074 238.3826312462406, 270.45147649791033 216.97544963114703 M202.24633385006885 291.3046897375515 C225.54651033102274 261.5788900246765, 253.3911875745914 232.06762597981609, 269.8619077264884 213.90128432416165 M208.5271976058139 291.2980461291001 C221.3297926957904 280.028628441671, 239.76836888357445 263.6117508468027, 278.331859107007 222.10357211942667 M211.26423749222892 294.95040326779343 C230.55357336751356 270.81962876193325, 251.12943252275142 247.18439163841506, 274.7705207642808 220.74043038154835 M213.8619101869541 299.6280531678717 C235.27066062873521 279.121511831598, 255.54831353903984 254.73712948025604, 280.3071439908241 227.63949561859317 M217.43632356847104 296.13639237176585 C229.5288864926184 281.27715889559255, 244.65040892284145 267.7402081015308, 281.03980603528964 225.9690440147633 M227.17004935079575 299.8525358070846 C248.12143114627526 271.7066056253393, 272.23777419179044 251.04912066911524, 287.55438627210214 227.83095195467374 M227.0917468109107 300.11063301612097 C246.1210209435976 277.32472888334877, 265.8203132682343 257.70843002075367, 288.63173077163054 228.32728869045874 M238.94155216209825 301.1036450332116 C254.28627014727527 285.02611130279297, 269.7339079593893 262.8002754652485, 296.70395704459105 231.32100753391833 M235.56785639368232 301.43520782795656 C254.18803233659725 282.7639551759998, 270.62004557912087 260.5769571256405, 292.4225156764284 233.86472495550962 M246.43178971461174 305.3994472525026 C264.90333606170844 284.56210349649996, 276.58177965798086 266.44691614626896, 299.99560240204096 242.89335376257702 M244.42837301991102 306.4721773541476 C267.4607271658481 278.65754209252896, 289.8764321131162 252.52441206410217, 298.1086939528084 239.93560085679098 M254.50550810208617 306.8986338712077 C263.31742147803976 290.3206743083037, 272.3379221605549 279.2312370184911, 302.7784434382018 245.97230704689977 M252.05732989272175 306.88828964156914 C268.0882237065346 290.5825558191433, 280.3273929366993 273.60146381120694, 305.4571113038954 243.94885194117782 M260.480769389281 307.15523087579965 C279.1013187280589 287.133442449546, 295.8157354972068 265.3007776022326, 308.3549172178331 249.87751837335932 M260.253013686249 309.1596898173189 C275.20536767912404 294.4009667008187, 291.0483681624704 277.13777123791056, 310.8988669038239 252.87281083576787 M266.90924675691787 309.84505093186004 C285.59432991672276 293.4894271495254, 307.0922490227558 266.2266857653914, 313.4489538636753 254.05984456798296 M268.75825969058934 311.54837218760355 C284.98384761386626 293.02718044120894, 302.49334977842193 273.29506056069147, 316.74749048470943 257.7210785072134 M279.79592935672764 307.0392412851935 C292.7318136653913 296.6401159730952, 309.3537008493769 275.12081645896603, 324.39385849846894 264.11076745679793 M283.2301566668487 308.62572813885265 C291.6077527849244 301.0733628252151, 298.862886460592 290.20104457858804, 321.1368242786675 263.8119434221667 M288.8506500795269 307.7419604036093 C303.01830805319526 296.2369867152791, 315.4470941234864 287.71299987790184, 324.664134157983 268.52652260649967 M293.2415746152186 310.0602227795005 C304.5873756817413 294.4141695249312, 315.4452484249895 281.5730970732562, 327.3028459308421 269.7825102879481 M306.10926613502744 313.29618637246637 C311.25936891397635 297.0330012268801, 324.94808686466655 286.71853106015044, 336.9678949939485 271.9251322628927 M300.65234535478595 310.27320333553104 C312.3095652533475 298.00783996891755, 326.63245018481706 283.02575961564037, 335.4260817023392 275.0557329909873 M308.93671458798906 311.95907017823754 C319.5936368003593 302.0570098719476, 328.5954746035489 295.20370054584475, 339.49839404213446 283.5840819926726 M312.36231805968544 309.2642524340421 C319.83287388209976 305.3602517837299, 323.22738325666506 296.8785086565508, 340.6331342383029 278.6280912386047 M322.183071387209 316.6472261282866 C321.4492479004435 305.3753741261285, 326.90400462153417 306.68273274269717, 342.0582593383098 288.92148236253485 M320.21741828808933 312.6064785230224 C327.8434393292955 307.34619562154506, 330.88386968115725 301.57042307791966, 342.87091868387705 288.8007522381209 M32.82891442901597 186.29985774325277 C32.82891442901597 186.29985774325277, 32.82891442901597 186.29985774325277, 32.82891442901597 186.29985774325277 M32.82891442901597 186.29985774325277 C32.82891442901597 186.29985774325277, 32.82891442901597 186.29985774325277, 32.82891442901597 186.29985774325277 M67.45124435659926 206.1939316126603 C48.50994700301358 192.03499715934964, 38.79472385338033 180.2863571471213, -5.5806111854252975 143.06314975305926 M65.6698215850858 203.13532788633287 C48.692872547516174 190.11376022718892, 31.44163898765016 173.35360829155616, -5.2761806186971825 142.23103628590238 M123.16366508037528 248.5174881327479 C97.23944919188443 218.51469244436828, 63.53857461871449 195.6793772408521, -13.005049220218652 121.57574648425626 M124.00411592603406 245.92025892767597 C66.63005452720984 199.28094626602658, 14.46539846400158 151.17224230516644, -14.793504862978452 123.03341482595252 M160.55877792537905 260.8921209975372 C110.61065879233692 220.9396225251713, 68.46744561940555 182.54709561117176, -19.83418639616334 109.41182965463652 M159.52699660319746 261.7020571699391 C119.37854024087376 234.10419420227544, 83.54218305210227 202.8993093718803, -15.76478853864055 110.12482773716715 M183.71547345604037 275.44683167281175 C130.16441826269244 224.67865026790028, 65.52979829265857 178.42936977016396, -16.41505026587546 103.25502075943409 M184.18191989369942 277.4805199136308 C112.98912855732618 212.7943534648275, 43.31724680179844 151.46229661642505, -17.567216293322026 99.9242330864373 M209.3650024572111 283.90649612816003 C156.94129199720484 238.6326242270084, 100.90496707836125 192.08148564243393, -12.990830528283563 89.1005944368078 M208.46861014497264 286.6049264649882 C160.80845314852095 240.79680212674754, 110.38299476177774 198.697163949066, -14.783004035675935 91.58507349953784 M225.78225968729413 294.4233056409126 C152.83096456054335 228.3307261119729, 80.94978330277367 162.10799038819724, -13.435499924774783 78.693490387511 M228.28069675930627 290.4163095388437 C170.55882283921676 244.4109395368895, 117.38661691547098 197.1417761995642, -15.17192382002949 79.85812574753317 M255.80447029248353 303.3435068631617 C157.91325821341215 222.64403336659043, 66.79359662722595 142.2350829039569, -13.234791053174117 73.38993660199066 M253.66671484501788 305.48370864967 C165.98245528429104 227.80374889817097, 79.94620930396238 150.61245286381043, -15.020897564749074 70.73762036725219 M269.34067944781907 308.8545078552388 C184.60221168258573 236.91739505344032, 103.76729417162552 165.60684211243122, -16.14981394702753 60.458545286908574 M269.9000707626601 307.0613913474151 C164.99586221068765 220.85795332038126, 63.80980098713763 130.82871853267994, -13.452295230434675 60.78929954043277 M282.9218109238993 307.94644033964465 C162.15364028868657 205.50553664962288, 46.905666602628514 103.98684258271788, -13.269672917327032 52.1689321292662 M281.8812235701958 306.1378481197784 C216.3041258607733 249.520339783907, 150.76234300749988 191.2376062469227, -12.257454822932122 51.00540506598301 M294.5254701714936 306.6840428720487 C194.0178139386009 214.8255295037335, 87.67504727645918 127.65498350393864, -10.723618344698991 45.361716027163446 M294.03260711889664 307.890181363211 C195.08768361833427 218.19620168248093, 92.74618607249589 128.23344675554318, -10.70988440018923 43.36244905791032 M304.27545491170497 308.10896342269155 C223.90080266737428 234.16985945601922, 142.92893723195212 161.68185992637507, -6.632748063105073 33.70698261703867 M306.7879868723043 308.0484095146796 C227.7983557660717 237.40110473688256, 145.5513982574522 166.52023132587695, -8.520177233615993 33.80676008437676 M315.7220590002544 308.06499781496984 C242.32914386343768 247.29612727897387, 170.85740312875086 184.58455475355856, -6.091939564732958 26.708775307160106 M317.83550900010664 305.6750254838896 C202.54831330821236 204.01300413096592, 88.58143122744166 104.12026378421876, -5.931926049459584 26.714367868211863 M324.84311250335224 304.50901457887306 C230.3236877949494 215.87315097307163, 138.06480280220774 136.4878927590355, -3.125498201820928 18.038924203534116 M327.1238362196848 303.72216886590036 C253.76629078656288 242.97287791063053, 182.494605675097 181.32707934800183, -3.9945277250533042 17.709630653484442 M336.3438630929301 303.1311248164404 C215.24926919607518 202.26805451918588, 98.53288429547374 95.68801841427275, -1.258922102160392 6.88738268697554 M336.8117686298425 301.82555311602897 C241.40851746419293 215.3886449965335, 145.6339553007431 130.96033210824214, -0.902818525631384 9.104245318727953 M340.3302881057385 293.7509355554694 C246.60068586374274 215.19553873474297, 160.11601044196098 135.42444821398726, -0.7693073853188643 -0.46388658144651496 M339.2377558233328 294.4070131517331 C229.65430518546046 202.19581624155293, 122.14221790586812 105.77883693018455, 0.771411107476889 -0.9023720376303299 M343.95060815230573 284.31474985915855 C302.65036717262785 246.3851515182838, 258.59100641886005 205.90683836984587, 124.1459454803109 95.41935380582022 M342.8121930790041 286.5155465155429 C292.55498406507184 242.65149328750675, 244.75852898586186 199.80330498620697, 121.25554498037447 93.88920537432823" stroke="#f6d330" stroke-width="1" fill="none"></path><path d="M-0.5781851243475483 -0.4249807819724083 C54.71507396708297 45.477783660093145, 298.306853380173 228.53201498022716, 332.54873616732334 277.55166146009685 C366.7906189544737 326.5713079399666, 261.72134627958525 315.5696379224615, 204.8731115985546 293.69289809724575 C148.02487691752395 271.81615827203, 25.740419820875633 195.16621926053296, -8.540671918860586 146.2912225088025 C-42.82176365859681 97.41622575707203, -2.053652107354869 24.627659343274846, -0.8134388398626854 0.44291758686304084 M-4.133429039219957 -3.123995587974787 C51.99058674350746 41.78168111319264, 303.67882706644093 224.72715815291846, 338.1650356265125 273.4628559808386 C372.6512441865841 322.19855380875873, 260.5974352596739 310.0074624474502, 202.78382232120967 289.290191379546 C144.97020938274545 268.5729203116418, 25.834732218564255 197.10663475492527, -8.716642004272849 149.15922957341323 C-43.26801622710995 101.21182439190119, -6.283988962557783 26.570655176781035, -4.524423015812975 1.6057602904736994" stroke="#43338e" stroke-width="2" fill="none"></path></g></g></svg>