<svg version="1.1" xmlns="http://www.w3.org/2000/svg" viewBox="0 0 341.212158203125 341.212158203125">
  <!-- svg-source:excalidraw -->
  
  <defs>
    <style>
      @font-face {
        font-family: "Virgil";
        src: url("https://excalidraw.com/FG_Virgil.woff2");
      }
      @font-face {
        font-family: "Cascadia";
        src: url("https://excalidraw.com/Cascadia.woff2");
      }
    </style>
  </defs>
  <g transform="translate(10 10) rotate(0 160.6060791015625 160.6060791015625)"><path d="M0 0 C0 0, 0 0, 0 0 M0 0 C0 0, 0 0, 0 0 M-2.409930765423992 24.192379405438064 C5.838100786248759 13.085470308051178, 18.917696601367396 6.230464238573884, 20.310238136256004 1.3022970086127046 M1.321741100605509 23.725024515478967 C5.218245188178738 14.731087387185422, 12.509161227508999 9.280591335095412, 23.165344426685834 0.13804234696323903 M-2.1114954594523496 45.303489130594656 C13.354198307703875 30.146925812220534, 29.218027274991805 15.263623730516578, 44.28556079100423 -0.10061384473452506 M-0.8594460766763277 46.97924511195056 C16.027938120624285 30.843609403904058, 34.67247196131175 10.428199182518249, 43.111907482702065 -1.5194588984967226 M4.110721959005893 71.92085271546988 C16.692003394074174 60.91155070014859, 27.603264780443652 42.03524239404115, 61.31937801362355 -2.9122389925153485 M-1.2874177003094545 74.32135790432243 C14.036456533818477 55.42690414374543, 33.537036349640005 35.25615285035159, 64.895006946189 0.27196487435386274 M1.0420155413447247 101.73382096113428 C21.437457092709582 73.54589982591727, 40.08610318079348 50.80965977758514, 82.90753941348896 -2.9760842941047656 M1.4211427420376168 98.58292560772762 C23.950694328163266 72.91377794509776, 44.03997045436893 48.75667992372696, 85.07335863745914 -0.7163240297975051 M-0.44714704507984493 124.32696884776732 C30.085365649962608 89.75622763012666, 53.318851975032054 62.895980090652316, 107.75683209997547 -0.9715931088777765 M-0.39418087134160373 121.05714136640808 C29.284913040457432 85.34013429011442, 58.66002240851754 52.195292042053225, 104.66270962682498 -1.357494556263326 M-2.243537719883321 148.71306259621676 C35.15204730918337 106.58225875650982, 70.2686308775284 68.48660043614444, 126.87892165346756 -3.409436715986608 M-0.9049504991251212 147.65679581527408 C31.60859599742054 110.62101496495049, 61.21683350117527 76.04587361586663, 127.60477920560851 -1.5395373201333271 M-2.8186958160669313 167.82316888542945 C41.26003258569997 121.02999343505917, 87.09500573061868 71.53602811135269, 147.99334833229716 -2.8739051369358135 M0.241464158806312 169.71309679175545 C41.08164282854825 129.36220125406663, 80.59414481106451 83.58084815763077, 146.75285779451454 -0.2258256424999891 M0.20683219930924113 192.55091949499626 C49.51596852082927 135.02481351544043, 101.11970907964837 74.23762271949158, 172.45541972369108 -1.4678133657684704 M-0.5269947332762976 195.5034166584469 C68.43294555870122 115.66962461867728, 135.56827763483244 39.723327068156344, 169.78948232115292 -0.3362512857687002 M-0.19293089778283945 218.01499173144614 C59.63270423927342 152.37292898737604, 117.00151067710662 82.03527204939937, 191.3906417187082 2.755801898989981 M-1.2520315080464521 220.69067849658947 C76.9355554153052 134.05030606668657, 152.56022128387733 48.09462842691269, 191.5083270939559 -0.5037887197620898 M1.370477005259544 245.06165427738085 C45.73506762190811 187.31420023371064, 92.18343415565691 136.94381267705035, 209.3894348547599 1.433646046945764 M-1.0504963198922121 243.54846147694738 C49.79184589564705 188.22400858703867, 101.71985608700281 128.87856182091392, 210.8796674248988 -0.0010519779974178106 M-1.7869235575549913 266.086394243274 C79.75579891651402 173.11990509773875, 161.602193315831 79.57990906916405, 233.61178825972036 -0.7276973136555821 M1.0697834315616026 267.7855458903924 C68.33638285154811 190.86396596641677, 135.63820531313613 112.34362463496691, 234.44783573613353 0.7885166267372249 M-0.494756205123542 294.1118802307314 C87.04347382240286 194.70683733211496, 167.70016347734256 94.73164494603164, 252.15388899804756 -0.8468973239028521 M-0.22531933736425916 293.65784063907563 C99.97055617901553 175.3392980067044, 201.33159567524459 58.706064533484145, 254.01047703282885 0.07568640291210169 M-0.966837998316896 317.1965485806762 C91.24038180508298 208.97220596974344, 185.4362881079042 104.48216631590803, 274.65619707132 1.4730030029562091 M0.35310869097101194 316.2877471973014 C84.4929126439029 220.95726930953964, 167.1202378755091 124.0534842721536, 275.46023373744436 -0.9790385084810942 M10.204336188789746 331.01170347734006 C90.87809640638564 236.3309360465961, 170.18817737795504 145.9821293012869, 295.36700236403595 0.27491589261631855 M11.054579951043191 329.39030961340234 C108.17855113012159 210.9021766686305, 208.9642230479908 94.4686173149603, 297.25057010068497 0.02481807681415571 M29.724112464383293 328.6095616297541 C135.04796167516184 207.76871302793413, 243.08055128136462 85.96029774280942, 320.0195559432637 -0.685866613401978 M31.68206581214779 329.8441363697649 C91.69828894534669 255.45779594166757, 155.71605515873858 182.6359757997292, 318.120910414302 0.3087696762956883 M51.37325373644184 331.23211576292783 C135.88455798680255 234.04346293045592, 220.2222421609831 134.37967764104468, 331.48256255743973 6.796179845535928 M52.888682516651215 330.43531404956894 C133.55335708035858 235.2684459467749, 213.96261139023625 141.387486724653, 332.40625157238054 8.878071253313333 M72.20964267427068 327.9337234940242 C159.60322662312998 228.90683965350422, 252.4978888624421 124.77094065351174, 330.72025739536514 31.932319715004613 M73.29272258954214 330.3145471627186 C171.51792420809917 215.68874764651162, 269.76450145082055 102.21960600963715, 331.2150794215661 34.4562664610691 M95.75027117820457 330.7664122815502 C179.2740474596298 231.17189096670091, 259.3946781458858 134.7237702373315, 329.850567172436 59.5167578856719 M94.95407480746381 330.33648185435453 C163.1789099746711 250.03179993333077, 230.36312878997808 172.38720028220067, 330.565580151292 57.18221864495732 M115.68013883563574 330.5805835379422 C181.8657005687357 256.6967599739204, 246.93579780748325 179.9871128190513, 333.1155538735119 82.77433550782236 M115.3616248755411 328.7636350088719 C185.27031016000188 252.93905330574358, 253.5916405159533 172.71227109874715, 332.2412326131071 82.71096330823092 M139.53667664985048 327.1365168918287 C181.78486698173057 279.1090339360935, 228.0886796084869 226.0682997193516, 329.694393262982 104.83119338527406 M136.42521585067794 331.1366560340061 C189.3886373986951 269.98016423957534, 242.88134035190114 208.15278463523714, 332.3808681917054 106.9421001940661 M161.02988181833678 332.2028170883756 C205.86020823905122 282.4412575281508, 245.1712993058584 232.02012153716325, 332.2306696940003 133.2617474578425 M159.38489761745362 330.033945857909 C222.7995594081787 260.57455958176376, 282.5185403732205 188.89042931887164, 333.1029517488055 130.8885109589228 M179.7284131015627 331.41530748244736 C211.8039568939137 289.50791805060675, 239.5680260548172 255.2697158285738, 331.30001469918267 158.7109989818546 M180.2217770459091 329.6256218272869 C227.82518084093002 280.26348634438716, 273.66536797555574 225.62424305289807, 332.14670216140024 154.52009888686405 M201.55496943902165 331.1289059567836 C252.85633786462068 275.8500132654142, 300.61251857071085 216.30549264483602, 334.9416256987179 175.7737195367788 M201.58944267567188 331.18651229996357 C252.65729992064502 272.05129297336697, 301.7598971228028 218.3677797507189, 330.13143185830364 178.90684889879572 M222.98920780421906 333.04625419767467 C243.6557967079887 303.42201091082313, 269.48172511669054 270.80914059564253, 334.18889065556846 207.84090683761895 M222.54415773974472 330.0345919566032 C253.72677141995675 297.05613363267616, 281.2120055288319 258.27924907941195, 333.0983274141761 205.26268158633172 M242.3107981591626 331.3314994722572 C277.87633934723135 288.52865183835087, 307.06437933192717 248.083990430376, 328.7859631155306 229.0859788575528 M245.0948086253508 330.30071284249095 C268.56644493690175 300.0860860807749, 291.5952965778679 269.72744945377565, 332.92378520338474 229.89598166508057 M265.3517185842368 326.77865800137874 C285.26262734760905 306.46720724407936, 298.9389992702437 287.5599622182539, 328.4632586589889 253.77951431742798 M264.4604583738121 328.7570405925369 C277.3992598487439 311.71079568482827, 292.6750886647796 296.0835752713094, 333.44014951725165 253.2781335199524 M281.8730617467974 330.33167976521906 C297.091046528363 319.31794224435663, 303.449481908154 302.08414282270644, 328.66213036632763 276.8561544380924 M286.910378363422 330.64208085098323 C303.307030207525 309.58241297783496, 317.60867110118613 293.6808261061039, 331.68679589709865 276.4859902858576 M307.37868072722927 333.86270598462573 C318.84946130736455 315.1719509346853, 324.7110971966679 308.62195486114507, 334.2530459049031 301.90047419972547 M304.9526941355027 329.06393675274006 C317.5116898777741 317.39966318960586, 327.2982642740675 308.97360808702683, 331.00330822121947 301.8127451070381 M0.20064964694472565 321.3865802801615 C0.20064964694472565 321.3865802801615, 0.20064964694472565 321.3865802801615, 0.20064964694472565 321.3865802801615 M0.20064964694472565 321.3865802801615 C0.20064964694472565 321.3865802801615, 0.20064964694472565 321.3865802801615, 0.20064964694472565 321.3865802801615 M26.180030706888516 323.26657485116573 C18.988941949756914 313.5271058258036, 10.27594874452219 306.7433826005959, 1.7306941405990415 303.10399643410483 M23.399356186008532 321.3267774534628 C14.053305748347025 313.7452555501704, 5.819448931747356 304.2546349742267, -0.552450039132566 301.45129660968223 M46.53357159583294 322.28558720754756 C42.67342959200904 309.9015813433486, 28.131526602471265 305.1727842894272, 3.403756321156834 276.4281771057726 M47.72552602602565 323.1178870398022 C32.60973561012309 308.18219169619783, 15.185409917451004 294.98635954943416, 2.030310031706904 278.80233906819234 M75.8657021599257 324.7368965530053 C51.28054501453418 301.6122827502315, 28.44836152395699 284.9361976955405, -2.3444232585392513 258.9913485611318 M72.11643284954071 319.75801495921166 C54.87378630005261 302.6795343570567, 32.998994843910054 289.9853759748965, -1.0429472009203948 258.54212588095055 M99.89573158876455 317.4643060571545 C59.932317029869694 288.0806870508821, 20.310755120502208 254.39387185452662, -0.4008074891142712 236.2078174408074 M98.40112705708897 319.4089575453692 C65.37488218345821 294.9480215900074, 38.62342120559712 270.02737182011083, 0.7904003332979812 237.00061310264425 M118.55390657194727 319.4756813896106 C73.05106555666941 280.31581507887233, 32.02756979420188 241.352586374263, 2.308578238806817 217.90595288542443 M123.36569029920571 321.08797988195283 C81.06915411658656 286.7050819006784, 41.634605618990435 249.73987725407133, 1.1750059546745746 215.23822553796106 M149.4672825584033 322.2247736330176 C106.03691962011888 286.7199116863258, 65.07487443666876 250.57895056774754, -1.4313539654010157 196.5781865356078 M147.61410673575787 319.574638715669 C93.53322489795175 274.5916064885065, 40.103314497144 225.82438249469516, -0.03744576647814313 193.92085674158835 M174.41896908256518 324.0239227684379 C125.70718972370129 279.41357458802537, 83.21105062110625 242.83348542056513, 2.2035685409822134 170.05657432626938 M171.83998445381803 320.96703011445794 C128.0389324041668 284.81611884280255, 84.74138681928537 249.89657881533515, -1.4629587823256605 172.24859573184497 M197.3715412327343 324.4066752102304 C115.71963926438684 257.5455055122243, 40.50248319921881 190.11739973842842, -0.12165482642590145 153.17282273558962 M194.6989337472365 320.1339811465254 C140.65946251231733 271.45840617814207, 80.67116104568836 220.53274856664854, -1.7223475638437213 150.70949003999579 M220.21280047798223 319.19741979584444 C148.25335160624846 264.8530570000906, 77.29423783835314 200.96321542434538, 1.3366885432709927 128.0984796359981 M219.30126069049788 320.03080213996975 C148.86338811831084 263.44098359192657, 81.534395877627 204.79785918756338, 0.642256763392935 130.48343314228262 M241.29502091894733 321.99608294352123 C182.02431707986605 266.2674238422367, 120.66257625529035 214.69704392105626, -0.30020538044561484 107.57428367776416 M244.45733051742755 321.01595598114864 C175.289261310213 260.6997258196099, 109.34533204744525 202.78215227888856, 0.8987121871381102 110.0149213117467 M268.19286781832307 318.76996953434946 C200.59989154261058 260.1946366044063, 135.23846794811482 203.2166983400294, -0.17245758497530517 85.77183299119822 M268.30250571251236 321.58547994524133 C180.9861226528418 247.4102461527602, 98.99812454163451 174.48199040114943, 1.1934346785753787 88.45256684625863 M293.6503459566131 322.9648858497725 C204.4864079258695 244.20272405041567, 115.65892140496499 163.00113675124092, 1.2149546142951668 65.19071414228466 M292.6088587680677 322.29372757427024 C218.6705011702913 260.15137675468526, 144.96024679605125 194.89907493534005, 0.7476177883054989 67.6107627950172 M316.57084000495263 321.2282184737764 C202.12309212667049 219.60357677206576, 87.22313285976026 117.62914990055458, -0.8833144250994295 44.525333292010316 M316.0567962221644 320.1795635012328 C209.25651559907172 233.13077480949525, 103.35182471389862 139.85889671407315, -0.8896378714550033 46.454382262105824 M331.6978372910629 312.09151449191523 C262.6193355691817 254.10819469170247, 193.91693536447605 198.53695931509355, 1.0184637802794678 23.143800902978775 M329.7038245365094 311.2221274380554 C203.71632603587594 205.2713415529158, 76.34249536092089 93.95143354488631, -0.48688761941586267 23.57728540966292 M330.04681222062396 287.8490390979965 C242.88659812870813 216.45616572270598, 161.36829370878004 141.6653189210124, -0.9890358621443751 3.9937924277246433 M330.65838855116084 290.31738644507834 C217.44514901629 192.70131647228223, 106.79461633850869 96.74442798317637, -0.12971408859618347 2.2870785724903366 M327.93953339666103 268.0427601502651 C221.37148473842947 176.85460020885833, 115.92559768828838 82.61245705374667, 7.260239999946634 -11.669145264232984 M329.1623625430905 268.42535144765185 C201.05255863526503 160.46193880642704, 74.90005666122835 50.36132061984667, 8.147404868626099 -10.165513237832835 M330.891429292356 246.47735780950117 C215.12671497964158 149.68921372066256, 101.7809658578916 50.41891591819071, 32.48658425100581 -11.316632362753047 M328.84707015108717 248.12885282144853 C219.05690423231232 151.51071811576028, 111.84181920451859 58.2844955985696, 33.791858349706985 -9.367497158140209 M327.9875379955016 226.70986081005063 C260.1839046099366 167.7474553716126, 195.95149818643222 107.8950480779707, 59.60830950189835 -11.632524409217416 M330.07011283462833 226.16804829585735 C273.2862425779505 177.59392224491012, 217.65724843883888 130.6354666566827, 56.875384502328394 -10.142589850393962 M328.1405225650857 205.60487897293652 C265.54195287108365 150.2794730116422, 200.54603222675962 98.44217104663112, 82.0538020459873 -8.905942666978197 M329.8548926524577 206.22261770698918 C245.3000798198396 131.07532282628, 158.6979442421312 54.6502149349318, 81.08045299304673 -10.88125156129581 M331.92002737917136 185.70325306477164 C264.86214098669 125.24702579955868, 201.08826742155418 66.25840495208811, 106.59070093582949 -8.28589617615675 M331.2755756911469 185.34466843779992 C261.932821674458 128.84966208290862, 194.22774768242127 68.15004117553218, 107.59830609791325 -9.306715630478925 M327.8501610746085 160.1005988807977 C276.44902120512967 115.92043091380086, 223.30405560370585 67.42601665796899, 130.83288846967835 -9.857969332721341 M328.6189408378489 162.5238814597984 C266.1633914287053 110.02706183481584, 204.8420266569366 55.505411972724005, 132.04626645954983 -9.726021847681846 M328.20409825803097 142.33202363183653 C266.2698564792712 88.24196057323304, 202.19807498734806 33.97943038643139, 157.46599582930543 -8.942220349878589 M331.5376211385321 143.10080429951987 C266.61538370432595 86.47782409369265, 200.87469222317844 27.02243338874842, 154.99952322580216 -10.644150456390205 M332.5889131008244 121.55542067943492 C287.5896479305751 90.5540657178806, 248.32895100690186 54.13815451364712, 176.19647568518357 -13.703576736267223 M330.03334982605344 121.96058420969524 C277.0178550024618 73.49303638997323, 227.52579582195543 29.458275297490275, 180.10515570322113 -9.81042604532422 M327.0858812262064 97.64346396096597 C288.0122486271583 61.22507168167583, 255.24837451675276 32.31540099560394, 202.95824797290913 -13.016625911317277 M328.85778241276205 101.08564018749247 C293.31741334696756 65.9830104710829, 252.9611865270124 32.387438580289086, 204.07506490710728 -11.146395232848334 M330.26390251320953 76.84867185431345 C285.96822660452335 44.23579933604585, 246.19767739204377 6.915118101130616, 231.51686698685359 -10.671441679935384 M331.71137836006636 75.95527548047527 C306.808264176623 56.33356404330684, 282.2928529147089 36.75524153285784, 227.97057068462442 -9.940246584008861 M327.97820157120873 52.71816350010235 C304.73879860279783 30.882300027044028, 276.6381577929186 9.034684197626312, 254.86657567594634 -9.706460459477611 M330.5981659882789 57.02053989333112 C304.98008569626796 34.92166903419461, 279.86753919872035 13.033661667455242, 254.52456344563947 -10.978829602099367 M326.794940509579 36.46312053895761 C317.3736774349255 25.58440496770511, 310.55592625546564 13.568943548413202, 276.7266832297852 -9.27787908032846 M329.2292048677121 36.83795198074748 C315.8418050789189 23.38194635190545, 303.2362218940174 10.794678749676478, 276.56609359068773 -9.100347953441855 M327.7412189376954 15.208787111504336 C321.77269482894684 8.225454790105152, 313.15768195425966 -1.0469019741700336, 299.02743633796786 -8.377831872872349 M330.1475858186785 12.944499047411938 C323.58112044015746 7.628916422556915, 313.6816181810384 -0.8858703028243227, 301.8812427703044 -8.28753655435824" stroke="#0a66c2" stroke-width="2" fill="none"></path><path d="M-1.915972624933342 -0.8106785792337978 C89.47379947531863 -0.7969097164342087, 171.54541378885492 2.771371979961129, 323.4892847966994 2.3850329699707316 M1.1319642222326263 0.9081227270462787 C116.17077756945078 -2.577545287499051, 232.58554317304888 -1.292531582898783, 320.3107214381042 -1.033926783639066 M321.51420138614367 1.406427013690011 C319.1759670993713 83.86890220581772, 319.05728521017215 167.131578546278, 320.68190192916484 319.9782975275015 M322.5417945884781 0.5385873232881636 C321.19022553590753 91.78467867201478, 320.1453421974677 180.73310906661143, 320.75624631821313 321.2571672832615 M319.1570444846173 320.8729706756972 C207.75739733534212 322.4813236591605, 99.63211745940964 319.27137015678716, 1.1942852084425184 320.90978413115135 M322.1988808942789 321.25133458542444 C233.1453873755789 325.0113215773434, 142.8930085421168 325.9044748994038, 0.3549317071960478 321.149012355346 M-1.2803108974876636 323.09294103314124 C1.6035319824356866 211.94900020701957, 4.568071545051668 106.33576417889273, -2.535924573476367 1.0520167379201826 M0.0406030081150828 321.35125314894304 C3.1796781792974143 225.7358811951444, 4.3537147069902655 129.19537933317895, -0.4590334066146422 0.12055110343224441" stroke="#0a66c2" stroke-width="4" fill="none"></path></g><g transform="translate(64.36364300553169 62.95453348205797) rotate(0 24.659103393554688 24.659103393554688)"><path d="M41.71108141675718 6.04660642051013 C45.16837277727247 9.662049406939985, 47.64253962941805 17.259229129857566, 47.79726519413924 23.113333452597896 C47.95199075886043 28.967437775338226, 45.426909904738245 36.9053455608594, 42.63943480508432 41.17123235695211 C39.851959705430396 45.43711915304482, 35.631733357473585 47.80210136088776, 31.072414596215694 48.708654229154135 C26.513095834957802 49.61520709742051, 20.07243427237897 49.138202296042806, 15.283522237536973 46.610549566550375 C10.494610202694973 44.082896837057945, 5.028944824618614 38.4987729901205, 2.338942387163698 33.54273785219953 C-0.35106005029121823 28.58670271427856, -2.5581492078690653 21.57310724558338, -0.856492387192521 16.874338739024545 C0.8451644334840234 12.17557023246571, 7.7748341845088325 8.032948656478428, 12.548883311222964 5.350126812846522 C17.322932437937094 2.6673049692146154, 21.893269390529436 -2.3754309969182863, 27.78780237309227 0.7774076772331036 C33.6823353556551 3.9302463513844934, 45.42613642832566 17.589369366045396, 47.916081206599955 24.26715885775486 C50.40602598487425 30.944948349464326, 42.57720634406292 40.717408913958685, 42.72747104273803 40.8441446274899 M43.683374492135 5.742645677425315 C46.587053329055074 8.948044752293473, 47.12784252262344 15.589599251685264, 47.23476858963791 21.454100625312876 C47.34169465665238 27.318601998940487, 47.46409951969215 36.07405855633115, 44.324930894221836 40.92965391919098 C41.185762268751525 45.78524928205081, 33.988636381971936 49.28863757447979, 28.39975683681603 50.58767280247187 C22.810877291660123 51.88670803046395, 14.739361276471183 51.57119077501154, 10.791653623286397 48.723865287143454 C6.843945970101611 45.87653979927537, 6.070506318404182 38.5407360749871, 4.713510917707321 33.50371987526338 C3.35651551701046 28.466703675539655, 1.9582805774245995 23.423386477006417, 2.6496812191052292 18.501768088801114 C3.341081860785859 13.580149700595811, 4.935779270697786 6.872551267457743, 8.8619147677911 3.9740095460315565 C12.788050264884415 1.07546782460537, 20.120583640673566 0.27411441615125354, 26.206494201665112 1.1105177602439937 C32.29240476265666 1.946921104336734, 43.013525465738496 7.751332527019688, 45.37737813374037 8.992429610587998 C47.74123080174225 10.233526694156307, 41.469678461161664 8.773223421291283, 40.38961020967635 8.55710026165385" stroke="none" stroke-width="0" fill="#ffffff"></path><path d="M33.091830797403915 1.7883671093015963 C37.91259842106492 3.5942448457471503, 43.819721141553714 8.119888545526408, 46.54785898795987 13.059917446077016 C49.275996834366026 17.999946346627624, 50.594473959859 26.384506491827604, 49.46065787584085 31.42854051260525 C48.3268417918227 36.4725745333829, 43.96386145083006 40.077907622391365, 39.74496248385096 43.32412157074288 C35.526063516871865 46.5703355190944, 29.61538999650744 51.029365335422526, 24.147264073966262 50.90582420271434 C18.679138151425086 50.78228307000616, 10.7901634368003 46.14120644537538, 6.93620694860391 42.5828747744938 C3.0822504604075207 39.024543103612224, 1.6537081053323983 34.680872416755925, 1.023525144787925 29.555834177424853 C0.3933421842434518 24.43079593809378, 0.1958669731165421 16.366063456017674, 3.1551091853370714 11.83264533850738 C6.1143513975576 7.299227220997085, 13.324290082480623 3.6780117831607537, 18.7789784181111 2.3553254723630843 C24.23366675374158 1.032639161565415, 32.668318297824904 3.589370796360381, 35.88323919911994 3.8965274737213633 C39.09816010041498 4.203684151082346, 38.33793714558489 4.2636735068422675, 38.06850382588134 4.198265536528979 M18.086754993741422 -1.5737056576092492 C22.855599373194103 -3.192581290750188, 31.447812458264064 2.6539908502886655, 36.40765654299708 4.633628186377695 C41.367500627730095 6.613265522466725, 46.19999768105097 6.4873087505815565, 47.84581950213952 10.304118358924931 C49.49164132322807 14.120927967268306, 47.57028450484105 22.205477384420558, 46.282587469528394 27.53448583643794 C44.99489043421574 32.86349428845533, 44.18466224750118 38.21149191302673, 40.119637290263604 42.27816907102924 C36.05461233302603 46.34484622903175, 27.344456469244495 51.90791348616273, 21.892437726102937 51.934548784453035 C16.44041898296138 51.961184082743344, 10.838859780224292 46.198405646199134, 7.40752483141425 42.43798086077109 C3.976189882604208 38.67755607534305, 1.7589814456159036 34.3519799011547, 1.3044280332426865 29.372000071884777 C0.8498746208694694 24.392020242614855, 1.8334018304733513 17.328404799693118, 4.680204357174947 12.558101885151569 C7.527006883876544 7.787798970610018, 16.813360651988422 2.8429437853013013, 18.38524319345226 0.7501825846354713 C19.9571257349161 -1.3425786160303588, 14.651750061099374 -0.842131883039146, 14.111499605957981 0.001534681156588391" stroke="#0a66c2" stroke-width="4" fill="none"></path></g><g><g transform="translate(67.79422465318225 136.49196472771632) rotate(0 22.844537147106166 63.86959841437397)" fill-rule="evenodd"><path d="M-3.406365789473057 3.316976346075535 L-0.2877767103764417 72.65019369800231 L4.833408865161621 112.04461022997732 L9.714671873817046 123.17469371890661 L10.454135826201767 127.62450978342974 L28.6337830510589 134.62621652890255 L36.369414273836874 128.49442158717116 L36.835621300404874 119.01283989754752 L47.86244901993871 95.73131638130829 L51.54517289771603 45.71485818544927 L47.48200985055508 9.527619450028066 L40.26515772716009 1.4456558972860234 L26.837471191870357 -7.373250293722727 L-2.088879741728306 -0.31401296705007553" stroke="none" stroke-width="0" fill="#ffffff" fill-rule="evenodd"></path><path d="M-1.634419860690832 -2.281095407158136 C-1.016487668483144 17.284634652377555, -3.7122503843735175 93.67080124368532, 3.208223803915464 114.73651881674762 C10.128697992204446 135.80223638980993, 33.122808410741904 142.54436909424913, 39.888425269043054 124.1132100312157 C46.654042127344205 105.68205096818227, 50.681931259854984 25.25680910803979, 43.80192495372238 4.149564438547019 C36.92191864758977 -16.957680230945748, 6.255913207698766 -1.7751972886033647, -1.3916125677525997 -2.5302579857408998 M2.6737994299829007 2.6522847045958047 C3.1487760360750694 21.74225071523725, -3.847805069072099 91.64394949178161, 2.079598278381311 111.1737757576489 C8.007001625834722 130.70360202351617, 31.2285589342495 137.38788932937038, 38.23821951470336 119.83124229979948 C45.24788009515722 102.27459527022857, 50.0072007977211 26.302671443304472, 44.13756176110448 5.833893580223445 C38.26792272448786 -14.63488428285758, 10.356698769200744 -1.5020246932017598, 3.0203852950036527 -2.9814248786866666" stroke="#0a66c2" stroke-width="4" fill="none"></path></g></g><g><g transform="translate(141.6363633424462 189.69942399603497) rotate(0 64.60169842724758 9.865260285468139)" fill-rule="evenodd"><path d="M2.5305107459425926 -1.715782605111599 L4.747044856799485 54.11165265302971 L5.469345995290046 69.51002820852739 L15.07058453506087 79.6876134451884 L22.86965589009427 81.88694931130756 L36.42718741186084 78.2404591756241 L40.63974395183118 69.91962890687728 L43.49881074266085 69.27494691035429 L37.2811454865525 9.720502861647244 L47.23139412750957 -6.27973425641602 L56.57863320076844 -17.64087528339389 L64.918877214762 -24.652014799856943 L81.67393326488246 -22.071120972850913 L85.22739943763088 -18.518678365077243 L94.16724138244633 -1.5014840178143651 L93.12954082319024 51.272390363564426 L94.37583418723673 74.26305103306115 L106.33934956865227 80.86128225417059 L108.99307844167477 78.82054548018527 L122.16225817543952 75.80593524054073 L125.81709126282726 57.7277568314772 L125.56109472200819 -10.859343088459582 L118.48663116532694 -40.281440810593665 L110.99514927771293 -53.98674764406542 L107.82282023587683 -56.34601781262543 L83.65546821744215 -63.15730818849829 L67.86122074563445 -55.085646529137875 L58.642868456135375 -54.309931206384135 L38.12761374500428 -36.254524874624394 L38.483928967179935 -56.5708577963768 L34.272205111588164 -59.49291246911298 L20.14479506978566 -62.173677337047735 L9.488336929281608 -61.31510659125832 L6.250405177429002 -51.31043364386164 L0.028603420749023445 -42.805596812636054 L3.776741586625576 3.093128003180027" stroke="none" stroke-width="0" fill="#ffffff" fill-rule="evenodd"></path><path d="M-2.712879457324743 2.5957154773175715 C-1.4631264970529467 14.272442350989152, -1.938431993268618 57.8521874826433, 4.866085239006047 69.5100616236363 C11.670602471280713 81.1679357646293, 31.805252267848612 84.30651306046745, 38.11422393632324 72.54296032327557 C44.42319560479787 60.77940758608368, 38.006058117210614 15.099991819937236, 42.71991524985383 -1.0712547995150088 C47.43377238249704 -17.242501418967255, 58.749363705297576 -22.48825382842872, 66.39736673218253 -24.484519393437903 C74.0453697590675 -26.480784958447085, 83.78922053859964 -29.09542764126107, 88.60793341116359 -13.048848189570094 C93.42664628372754 2.997731262120883, 89.23687463971201 57.47421308586816, 95.3096439675662 71.79495731670796 C101.38241329542039 86.11570154754777, 119.50521882419943 86.38938542946224, 125.04454937828874 72.87561719546875 C130.58387993237804 59.36184896147526, 131.04385481855104 12.031628789176631, 128.54562729210207 -9.287652087252946 C126.04739976565308 -30.606932963682524, 117.83996063186757 -46.59771071327774, 110.05518421959482 -55.04006806310872 C102.27040780732207 -63.4824254129397, 90.58905743909115 -60.64271577034748, 81.83696881846558 -59.9417961862388 C73.08488019784001 -59.240876602130115, 64.27766898984387 -54.91437229068023, 57.54265249584137 -50.83455055845661 C50.807636001838866 -46.754728826233, 45.0199603389381 -34.17664299160166, 41.42686985445057 -35.46286579289713 C37.83377936996305 -36.74908859419259, 42.3099487509407 -55.31617339260998, 35.984109588916226 -58.5518873662294 C29.658270426891757 -61.78760133984882, 9.029120518752801 -64.39316825959887, 3.4718348823037557 -54.87714963461362 C-2.08545075414529 -45.36113100962839, 2.7764974648678766 -10.193998915918012, 2.6403957702219483 -1.4557756163179874 M1.009890338033438 1.5365072120726113 C3.3640881231597675 13.522707972234063, 2.9654216148031862 59.42303605002978, 10.063913599503998 71.80285122025353 C17.16240558420481 84.18266639047728, 37.96978191339092 87.62369969967703, 43.60084224623831 75.81539823341512 C49.2319025790857 64.00709676715321, 40.64231940325076 17.7485302638801, 43.850275596588354 0.9530424226820466 C47.05823178992595 -15.842445418516007, 54.935257937987906 -23.481080966634092, 62.84857940626386 -24.957528813773198 C70.7619008745398 -26.433976660912304, 85.91043222721751 -23.55267303495452, 91.33020440624406 -7.905644660152579 C96.74997658527062 7.741383714649362, 88.87780899665975 55.496557310221796, 95.36721248042316 68.92464143503845 C101.85661596418657 82.3527255598551, 125.33660593167104 85.9964501922731, 130.26662530882453 72.66286008874735 C135.19664468597801 59.3292699852216, 128.17368712853224 9.153730557729894, 124.94732874334403 -11.07689918611607 C121.72097035815582 -31.307528929962032, 118.04109713280232 -40.97767409148861, 110.90847499769531 -48.72091837432841 C103.7758528625883 -56.46416265716822, 91.40349448921516 -57.05853590095398, 82.15159593270194 -57.5363648831549 C72.89969737618871 -58.01419386535583, 62.0908111505178 -56.195801065772194, 55.39708365861593 -51.587892267533974 C48.70335616671405 -46.97998346929575, 45.49155787464763 -28.651996756393945, 41.98923098129068 -29.888912093725583 C38.48690408793373 -31.12582743105722, 40.66836846262984 -54.51827044544243, 34.383122298474234 -59.0093842915238 C28.09787613431862 -63.50049813760517, 10.362283243823914 -66.78859968526965, 4.2777539963570055 -56.83559517021381 C-1.8067752511099027 -46.882590655157976, -1.6005177561517088 -8.429066085683644, -2.124053186327219 0.708642798811197" stroke="#0a66c2" stroke-width="4" fill="none"></path></g></g></svg>