<svg version="1.1" xmlns="http://www.w3.org/2000/svg" viewBox="0 0 348.0188912076378 317.17849593060896">
  <!-- svg-source:excalidraw -->
  
  <defs>
    <style>
      @font-face {
        font-family: "Virgil";
        src: url("https://excalidraw.com/FG_Virgil.woff2");
      }
      @font-face {
        font-family: "Cascadia";
        src: url("https://excalidraw.com/Cascadia.woff2");
      }
    </style>
  </defs>
  <g transform="translate(141.13048362505629 122.22602437205296) rotate(0 31.832503542791187 31.832503542791187)"><path d="M52.193157314766765 4.47072710322146 C57.94092592993174 7.759268293860144, 62.267784508786576 17.648504741068727, 63.72617228397477 24.30952853671049 C65.18456005916296 30.970552332352256, 64.40400655015792 38.650588402000444, 60.94348396589594 44.43686987707205 C57.48296138163397 50.22315135214365, 49.62026887228344 55.79397954964908, 42.96303677840293 59.02721738714012 C36.30580468452242 62.26045522463116, 27.53830032733132 65.72712526151997, 21.00009140261288 63.83629690201826 C14.461882477894441 61.94546854251656, 7.340004546065067 53.83141745917384, 3.7337832300922997 47.682247230129896 C0.12756191411953166 41.53307700108595, -1.4442074065555341 33.73604474884353, -0.6372364932237282 26.941275527754577 C0.1697344201080776 20.14650630666562, 3.430457126389741 11.507166810498397, 8.575608710083134 6.913631903596169 C13.720760293776529 2.320096996693941, 20.79083747080506 -4.518804693387381, 30.233673008936634 -0.6199339136587909 C39.67650854706821 3.2789368660697984, 61.37984566739077 20.951377966761285, 65.23262193887258 30.306856581967704 C69.0853982103544 39.66233519717412, 54.1767619859158 55.80319560948329, 53.35033063782754 55.51293777757972 M35.32750550728829 0.8424638686071972 C41.95506684907976 1.478205964979459, 50.5691251730921 4.170187258937019, 54.90802508313762 9.070002937156616 C59.24692499318315 13.969818615376212, 61.144713798555976 23.16302899247238, 61.36090496756145 30.24135793792478 C61.57709613656693 37.31968688337717, 60.210973744061555 45.751746794267575, 56.20517209717049 51.539976609871 C52.199370450279424 57.32820642547442, 43.5876110460506 63.38378689390868, 37.32609508621505 64.97073683154531 C31.064579126379503 66.55768676918194, 24.48491353813984 64.97756131625329, 18.636076338157217 61.06167623569077 C12.787239138174595 57.145791155128244, 5.174823114853952 48.417232579159105, 2.233071886319326 41.475426348170174 C-0.7086793422152997 34.53362011718124, -1.5991622339216502 25.96055527637158, 0.9855689669494616 19.410838849757184 C3.5703001678205735 12.861122423142788, 11.805215719427952 5.471164557632996, 17.741459091545998 2.177127788483798 C23.677702463664044 -1.1169089806654, 33.35104589908565 -0.4231835378306356, 36.60302919965774 -0.35338176513800335 C39.85501250022983 -0.2835799924453711, 37.52174657674037 1.533893616517096, 37.253358894978575 2.5959384246395913" stroke="none" stroke-width="0" fill="#61dbfb"></path><path d="M9.479931410040592 10.282493634366567 C13.766592536197212 5.724118324040812, 21.53347150897122 2.036472002045859, 28.493249520638418 1.0463247594313607 C35.45302753230562 0.05617751681686245, 45.33038116935767 0.4835130836336514, 51.23859948004378 4.341610178679577 C57.14681779072989 8.199707273725503, 62.50136217666213 17.56204799140222, 63.94255938475507 24.194907329706915 C65.38375659284802 30.82776666801161, 62.71309116186876 38.2906722366459, 59.88578272860144 44.13876620850774 C57.05847429533412 49.98686018036958, 53.26064907219172 56.09723112374777, 46.97870878515114 59.28347116087798 C40.696768498110565 62.46971119800819, 29.184849993323166 64.50605332010186, 22.194141006357977 63.256206431288994 C15.203432019392789 62.00635954247613, 8.800367853343207 57.438041114141775, 5.034454863360015 51.7843898280008 C1.2685418733768228 46.13073854185982, -3.8161188631180547 37.72550923548453, -0.40133693354117383 29.334298714443122 C3.013444996035707 20.943088193401714, 17.57928278705152 5.260232402372939, 25.5231464408213 1.4371267017523444 C33.46701009459108 -2.3859789988682505, 46.65312199086112 6.004172480129022, 47.26184498907751 6.395664510719552 M11.319358984688556 8.392908895827937 C15.874051886521261 4.028931602028705, 25.612254430460236 -1.577005968882677, 32.51370189538987 -1.5904885098452546 C39.415149360319504 -1.6039710508078322, 47.35702862348721 3.0332805294286036, 52.72804377426637 8.31201365005247 C58.099058925045526 13.590746770676338, 63.57925989386984 22.90039332385315, 64.73979280006482 30.08191021389795 C65.9003257062598 37.263427103942746, 64.07133694609239 46.22214797106794, 59.691241211436264 51.40111499032126 C55.31114547678014 56.58008200957458, 45.61077836689232 60.00929356591812, 38.459218392128065 61.155712329417895 C31.307658417363808 62.30213109291767, 23.077950685024287 61.17653571536703, 16.781881362850726 58.27962757131989 C10.485812040677164 55.382719427272754, 3.480269196514175 49.38860197852144, 0.6828024590867052 43.77426346513506 C-2.1146642783407645 38.15992495174867, -1.5938203453977866 30.96463211139148, -0.002919061714091953 24.593596491001577 C1.5879822219696027 18.222560870611673, 7.601237690254154 8.429154067633613, 10.228210161188873 5.548049742795637 C12.855182632123592 2.6669454179576615, 14.520532797127583 7.098804574772362, 15.758915763894226 7.3069705419737225" stroke="#61dbfb" stroke-width="2" fill="none"></path></g><g><g transform="translate(237.62337016925835 85.19555385098693) rotate(0 -63.61392456543945 74.34255977581574)"><path d="M-97.73148880137809 2.7197477120906113 C-109.56629583388057 5.582239411289724, -148.6930568640656 9.497100585201032, -170.2085757993448 19.84981462033231 C-191.724094734624 30.20252865546359, -222.871550031469 48.529159082057504, -226.82460241305338 64.83603192287828 C-230.77765479463775 81.14290476369905, -222.0495557391299 103.39827987563396, -193.92689008885105 117.69105166525698 C-165.80422443857222 131.98382345488, -101.9837777206228 151.08128859794542, -58.08860851138032 150.5926626606164 C-14.193439302137847 150.1040367232874, 43.43041647327301 129.7581211556316, 69.44412516660375 114.7592960412829 C95.4578338599345 99.76047092693416, 105.47726676668653 77.74556336242217, 97.99364364860412 60.599711974524006 C90.51002053052171 43.45386058662584, 57.0994127464395 22.30206356114534, 24.542386458109323 11.884187713893867 C-8.014639830220847 1.4663118666423962, -77.40385493386123 0.022798166839218537, -97.34851408137688 -1.9075431089848278 M-92.98079442745754 1.7278712314367297 C-103.67359533689407 6.101262780368558, -143.195967622248 11.358559028927138, -164.5981734428841 22.461963334323357 C-186.00037926352022 33.565367639719575, -216.75767959544135 52.155643239227345, -221.39402935127424 68.34829706381404 C-226.03037910710714 84.54095088840074, -219.25947165955137 106.96021854365154, -192.4162719778814 119.61788628184354 C-165.57307229621142 132.27555402003554, -104.30900051039217 144.19867030728764, -60.334831261254315 144.2943034929661 C-16.36066201211647 144.38993667864455, 46.02957479735075 134.6362493781816, 71.42874351694567 120.19168539591419 C96.8279122365406 105.74712141364681, 100.03136414223343 75.59331171980261, 92.06018105631527 57.62691959936176 C84.08899797039712 39.66052747892092, 54.427038523838036 21.592631033051884, 23.601645001436772 12.39333267326913 C-7.223748520964488 3.1940343134863767, -72.12808519980143 4.596964299373762, -92.8921800780923 2.431129440665245" stroke="#61dbfb" stroke-width="4" fill="none"></path></g></g><g><g transform="translate(235.90747085766884 81.98299902517624) rotate(56.50460372560219 -62.82716391600593 74.07416172611852)"><path d="M-97.69972669205376 1.5085269071161749 C-109.12450289464978 4.7025423545541685, -145.98205169081456 10.694485252473404, -167.44805272038164 21.05935925105352 C-188.91405374994872 31.424233249633637, -221.51627612694176 46.95580451583605, -226.49573286945628 63.697770898596886 C-231.4751896119708 80.43973728135772, -225.0478218140605 107.0299102326163, -197.32479317546864 121.51115754761851 C-169.60176453687677 135.9924048626207, -104.75481582558908 151.90092377050624, -60.15756103790498 150.58525478861011 C-15.560306250220897 149.269585806714, 44.03983115618287 129.0809465634893, 70.25873555063589 113.61714365624177 C96.47763994508891 98.15334074899422, 104.78252946554053 74.88129974430561, 97.15586532881316 57.80243734512483 C89.5292011920858 40.72357494594405, 56.49696930779528 20.688170099793744, 24.49875073027164 11.143969261157132 C-7.499467847251999 1.5997684225205173, -74.45512783662312 2.828508947335617, -94.83344613632866 0.5372323133051395 M-92.93179003021427 -0.1408694390952583 C-104.43197194493798 3.3040158928337013, -147.653273926375 13.205952515575932, -168.97908069248382 24.32811790743608 C-190.30488745859265 35.45028329929623, -216.10668557131365 51.168181908485714, -220.8866306268673 66.59212291206563 C-225.66657568242093 82.01606391564556, -223.88536788944435 103.92330538013859, -197.65875102580569 116.87176392891561 C-171.43213416216702 129.82022247769265, -108.5843164437687 144.02325028781001, -63.52692944503522 144.2828742047278 C-18.469542446301737 144.54249812164556, 45.52981459384023 132.15146572173344, 72.68557096659525 118.42950743042218 C99.84132733935027 104.70754913911091, 107.59948373475103 79.8141621375656, 99.40760879149494 61.95112445686017 C91.21573384823884 44.08808677615474, 56.37755436135839 21.98262397839514, 23.534321307058637 11.251281346189595 C-9.308911747241122 0.5199387139840503, -77.65862053549122 -1.1542247821460803, -97.65178953430363 -2.4369313363730907" stroke="#61dbfb" stroke-width="4" fill="none"></path></g></g><g><g transform="translate(230.9824697433171 84.45815950501446) rotate(118.6814122905976 -63.240023620730426 74.4057627143277)"><path d="M-98.8544218139977 0.02029555067419997 C-111.16500767655161 3.0962151710095323, -147.79418842881685 10.908671810104101, -169.06385953093948 21.24880681345005 C-190.3335306330621 31.588941816795995, -221.98361940219078 45.56189830447974, -226.47244842673348 62.06110557074989 C-230.96127745127617 78.56031283702004, -223.49455019507838 105.67089678694093, -195.99683367819569 120.24405041107094 C-168.499117161313 134.81720403520094, -106.35951868818955 150.48904318247145, -61.48614932543731 149.50002731552996 C-16.61277996268506 148.51101144858848, 46.88529946222761 129.61488098234642, 73.2433824983178 114.30995520942199 C99.60146553440799 99.00502943649755, 105.26419544983337 75.11336087659755, 96.66234889110383 57.67047267798339 C88.0605023323743 40.22758447936923, 53.653219505980715 19.108153376021857, 21.632303145940604 9.652626017737008 C-10.388613214099507 0.1970986594521591, -76.10906769619218 2.8308810219595193, -95.46314926913686 0.9373085282742974 M-94.7133196469278 -2.436997817605734 C-107.58017932272938 2.2656825239362632, -150.44914203643566 13.53641177592044, -171.4720397716302 24.620408432276438 C-192.49493750682473 35.704405088632434, -216.82772948169782 49.01758375382167, -220.85070605809497 64.06698212053026 C-224.87368263449213 79.11638048723884, -222.92889167730044 100.38654177823943, -195.6098992300131 114.91679863252794 C-168.29090678272576 129.44705548681645, -100.98014371749518 150.4849202376992, -56.93675137437082 151.24852324626127 C-12.893359031246462 152.01212625482333, 42.71996569459496 134.4152502536844, 68.65045482873305 119.49841668390023 C94.58094396287113 104.58158311411606, 106.90262553908855 80.17219931310176, 98.64618343045768 61.74752182755624 C90.38974132182682 43.322844342010725, 51.990054667130224 19.544883890289938, 19.111802176947894 8.950351770627119 C-13.766450313234433 -1.6441803490357003, -78.77041346168352 0.2894349901307982, -98.62333151063629 -1.8196708904206753" stroke="#61dbfb" stroke-width="4" fill="none"></path></g></g></svg>