<svg version="1.1" xmlns="http://www.w3.org/2000/svg" viewBox="0 0 467.80666139351354 353.40179559837225">
  <!-- svg-source:excalidraw -->
  
  <defs>
    <style>
      @font-face {
        font-family: "Virgil";
        src: url("https://excalidraw.com/FG_Virgil.woff2");
      }
      @font-face {
        font-family: "Cascadia";
        src: url("https://excalidraw.com/Cascadia.woff2");
      }
    </style>
  </defs>
  <g transform="translate(55.0622892752383 9.999999999999773) rotate(0 89.67992091702496 89.67992091702502)"><path d="M15.43941776588331 38.596527977114015 C15.43941776588331 38.596527977114015, 15.43941776588331 38.596527977114015, 15.43941776588331 38.596527977114015 M15.43941776588331 38.596527977114015 C15.43941776588331 38.596527977114015, 15.43941776588331 38.596527977114015, 15.43941776588331 38.596527977114015 M3.7697214494072213 77.34746226183012 C18.34919604276034 56.29062127206299, 33.28584338901699 40.91018020350578, 58.551831717131265 15.704749013417814 M3.963686629252912 72.24065859316721 C21.285533393583055 58.25184023101049, 35.08512348225743 40.24565361420765, 55.76879159407092 15.574968767472956 M3.971358459180493 95.147820233577 C27.393554943706064 75.5206412981396, 50.88921459306228 50.873059705387696, 87.03563436332195 7.677839401317335 M6.26589068185379 98.51274089629302 C27.815873003672223 70.03684021893382, 53.78293362864976 43.75366424088626, 87.27971882398276 1.878839959529735 M14.601884280347981 117.55940512950481 C39.792241936472834 80.78009852163996, 70.31497744647521 49.92828041839056, 109.10375059285062 5.033968699725143 M13.462313669750252 117.34646096649529 C40.40543236468907 77.3951662930896, 74.71880086553324 42.01675640354519, 108.09633224160271 7.942735612021558 M22.020148193125664 128.7361161980944 C40.322635997686895 108.83423469670225, 63.33265090169457 84.21483992175537, 126.496974160696 7.2663279015527635 M18.848023134877025 131.08742947803609 C44.828097274988714 102.40210837891811, 66.85406698669634 75.74498748106413, 124.45619073862824 8.6097612686412 M22.69065919873902 152.51234351804933 C50.984877142989134 120.46462387531011, 73.03955038025752 87.19979828282321, 141.59892864414047 16.069595816840412 M24.46241821517834 149.09182606040022 C56.135083810928194 110.14872245444309, 90.18584056909458 76.40663092687872, 138.56585490406047 18.56708841521013 M32.89947145428061 159.2073242949544 C68.15607415022656 120.67014188443412, 104.43918901462278 87.26300473783448, 154.77007792128612 22.974750481395624 M35.9926150794655 160.34325559495375 C72.35922920063727 115.48461364234203, 110.22575459803934 71.2072994121312, 153.12239750272025 27.79326588831713 M46.97923631602337 172.65555900862705 C84.1734110976559 132.52752481616443, 115.74904520487262 96.56629248879521, 165.91671918537742 41.13419488436757 M48.1859989707302 172.29566436229538 C90.3830185412862 122.09385679070952, 133.22625030201453 71.3856857829141, 162.0698964895708 39.15584560289262 M68.14626835408835 177.91697610532034 C88.49667942522015 150.3413158746276, 115.26707257811113 117.53659187981356, 171.42351769855435 55.82430788245484 M64.87479022081224 176.3960047344594 C103.36950449884833 130.11102894716953, 143.4386837935983 87.33649917649025, 170.71946976347084 54.726433466416445 M84.03771545373898 178.797928984629 C108.25692866179195 154.12887034092066, 132.48153722902194 121.8031536832325, 180.81185747295697 62.87224958235612 M81.7007143516938 181.41773216182182 C106.61367194709192 152.22851937801138, 132.2631184628349 126.81821025719506, 181.5951258482792 64.01999476136854 M104.8925658010584 178.316070271915 C130.67043281911012 157.12643785209747, 148.89212910745388 122.25736907402464, 177.58912943000064 92.6675391672304 M105.48350906117676 179.73817944552582 C130.37179877823718 153.14230620669073, 155.09413346692506 123.07180200574334, 182.47055205212996 91.81893197168914 M122.5600506073669 182.0325733481097 C133.16872786638686 169.0175579847473, 147.07317462021305 157.08777603871843, 175.1433321687969 130.24977050310804 M124.41682694730018 182.48327826728402 C139.7029555009011 162.9691373445553, 157.81593870690585 142.71847200323285, 171.45121523585343 128.07330038918985" stroke="#009ddc" stroke-width="2" fill="none"></path><path d="M49.6340519957753 11.389101972987874 C58.805415005539025 4.370758304723967, 70.88654369152661 0.3530147267386188, 82.76534511388972 -0.7350199857550734 C94.64414653625283 -1.8230546982487656, 109.62271488661685 0.644772792653697, 120.90686052995395 4.86089369802572 C132.19100617329104 9.077014603397743, 142.06233942818233 16.031077811189718, 150.47021897391227 24.561705446477063 C158.8780985196422 33.09233308176441, 166.65386338093694 44.96586237284964, 171.3541378043336 56.04465950974979 C176.05441222773024 67.12345664664994, 178.86900876339814 79.31196607199458, 178.67186551429222 91.03448826787798 C178.4747222651863 102.75701046376138, 175.4092500437383 115.33568565283183, 170.1712783096981 126.37979268505018 C164.9333065756579 137.42389971726854, 156.02420506759657 148.92637792405986, 147.24403511005104 157.2991304611881 C138.46386515250552 165.67188299831633, 128.88409797290404 172.86512756966872, 117.49025856442489 176.6163079078196 C106.09641915594574 180.36748824597046, 90.85782189578927 181.29145907091436, 78.8809986591761 179.8062124900933 C66.90417542256293 178.32096590927222, 56.12106377751258 173.87347397800585, 45.62931914474591 167.70482842289312 C35.13757451197923 161.53618286778038, 23.243015999546273 152.90403153103304, 15.930530862576049 142.7943391594169 C8.618045725605825 132.68464678780074, 4.265603130259741 119.2817058917869, 1.7544083229245615 107.04667419319617 C-0.7567864844106182 94.81164249460544, -1.3762383226351083 80.74507172858732, 0.8633620185649704 69.38414896787249 C3.102962359765049 58.023226207157656, 8.05890878231719 48.46601648250126, 15.192010370125033 38.88113762890716 C22.325111957932876 29.296258775313063, 31.954179147537552 18.22083997908559, 43.66197154541202 11.874875846307887 C55.36976394328649 5.528911713530184, 72.59033104735653 1.703354954382199, 85.43876475737187 0.805352832240942 C98.28719846738721 -0.09264928990031507, 120.65579269615719 5.2321740701258435, 120.75257380550411 6.486863113460345 M83.73400099448206 -0.15243430488445142 C94.92983967989399 -2.6338764533001062, 108.10983710778369 -0.6312664890698807, 119.9920652848646 3.623203522172261 C131.87429346194548 7.877673533414403, 146.4937129371966 16.72961674487414, 155.02737005696747 25.3743857625684 C163.56102717673835 34.01915478026267, 166.71094537866264 44.55248752476414, 171.1940080034899 55.491817628337834 C175.67707062831715 66.43114773191152, 181.6901478266269 78.80429316215744, 181.925745805931 91.01036638401057 C182.1613437852351 103.2164396058637, 178.58967908067996 116.98198309106219, 172.60759587931443 128.7282569594566 C166.6255126779489 140.47453082785097, 155.39812760647112 153.36971879129854, 146.0332465977378 161.48800959437693 C136.66836558900445 169.60630039745533, 128.0880036091581 174.33652994806138, 116.41830982691444 177.43800177792696 C104.74861604467078 180.53947360779253, 88.34438931637098 182.49044837229712, 76.01508390427583 180.0968405735704 C63.685778492180674 177.70323277484368, 52.962773392509725 169.5296237403721, 42.44247735434352 163.07635498556664 C31.92218131617731 156.62308623076117, 20.06670410351773 150.68259401720366, 12.893307675278578 141.37722804473768 C5.719911247039426 132.0718620722717, 1.3266192552261984 119.69993825601398, -0.5979012150913974 107.24415915077077 C-2.522421685408993 94.78838004552756, -1.6389897278628922 78.43603499944966, 1.3461848533730034 66.6425534132784 C4.331359434608899 54.849071827107146, 9.469987281776298 46.12954219109949, 17.313146272323976 36.48326963374323 C25.156305262871655 26.836997076386965, 37.79463308458266 14.542586670653847, 48.40513879665908 8.764918069140847 C59.015644508735505 2.987249467627847, 74.39400918286815 2.8941976365684043, 80.97618054478252 1.8172580246652217 C87.5583519066969 0.7403184127620388, 86.84117363218111 2.5702907823375227, 87.89816696814538 2.3032803977217498 C88.95516030410964 2.0362700131059768, 87.60442734307263 -0.7410555756925609, 87.3181405605681 0.21519571697058382" stroke="#009ddc" stroke-width="4" fill="none"></path></g><g transform="translate(159.41710634232174 24.526710112409546) rotate(0 89.67992091702502 89.67992091702502)"><path d="M26.080010187428293 25.32103296474112 C26.080010187428293 25.32103296474112, 26.080010187428293 25.32103296474112, 26.080010187428293 25.32103296474112 M26.080010187428293 25.32103296474112 C26.080010187428293 25.32103296474112, 26.080010187428293 25.32103296474112, 26.080010187428293 25.32103296474112 M11.568855655909609 64.32305681449594 C30.218536903127976 44.53143318892977, 50.45487997471098 23.844507173776954, 61.25317663152178 10.053619995816295 M13.048965628788899 66.71155767073157 C26.39774516595032 51.29897222250325, 40.903878824286295 33.71520408988925, 60.6309246273007 9.327124239979927 M3.071379982409809 101.1963542644416 C23.2901011176353 82.64263095158525, 40.88384587287934 62.05867690179028, 83.03592920052085 8.339903983297631 M3.1566899479458073 99.19370065261768 C37.625211694501324 62.739432878469366, 66.78611745921836 24.027858356604057, 83.53387467125629 8.665721853273794 M10.434705569752808 113.96555019933241 C36.53576074631188 85.70984426210471, 59.82973338195167 58.19189854309342, 103.24449113927807 11.150863451383174 M7.407012937003131 116.21447473968821 C45.11178879895016 73.55708134316971, 80.66409067010166 35.08741037587437, 100.33211459949638 11.822911649442375 M16.27407057127799 136.87311216054528 C46.852841063308034 103.13952624813805, 75.51008760655176 64.4778038924678, 117.87680895993344 16.462096006771574 M16.517406636019004 134.9482932741013 C42.074574999536665 105.36471126150232, 72.07849952395975 68.9642270825797, 118.74887168587975 15.801940160965572 M28.024730528115903 148.85867817455605 C64.87202478061839 98.58860554598861, 106.91249598814264 54.948595286825594, 138.2243708376555 16.93910924682978 M24.226532347842728 146.03431820811406 C63.075274659378124 108.01729649332009, 98.68418200687393 64.65533209841261, 138.68958674229367 17.37604203599158 M33.54277429653949 159.60831122118213 C75.0215090496383 123.87791155196584, 112.06751524263547 74.71715029105398, 152.84267534972665 28.854706981598 M34.08255656546599 159.43821457232514 C67.83698892607725 121.12623535146409, 103.10231383170668 85.53480930576252, 151.3998828577393 27.818326260341863 M53.31795394666978 168.28350224667673 C89.45991142651363 127.46250277070415, 126.159207716635 86.22827336764533, 167.10800234525846 39.572701827106584 M48.84348087072858 168.99365348876898 C76.70537548102897 134.8937432909961, 105.77505623883583 102.25496151462333, 162.20983626804696 36.19798875082802 M61.979031950741756 178.7780384099661 C101.0065490430087 129.01506205274967, 137.93052661687074 90.46064881049453, 174.75458304648592 53.068912192281864 M63.16998912258421 175.4716804171531 C96.41872020783633 141.12161514801363, 128.07613561596946 103.32552055000502, 171.25864645717039 52.713809342157624 M85.22631593685747 178.2205539968578 C102.46187981808697 153.9041723879296, 125.5232998814915 125.40892470521422, 176.18289868655853 67.45255151404528 M85.74548221085371 174.89576606906633 C119.25404486358033 140.8238151425955, 148.43636748715193 101.50912625318489, 178.99043479497783 70.02804102203338 M107.43247461633733 183.02378488828322 C120.48701828541056 154.51045874088885, 139.17664237228092 136.23277056688525, 179.9013818717492 97.69483902221427 M106.06439398357621 180.40356087622126 C118.45454176268252 163.70881557316528, 134.52461383101056 145.1287315844873, 176.78344589946096 95.80752069605396 M136.84925661012204 165.4628650062627 C157.65987904002765 146.01985550364384, 175.66301555787192 129.04846824993635, 185.95589579905567 114.05619737014587 M136.82641007341118 166.63769143641952 C155.8898000182254 144.80205655684614, 172.94824392675076 124.82462057005134, 185.56702685433623 110.96336681835766" stroke="#009ddc" stroke-width="2" fill="none"></path><path d="M160.17974489047072 34.29396704618858 C168.06078900616595 42.322128778849844, 174.8119789427631 56.33443341355289, 177.56817172203625 68.18162521027523 C180.32436450130942 80.02881700699757, 179.19313550118488 93.3116214896473, 176.7169015661097 105.37711782652262 C174.2406676310345 117.44261416339795, 169.39487536612032 130.65988376028352, 162.71076811158514 140.57460323152722 C156.02666085704996 150.48932270277092, 146.75285607213235 158.80744509164822, 136.6122580388986 164.8654346539849 C126.47166000566486 170.92342421632156, 113.91218248102746 175.0775397372195, 101.86717991218269 176.92254060554725 C89.82217734333793 178.767541473875, 75.63232623015851 178.72779173682324, 64.34224262582998 175.93543986395142 C53.05215902150145 173.1430879910796, 43.30533903915669 167.64454641308788, 34.1266782862115 160.1684293683163 C24.94801753326631 152.69231232354474, 14.684549094296507 141.93906449368112, 9.270278108158848 131.078737595322 C3.8560071220211896 120.21841069696288, 2.3418774034507073 107.0993954654812, 1.641052369385548 95.00646797816158 C0.940227335320389 82.91354049084197, 1.0280137830312883 70.09417629161649, 5.065327903767894 58.52117267140431 C9.102642024504501 46.94816905119212, 17.402751292707705 34.55630364186673, 25.86493709380518 25.568446256888443 C34.32712289490266 16.58058887191016, 44.87299411389397 8.550979537572129, 55.838442710352744 4.594028361534612 C66.80389130681152 0.6370771854970947, 79.53408942467374 1.1133291205848672, 91.65762867255783 1.82673920066334 C103.78116792044193 2.540149280741813, 117.13567768831817 3.7232424469886203, 128.57967819765736 8.874488842005448 C140.02367870699655 14.025735237022275, 152.19813082875277 23.2641477563281, 160.32163172859296 32.73421757076431 C168.44513262843316 42.204287385200516, 174.2550858703466 54.522893319614745, 177.3206835966986 65.6949077286227 C180.38628132305058 76.86692213763065, 180.35235367512024 99.35095369301789, 178.7152180867049 99.76630402481203 M116.21241110103932 2.26819694109264 C128.1367104171215 4.525573357519939, 143.21117004333422 14.354924327920005, 152.11742913726016 22.60778632862609 C161.0236882311861 30.86064832933218, 164.66772340449046 41.05398843380445, 169.6499656645949 51.78536894532916 C174.63220792469934 62.51674945685387, 181.23464447859507 74.77853005125317, 182.0108826978868 86.99606939777436 C182.78712091717856 99.21360874429556, 179.79956400199944 113.11540444808213, 174.30739498034538 125.0906050244563 C168.81522595869131 137.06580560083046, 158.06709862489396 150.3216299428552, 149.0578685679624 158.84727285601934 C140.04863851103084 167.3729157691835, 131.76096412081327 172.62667235018733, 120.25201463875595 176.24446250344113 C108.74306515669863 179.86225265669492, 92.39504857345013 182.41037647819715, 80.00417167561854 180.55401377554205 C67.61329477778695 178.69765107288694, 56.70043776866356 171.09299091938544, 45.90675325176639 165.10628628751056 C35.113068734869216 159.11958165563567, 22.854049943953424 153.62282446582358, 15.2420645742355 144.63378598429279 C7.630079204517576 135.644747502762, 2.688365405880807 123.51568187244881, 0.23484103345884932 111.17205539832574 C-2.218683338963108 98.82842892420267, -1.9350398866677545 82.47665453470132, 0.5209183397037549 70.57202713955438 C2.9768765660752643 58.667399744407426, 7.566621474754659 49.7060559307413, 14.970590391687907 39.744291027444035 C22.374559308621155 29.78252612414677, 34.60850191809625 17.04514938018379, 44.94473184130324 10.801437719770803 C55.280961764510224 4.557726059357814, 64.99731403571091 3.144633305001212, 76.98796993092982 2.282021064966102 C88.97862582614873 1.4194088249309922, 109.71719210027565 5.519540878254429, 116.8886672126167 5.625764279560144 C124.06014232495774 5.731987680865859, 119.83857048613204 2.976857661904608, 120.01682060497608 2.9193614728003894 C120.19507072382011 2.861865283696171, 118.52120989926749 3.892470867801187, 117.9581679256809 5.280787144934834" stroke="#009ddc" stroke-width="4" fill="none"></path></g><g transform="translate(278.4468195594636 60.991571910574294) rotate(0 89.67992091702496 89.6799209170249)"><path d="M25.977110859649347 26.55659693712149 C25.977110859649347 26.55659693712149, 25.977110859649347 26.55659693712149, 25.977110859649347 26.55659693712149 M25.977110859649347 26.55659693712149 C25.977110859649347 26.55659693712149, 25.977110859649347 26.55659693712149, 25.977110859649347 26.55659693712149 M15.5737638565442 62.635334931622744 C36.96995752418401 41.14608413050278, 52.40440886209931 21.88208541400769, 62.200212532232 4.572304425488248 M14.898595206319396 63.569419930066466 C25.547429271548147 49.433374210508774, 35.035707553264146 38.89865199845386, 61.52358255493124 6.966670140351191 M6.661871152344908 100.56424146740639 C26.568821751716 77.19971236007852, 46.34916822607572 51.54085047309703, 90.0150655425751 4.998894549299543 M8.569374800074662 97.67282103038335 C36.55073889076234 61.56683376982407, 65.54362721913196 31.727005781367126, 85.56946716193495 7.519462668661539 M15.025452560550917 114.06226426157272 C44.61603375313558 80.39388452949794, 75.15627209116414 45.67284063949937, 109.64286605322934 11.11476209692978 M12.861940075449098 115.15109591166592 C48.62663835494964 80.2951982914436, 79.66122971882592 40.57734386709228, 106.08143456893242 9.255583600405089 M18.93990248450161 136.7742146054986 C37.058777141623146 108.624195288793, 55.92494395250499 87.23544907394084, 122.74248071037272 12.691686745968681 M14.007434947500833 137.6337360410723 C35.82700041721429 109.15017815735482, 59.70268037799033 83.34590325018252, 124.3596478088204 10.96469591395281 M25.125632715327534 145.41707427565987 C68.23846708909724 98.08589094815443, 107.1780323855975 51.313467637721175, 141.82767199715477 16.038100683337667 M26.44569259407917 150.02748149585958 C56.24019821061111 117.45251034516502, 86.40112924480391 82.74251262602247, 141.01033762646716 14.490693222007373 M37.00494738829214 165.0745404216512 C70.61540344940398 122.07421539717525, 101.09858358575588 91.70495514708509, 151.64515376984843 26.199441888854167 M34.2696104121663 159.62336585140366 C72.58836825941832 124.30397792325027, 106.2771706638259 84.62787156008399, 152.5113580148644 26.744553055167458 M52.94669579452593 170.19015731994853 C90.25051420824101 125.86344480078013, 128.89626167929725 82.25041294706867, 161.38742115655575 37.68715714832576 M48.65730282961149 168.90234793496177 C92.63308323009302 120.23648108424065, 133.04588409836288 71.98489082258936, 164.61251611383292 40.24583987502189 M65.08373762727342 174.31476545970088 C102.50378230662426 135.5885978293776, 141.59735922826601 92.72803231844496, 170.2617435715307 54.26382778112432 M63.87706655137799 179.09526091146415 C98.35374316531906 140.69278656745584, 131.25062047860365 102.49177957662293, 169.09206522434545 56.720330801723804 M80.24547773564615 180.60905245693866 C102.16213605966934 152.7830158221869, 121.52486657759823 130.79892999882793, 178.39087655590384 73.18159181372575 M85.4074153132961 180.49786319772247 C107.01844232702882 151.05491869091784, 132.8594022840254 125.37488036301377, 175.84491664925127 73.15093778753034 M100.80715428389803 177.85513088103374 C116.79031428503905 159.76330410801586, 139.5290716555075 142.32749167956837, 172.97446799493855 99.6843026457247 M103.97386804133848 182.29491628888985 C122.58468952227969 158.19249051680626, 138.45115205062683 138.42142842417414, 178.23154591053253 96.09236628281741 M138.8071999110457 168.39315504578872 C154.29180326718776 154.50390606962486, 166.91765005033054 137.25928294075106, 187.062478306642 114.18943626070099 M136.8538100112405 168.30930154955013 C151.8587556238747 150.5157679286964, 168.92147528721677 131.05069810058495, 185.03891293791514 114.66552244694607" stroke="#009ddc" stroke-width="2" fill="none"></path><path d="M135.94636899033745 11.94348548767394 C146.45114235410966 16.70066374861296, 154.64892825298102 27.118919533119026, 161.36588251463246 37.11696080812383 C168.0828367762839 47.11500208312863, 173.68747032425895 60.19382433963812, 176.24809456024605 71.93173313770275 C178.80871879623314 83.66964193576737, 179.15030621517397 96.08346940469342, 176.72962793055498 107.54441359651159 C174.308949645936 119.00535778832976, 168.89027288404077 130.79095624530112, 161.72402485253218 140.69739828861177 C154.5577768210236 150.6038403319224, 143.81652938534276 160.43007762163597, 133.73213974150346 166.9830658563754 C123.64775009766416 173.5360540911148, 113.06930191405525 178.4557159029414, 101.2176869894964 180.01532769704835 C89.36607206493755 181.5749394911553, 74.13254769722846 180.01566313187837, 62.62245019415039 176.34073662101707 C51.11235269107231 172.66581011015577, 41.33720283635032 165.9488346822725, 32.15710197102794 157.9657686318805 C22.97700110570556 149.98270258148852, 12.92142180575446 139.68180987225773, 7.541845002216121 128.44234031866523 C2.1622681986777836 117.20287076507275, 0.16625075726786775 103.01647418679264, -0.1203588502020807 90.52895131032558 C-0.40696845767202916 78.04142843385853, 1.4456476036442174 64.21027774395688, 5.82218735739643 53.517203059862894 C10.198727111148642 42.8241283757689, 17.320862289753236 34.48107209501092, 26.138879672311198 26.370503205761636 C34.95689705486916 18.25993431651235, 46.74478867277782 9.109766869141055, 58.730291652744185 4.853789724367175 C70.71579463271054 0.5978125795932954, 85.69964312027606 -0.007546220782801982, 98.05189755210935 0.8346403371183584 C110.40415198394264 1.6768268950195186, 119.56502489342739 -0.649920299300307, 132.8438182437439 9.906909071774137 C146.1226115940604 20.46373844284858, 171.94390358603954 44.18619039268045, 177.72465765400835 64.17561656356503 C183.50541172197717 84.1650427344496, 169.16274918470438 129.4647054125775, 167.52834265155673 129.8434660970816 M83.99025260618876 -0.3709602092592803 C95.2706541301273 -2.602862554192226, 105.09506154876492 -0.3488633025718548, 116.61534584600449 3.239884343301327 C128.13563014324407 6.828631989174509, 143.46921038177828 12.836055448118667, 153.1119583896262 21.16152566597981 C162.75470639747414 29.48699588384095, 170.28088836058208 41.19535865753451, 174.47183389309214 53.19270565046818 C178.6627794256022 65.19005264340184, 178.41824775464264 80.68737902005353, 178.25763158468652 93.14560762358178 C178.0970154147304 105.60383622711004, 178.51178462182511 117.15182259858237, 173.50813687335548 127.94207727163774 C168.50448912488585 138.7323319446931, 157.57387665045133 150.5541597695279, 148.2357450938688 157.887135661914 C138.89761353728625 165.22011155430008, 129.19337855453495 168.28733436572045, 117.47934753386029 171.93993262595433 C105.76531651318564 175.5925308861882, 90.30005083506954 180.34613145198344, 77.95155896982087 179.80272522331722 C65.60306710457219 179.259318994651, 53.58694710203179 175.21125763867101, 43.38839634236821 168.679495253957 C33.18984558270463 162.14773286924296, 23.73720796468409 150.32968587995325, 16.760254411839384 140.6121509150331 C9.783300858994679 130.89461595011298, 3.6350608926958636 122.14665921281355, 1.52667502529998 110.37428546443618 C-0.5817108420959038 98.60191171605882, 1.7435185517994043 81.72119626629156, 4.10993920746408 69.97790842476894 C6.4763598631287564 58.23462058324633, 8.80284371401807 49.02796009965904, 15.725198959288036 39.91455841530052 C22.647554204558002 30.801156730941997, 34.94915368931107 22.101831333900286, 45.644070679083875 15.297498318617812 C56.33898766885668 8.493165303335338, 73.7764855658307 1.752308439991971, 79.89470089792488 -0.9114396763943233 C86.01291623001906 -3.5751877927806177, 81.75927702229484 -0.8809381578694868, 82.35336267164894 -0.6849903796999541 C82.94744832100304 -0.48904260153042145, 83.43817417455834 -1.3553606114601682, 83.45921479404952 0.26424699262287277" stroke="#009ddc" stroke-width="4" fill="none"></path></g><g transform="translate(10 107.41767033471797) rotate(0 89.67992091702499 89.6799209170249)"><path d="M18.48363494741192 35.94277362665389 C18.48363494741192 35.94277362665389, 18.48363494741192 35.94277362665389, 18.48363494741192 35.94277362665389 M18.48363494741192 35.94277362665389 C18.48363494741192 35.94277362665389, 18.48363494741192 35.94277362665389, 18.48363494741192 35.94277362665389 M9.76738560840981 72.67305150055668 C20.74453977389298 58.61208232386535, 33.44535237286202 38.492401537750695, 52.62883037131327 17.96585303866598 M6.984345485349465 72.54327125461182 C25.28729706636064 51.999440625913195, 42.66769881923351 29.55481508679322, 55.05625252042013 16.060412575912803 M3.480059718103597 104.64574964026312 C35.16480146932142 64.09693917766377, 70.46429450823445 27.059894281790207, 90.27610447557399 1.2497939064464774 M3.724144178764412 98.84675019847552 C31.73126873393398 68.0557881509973, 59.590057853717646 36.086147554227395, 88.61979419851431 5.496409958910128 M14.39517245479366 114.83194180245806 C29.877345449972623 96.27545409223396, 51.52079236593693 77.58471170427602, 109.63804752584122 3.5402890946022154 M13.387754103545753 117.74070871475448 C28.38351013588963 95.84570654538228, 50.61470875851471 73.20095416548676, 105.23284178245387 7.853850044240701 M18.667215442828883 132.15849260874108 C48.58059048141605 95.31896755369655, 84.92944317542826 54.214109740005654, 122.68668591113163 13.681399166935805 M16.626432020761122 133.50192597582952 C45.69732050532484 102.33465351947936, 74.8188326673432 69.33420946602001, 127.11223367297424 11.297411071488384 M26.552520607377787 149.26356590647924 C61.40540097034244 109.62285467156065, 100.28010527034402 67.0295464202996, 138.16034807468967 15.805995862596383 M23.519446867297788 151.76105850484896 C46.88637406687385 122.387155160022, 70.66935991803413 93.69513745508297, 139.2547822000386 17.235660580583563 M38.411551826542436 157.67813973148003 C68.90818352695435 124.33896751168342, 99.02187969286453 84.54707489598758, 153.71284858663637 23.53650762783704 M36.763871407976566 162.49665513840154 C66.18707322905061 132.4711466244025, 94.24501241373508 99.2818206790272, 154.77395769548673 28.334300943560578 M52.83848823558623 172.06403623333807 C82.79791526930856 135.9315104674555, 109.23175131073583 95.93934821795105, 165.41883533223518 39.241787862252444 M48.99166553977961 170.08568695186312 C83.70467580655935 131.27123540169688, 120.29387199211679 94.87480633909362, 163.59273568130084 39.58553761079535 M65.56193606765876 178.45234384897486 C105.57568981357636 135.70484087730676, 140.52620024916956 90.40818101751151, 171.98661941059768 52.766117931872934 M64.85788813257525 177.35446943293647 C91.58274676276314 145.21313419257453, 117.43313444083128 115.87262791437689, 169.84392676831126 54.84958212409946 M80.85480710297597 178.7078993268712 C116.57737202173583 139.69638114791462, 155.54623235880263 102.01967179858437, 181.51199455487338 66.6483987736199 M81.63807547829819 179.85564450588362 C103.18348054536281 155.95670166273302, 124.68892437244182 129.60471873052876, 181.81149607638625 67.88634372117556 M101.2502041036779 181.3336440237257 C139.9557553776061 148.42701725221167, 167.09923708176484 110.10578234127337, 186.16841072638266 88.81308501842466 M106.13162672580722 180.48503682818443 C131.80365828335056 148.03687388542517, 164.06589577213498 111.7569173854836, 187.80823682856493 84.85886345873621 M127.01494508906595 186.46336341002416 C144.49629897829 162.2851222621015, 166.16863653651072 137.64297443518177, 193.6364533322181 102.99738262187205 M123.32282815612248 184.28689329610597 C148.17001335583092 155.02681856904186, 171.89283717210716 129.71426974787218, 190.79274956865865 102.5730118431475" stroke="#009ddc" stroke-width="2" fill="none"></path><path d="M47.62111905733149 9.532594906647233 C56.89262081396219 3.269667618828435, 71.19759497018529 1.5161715342092017, 83.34593996703441 0.7421403022123627 C95.49428496388353 -0.031890929784476385, 109.10629139915235 0.9988887551424548, 120.51118903842618 4.8884075146661985 C131.9160866777 8.777926274189943, 143.23559534082534 15.51268852322934, 151.7753258026774 24.079252859354824 C160.31505626452946 32.645817195480305, 166.92566772213243 44.61466753222196, 171.74957180953862 56.287793531419105 C176.5734758969448 67.96091953061625, 181.00182729034717 81.85129838051404, 180.7187503271145 94.1180088545377 C180.43567336388182 106.38471932856137, 175.30502163514643 119.09463223015011, 170.0511100301426 129.88805637556115 C164.7971984251388 140.68148052097217, 158.49831425886785 151.09907175189375, 149.19528069709162 158.87855372700392 C139.8922471353154 166.6580357021141, 126.0935750229583 173.4354056070792, 114.23290865948515 176.56494822622227 C102.37224229601199 179.69449084536535, 90.0520228198595 179.61797201522836, 78.03128251625263 177.6558094418624 C66.01054221264576 175.69364686849644, 52.71826676339117 170.59805905998758, 42.108466837843935 164.79197278602658 C31.4986669122967 158.98588651206558, 21.237635317650724 152.51454352534694, 14.372482962969215 142.81929179809643 C7.507330608287707 133.12404007084592, 2.637851402888427 118.66258323420793, 0.9175527097548866 106.62046242252349 C-0.8027459833786541 94.57834161083905, 1.0898405599549386 82.3843392992822, 4.050690804167971 70.56656692798978 C7.0115410483810034 58.74879455669737, 11.498581248735697 45.655837638465606, 18.68265417503308 35.713828194768986 C25.86672710133046 25.771818751072367, 38.65245750311964 16.567390695044757, 47.155128361952265 10.91451026581008 C55.65779922078489 5.261629836575403, 62.124571684106456 3.481299968261257, 69.69867932802883 1.796545619360927 C77.2727869719512 0.11179127046059745, 92.28100926603145 -0.5202175636091866, 92.59977422548651 0.8059841724081025 M24.66551915954782 24.285787243381222 C31.96116065871504 14.941903698382871, 48.44476634347008 7.409704483146466, 60.49818896608908 3.2620740064203915 C72.55161158870808 -0.8855564703056826, 85.55037908431707 -2.1616597751181983, 96.98605489526184 -0.599995616975221 C108.42173070620662 0.9616685411677561, 118.42940112870659 6.79266655647774, 129.1122438317577 12.632058955278254 C139.7950865348088 18.471451354078766, 153.4935316391587 25.31949023530234, 161.08311111356846 34.43635877582786 C168.67269058797822 43.553227316353386, 171.79217669712796 56.4428948042364, 174.64972067821628 67.33327019843139 C177.5072646593046 78.22364559262638, 180.22381412305913 87.94441373626285, 178.22837500009848 99.77861114099781 C176.23293587713783 111.61280854573278, 169.44122436024017 127.47113828277867, 162.67708594045246 138.3384546268412 C155.91294752066474 149.20577097090376, 147.34419002092116 158.82011216823503, 137.6435444813722 164.9825092053731 C127.94289894182324 171.14490624251118, 116.12360901217276 173.21730591955554, 104.47321270315871 175.31283684966968 C92.82281639414465 177.40836777978382, 78.8974563699784 180.41038786628837, 67.74116662728785 177.55569478605796 C56.5848768845973 174.70100170582754, 47.0486253904247 165.4262590995836, 37.5354742470154 158.18467836828708 C28.022323103606105 150.94309763699056, 16.425512364607346 143.9014820761723, 10.662259766832094 134.10621039827882 C4.89900716905684 124.31093872038534, 3.589613344548603 111.96656011527391, 2.9559586603638763 99.41304830092623 C2.3223039761791497 86.85953648657856, 3.2863851636106958 70.74109965164864, 6.860331661723734 58.78513951219277 C10.434278159836772 46.8291793727369, 20.85716595636582 33.477053576299475, 24.399637649042106 27.677287464191032 C27.942109341718393 21.87752135208259, 27.553269374211276 24.118691909102182, 28.11516181778145 23.986542839542118 C28.67705426135162 23.854393769982053, 26.843476369841305 25.842308315007223, 27.77099231046315 26.884393046830645" stroke="#009ddc" stroke-width="4" fill="none"></path></g><g transform="translate(118.20879853178656 164.04195376432244) rotate(0 89.67992091702502 89.6799209170249)"><path d="M33.114277046602176 20.835723908890692 C33.114277046602176 20.835723908890692, 33.114277046602176 20.835723908890692, 33.114277046602176 20.835723908890692 M33.114277046602176 20.835723908890692 C33.114277046602176 20.835723908890692, 33.114277046602176 20.835723908890692, 33.114277046602176 20.835723908890692 M21.05119340337915 59.907400716005455 C33.4433703120319 39.480451085713625, 44.78777707946368 28.047218163791122, 71.07150957174272 3.222109162507678 M20.428941399158067 59.18090496016909 C35.624696376109185 39.72578179723091, 52.186785918322144 21.561288775269283, 69.55493201315076 4.506778369916702 M10.030994522852872 95.92916371462539 C46.927424873134946 56.063980407218686, 77.42801818206044 16.762333022034966, 92.33162954186486 5.5102127605847215 M10.528939993588303 96.25498158460155 C39.11260795889165 65.85225828721408, 68.7502846255698 32.478039791434966, 88.73509801474796 5.336867300959597 M7.933549475932828 124.40024891028519 C32.673542146368405 101.41360622675063, 55.188500216596225 67.16717494902782, 106.55826146542313 9.197310579355701 M5.021172936151139 125.07229710834439 C27.188039005894122 99.41119666193228, 47.12146261932379 73.33656926114176, 110.45886146477642 7.059879361998185 M13.381040890721103 140.2774155887924 C50.784419564090655 98.53856021515979, 84.3692585702666 60.063231567661234, 123.94952545960501 7.7395793766331025 M14.25310361666741 139.6172597429864 C62.375581431894794 87.41280979365348, 106.42820247510097 39.46935052426812, 126.46017011714235 11.067843361626203 M23.88771733358554 152.07507253219217 C50.56931879769609 122.89792604971666, 74.23543807267102 90.45637297424751, 138.77661456554108 17.61571967889283 M24.352933238223713 152.51200532135397 C70.6110301390292 98.53516212863272, 114.3845814768763 48.13896471677096, 142.1222165246951 17.167890002100805 M36.53784475868517 166.25479900762872 C80.23765969761826 111.62203689024122, 127.3745454511288 56.34701049678411, 150.82549611051377 25.055566546175072 M35.09505226669782 165.21841828637258 C61.17887829310749 132.76109083051787, 87.65739211658823 105.72769739716742, 153.1066394014358 30.12336264424343 M53.42740787017902 173.9539555322462 C81.73589009690832 128.63601217018652, 123.00600762205826 86.58649628518432, 164.23397772262513 37.750254264287406 M48.52924179296752 170.57924245596763 C82.34204780815435 139.10779257363936, 113.27006005956476 100.92984018553602, 165.37808963718533 41.1764819996429 M68.29063789030204 179.148360514971 C88.8737778813912 149.4810137395428, 113.43857664374792 120.94305939615313, 174.30917257704365 50.59966543059676 M64.7947013009865 178.79325766484675 C105.50248012937891 132.81463596413337, 146.20891309004327 84.21549186486061, 177.20919554383087 49.6082952164474 M81.52801605220378 179.94722739272453 C118.25722278301002 147.457647628206, 146.57891256095738 111.16859422983589, 180.1222042510518 71.61097885514337 M84.33555216062308 182.52271690071262 C116.99857197158033 146.39296024113793, 149.3798369233258 109.97582772077028, 184.96276771037367 66.44972378047842 M104.27221107811918 188.3029370744331 C118.80413093335746 166.14969723700855, 139.56387886169935 145.80909759618598, 191.40891856477063 86.13709173418033 M101.15427510583093 186.41561874827278 C132.48635777919566 149.66649135006057, 161.31512304628473 115.52009168153181, 189.1800108436535 86.5324856887703 M135.9130271360554 175.2306217936766 C150.1775032428232 157.27277783531977, 161.96160676741408 139.32123823383955, 182.92222727658697 120.96355076019836 M135.52415819133597 172.13779124188838 C148.8462736181813 158.4509810769384, 159.55944579733358 139.88748879761943, 182.12036746377595 118.388526559595" stroke="#009ddc" stroke-width="2" fill="none"></path><path d="M66.553004708251 3.313930828629367 C77.43533368558835 -0.8999983483026641, 92.1090213062987 -1.2247618899891723, 104.11087195325817 0.45598372813523724 C116.11272260021764 2.1367293462596466, 128.5858955196528 6.611109564946201, 138.5641085900078 13.398404537375825 C148.5423216603628 20.18569950980545, 157.12151532950276 30.55300302679781, 163.98015037538806 41.17975356271298 C170.83878542127337 51.80650409862815, 177.71496639051654 65.02725730156466, 179.71591886531974 77.15890775286684 C181.71687134012294 89.29055820416902, 179.09590763305712 102.37694709877334, 175.98586522420732 113.96965627052604 C172.8758228153575 125.56236544227875, 168.72054847450315 137.3383399239092, 161.05566441222084 146.71516278338308 C153.39078034993852 156.09198564285697, 141.0041246382776 164.97802285766355, 129.9965608505134 170.2305934273694 C118.98899706274916 175.48316399707525, 107.10843216751249 177.90603949135146, 95.0102816856355 178.23058620161825 C82.91213120375852 178.55513291188504, 69.01218130720214 175.92348501853752, 57.40765795925152 172.1778736889702 C45.803134611300905 168.4322623594029, 33.99071646890178 163.96926892365383, 25.38314159793179 155.7569182242143 C16.7755667269618 147.54456752477478, 9.67552181294427 134.29341840064853, 5.762208733431564 122.90376949233314 C1.848895653918858 111.51412058401775, 1.2120797412671513 99.52600988250028, 1.9032631208555557 87.41902477432197 C2.59444650044396 75.31203966614366, 4.68454572421475 61.385450878198434, 9.90930901096199 50.261858843263305 C15.134072297709231 39.138266808328176, 24.263540329668537 28.497996758838596, 33.251842841339 20.67747256471121 C42.24014535300946 12.856948370583822, 53.12735755879359 6.906241211428203, 63.839124080984746 3.3387136784989764 C74.5508906031759 -0.22881385443024982, 87.43896394080625 -1.4660606475650155, 97.52244197448593 -0.727692632864148 C107.60592000816561 0.010675381836719566, 124.82685156906493 5.874490071881406, 124.3399922830628 7.768921766704182 M71.26726559526577 -0.06897941825026521 C82.8611733187628 -3.9533893152417385, 96.92280890092933 -2.365593348459081, 108.18285869098216 0.7040416229964848 C119.44290848103499 3.7736765944520507, 128.91464889553532 11.200991420223602, 138.8275643355828 18.34883041048313 C148.74047977563026 25.49666940074266, 161.3037170770654 33.588392959462126, 167.66035133126707 43.59107556455366 C174.01698558546875 53.5937581696452, 175.59555478383245 67.16241270224295, 176.96736986079281 78.36492604103236 C178.33918493775317 89.56743937982178, 179.37185610401554 99.2867202199501, 175.8912417930292 110.80615559729014 C172.41062748204286 122.32559097463019, 164.07920090284475 137.50221266583694, 156.08368399487475 147.48153830507263 C148.08816708690475 157.46086394430833, 138.38640054936906 165.8295170373703, 127.91814034520924 170.68210943270435 C117.44988014104943 175.5347018280384, 105.09748096518693 176.00984045427109, 93.27412276991592 176.597092677077 C81.45076457464491 177.18434489988292, 67.68309762186466 178.50988616812776, 56.97799117358314 174.2056227695398 C46.27288472530162 169.9013593709518, 37.5582397626671 159.15678308698423, 29.043484080226804 150.7715122855492 C20.528728397786505 142.38624148411415, 10.277342332979028 134.3320644294033, 5.889457078941348 123.89399796092948 C1.5015718249036665 113.45593149245568, 1.8320072358400523 100.72891936631166, 2.716172556000714 88.14311347470634 C3.600337876161376 75.55730758310102, 6.219039214871709 59.75140952627527, 11.194448999905319 48.379162611297616 C16.169858784938928 37.006915696319965, 23.40040927094583 27.6953922001528, 32.568631266202374 19.909631984840416 C41.73685326145892 12.123871769528034, 60.22511153622451 4.605012081353031, 66.20378097144459 1.6646013194233262 C72.18245040666466 -1.2758094425063788, 67.85265707287992 2.168133150941081, 68.44064787752284 2.267167413262186 C69.02863868216575 2.366201675583291, 69.62320103638744 0.3522451783649718, 69.7317257993021 2.2588068933499557" stroke="#009ddc" stroke-width="4" fill="none"></path></g><g transform="translate(211.14985724241 109.7893435806559) rotate(0 89.67992091702496 89.6799209170249)"><path d="M37.958330602239045 15.771504468635674 C37.958330602239045 15.771504468635674, 37.958330602239045 15.771504468635674, 37.958330602239045 15.771504468635674 M37.958330602239045 15.771504468635674 C37.958330602239045 15.771504468635674, 37.958330602239045 15.771504468635674, 37.958330602239045 15.771504468635674 M2.6709981148564026 76.05055620128459 C18.93680494080974 58.66998158980345, 44.426636339157604 34.095837733778765, 74.05119647452587 0.6952878009724444 M1.9943681375556395 78.44492191614754 C19.744236920466317 59.40991066729089, 39.23076399284316 40.39483545513306, 74.31850731553489 0.05689414741573984 M9.49196219750327 100.62785289222458 C40.250122187542075 61.169990059786926, 71.37154836753577 30.270335814808547, 87.8595871151969 7.878301199658523 M5.046363816863121 103.14842101158658 C23.104677603460935 82.5866937536238, 36.95423851174522 64.90411690982418, 84.30090555079134 10.760505778847943 M14.030405041375843 124.10204078497858 C38.91130616504839 86.31913313284332, 59.47183679891192 63.05750242529282, 109.36450981461977 5.378265006683968 M10.468973557078925 122.24286228845389 C48.03734441195545 77.50867161236877, 87.54693231256569 35.55238843449882, 113.42221674995099 2.9497403802650197 M17.289134263661616 136.99960913735907 C44.84623026561245 106.1328243592261, 74.3414732051455 65.9897609174261, 131.43187978036167 6.992082938772164 M18.906301362109296 135.2726183053432 C52.62385644136971 100.026019057697, 83.12483855584968 62.235393089491836, 126.0626993822998 11.285088094171606 M26.53344011558606 151.6666667780696 C53.87520098618528 115.83220845225392, 81.26710432832508 85.11650682110265, 144.74075465143923 16.669284309725697 M25.716105744898456 150.11925931673932 C64.08839544531605 106.38510013469036, 102.99269634614163 63.138078021241, 143.55442622357313 19.409742785151536 M37.00698091727021 161.07329840336334 C60.28263357475515 131.36063922382095, 81.53902564292335 103.38191845588932, 151.14178926604944 28.749661707579854 M37.87318516228619 161.61840956967663 C79.2826736497394 117.07515201962232, 118.545528526048 70.05585687253564, 154.72723912368673 29.99973971702135 M47.40530733296805 171.80630408261214 C86.96183200384979 128.06162729858062, 121.0910889122328 84.22227329962863, 163.99735721238932 39.74878897036992 M50.63040229024523 174.36498680930828 C80.17257753996054 141.82957217462803, 108.03406292475748 111.69978005460888, 163.43637055755636 40.36197352859758 M68.74475129876264 174.04349269117805 C102.69087735165252 132.49758420428617, 135.233050212963 93.84385719730113, 178.02472791562735 52.21889244546283 M67.57507295157738 176.49999571177753 C100.36030242384678 137.87556471391883, 135.23590801543804 99.26367673054601, 175.59312071206926 52.10756949302841 M88.68294680496489 179.37648427976958 C107.61668655405191 156.25752824052103, 126.77913753570493 135.85388051914828, 180.64229926102698 70.68507553245327 M86.13698689831232 179.34583025357418 C104.58223323806854 157.8819511117543, 126.59260352118929 133.0268411659268, 177.69859010920763 70.90060806068978 M107.54072231664836 177.95494064352596 C132.01043512523754 151.24600085743262, 158.55992985176192 122.33324353668647, 186.8703094346713 93.88374085670323 M112.79780023224234 174.36300428061867 C133.27641340551813 150.03991386339973, 153.6143154310521 128.171922892405, 184.9318914467733 92.50904703272492 M133.437795150181 178.87530181449233 C148.00338436251477 156.58683958534655, 166.38359212599525 139.36011150168144, 177.74682644494717 123.37777886070344 M131.41422978145414 179.35138800073742 C142.6940355656 159.5893655635085, 161.01930032970972 142.62406152205497, 178.7536391198719 123.23241015240583" stroke="#009ddc" stroke-width="2" fill="none"></path><path d="M74.9522621965982 0.28687590820383946 C86.16601579116895 -3.2150134556179615, 100.37408473436524 -1.7416767845415513, 111.95979833189631 1.4625846624744128 C123.54551192942738 4.666846109490377, 134.68978405232542 11.513760933333014, 144.46654378178462 19.512444590299623 C154.24330351124382 27.51112824726623, 164.8882361559007 38.54801450511276, 170.6203567086516 49.45468660427407 C176.3524772614025 60.361358703435386, 178.06131398059867 72.9727820271487, 178.85926709829005 84.9524771852675 C179.65722021598143 96.9321723433863, 179.65450398207216 110.02307085066812, 175.40807541479984 121.33285755298688 C171.16164684752752 132.64264425530564, 162.0422381288906 144.4092822948302, 153.3806956946561 152.8111973991801 C144.71915326042162 161.21311250352997, 134.66341328269647 167.5910831983316, 123.43882080939292 171.74434817908616 C112.21422833608936 175.89761315984072, 98.38552330458648 177.62115621454515, 86.03314085483477 177.7307872837075 C73.68075840508305 177.84041835286988, 60.17385683691138 177.39009110614936, 49.324526110882594 172.40213459406027 C38.475195384853805 167.4141780819712, 28.20387169770615 157.1489551069458, 20.937156498662034 147.80304821117306 C13.67044129961792 138.45714131540032, 8.926298314542267 127.9190748700777, 5.7242349166179025 116.3266932194238 C2.5221715186935376 104.73431156876991, 0.26925164615955777 90.47463247186565, 1.724776111115844 78.24875830724973 C3.1803005760721303 66.02288414263381, 8.471602524728027 53.3231857399914, 14.45738170635562 42.97144823172829 C20.44316088798321 32.619710723465175, 27.99105881850197 23.16641506625579, 37.6394512008814 16.13833325767105 C47.28784358326084 9.11025144908631, 64.00693360581622 3.69340972039965, 72.34773600063221 0.8029573802198371 C80.6885383954482 -2.087494959959976, 83.34708843240381 -1.7044924226779679, 87.68426556977741 -1.204380783407828 C92.02144270715101 -0.7042691441376879, 98.39042489054916 2.330026184990686, 98.37079882487383 3.8036272158406774 M47.57653832098494 11.181571444942847 C56.22099366979025 5.203831112480561, 67.23503636745363 4.334715781321812, 79.15505356325134 3.4459394799790175 C91.07507075904905 2.557163178636223, 107.65694249768308 2.386727619410062, 119.09664149577122 5.848913636886081 C130.53634049385937 9.311099654362101, 139.1291378344013 16.945674679608416, 147.79324755178024 24.219055584835132 C156.4573572691592 31.49243649006185, 166.30382702708172 38.61756035426479, 171.0812998000449 49.48919906824638 C175.85877257300805 60.36083778222797, 176.6378400398394 76.72556480014418, 176.45808418955926 89.44888786872467 C176.2783283392791 102.17221093730515, 174.43028561393626 115.30864321064459, 170.00276469836405 125.82913747972931 C165.57524378279183 136.34963174881403, 158.48062926587858 144.35925088203666, 149.89295869612602 152.57185348323299 C141.30528812637345 160.7844560844293, 129.3029414170697 171.12644568159308, 118.47674127984877 175.10475308690718 C107.65054114262784 179.08306049222128, 96.90774040389746 177.29947077101465, 84.93575787280047 176.44169791511763 C72.96377534170347 175.5839250592206, 57.23658619178753 174.90730021396308, 46.644846093266814 169.9581159515251 C36.0531059947461 165.0089316890871, 28.393791441539264 156.81806236719495, 21.38531728167615 146.74659234048957 C14.376843121813039 136.6751223137842, 7.854210883698547 121.79048234637094, 4.5940011340881455 109.52929579129278 C1.333791384477744 97.26810923621463, -0.16985106276369066 85.10587182334383, 1.8240587840137437 73.17947301002062 C3.817968630791178 61.2530741966974, 9.95329363958935 47.88071691369883, 16.55746021475275 37.97090291135349 C23.161626789916152 28.06108890900815, 36.5885945610337 18.39668281774801, 41.44905823499415 13.720588995948575 C46.30952190895459 9.044495174149137, 45.247036706727805 9.5438008551389, 45.720242258515434 9.914339980556875 C46.19344781030306 10.28487910597485, 43.53215919684097 14.243926745156202, 44.288291545719936 15.943823748456424" stroke="#009ddc" stroke-width="4" fill="none"></path></g></svg>