<svg version="1.1" xmlns="http://www.w3.org/2000/svg" viewBox="0 0 455.48787415421793 317.4661246951741">
  <!-- svg-source:excalidraw -->
  
  <defs>
    <style>
      @font-face {
        font-family: "Virgil";
        src: url("https://excalidraw.com/FG_Virgil.woff2");
      }
      @font-face {
        font-family: "Cascadia";
        src: url("https://excalidraw.com/Cascadia.woff2");
      }
    </style>
  </defs>
  <g><g transform="translate(175.84805306132512 322.84261640966577) rotate(0 45.580948918851846 -36.257092660518765)" fill-rule="evenodd"><path d="M17.074518251698656 -55.38303637668426 C17.074518251698656 -55.38303637668426, 17.074518251698656 -55.38303637668426, 17.074518251698656 -55.38303637668426 M17.074518251698656 -55.38303637668426 C17.074518251698656 -55.38303637668426, 17.074518251698656 -55.38303637668426, 17.074518251698656 -55.38303637668426 M8.659160771641304 -25.90191599260732 C9.137082076461503 -38.717949580201115, 15.295605515985372 -43.77262335670455, 27.62709903591233 -52.857390700886526 M5.3593847763271825 -29.388985800554003 C11.153928781257093 -36.164612357036916, 14.594332780216536 -38.64695363814121, 28.620642504328067 -53.52062680483846 M2.4214584459378123 -18.29050547036534 C19.057069235093042 -31.96467620005537, 27.867978245136293 -46.17690852341467, 36.06257971543641 -52.870898496677874 M2.4043302987529636 -17.08329823020106 C14.95758834626164 -30.51081217165467, 26.316460889837828 -41.154692720219536, 37.60374753344626 -55.15915534304619 M13.725713539524389 -11.69427205521919 C28.543938326099408 -33.468377253013635, 42.07064596856215 -47.18477345365848, 47.138861107180915 -53.413128719082394 M12.413009058339906 -17.252283311377543 C21.912950026872018 -26.353325478450248, 30.928305744267174 -33.973107423438826, 46.40113807703098 -56.04151708667568 M25.143234624321906 -17.63537689690898 C29.67298904458582 -27.47449517360048, 41.34721035205398 -39.91784593584041, 55.532807362876866 -58.33480912229562 M25.577579236383883 -15.386608053198557 C34.947048939884475 -26.888947100681612, 47.65041270393199 -40.56062945855354, 60.45896539618823 -55.760383149297475 M34.66376779408036 -17.080128589184707 C44.37191014042284 -24.50758370887793, 51.914064957250844 -32.76048321758982, 71.06248054728376 -54.58191371984478 M34.71957403600989 -15.257024408789103 C42.4194158966079 -24.981828221547616, 53.103325654979145 -34.13367669401423, 71.32551616505252 -53.5896084038138 M45.386434142549746 -12.35421072579637 C57.44210035635868 -31.639028085179316, 71.88841940042792 -47.14876655762495, 82.81137675415158 -56.714501105479876 M46.730839160342924 -16.57959683127418 C56.16148182910629 -29.27128235422039, 69.06211919963779 -40.36369783791603, 78.52544858674884 -54.75306980334965 M59.01972976348007 -12.642681900493972 C70.47841849737188 -29.138937123769814, 75.69120544216254 -43.27451669073053, 88.69207193227781 -47.87845697183705 M57.82353281250799 -14.265702273778789 C65.1357786177301 -23.776946973192146, 71.43530555092762 -34.185009132561184, 88.87343821944965 -49.14640889991618 M69.38152575062134 -19.48997570702751 C72.2310105413337 -24.360445987194304, 84.4735047662471 -30.25422654413459, 93.53863508844091 -42.588461171998006 M68.78012569563009 -13.672030189427929 C75.34590357359559 -27.238742614135806, 84.07293230005769 -35.333042306826165, 88.31659117930843 -39.86999890597008 M79.89906819772354 -12.299900739146988 C82.14123944872159 -21.682161958969985, 90.63374369742937 -26.79442865097368, 93.16721857730548 -31.77508352171766 M76.20340101283422 -13.8505825313466 C84.42141112534422 -19.11198967480536, 85.93585210041334 -24.996975074107247, 91.74503443036477 -34.02604049664127 M88.85663318044786 -14.7820087559166 C89.17180806723812 -17.307885571949253, 92.34842483683602 -21.703111954475354, 94.30381895794753 -23.47832287899088 M88.18537131480221 -15.2635253369453 C91.60955215461595 -17.820966142803485, 92.89268006341007 -19.97902142651436, 95.4867477995086 -22.32021188414525" stroke="#ff730b" stroke-width="1" fill="none"></path><path d="M2.1402581781148946 -18.295298197359052 C30.241599256310977 -16.649641849508146, 63.9106740991555 -15.060435630788675, 92.36446332145245 -17.383636572450634 M-0.18756585568189266 -20.689233602076975 C20.244414370761607 -19.14123611284772, 38.52790369144339 -22.008451984658638, 91.71348841447146 -20.593371451884742 M92.23174618888409 -15.772342779726024 C89.11005540307238 -32.04050073036514, 86.27333818312307 -35.67723746122644, 80.29379987191767 -55.81548305295583 M93.38125689286501 -19.741150916606422 C91.67163386253704 -26.690119077059734, 86.65749367163487 -33.697309454506104, 81.99206979792923 -54.627884548829755 M79.25641965341181 -51.19601054929372 C65.55644724210768 -55.05166594652886, 49.68752535570277 -55.16735031618582, 18.22647324645157 -54.43470938077999 M83.00963075679154 -55.942839306520185 C68.54238891925547 -56.15717171021856, 53.354867645968994 -55.39691125992183, 19.01143765145178 -55.41791561565233 M13.35083619200821 -54.31096441618038 C13.245718021383649 -42.24807738885683, 2.28992712749781 -31.114240929548004, -2.2193590551614726 -21.37876568087956 M15.939337965782833 -56.74184254131151 C12.135754266839516 -40.55422159415853, 3.2476447402496387 -27.96761231394304, 0.14341158419847844 -20.07723313668391 M3.552713678800501e-15 -18.697813981265035 C3.552713678800501e-15 -18.697813981265035, 3.552713678800501e-15 -18.697813981265035, 3.552713678800501e-15 -18.697813981265035 M3.552713678800501e-15 -18.697813981265035 C3.552713678800501e-15 -18.697813981265035, 3.552713678800501e-15 -18.697813981265035, 3.552713678800501e-15 -18.697813981265035" stroke="#ff730b" stroke-width="2" fill="none"></path></g></g><g><g transform="translate(121.89811791761826 303.9544732835215) rotate(0 105.8458191594907 -145.22141093593447)" fill-rule="evenodd"><path d="M-107.32002669964855 -212.5430453134809 C-107.32002669964855 -212.5430453134809, -107.32002669964855 -212.5430453134809, -107.32002669964855 -212.5430453134809 M-107.32002669964855 -212.5430453134809 C-107.32002669964855 -212.5430453134809, -107.32002669964855 -212.5430453134809, -107.32002669964855 -212.5430453134809 M-106.68537081914002 -208.3694465776124 C-90.51150914813768 -220.0097484309529, -71.87533907175491 -236.83422987749444, -63.59527038077265 -257.21765289193814 M-104.41709786044413 -204.56545736837768 C-87.08217443059588 -223.1191617044845, -72.71203478830105 -239.91453185925238, -60.70260801205784 -253.51245265937274 M-96.50593812416331 -201.65433463089096 C-77.97505717221466 -220.50170865498362, -54.885663616597704 -252.06727397449026, -18.147181545419585 -293.1073777939926 M-99.58158897261158 -198.39644007764684 C-72.79133927611662 -226.93836869876765, -47.05903208260048 -258.0216668915486, -18.729462576134097 -288.39501141419515 M-93.52994299821617 -194.69401932953275 C-68.41520734392827 -218.3301637802725, -46.58700561608091 -243.74369654129333, -16.54738494285249 -284.76627851357614 M-94.45889417968752 -192.09650013296283 C-75.53341788578597 -212.8722950041264, -57.29519517013958 -235.03173731600305, -13.471651914500228 -284.0572669216052 M-90.40864628956763 -187.2611034277332 C-52.860956126235195 -219.47070641443239, -24.424739325868245 -258.6170256164556, -10.003755942824483 -280.69152139624555 M-87.81379972056595 -183.42237114789606 C-74.87629395525849 -204.62068716906626, -55.24329604851094 -227.70376607582853, -8.602139287534357 -279.25395388653476 M-85.8081699624486 -172.96872635879683 C-54.44143082588501 -213.82625892578537, -20.703112091352097 -251.30757584116515, 1.6140765484144879 -275.74004003575095 M-86.71501545010281 -175.30726091512608 C-64.06189536929375 -199.56696378563532, -46.87545501270121 -217.4602132129574, -2.9947039921114254 -274.1855117621089 M-77.66102486512816 -170.80824087691917 C-51.630500995385106 -197.42426878886934, -30.143362224671343 -226.55962666476898, 6.045858624614397 -268.6281430258423 M-82.03670260719215 -169.1485280482234 C-49.10229674247442 -204.04881985103782, -16.85406064066005 -239.2131914335052, 3.297187174893537 -269.74769250145255 M-74.25852393284677 -165.36624599562745 C-53.27074157045662 -194.32764380783414, -20.38131632068827 -229.75787217983967, 12.140711379525229 -263.43151396026957 M-77.80088701769947 -162.77471492009025 C-41.2575791753831 -203.02723073246116, -7.63529017243556 -241.39678312613768, 12.290379916605517 -262.78156055769074 M-74.78260510084495 -158.5887157284489 C-35.78494938966567 -195.72642422552374, -5.01530694325109 -237.7866613562464, 19.357130906897012 -255.08521143278273 M-73.95928200749024 -155.95967640362886 C-36.672782643479486 -196.50886472357547, -1.3338730860956076 -236.24728011611745, 15.322032436149541 -257.3234928839484 M-65.8376542173917 -149.54512782957903 C-47.48644266934482 -173.30269819793622, -22.83929917822897 -197.84437461625575, 19.26298830047972 -254.88366903713188 M-69.17511131545851 -147.93670861240975 C-46.4315688574095 -180.17320181141437, -21.450209903352857 -207.9941593651872, 24.299615436650583 -251.85517893335066 M-64.54291824671799 -138.64549673232239 C-43.04811395015845 -165.3163275764151, -15.319392299703587 -190.4901064277038, 29.035529654023378 -243.98069536706697 M-62.16552229646022 -139.36558183911245 C-31.0479365470552 -180.74749295034127, 6.06794284582935 -223.89484023523272, 30.95091212123367 -246.55362065902244 M-55.78403303709286 -135.1780501908744 C-26.045210315901222 -175.16516050210595, 10.780123983956756 -216.68008083879965, 36.96137606127796 -238.88947401633797 M-59.203113689389404 -133.6202171973074 C-40.134034767513285 -157.05694548747925, -18.98501121036592 -178.8809582662232, 34.074018193023775 -242.54113251408873 M-50.64937749476629 -130.28097179898512 C-32.11002528609606 -156.59774595015406, -3.581822911524938 -186.5814716383704, 48.52893681892701 -242.26553064025433 M-54.80228979112106 -127.51042914011967 C-24.612156699053852 -161.19629723482257, 4.416800969484136 -198.2496937615348, 47.37975505807944 -242.41830851323397 M-58.05125416377942 -107.3482093855036 C-15.789705096025557 -153.6977666968556, 23.226066439706727 -204.17603115584856, 58.151169817787036 -244.5578317710066 M-61.59044103632132 -107.43773385577327 C-31.987890659653146 -136.10578416941297, -4.6974342253096495 -167.62371332518288, 56.96443021659218 -241.6651210480237 M-72.9401625854959 -83.8471957339 C-32.98102083258466 -126.22027535051348, 6.366650085360868 -170.10324346429053, 64.75144318603476 -241.48627818731723 M-69.25859155747541 -84.83285415700892 C-23.49216518101811 -132.35703607351124, 18.945960380174245 -182.06667887915523, 66.42465062911482 -243.59043327009172 M-76.22288771978324 -59.89434857232612 C-24.563121833863384 -121.54693297784488, 29.633027381760677 -179.7335826082861, 75.5553785559592 -245.10060966867232 M-79.62515920621748 -62.59793583948409 C-18.454319514806944 -132.3498296340622, 41.06289467353681 -203.7941300917298, 78.85269440457152 -242.11993730249003 M-89.16107647290033 -37.7289979405126 C-25.943405769230303 -112.6224787541045, 39.6391029337882 -190.89380266725198, 85.35263299400455 -241.4379926833401 M-87.86272890307339 -40.85281642430624 C-41.568698549525976 -91.44083737773218, 4.111872942181641 -145.08541194296572, 89.71351546431796 -243.04295458477566 M-93.79340424545346 -18.10867492438722 C-44.39169391426982 -77.6736956708574, 4.862181764971011 -140.91714842528114, 99.0842957977817 -240.75334545802147 M-95.2870344257054 -18.968128266123045 C-26.18473844036557 -103.66231416867035, 46.16579122439658 -184.253081079605, 100.34060993204078 -242.29082343864727 M-105.68550251528801 -0.5867733045299479 C-34.37056181985133 -78.44975714313779, 28.68163447452611 -153.15973870769128, 108.40954454990309 -244.69360529077593 M-104.3158483208849 3.03593272808625 C-16.472076037846143 -97.62236745655154, 67.89310008792182 -193.50495368163973, 110.94941148608743 -242.81346473617754 M-92.6320260249462 0.15863888176870033 C-7.648562743698948 -96.80858091976297, 72.55564313240654 -191.04409104398408, 120.11716354061109 -241.44349392710913 M-91.95764613354639 2.5584406415520276 C-22.323562032530674 -77.25625183668645, 45.283888197613585 -155.35948193166337, 120.56201857265687 -244.1546900451849 M-80.96404012540216 4.5184326501905065 C-13.821721865499422 -75.7155257197696, 56.36887418644855 -150.93687382070345, 131.9308425730952 -244.4861651903358 M-82.19355683939 1.8756469436350005 C-35.07051694872814 -56.71850572842187, 14.974107894302593 -111.98362429737934, 130.2253009177441 -244.234477841815 M-69.09184525361907 2.0951905898226286 C11.359395222674264 -98.02185632308444, 96.85318830833741 -195.449205358861, 142.3869807251212 -245.94360824471613 M-72.76138325221889 3.9183305779911093 C-27.128723394794893 -51.18676189132139, 19.331801127005797 -102.10820122366295, 142.8683664039051 -243.97417486753275 M-59.3638210705055 3.212144942866437 C-12.49157731777086 -53.25683214008614, 35.30182272143914 -111.9908353207422, 152.5159611507268 -246.13583293863456 M-62.94363971598036 3.9741332260397537 C11.323096926103938 -78.26110263086638, 80.02479999082887 -161.38024222081103, 152.33284853351523 -244.76308075853836 M-51.74974786125082 4.2240477731611294 C-1.7134010240785078 -54.82547474207445, 51.08677508417329 -117.96529559281227, 161.35427671619487 -243.5817357323267 M-51.60198384664019 3.499091442895077 C12.742375558689519 -67.54128522044408, 73.00063384305199 -138.10338374726882, 162.1661437598073 -242.44988791631073 M-42.597739462644256 2.63895420808187 C-32.230591788708786 -5.186755378706682, -29.124276790729546 -13.982912625199422, -11.91586055068246 -29.248691590800277 M-39.063879412502445 1.5974346034585523 C-33.02456751890976 -5.801984244080506, -21.729134531589203 -16.0325896798269, -9.627751166205321 -31.920593494846813 M-8.317935546078418 -30.219338349109343 C40.87594694835924 -96.64423958439599, 99.43000943294827 -157.20378030100972, 170.07899736911924 -239.5254696181029 M-9.811550926777128 -32.07653205657258 C32.03187682492156 -79.40509146260032, 70.26449645317666 -123.59377972407889, 170.679023864934 -240.70095414331803 M-29.992068212653905 3.274571371083848 C-26.56081643051384 -4.710987584629744, -18.37622986409194 -3.93395204431574, -6.1654878425503 -22.928008654867458 M-30.383871633734017 2.531632412975423 C-21.12717818586976 -5.97593639657365, -14.841041110247701 -15.66798874446932, -5.601946348240398 -24.21653682157879 M11.94133690002963 -49.3766278090722 C68.91884275594506 -112.78793280859614, 122.83157011044837 -175.4957829557546, 227.18814497454812 -288.4002673898458 M14.81046409587592 -47.66811551283675 C77.1497947231367 -124.82121789344978, 143.67462852645863 -199.62795338671714, 225.4802292480508 -289.77012834324245 M-23.54485209382929 3.742454051519301 C-14.524615534770666 -0.7194983181549537, -13.663856715767036 -9.831920513136154, -5.348769919574393 -17.057459996278386 M-17.962325089646953 5.903472937191394 C-13.288954938069532 -3.3491605426051345, -6.744693831003836 -10.977859996380639, -4.0404664814473525 -15.942198165888886 M36.66786690440395 -61.02016417861265 C77.32337563293764 -115.41051308757628, 125.5710289167998 -167.2699063601083, 229.4075989460046 -285.92326804932827 M37.87416081997346 -61.033316122744466 C101.31376717985022 -131.86324092919688, 166.83718948254327 -206.32975569192524, 230.0880297559422 -286.24538715204784 M-12.002957342089656 6.242626172884647 C-8.877385725104011 -0.9357746404110325, -2.9992852815602196 -0.6012455236960332, -1.0817403932385468 -7.815407569145905 M-9.628278601439241 5.1601161090874115 C-5.78549937034676 0.4870630333702832, -1.8091993016298855 -4.265922242071783, 0.7700690704114415 -6.320787720566737 M63.168456428958635 -76.86520154088441 C126.04627323322387 -150.29790250845954, 189.7122675867843 -223.69572598715857, 236.35535660557295 -281.2319510606624 M60.97590471197548 -77.43656403473123 C106.57988321478882 -133.93574847725543, 153.2194456306801 -189.00550795258866, 236.13306164168688 -280.4495528064543 M80.24400552987879 -91.59081936551101 C117.10601512888117 -130.00092593547373, 153.156328737101 -172.4174879246179, 241.52386259538252 -277.05188579887175 M82.18523918540689 -90.31542216881967 C118.63906996916755 -132.31193551019447, 155.86512429928322 -171.68219314572556, 243.2374801132219 -275.4053093749699 M111.16879650350691 -109.58355642802512 C152.90213602477058 -155.1147389977495, 189.68509776247873 -207.8326516358158, 249.3298879905441 -272.14762878856004 M108.39731765970612 -109.54483513577276 C162.24450299116904 -170.01161744773214, 218.9445332038395 -232.98417357519412, 251.18655242665236 -269.63643500710816 M118.39504228420334 -102.79717044697975 C148.6415686924851 -146.86523224336926, 189.94475347773914 -184.59969778610454, 254.56280620717868 -262.53809845753733 M114.12292028964137 -103.26953474784492 C173.68593485081917 -167.4234304715496, 228.7319020320914 -231.00940584680797, 254.97037252351262 -262.94988270145785 M119.35304785181576 -98.80159824515384 C166.6506271801211 -152.7066174795148, 210.12689945113428 -205.16373436379703, 264.93585583906173 -258.13961146668373 M121.03924656283435 -98.23072906683751 C174.45670498027457 -155.66082027345055, 227.67348750224926 -213.91758938717862, 261.13902440913233 -257.85798318973355 M130.12528313634172 -92.86018208943221 C170.23826625133287 -139.2759051506462, 207.20648837462502 -183.5208875780923, 267.05732077135565 -254.7052859601633 M128.19225932413428 -93.86048035575335 C176.36333448605035 -148.91325444598627, 222.34281210089233 -207.09992227641385, 265.34630290230467 -254.50736452230203 M133.6671512585619 -89.31887481580416 C186.90903079485184 -150.91717396605918, 235.03653872800962 -210.92770694163386, 272.4662069947972 -245.20679985105983 M138.26167602499464 -91.04341834037419 C182.06471539406792 -144.05244114465435, 229.30809261596752 -198.4155871682352, 271.8932580729953 -245.96180094874626 M141.47212793148586 -86.26889571848415 C196.51435940778111 -148.03713770260921, 250.37061441369926 -205.78924480482647, 279.8588256673922 -245.0297182524563 M143.09171321265828 -85.33743944552934 C194.11347883731798 -146.78362930840973, 247.86781738039124 -206.101464852654, 278.52965394874485 -241.32986427892183 M149.8840123520558 -80.90183960349637 C182.39560035214993 -119.13762696607485, 213.95263068048368 -162.5255274642514, 285.9971724233875 -239.6094012358066 M148.77941124104666 -81.02771072606805 C193.34410949782642 -129.51678470521222, 232.41110039947066 -174.61626288240174, 285.49346868513487 -236.26483363027566 M156.20819627737012 -78.73343477452126 C203.01262252314103 -129.87956968061715, 246.71498603214874 -181.7252535491356, 293.5120848821863 -234.65403779522077 M157.9638411277532 -77.03302193176147 C189.6443121954915 -112.44808559228906, 219.89170800412 -148.268212559395, 290.635142988919 -232.80288770267651 M160.06086975593334 -73.58214106414545 C213.21941872835424 -131.64696647527094, 268.342089964611 -195.81511196267192, 298.00537657959785 -229.08929847871525 M161.97692003841811 -73.33180004167755 C194.60936788974084 -111.63983020941626, 228.19113703677027 -151.79773390269486, 295.8717219023976 -228.03340881279001 M172.5525940050353 -71.04005826263078 C203.57338421576915 -98.0976038288528, 225.68678609803246 -132.07573631973614, 303.6469751832848 -223.500811143646 M169.35930478668425 -67.47291088593609 C212.97117316337682 -120.62959544863304, 256.10506909547524 -167.0464560807248, 302.97342778832535 -220.5396476296633 M179.23022053931314 -65.36493855244896 C216.53479359300502 -111.08961734612485, 262.3507403292384 -162.90151646094475, 310.2513283528477 -214.29853680812667 M177.6251026885516 -65.21609826239795 C208.9459581403123 -102.10283515242845, 243.48671905308603 -140.40949594253567, 309.30523299098917 -216.9229298791589 M181.08534122934242 -59.67420096551731 C220.62815478981528 -102.19340501385884, 252.36117164242268 -138.5693135412231, 314.5819055357914 -209.45201656735412 M183.59858673412225 -59.29563973831563 C221.176824803991 -99.13403136530079, 255.20931067761384 -139.81491164566123, 314.2920221213346 -209.6185638129675 M193.73216981115814 -57.301649356289204 C239.4557404679234 -114.92761062781466, 293.0128695029752 -168.8809549191817, 318.62188331229424 -208.58073423477487 M190.94389083656546 -54.3160319198206 C218.00938514480455 -88.0883487581896, 250.71192498775793 -124.58657074512901, 322.4973309059236 -204.8499421519287 M197.5011785188876 -48.30311976351736 C213.682626967642 -66.75357061493744, 228.64910070042933 -88.44277722622398, 266.43919208177647 -135.88110548347703 M195.46763906722887 -49.28599078186748 C223.28250878551736 -81.63682541928857, 246.73094107738888 -109.87542385738561, 269.62292991855463 -133.67198636472693 M206.802886811578 -50.362924521331465 C216.3893291319635 -61.436018036578275, 231.04352165038628 -81.05899420193583, 275.33693274416277 -122.96190274545069 M203.56646816947432 -47.52719750768391 C229.2578851282794 -74.54666561288148, 250.9212441705468 -100.37868534192665, 271.5449260950858 -126.91486033835525 M210.14247481196986 -39.31145680370426 C229.8043753965569 -66.81984408083378, 250.7151658596453 -87.54939826179304, 279.38358392901 -116.98287029551028 M212.41328287541734 -41.13542613061762 C229.32881411510223 -62.37471396367869, 251.64872424325517 -87.46310789254368, 277.64796017444905 -117.2771267070031 M216.66632055583216 -35.57435604394023 C239.86987584349427 -56.515203447777594, 252.13147212072656 -82.79915252667172, 280.52201673006823 -109.61344172740583 M218.53312333020187 -39.13763444334809 C240.9366486796223 -64.40541009327916, 264.26248707249306 -91.14083393983611, 279.65200285976937 -110.0529749237955 M210.44535067306674 -17.370702552225012 C240.54949813035182 -53.27023176910483, 266.83895672648384 -82.48380657362003, 286.30447724108734 -98.38242563488731 M213.8365157731048 -22.440158615435976 C235.7199679892874 -43.73019933015709, 252.9586369323434 -63.00871306224411, 283.09733735417166 -98.23190694185743 M206.80981475026226 -5.684367786095734 C236.25180743359618 -32.289034406886465, 258.63413172014845 -67.32296082392843, 287.3925865558174 -88.17800561170473 M207.70424690008974 -2.5500634637933928 C236.99922239210025 -31.597893952305405, 260.16997684514365 -61.105651768172606, 286.594559360781 -93.74873721431389 M212.9190422290548 2.9149496980243583 C241.1635224319615 -26.44324289840028, 260.57529602392884 -58.643387593811035, 291.05734076800843 -84.74774025160808 M213.3071207621678 3.8538215957814117 C237.59220332043964 -24.15078281818137, 260.7372470175582 -50.637357202346166, 289.0745770827224 -82.73359269428987 M224.01297017420393 0.8094008866080031 C250.73421631962918 -24.408673103253477, 280.7053692203452 -58.88005106699195, 290.6791109714103 -72.19856314834738 M221.60748653347355 5.708579190386175 C247.43753876196803 -24.114947772368616, 273.0860140354438 -54.17499623430588, 293.0386112231207 -76.76191283491039 M235.53637938955444 4.81414798813293 C257.96947290837534 -23.13225998261635, 281.2842972979651 -42.22131474708974, 299.2476432597732 -70.49678289567264 M235.23347462722677 3.2983656691236263 C250.03937226006443 -11.61687031288977, 265.01494822175516 -31.596804423775875, 295.8081949851012 -68.10444958930047 M247.79189791087538 1.8473015692947001 C253.2313414705061 -7.432217853685984, 269.1921326209284 -26.406026691318036, 302.862058726847 -56.96808308733381 M246.8820001885715 4.174348239314327 C263.5602675369004 -18.385320303338087, 284.96200484041043 -42.4136215136334, 300.7751740717886 -56.97726741058506 M256.15970586090725 7.203468456120547 C270.1080078681651 -13.752727514112859, 278.8644418082917 -20.11009103810475, 302.23085346638175 -47.797522317080904 M255.28846794962328 3.67825286761051 C273.90231160788215 -16.456366001377603, 292.49531411035525 -38.863255933199156, 304.6517066863081 -50.79174325188916 M266.62935836239063 1.3178804746376613 C283.5989166719478 -11.914536705740083, 295.62310728311627 -26.7973383458428, 306.1718985721275 -43.529534178663965 M266.50859514249765 3.956493020664368 C277.78298060486736 -9.057900901932575, 289.76334063349725 -23.45063887034755, 304.72026353178467 -43.40456656633782 M279.3316084510943 2.5305231915416186 C290.22984990713854 -11.287955465514937, 300.51071450963803 -23.93030610900507, 309.112440137834 -30.567927265832935 M279.20023441233843 0.9742984057964748 C284.98428796454164 -6.161119213182336, 295.60436197726284 -13.932733729981159, 310.08362781134315 -34.367739307055984 M286.6308202787496 4.303168852636901 C299.7279479961737 -11.37386307639616, 309.57644306574065 -19.50949751584522, 316.58909925725163 -22.675885172337843 M288.46578702025187 3.9827479094363127 C297.16619499006055 -7.731011974765597, 309.0730155842953 -17.584980890427957, 312.9148952281088 -24.17857592716868 M301.3764968811252 3.757053024618955 C305.46519716105513 -4.10650171213875, 310.41964612198376 -7.378792010419062, 314.7478720241301 -14.475966491928716 M299.85373061138176 2.3064462389043285 C303.4406894081645 -2.486590980098065, 309.5189599978379 -9.339030328397625, 315.7074739852064 -17.529703379800935 M307.82330831793945 2.6905303804463467 C313.3507197439365 -3.867454717011964, 314.16165961481374 -1.9443237101494342, 319.9198567900971 -7.519639809292046 M309.4773125956009 1.131017375949654 C313.28331227135635 -2.6456593554402734, 315.3830214606625 -5.3957557587104805, 318.93057323025323 -10.22635703408369" stroke="#ff730b" stroke-width="1" fill="none"></path><path d="M-2.4635850340127945 0.28682316839694977 C-8.258184428094411 -17.791360361027344, -12.280015628753322 -27.50481260499884, -14.998395280568097 -37.292820245590576 M-0.5349247977137566 -1.3549104407429695 C-3.137559398319641 -9.605805009110073, -6.897201080206083 -18.85962449745896, -15.526850456027482 -34.35259484555996 M-14.842171983448956 -32.23804500755347 C14.028435291219386 -53.30264666628446, 43.9163357830337 -77.61530615463693, 104.19080999632988 -114.4291365553154 M-12.115856879977677 -34.28168534543789 C33.14167273860626 -68.1154667124625, 77.4595556070802 -96.29952254216872, 106.87024986138258 -111.18741059643163 M104.61033895751152 -111.34665135634079 C140.04873854383212 -87.47927604503482, 174.9991007100076 -60.27654384391047, 222.30206198429818 -35.58954726358709 M105.57830154290113 -110.82469201427831 C133.6273462808726 -93.68734960564096, 159.38540898821824 -75.99152884360979, 219.00228598898406 -39.076617071533775 M220.92630285954232 -36.858258353674984 C217.6148842229391 -21.118304481937688, 210.9588602291621 -7.557971946077117, 206.9258848189201 -1.978304703554258 M218.13044265097136 -39.826386282349205 C215.6403632493988 -23.43512873399721, 211.13174572013926 -10.820024017119518, 206.90875667173526 -0.7710974633899781 M210.32124385822675 -0.6021183327046487 C241.3470457666973 2.946881904692151, 275.64157076908174 -0.41367243148988275, 320.2318727832304 1.2132647481594745 M206.26756518919132 0.2748486578258422 C249.83957973399598 -3.5199627228456274, 292.0906753315525 -3.657032985710745, 318.91916830204593 -4.344746507998877 M323.58975623659956 -6.394557670053416 C302.99824915154204 -43.086883356029645, 292.4791161013582 -76.73305225242011, 265.13329833813197 -138.81981663315867 M319.00667554997074 -4.282381929751807 C307.65104265976095 -31.19747309749082, 296.6785232112593 -61.420144890946986, 265.56764295019394 -136.57104778944824 M264.2701124555636 -133.66555409043406 C275.34721113081326 -156.8491141426619, 288.1625625675582 -175.42564254079582, 317.33042876278074 -209.5922215937464 M265.5693958035875 -135.95906162916992 C280.99475218798796 -159.1370740442548, 298.63524423001775 -178.4236533912134, 317.3862350047103 -207.76911741335078 M320.6875797942749 -204.55478034008428 C296.0054104974783 -225.1086974574289, 266.42333316689366 -247.39856855207256, 224.5662085147627 -287.3711869981211 M317.1752803385726 -206.7618065460412 C294.45352389893475 -228.3672445390192, 270.37555735037955 -250.93608881623663, 225.91061353255589 -291.5965731035989 M225.21010271031935 -293.9544732835215 C211.56643309468146 -278.0483576709992, 195.52102205471064 -270.65271463106893, 167.38446733006546 -241.19676496729795 M224.04749822188694 -290.0357344042581 C205.1609777473375 -276.2113352465639, 183.61199836858714 -257.6609608413645, 166.18827037909338 -242.81978534058277 M163.0065109396846 -241.52968504176084 C120.19154407992929 -242.3378504890442, 67.07808624519528 -244.46622118961076, 36.42883203388023 -246.28998454766207 M165.9210412988932 -242.2347156842107 C132.86065898582376 -240.67252337300926, 101.34991344110364 -239.69391027525597, 35.82743197888898 -240.4720390300625 M33.34543130756187 -245.12644466118746 C22.68190597031505 -253.06376332487292, 5.697401325468572 -269.006957985032, -17.850184946002628 -287.21338530696255 M35.091636004157536 -242.07953529165917 C19.857578037198337 -254.40747578395977, 6.295344047669808 -269.0352990967159, -21.545852130891944 -288.76406709916216 M-16.697623758258487 -291.93229170955044 C-56.41563885971947 -258.27535584127025, -88.79045406014437 -225.8884500003035, -106.96843778328281 -210.4741862915107 M-20.12716812515464 -291.4684261537276 C-37.106456217180096 -275.1411574091055, -56.55821640207313 -260.3763930122575, -108.3109615145741 -211.4372194535681 M-106.01350843147617 -211.0794452331611 C-84.16789689477125 -184.08513615969872, -72.44724755981187 -147.28277533980673, -56.6827256731859 -136.3637885082149 M-107.42725065336805 -213.83023817610228 C-96.51240495894288 -194.76203013437618, -86.99848877498955 -174.00554504843808, -59.37728325800808 -133.35296545956368 M-55.73402190731676 -133.4843062389278 C-74.07862968158379 -91.84698122052177, -92.38380854924392 -42.8400093462396, -111.89811791761824 -2.71618385642423 M-57.03049866633327 -131.7139407250666 C-71.38836247561555 -106.60072678176215, -80.09707391817346 -79.73131588930113, -109.3415370537252 -2.0013028758729874 M-110.1392334876866 -3.605866626199621 C-72.50748391254191 -0.43597126798513486, -39.219467202644 -4.397847003176746, 3.9051917642354965 3.511651411652565 M-108.84613185658165 -4.297031559344667 C-79.64456329055643 -0.5348960320973182, -47.31732313691232 -0.6970744991351183, 1.8353704884648323 -0.8311513140797615 M0 0 C0 0, 0 0, 0 0 M0 0 C0 0, 0 0, 0 0" stroke="#ff730b" stroke-width="2" fill="none"></path></g></g></svg>