<svg version="1.1" xmlns="http://www.w3.org/2000/svg" viewBox="0 0 368.57142857142856 368.57142857142856">
  <!-- svg-source:excalidraw -->
  
  <defs>
    <style>
      @font-face {
        font-family: "Virgil";
        src: url("https://excalidraw.com/FG_Virgil.woff2");
      }
      @font-face {
        font-family: "Cascadia";
        src: url("https://excalidraw.com/Cascadia.woff2");
      }
    </style>
  </defs>
  <g transform="translate(10 10) rotate(0 174.28571428571428 174.28571428571428)"><path d="M0.04866418814043527 174.94401825540018 C0.04866418814043527 174.94401825540018, 0.04866418814043527 174.94401825540018, 0.04866418814043527 174.94401825540018 M0.04866418814043527 174.94401825540018 C0.04866418814043527 174.94401825540018, 0.04866418814043527 174.94401825540018, 0.04866418814043527 174.94401825540018 M4.109622354779475 177.7353284705453 C16.05528049691359 166.92816611662784, 25.752657664702667 150.51517682594292, 41.82554126367761 136.19139497490417 M4.232316213820212 176.29059822596838 C14.19946137304953 162.59425080303274, 29.133741970247982 149.8677353116575, 41.1597903652568 135.7297773039509 M8.668417481488419 176.99463620057406 C19.44441239749265 160.41160711432357, 40.95030236295253 145.93729630841767, 78.6411891489844 93.94453008423875 M6.127798190123272 182.76082271358075 C35.470709546220185 147.9440232066982, 65.10881724453512 112.98681417932306, 80.81904496099754 93.22243177096675 M7.680131378398784 183.71580234354417 C40.39196242968646 150.08736202254303, 68.33166237863345 113.47099179530004, 124.83309564824262 55.697121262764625 M9.899683738873847 183.72779483532588 C35.7498568927466 149.88440889789538, 63.5767619034998 116.5479534668939, 123.61568945731082 54.28287879399031 M10.095675645356703 187.99468105129216 C54.2437990900385 140.39966697961526, 93.17714754677586 96.12305918185919, 164.55167719235712 10.292420679778887 M11.092262005824896 185.91288721147936 C64.01145648675886 131.46757971330698, 115.03426422569078 71.16679277972237, 161.84553225352752 12.159438435398846 M17.090768696835266 187.39588775504419 C60.23083624993184 137.31060685849513, 107.3105887720417 83.6800329529401, 174.97184229922615 4.598774278243656 M13.85061425439148 189.08056135109499 C58.71703002249694 137.49270874083737, 102.48771026429253 85.786342464502, 177.1507418751632 0.09634673546839201 M19.046822021491117 190.58238538103998 C62.506865473119 140.18221367382418, 110.86741946698781 86.41296895025819, 183.16232416360918 5.394178293147595 M16.82802781633167 192.92241852924946 C57.67729829113084 143.09193443598463, 102.0029158874418 91.25068356318906, 179.1899067537813 3.623250891740806 M18.3159351558477 193.57753429043436 C74.89131880075185 131.518209781398, 129.33595846575597 65.27477855329593, 182.3229184339344 8.010853125633334 M19.787688177150752 194.5747616098996 C62.613537657586356 150.51826703038384, 103.32525030454325 101.53314378878484, 181.7746990439613 6.907066934074005 M19.80624373911615 196.50732402381945 C60.142715255069454 146.88726595558413, 99.42175293767694 106.4391816151318, 184.64229063229686 9.691786261209575 M22.004202954315016 196.9489016882576 C81.56551338511952 128.03432643569937, 141.93340870316072 59.48386817746106, 184.82795337192817 11.21195820533054 M28.369561110281328 199.2551559201867 C61.444264332915544 161.93845620037482, 93.30675808809143 124.52324385169301, 191.0250542117201 12.528413782228943 M24.285684799396154 199.792274781853 C78.44026428258132 133.94979750984209, 136.23137424572815 70.30669663191168, 188.1986110821674 13.341006344656545 M29.017611356954273 201.75777383378235 C63.92225716596626 163.1379241349113, 103.57540947263591 117.19633348218558, 187.70007266606513 13.395413036687618 M27.046877098540353 205.0853379354594 C66.14682038653767 158.8324909005393, 101.66647973962108 116.90902521464442, 189.74542280770012 17.113189499950543 M30.139137209967593 206.3129226219343 C82.21384339216411 144.22574869429312, 137.36402624950267 85.51294572258901, 195.34279073241467 20.13812217566353 M32.318370496740386 204.79956923130698 C82.13067805729078 143.1935457798131, 135.4728902018793 80.60419580979891, 193.24781634039422 18.59341775656781 M34.554534069432336 207.7581726263887 C92.73319592322345 140.54589422366186, 149.0853677773334 68.70171117581158, 194.21168281712963 22.07214223465287 M35.91540262389245 208.99979377041936 C84.88464209284365 151.93964693021744, 133.62206195313723 92.4330196085597, 197.29482595702072 21.075377518656875 M36.80924966762312 208.89642927598635 C100.24588507356776 139.85236149413586, 159.43123937870763 70.76038255746927, 199.50379772301147 25.849608019896827 M36.004179059644116 210.64023152140825 C74.96525541008371 167.49890727730988, 113.30116831260473 128.99622244396218, 199.91927449901627 23.590089747463445 M42.77607507638181 214.24027542927155 C74.23197782623846 175.44903080140833, 108.42508136734298 137.58317390549595, 205.51388273532177 25.71661363273835 M41.02779203098402 213.93478303248932 C88.64478567527615 155.82462101881504, 138.19107288754472 98.16734183476528, 203.2252936955027 29.109755725801307 M40.70015769231017 219.15421008927405 C98.61812139961796 151.45169689549257, 152.95467385925824 88.27986141798097, 202.60987764974257 33.069544020908594 M42.16984471706247 218.8198299074507 C95.48948633248679 162.23498658635435, 143.05479316498767 105.61907670384463, 205.56822681724705 29.98499262911047 M44.421254593596174 219.76192604917284 C84.244353271245 179.9020825139138, 115.31247946120874 142.80341398660997, 207.32339108643507 32.82877818768601 M44.90849828638979 219.55158249013 C108.03049103586939 149.66435058161878, 167.70115895787984 80.75632238650873, 206.83265656472074 31.80670931484454 M50.64844016160092 222.54709596946407 C83.28260600482331 180.3391847637366, 122.22826613854222 142.5119362483787, 209.79094463301038 36.205614487316815 M47.397179228237256 222.7292215721757 C94.42717429635994 174.10616506898597, 138.58236530444188 123.33473449056058, 209.79073317407003 35.8378911777771 M48.71902242090697 227.74473371372557 C94.89573477455036 180.5448440878608, 137.5345565381785 126.24249750848506, 216.96633772030103 37.093129877128895 M51.660072190722566 225.96790848269308 C97.11712322547599 173.26702300470083, 139.98927651668598 120.71387394050505, 212.27071334028764 39.892285450138374 M57.25058506537536 226.07975962995368 C102.94762772740849 170.86576509675675, 150.43464009507605 118.70961093098781, 217.11554084841814 41.60344919886848 M55.760919706866936 229.60175906958077 C101.07076733027941 173.42753443151275, 148.66385855534443 118.46790797136201, 215.72511194326978 40.197763982951926 M55.835369130391065 233.88209198492797 C103.10428638864202 179.14544316040818, 150.38989819318314 120.835072252084, 222.3797362182379 44.89465693290338 M55.809573236270666 230.99969969904436 C101.82883061116404 187.49607335985326, 140.05068298949487 140.02128500488365, 220.02585480247996 46.14928168156318 M57.12854035346496 234.30126574837607 C103.03429211058791 185.6059673466672, 148.4289882192295 135.52699348822188, 219.46318309579726 47.354867983196634 M60.44779827856421 233.25165781401765 C119.22372773192426 169.1331068475128, 177.5870182923325 98.66030460805717, 221.529148825459 45.847222083986736 M64.7576206530298 238.70941442464445 C112.34650119595909 174.73317002813553, 165.34354760518124 119.14784991263187, 226.02915568350298 51.3429359073593 M63.312607446506064 236.2008487173207 C121.48807812240756 168.27259864694602, 181.5352601253921 100.93044365264193, 224.940425810805 50.626670104211776 M64.07994171683069 237.46248394047404 C117.97189877209473 182.07344933679056, 170.4188222381289 121.40251490998757, 228.23729889275126 51.12784629549291 M64.74937229338269 238.3081614828163 C122.72900121379534 175.67075460460526, 174.03655014132156 116.40495831386575, 228.25260994963716 54.02345083554388 M65.3904195510675 241.61912796760814 C136.5391560308868 167.90979218252608, 198.90725994097207 99.83243231837547, 229.88426118837725 55.65710683877693 M67.25321227765403 240.81809702641064 C123.02706606162043 184.00322185651942, 179.94997356740254 119.67234406307146, 230.6609231499913 56.37225271022344 M71.04580272980165 243.81673980687796 C118.46536363217177 192.29914601584454, 171.47638663212214 129.54905903161196, 236.5918017336818 59.01359841804128 M70.26188750149856 246.58942958872095 C119.25812440273839 197.90011107049799, 164.34533250569373 145.01394154267734, 234.58249542914285 60.116440818370194 M72.72446263525028 246.8524536995282 C107.97253603506017 205.22566369702417, 144.97678902896396 162.85575616986492, 233.39418428742758 62.44439466092956 M75.43448206708446 247.84941416762214 C124.8795557763518 191.7332601277235, 176.0300523421981 132.72226023300158, 237.81362877580483 60.83886591927153 M75.00449981753646 253.86053141734368 C123.82480572670248 190.3504059310856, 175.8373149562855 135.17237766396764, 237.1514504101074 61.49888650336842 M75.55599894670459 251.03389789238477 C130.02633255131127 190.97008420223943, 184.1335946353356 127.90011730107459, 238.16641628799323 65.78731233000006 M79.52844876490802 250.90655757274928 C110.36004596919949 216.42157561596045, 147.20170332762913 177.31565387998376, 241.37479620793067 68.05339761086144 M79.5073527333929 254.693213906609 C131.99949974584231 193.43874240356217, 183.07648426742801 136.24187041371684, 242.0455122337331 68.50478151984075 M84.89239895311101 259.8312978824697 C129.9895643536018 210.25916405976662, 169.16363781648755 159.08429275204028, 246.289263809164 67.62007152935082 M80.79835296579037 258.16865512753554 C126.02055331410483 205.19080846085956, 169.12537614264622 155.20925615198695, 243.48005165387167 70.38181141217751 M83.96814041258203 261.73571079104164 C139.2152856319273 194.94128405480717, 193.30325805759696 132.21630747998177, 248.9399231295548 74.97359407903167 M85.83579951074411 259.20859497303786 C145.95986622109504 187.09898260438877, 209.72503021273909 115.81637759634287, 248.45551314578884 72.44775411152592 M87.43732673015624 259.37533319792425 C122.6275390960142 224.59002178966935, 160.71506463039594 184.71447937260567, 252.9337513956276 78.11904205870486 M89.6861728550069 262.3762354641603 C140.6783569619787 203.04320506033483, 191.26879915159432 144.87397176165277, 250.00763330320473 76.99903791478825 M88.26146359691258 266.39175037535136 C141.25373980182542 210.71100736515757, 192.18431864953718 151.25310885973508, 252.61478890189807 80.97945802415688 M91.19832459098721 263.5228817521394 C123.41699553074872 224.73004330860235, 157.84668650273764 188.2933847859837, 253.2167692412053 79.6069575229151 M94.440371085893 268.1236269126513 C155.08491021663028 196.67755005535722, 217.95768612621237 130.16032464284973, 256.62712538474386 79.45216425462516 M94.37616554018956 268.33525826171154 C145.31638155326803 208.97681226988985, 197.5392149263586 151.39823459050027, 257.5105129683954 79.85914429665863 M100.01552681304364 269.94344138299914 C143.108161372348 220.18819044927858, 187.03181115721404 165.99913327188463, 261.5470665201044 81.38284600355756 M97.24358231457867 270.2158647809217 C148.40939296174346 215.29547110913853, 196.9160802409949 156.79655704117647, 258.0292870104389 83.47285174101627 M102.07167647969011 274.2653124572158 C153.2815925428799 215.89741453995353, 198.08580826923472 160.51025683407627, 262.3096710743119 89.20299453650226 M100.42560040578971 275.1467044106428 C165.70675466065543 200.31974545356363, 230.60566117128485 125.37714170243738, 260.7593221827717 86.7728030024085 M103.94755408063973 277.04393425903885 C135.3870017629487 233.6791749821284, 168.43252725191942 195.08038815022837, 262.65871725856164 90.04417403942213 M101.9401272699349 277.03545232588823 C148.08186457989675 225.87166753973136, 191.31729197145646 173.75583032179, 264.8551381195915 88.38500641267555 M105.30160876161706 277.42712329867703 C162.24140182803708 210.98953944712656, 217.83871972581937 144.89184307942722, 265.17710431690773 91.69986022862268 M105.11447684120976 279.07405571841684 C155.6271457341698 227.07568326353274, 204.8491461994225 171.24273668122586, 267.26730089078694 94.16089555379826 M105.9463390691693 281.04955953491765 C169.94130213357178 210.6264146258241, 235.73220855311473 132.86207991977435, 267.9596562225679 92.82801873179442 M107.46555170151869 282.44906687288767 C164.6292160125619 217.86385124997724, 220.7668712175308 153.62194852609485, 270.6698473800693 95.83621448271366 M109.74119029113804 282.6369787702183 C165.9757616719004 223.65704921959164, 224.11267074299954 154.80790181430822, 275.0104418711602 99.3981135117606 M112.56286958655298 283.9404909443324 C145.4964646039501 247.4392093613809, 179.07457163701747 206.73636879256088, 272.33435051419417 99.15258940536077 M111.34863278642341 286.0015494531611 C164.34777077431045 228.57015176675213, 214.63262095365656 175.46791600568505, 273.1735667840847 101.47277485460333 M114.95636743275176 287.906313569419 C169.02640828700663 221.68353688961648, 224.0089967610497 158.1453059579783, 275.3416231483507 102.50473753965763 M119.81369626339703 293.21767082916 C175.49606916558233 220.55294198889163, 239.15104460116314 151.7898790936218, 281.34083543221305 102.57710024323647 M115.33010243227578 290.7338839753975 C174.3934856417506 220.35772473790846, 237.90559918726038 148.5233399301173, 280.07402859344967 105.14930949410402 M116.42161600595904 294.77162842179706 C170.0925229057665 236.26368704153995, 222.63539598098203 178.69748849840045, 282.0170966619455 109.84830983874221 M119.2362096590642 292.5574734614357 C157.92816587809776 252.88382814639934, 191.52789535297785 210.47129897089178, 282.94943824218024 105.77629734911808 M124.28527258950004 298.1756801119317 C154.06560057049487 253.53934998200512, 188.3186670207722 220.36561456349588, 284.3346082111726 110.06523095947985 M122.67022438479673 294.855662877729 C168.14088324864548 246.36712154595477, 210.44283873616646 195.83247580034646, 285.0023170849721 109.96603493614505 M122.81554782292015 301.952722898146 C167.4313023408514 250.09043131460527, 211.47117838210391 200.0421424506264, 284.53491905129437 115.93679204153158 M126.57542622091249 299.29044998594554 C172.59521541740594 240.8783522153756, 220.64947278739817 184.39376574508483, 286.6688422520144 112.59561719810306 M130.45491486459105 304.5311533758539 C163.08413440292307 260.84007766160903, 201.459934207592 222.23706448652192, 289.5447827031825 115.83920631781123 M128.99123663457226 302.0180993383351 C166.14592085781572 261.8857751056703, 202.39059201241068 216.6292790237086, 289.7949133292178 115.15551326849186 M129.66970844841282 307.5406736186374 C167.72005389267474 265.12069154328054, 198.92217487040116 227.9117195147584, 294.5530290632372 116.55022889940092 M130.36025177471515 305.40670075906564 C193.32153101977283 229.70170963114697, 260.8810097273002 155.58720918809135, 293.08357238427163 117.74789935272953 M136.542587932486 304.98315529648534 C171.81897140415947 259.837859120021, 214.86593431093937 212.96502705453122, 292.7788566718166 120.03000819871671 M135.53924482003572 305.770767809557 C164.92734961085904 267.2299386626781, 198.98109326857372 229.06369334755868, 296.7360927880241 120.72335445331333 M134.93700217758098 309.82576184059184 C189.3498186216577 250.83681273662353, 232.0669589406009 201.49620276469705, 298.4187450929181 126.51429396967077 M135.4231739609287 311.9454518178041 C188.9745486371285 248.7379052801163, 244.24663615479045 183.49303135796424, 297.2178556294085 123.04265210000553 M139.56178739019916 310.26349971375873 C181.75263630479972 269.1312733380364, 219.95165767986916 224.9280553543946, 304.449984954816 124.6306664273469 M138.5619514355992 313.2733288197297 C177.00123567076318 273.7126470566284, 212.3609088697646 233.77719220521863, 302.45099468559147 127.4018542894617 M140.6287184624374 319.0805617087852 C190.50118178792567 262.16248424917114, 241.8748710165654 203.1582229256774, 305.60820323673505 127.3678801050534 M143.57443257069494 314.35622220797427 C175.28500874963063 275.804015067616, 211.99418633911694 234.00077447861753, 303.5609199877526 128.7410116717532 M147.19479067801976 316.75534766735757 C199.270158601205 254.50914762624444, 259.9390135522164 191.34462331964744, 308.1187607750408 135.73262964432038 M144.4445635907812 319.50872197515764 C197.8398729424109 257.6514712677563, 253.56083486532367 196.02523033777186, 305.82093081761974 132.320418971978 M147.58461547540585 324.1276486554986 C188.90883659160605 266.42434525101754, 234.8825561897029 211.8610642050048, 307.3019549339558 135.38774701402087 M148.34228464030033 321.69895687749465 C204.62369124144348 251.30028255672676, 265.6545692886776 182.90477872255025, 310.9556168680331 135.835738057865 M152.75737426522127 325.7433266178744 C212.68206597770347 248.66120340922078, 279.5149472141812 174.57233806930842, 311.13864261211353 138.5286565468435 M151.2957380228566 323.2029306320814 C188.56601519957331 284.0161755178462, 226.480231904468 241.08268511263216, 312.56043065007054 136.89433596951358 M154.11167233709713 325.800536919672 C211.77902675670794 267.0331745965011, 261.10176759972626 207.48452278982813, 313.88798799799144 144.6416782242654 M153.38915646027584 327.56868367954416 C210.85269806877582 266.29187616810094, 264.6160108564545 202.17608112244426, 313.90812136548044 141.71083948584015 M152.99719722707988 331.49646523956034 C199.74127977222884 278.9775319493763, 246.72245224916824 229.5607456624281, 319.6864561112036 142.82891546762605 M156.82051613042023 331.4043203813838 C201.1934841552152 279.4818905505909, 241.97951159558437 230.98848555527192, 316.81435587944816 142.9807468007129 M157.34346974139484 336.3596025178663 C191.69373384138015 291.9001875917658, 228.49970632183812 249.9700033129231, 320.0941465994077 148.02615514958197 M160.67255064652753 332.59494697751717 C217.50004469727008 270.18352011230985, 276.8570556022262 203.742769127489, 320.3461979553882 148.03496448418156 M159.22586154780416 336.7221860862748 C207.73584539417965 280.7235380342486, 260.6364665231084 233.2411978813594, 323.61562115987647 151.4348995030691 M162.94454821884827 335.43924565642516 C194.70345743351544 296.94295384130186, 228.4444992121535 256.8693734142146, 322.19868122907917 150.8979911845992 M165.0473371229874 340.5961401365159 C219.79672555394544 272.5695317088073, 281.84446839882213 202.32980664701412, 326.02036409235336 149.90384147755947 M165.83629347627286 338.3947575786043 C212.1647926123137 287.86913300984975, 258.609616480141 233.44842941205275, 326.6208061836869 153.64179223835487 M169.10671772309811 341.6568312461174 C206.33919422091054 293.820289400429, 255.09739818482942 241.6087129196501, 327.3665512738722 155.84619615518906 M167.25564207358585 342.76842243860847 C218.7564977554578 280.89953472507295, 273.9222104881951 218.33790633129163, 329.9769880826479 155.10327096782532 M170.65825980054785 341.3093802026949 C207.74550275565048 307.1248635275802, 241.87964393948684 267.9629590330558, 335.8453053142736 160.03890955135392 M169.39703316711012 343.7475975303718 C204.649812611046 302.81344503325977, 242.58163543205598 261.56988151222, 332.6430900789737 158.34368959145507 M171.17683399641413 345.3737332470396 C208.12089061274497 300.1154533223608, 247.13868979509706 258.98326794648284, 334.8481648208644 158.25698335887785 M174.18575299313383 348.69132950325144 C215.7889204095441 299.8039105809854, 258.21529457240314 253.67665968702647, 333.77538224737106 162.9080630618332 M178.24687920760803 346.7183375718168 C226.55344569475915 297.4660376600968, 271.2437134814155 239.49612002992228, 339.4067871073207 166.7470948774356 M175.42288092493578 348.4167258989047 C227.64372209168633 290.64695703892676, 276.7631736813643 234.29783334705218, 336.6176623486219 165.70450132304734 M217.18491145163824 307.7695054176273 C260.30852553864764 267.87094029820264, 292.21183137608443 225.6222493301661, 340.8353695017364 166.1915232993771 M218.11011509537747 308.2745923536839 C258.1400016085738 261.93618135848646, 300.15836200343824 210.8541743415825, 340.5469117132094 166.04561331198707 M259.9977974961247 270.2058222896572 C278.79775924608043 245.1690340497643, 296.31527834586836 229.4110343416858, 343.00245625442193 171.29590854405436 M258.64391955684084 269.1638151190396 C287.7087325613545 233.21958436717472, 315.80667945723695 200.1345462461255, 342.8212312749617 171.38492501883778 M297.04992609432213 227.11944934235112 C313.4120984195082 214.47863473666297, 322.014117190597 198.883202375958, 345.5194344335589 172.62924204542287 M296.6690646555113 226.55693650500075 C314.2613047349525 210.93776258928827, 327.4493938829116 193.36588963239763, 345.9883118310365 173.81009568794616" stroke="#67b845" stroke-width="0.5" fill="none"></path><path d="M176.56692737683218 -0.16175774023923692 C226.17870297294326 50.26594207556733, 278.22419938312765 99.95685889924793, 347.82743824143245 175.5839946325588 M175.44183288521896 -1.4149084017006133 C236.6477027127127 61.266199387711616, 292.3244679359467 117.46552800714659, 348.1798381427774 173.6416865986824 M350.02188425159034 173.40053894860807 C303.00834309906514 218.83329397334063, 252.31040539402161 268.3998889892989, 172.77847423149444 350.244046784956 M349.4102242156042 173.72325003413783 C287.83643494574994 235.5270221937397, 229.80577897836503 293.66955230144805, 173.68463384923925 350.0903143902187 M175.59910645345167 348.8575416731931 C104.04011786033932 276.4755475743683, 38.29947401692179 210.28557278720106, 1.3398159229193636 174.25214495898845 M176.11295123000698 349.2788486662281 C130.19237467032283 304.43613230533776, 85.7382247772243 259.199325186228, -1.4509072203654465 175.9749494893919 M0.9263453069068402 172.22924408906493 C71.99152622636969 106.23342516808789, 140.96504138379012 34.55126364007327, 177.7668053306618 -1.1366309746098395 M-1.5793669658328973 175.32882396067737 C40.24701653483795 134.10955721448394, 79.02573843924235 97.61514626635672, 173.92061265736908 -0.60622478798376" stroke="#67b845" stroke-width="1" fill="none"></path></g><g><g transform="translate(250.0000000000001 75.71428571428575) rotate(0 -67.00370290670395 109.31841127447665)" fill-rule="evenodd"><path d="M-1.9565221220254898 -3.27935229241848 L-69.65022161815851 -9.937015842114178 L-108.09350040767879 -17.28005406047617 L-133.10283449505067 -12.00611622205803 L-140.1143985454526 -8.858192003199036 L-145.9750815097775 0.2199058170829451 L-150.76782144606116 28.49097718298435 L-144.71673944805352 56.81921015254089 L-129.16342312736174 80.68793340878827 L-127.39728375630725 82.65023009904795 L-112.0146522500686 88.60739765635559 L-33.246067113110186 102.45236297803268 L-18.781609260610374 110.91259537211488 L-15.882788179176401 121.92287441449508 L-15.679974962558276 126.50001093106613 L-25.394221508077415 137.17644074772087 L-43.924174579126685 143.36308741356646 L-150.68605906409888 157.95720260271003 L-168.65553065495845 164.54046879283018 L-175.40032093652667 169.10807292589118 L-181.4288701989822 175.08140172064304 L-184.6201544467893 182.65862761012144 L-178.79678807726935 192.172409634505 L-157.03863995202957 209.5508309411151 L-151.28216375410565 219.9323541415589 L-124.88233995224755 228.85387934744358 L-108.93047714020531 232.87713925966196 L-61.29187944744321 228.2943353291069 L-23.31566796771124 218.12813775667126 L6.054170133812022 205.70367210039075 L24.781850816948005 197.28774918615824 L32.03917932723243 182.33244769700937 L39.72117519591529 171.79877488740854 L48.08223295424659 152.03836301181997 L41.22049713347633 134.27338003899368 L40.2809872648545 113.85769036625112 L22.86770725463111 82.13316062305651 L4.178411009056163 72.9115235103028 L-10.754884172763207 66.42359655031134 L-78.95749916136272 49.538032086832175 L-70.3755137558495 48.90612755290097 L21.92864179824062 45.98386788155351 L41.23293904108641 39.48616657725401 L43.10706268250924 35.40555991232394 L38.64692511090197 28.812430141227576 L-3.7574764639139175 -1.146389588713646" stroke="none" stroke-width="0" fill="#ffff" fill-rule="evenodd"></path><path d="M2.0744552627205843 2.42998678535223 C-20.919085017485294 -0.0481171270921128, -112.7158314235864 -25.184362221118953, -135.42216997678798 -12.93837810052293 C-158.12850852998957 -0.6923939799269085, -151.81544229948804 55.403809031631255, -134.16357605648895 75.90589150892836 C-116.51170981348984 96.40797398622547, -45.591376984332456 99.13682739131508, -29.51097251879337 110.0741167632597 C-13.430568053254284 121.01140613520431, -12.919279544339503 131.64759138843843, -37.681149263254426 141.52962774059603 C-62.44301898216935 151.41166409275363, -163.3637077362056 154.86386562493584, -178.08219083228292 169.36633487620523 C-192.80067392836023 183.86880412747462, -156.72337110234164 221.69637601226566, -125.99204783971827 228.54444324821233 C-95.26072457709488 235.392510484159, -21.881130970872647 222.53642881902914, 6.3057487434573884 210.4547382918852 C34.492628457787426 198.37304776474127, 41.898380496743115 177.69638686144634, 43.12923044626196 156.05430008534873 C44.3600803957808 134.41221330925111, 33.46161744857112 98.61205045573767, 13.690848440570425 80.60221763529947 C-6.079920567430266 62.59238481486126, -80.2648320387517 54.97837170383759, -75.49538360174219 47.99530316271951 C-70.72593516473268 41.01223462160143, 29.713849278077987 46.31374020768062, 42.30753906262753 38.703806388591005 C54.901228847177066 31.09387256950139, 6.820231618554787 8.914744973963213, 0.0667551055550577 2.33570024818182 M-0.24393609389662707 1.2808115158975122 C-23.813806252273785 -0.8968416026447508, -114.76220238619622 -22.197098361062153, -137.50160182546298 -9.35314549205559 C-160.24100126472973 3.4908073769509738, -154.56165349780807 59.309721593991625, -136.68033272949717 78.3445287299369 C-118.79901196118628 97.37933586588217, -46.08607928709632 94.16197067705649, -30.213677215597656 104.85569732361607 C-14.341275144098992 115.54942397017565, -17.401066854135127 132.0923602441592, -41.445920300505186 142.5068886092944 C-65.49077374687525 152.9214169744296, -160.61960657280838 152.22445730608842, -174.48279789381803 167.3428675144272 C-188.34598921482768 182.461277722766, -154.53566351938113 225.99577976649005, -124.62506822656314 233.21734985932707 C-94.71447293374516 240.4389199521641, -23.655844139165886 223.91708213615277, 4.980773863089871 210.67228807144934 C33.61739186534563 197.42749400674592, 45.494651372524885 175.42116505681759, 47.1946397869714 153.74858547110642 C48.894628201417916 132.07600588539526, 35.48321954656918 97.92692292022562, 15.180704349768948 80.63681055718233 C-5.121810847031284 63.34669819413904, -78.53609874091693 55.97005815383223, -74.62045139383 50.0079112928467 C-70.70480404674306 44.04576443186117, 26.130476969515783 52.92236693509276, 38.67458843229053 44.86392939126916 C51.21869989506527 36.80549184744556, 6.907657196841037 9.408167762891166, 0.6442173828184607 1.6572860299050811" stroke="#67b845" stroke-width="1" fill="none"></path></g></g></svg>