<svg version="1.1" xmlns="http://www.w3.org/2000/svg" viewBox="0 0 352.8571428571429 352.8571428571429">
  <!-- svg-source:excalidraw -->
  
  <defs>
    <style>
      @font-face {
        font-family: "Virgil";
        src: url("https://excalidraw.com/FG_Virgil.woff2");
      }
      @font-face {
        font-family: "Cascadia";
        src: url("https://excalidraw.com/Cascadia.woff2");
      }
    </style>
  </defs>
  <g transform="translate(10 10) rotate(0 166.42857142857144 166.42857142857144)"><path d="M0 0 C0 0, 0 0, 0 0 M0 0 C0 0, 0 0, 0 0 M-1.2896277061570778 11.76117468517977 C-0.2206579314921031 11.060212916114631, 4.526843040101738 7.9632168042318225, 9.988686920654905 2.004957830448425 M-1.2961063316930428 12.631441438614903 C3.1744467512624293 6.704656252356076, 6.82163436669771 1.8905912498028743, 9.934179539930952 1.2791829045012357 M-2.117276705596664 22.896501330374836 C4.903044611058295 16.455525954144285, 12.594399556787828 6.588441632084116, 18.24723056545284 1.8638467690139535 M-1.4427256135084416 24.15226752096331 C10.097103359080553 13.247379760143746, 18.79830124351434 5.666643978681279, 22.98438823064592 1.2015033042221788 M-2.5490176585596522 36.68923742864405 C12.424020148214229 28.00480243038352, 23.157671975851446 14.639187729660591, 32.941988588726915 -0.5730008705273981 M-1.1565159839671573 38.137571682968485 C9.25871709847101 25.41773354553341, 20.230815582070075 15.550766498236055, 30.62301083788911 0.051988437889445294 M-3.857429685071189 47.31248428360455 C11.142667233986135 32.797259678146645, 30.55258684064924 12.351289284383363, 45.16798135321193 3.2223444830953127 M0.1982358898966723 50.34545355723135 C12.297941924676381 36.32780748508618, 21.132247875637674 23.987738842330046, 41.239790488589335 1.5211182859121806 M1.1817992796282084 64.91401788172911 C10.960133006429599 47.42168273422004, 19.43679532930597 34.54703350567969, 53.78995495265788 -2.591425763867914 M1.2166916822175295 61.20518327084969 C19.69223074115923 39.268779865677644, 38.24538512718735 13.2424626141474, 52.21876038587159 -1.7243591048346154 M0.058415329288543205 71.02752962926773 C23.30036200504761 49.09287131854411, 46.05558068666988 25.562796893600684, 66.78203048081477 -3.214995205167078 M-0.029615403879581947 73.69600887069849 C17.822665173919365 52.16908016003883, 34.84787968091143 29.362922425052652, 65.01426623286088 1.0369918125240574 M1.3715395576598155 81.82733593247042 C19.675479617299466 64.76954185996917, 41.899336106771585 39.74158253432324, 70.7277040314326 -2.708422434552176 M0.6011603347303378 86.85186590365277 C19.826671661382804 64.27458264673207, 34.65057266459351 43.838388674422795, 76.4009662326822 -0.6687059151367976 M3.6736090295015202 99.38308777780995 C29.392169893094835 62.25383293642835, 53.081746487188234 31.572494382727967, 88.31984669826136 -1.4911410457732188 M-0.08488192781821624 97.26608699681029 C22.468691453804173 71.2904234398476, 44.621651831652215 47.90726654123534, 85.72383108846054 -1.7606417409421908 M-0.40538710345533246 107.14093241109074 C32.50611119696929 68.97566246179184, 64.48666378484053 33.23797976546598, 91.86070457505107 2.158040367419801 M1.256846569580766 108.82256353660048 C17.767857094137575 83.67625666256565, 39.81208033030235 60.677443023272666, 94.14814400332094 -0.8533176180171154 M-2.5942617764512477 120.95177081878563 C26.29295770021264 87.71794657158898, 53.34386551281923 59.549727342401624, 108.7618987555517 2.6009382112768904 M1.8230700010617795 121.97400315012118 C34.74811980341364 82.63272808819721, 68.71705559226514 43.54513624876989, 107.90950068038833 0.49345200051343596 M1.1436061042637817 136.55241940714455 C28.676561419672854 106.72199324830416, 52.87275046426832 73.20471298312165, 118.38836630452278 2.0947034722708153 M-1.4631159302501686 135.4730913842473 C33.155280778494415 100.94668217706507, 64.41833723813686 62.828485273774746, 116.90775029379728 -0.720750258252771 M3.4542126324397344 144.82031958241757 C25.212111729512603 114.1362522949299, 53.19836493452133 88.61925970743425, 128.18259637369528 -1.7270166037939774 M-1.3583030212300997 147.87720128585394 C41.78350675965307 97.80639275345003, 86.99840946564704 48.24216664572248, 128.58123160465374 0.7942169921137108 M2.124811794882877 155.4678384497845 C45.42525694938246 111.74520626103784, 86.51887364717136 62.55273600381782, 139.0306935891186 2.8395119931934443 M-1.533576197676928 159.0230175954126 C30.717529580168804 123.04945773734092, 60.553442203076145 88.17959855993469, 139.02375324123264 -0.05496481100516343 M-1.926565669871296 173.82523509493615 C34.14447824726804 127.80994683092545, 68.08174294535925 89.32048470887713, 150.05779097503202 -1.0552992831617278 M0.36495051106671833 171.75444355382868 C56.880182805040185 104.47592802899004, 112.82984721719129 35.900016145861, 147.88846964275353 -1.0340016977241528 M-3.0933479654726233 186.10477151644284 C43.53046544819437 128.56954621003507, 91.08984111648431 79.06728678147812, 159.0314601539264 0.026409224259941022 M-1.5430929504105682 181.87391237689934 C47.139798236247955 128.60645012843082, 93.22490958241954 76.80736507347859, 158.78559248401444 0.2962349046254468 M0.04475806384060023 196.42162868823024 C58.99474398721082 132.07823218696535, 109.80852211571921 70.52611331292866, 170.61966002843843 -1.838587707490753 M0.3483783907915884 193.86733013938039 C64.53936624602031 118.73534114380371, 131.61261242506563 40.848746818349895, 169.0453025894782 0.9220330442370094 M-0.5488373949199209 205.0317310529742 C48.775330106918766 144.1259734089457, 105.6328859425624 88.93648630378384, 177.72019313245485 -2.5999848326130297 M-0.8536898580514352 208.20540483165266 C69.93763149852721 132.45134996632575, 139.85710696520908 51.399574164466955, 179.29464931798273 -0.009018015071105556 M-2.3094544412866305 220.54045045994624 C52.03072130105226 167.12897820311798, 97.44555192887206 111.34882668632254, 188.5081861471189 -1.2407870885436534 M-1.434405662013198 220.25262516780612 C58.84956065079937 153.57471325523218, 116.45853498574533 86.91791770846183, 189.3887040076406 -0.930501844796437 M-1.7687061889366549 231.31112783946782 C57.16748631612471 159.44418382409572, 116.38151753893595 93.31693743317346, 201.80215300013035 -0.4283872751517783 M-1.308520270828889 230.3984832194362 C45.05729637272147 175.9513776240259, 92.87658272619586 123.17706903943665, 200.87181281411497 -0.625381622093601 M2.693512287784672 245.47416744784064 C64.60182014995226 165.24844999461138, 128.805189405895 91.47952764112456, 209.68733831911467 -1.3107156838851615 M0.8152715516756242 245.08409072797843 C69.27888715678188 161.27338115259863, 140.53930042793664 79.47852975543947, 210.59972290454627 -0.4474195154277668 M-1.65330920165002 257.0647511396546 C76.89186657813532 166.73058890268348, 151.04531117630944 78.07251076270107, 221.1947099041696 0.5833989992210546 M0.9490815656077356 254.81400863879423 C52.65392153931291 197.35594904551556, 105.18843814578906 137.4918585996994, 221.7809712187294 -0.6907882841250915 M2.400550177231966 268.79920614449964 C90.44477670344274 162.32720638666223, 186.81633106010497 59.67594574944512, 234.45543218039273 -2.0966425368682713 M0.08098821857490981 269.04685980974494 C80.64332186775276 178.20238524540133, 158.5728590778772 88.3113203029983, 232.0552465839593 -0.28244797501173324 M-2.572554245318458 280.4499049880619 C78.15612558374929 185.05108700176314, 161.09856971219128 85.04826178493767, 244.5266011844614 2.380214960429483 M-0.3112348052448461 281.7899471814028 C45.52710268960995 223.54299996559027, 96.39137100683254 167.22093102152328, 243.92852033102355 0.9426154608270907 M-1.896751593503494 295.06102854205335 C76.43927996988653 201.5783029367984, 154.83844434054978 111.96178158940145, 254.4145251677911 -2.2587220334408857 M-1.0579198695776384 293.4055373670366 C52.873774310110704 229.6737802536406, 107.2048224985445 165.74872202646404, 253.94593150468893 0.5005647616712202 M1.4960933687607167 303.48774379028316 C61.00685063209339 231.92221827418166, 123.3474134383891 162.25732536002852, 265.296516758445 -1.3953122799479452 M0.20967417414623793 304.84692055476995 C51.15749952808359 241.38050904792422, 105.2067991736452 179.8508276179499, 264.7513630629735 0.9902536130524875 M2.2404245421577116 317.9639038305051 C77.25243151474237 233.80177397263017, 150.48939136306197 150.16832960514927, 277.6592600914818 0.3027532342871259 M-0.5295679455088199 317.51602767931973 C80.61597447559441 217.9035406686424, 164.9994475779 123.4534454210816, 274.8325920422542 0.8515409668751039 M1.593304046121114 330.5328678417231 C73.1962506416132 247.99641940673953, 143.10499972624535 167.12129910095365, 288.12136452070996 -1.4794477961066523 M1.0870938406466686 328.0085369847777 C104.33073503075802 208.80444934095038, 206.0385404642657 92.77039731922079, 287.17410131953284 -0.275039815581519 M2.8999669996802906 335.5339730045568 C109.13288253068697 214.3290217252858, 214.22105081264712 92.57296797988167, 298.85597825295554 0.2179411293739486 M4.007334020639116 336.66252170804404 C119.00583342416304 204.5489989487031, 232.1642091708075 74.30473149067585, 296.25414279283325 0.5054183668765503 M14.870435773588955 337.2556620465799 C88.81202222255783 253.0016981453849, 159.58638278495172 174.30022723903647, 305.71070463586693 -1.857466459968851 M14.87892342397159 335.4124256667539 C74.22946520624615 264.3921788629379, 135.8900157449086 193.62465823891193, 308.1403962647601 -0.337304156045027 M25.078974738580385 334.8168056446883 C129.73375078669065 222.09406627100194, 231.6479897522525 106.57144036098707, 318.7198314096657 -1.6981079211561336 M25.52797369353026 335.4064368301849 C111.06108220674363 240.98083869119293, 195.6309424286351 142.61377488638928, 317.9760414233233 -0.3336378555931914 M36.08509605227174 334.8557721381397 C136.38440444566407 223.68545743847054, 233.6559444881435 111.42751336030909, 327.69674420071914 -0.6195040836800865 M36.360815458319 335.34446464589547 C143.43683353634586 215.95199311319243, 249.86614231663785 92.99869905878943, 329.4170970131517 -0.542530349834349 M47.822578272786274 334.7457630937023 C107.81941472400479 264.0524777527433, 168.32200587978232 190.79228253967943, 334.8837809483791 3.66431181406058 M47.460064829728765 335.28437726448084 C129.18580177381298 238.84364506522567, 212.64075495768114 141.9107642921275, 335.26354050703134 2.496809116051733 M58.30925442530393 337.767312970268 C150.78225062500724 232.3723268269252, 235.2172212155328 134.70040897309397, 334.8026747119906 17.30948170027405 M58.21615224747455 337.15272696803413 C130.27091571769603 254.5593263943848, 204.3342138017685 168.00423252513608, 335.41151759980073 16.199847182144342 M68.20077342917044 335.89431950847313 C130.80068042431967 262.463353694181, 191.74091051818505 189.1534830050048, 334.73564310370887 27.621783324494082 M68.86344678988766 336.87706828964474 C151.52475033557627 241.79236614095694, 229.3883665328165 151.71357412521436, 336.71640124604613 26.441771285923082 M77.14307312082654 339.01470191835375 C136.48316974394714 275.84459374843277, 191.86108918326906 212.45904569321345, 337.3713651885933 40.382170972163955 M77.3492249634603 337.79884969243767 C127.68549876238592 278.4138089617397, 180.94755036156585 218.80486859422658, 337.74768319226513 39.955867016983134 M87.1823596620548 336.724184444011 C167.34074866566627 244.53942984841714, 243.23959332913861 157.82666227876035, 335.08443764169056 53.84865302456487 M88.3594291432732 337.7956643382894 C155.4197345695163 256.88933407831047, 223.71388441930415 179.07240434942813, 337.74101361297386 50.63907804197264 M99.86430331498995 337.88611097490553 C178.45970697521125 248.7077075951054, 259.3903671583363 158.32778885134573, 338.1141768823804 66.76183293842436 M99.92932154639462 335.9704967093513 C172.20513842483294 257.01105531670487, 243.15749225712472 176.16616550234585, 335.65895860252635 65.42045730428266 M109.60942198186915 339.04478039892615 C157.20103230715188 278.35471899680596, 206.68096097880968 220.8841173205728, 335.06228791289254 74.31906938517861 M109.70474916648107 337.83361280074956 C157.9579187339965 283.6118677336275, 207.20840100618457 225.3778803479606, 335.0693523573044 75.65025759073966 M118.84176404140584 337.909052791715 C164.32254338200218 288.53860529296253, 212.5961379049778 235.55458531257042, 334.05796084719503 87.98338929269332 M121.83464489448684 336.17245586523427 C193.7452408931877 253.03959630486662, 267.4595302166261 171.50535112227666, 337.5090663066229 89.32160693709956 M129.43743119936173 338.3381205771979 C211.51270405723432 250.40092703539517, 286.99100111869393 156.1665498992323, 336.93175833792446 100.02934048801933 M130.70448262831235 337.3805786525613 C205.8431573396323 247.0388053131639, 283.3547162775991 155.1563542814248, 335.93406459994475 100.32902006655583 M143.6422054739985 338.6398064668008 C191.6323334509699 280.83523369880714, 239.6421531845674 225.8190222762032, 338.07682775021766 114.85308468570742 M142.0493980096079 335.2563312687368 C206.7272626085395 264.6692189303687, 270.8144414940068 190.49662502664114, 335.3469897304827 113.62654605855175 M152.99513656796108 335.42546523376143 C203.41515069524317 270.72961244075833, 257.01948865741923 209.6608716840407, 335.79318644134656 126.52234874399475 M153.1724028564154 336.6556752117163 C200.45292699934066 284.642475479382, 244.64041967860862 230.57715938556794, 335.58305499895687 124.24913315021946 M162.92392719646546 334.85041186294455 C218.36008507078142 270.37144463601754, 272.4121380907441 206.53211820019783, 337.05373701923213 137.84241965166723 M163.38634627622983 336.0267743693823 C225.46006974983752 266.21213306791816, 283.98595715943895 199.53114354101325, 335.5885969458915 138.24055702335752 M176.8999444934634 333.4181453492201 C220.81662002757895 284.69184073028543, 265.8082224374347 233.26936065445395, 336.2867651777208 152.6103566480726 M173.82099310720753 336.68295539215455 C233.52376583369002 270.2436869609034, 294.1147277326709 200.8728842191268, 334.9173889885597 150.6805008551565 M183.6860863797558 335.2967670670995 C239.72308868905898 272.8837587582225, 290.0967498042547 213.30365961899838, 337.72310054073813 164.21134905459758 M183.70806207566696 336.09681159355836 C223.85868751071948 286.1115253273349, 266.5897609772876 240.45418972727504, 336.21038607671744 161.2811379107042 M198.18367129489343 338.32604857234475 C243.60421139576854 280.83230216878457, 293.92584908055983 222.75206547241052, 336.64168425096017 174.44662297387896 M196.3889980985514 336.0388071464942 C240.36323514296043 287.5056911688451, 281.15493928509426 239.7477416451547, 337.2711070507455 173.28007301446362 M201.81012532758416 339.0782954871637 C240.6156257973738 293.0633656845192, 281.90871247792825 249.03835300480222, 332.6502325054781 187.25238138504523 M204.79240685599746 336.78995352536265 C246.37414974802033 297.5052091019991, 284.4591538447835 253.54603718667374, 336.1312702041642 184.42313466288346 M214.657166065702 337.4803760702786 C259.6648442100366 288.821255266539, 299.9146556336754 242.30507248661158, 336.38349223189624 196.41281390895105 M215.4862357620688 337.5036893914518 C246.55027934461873 302.2279549351195, 278.08966478250676 266.26422126779505, 336.9672613968757 199.53417663236118 M230.86942592003078 338.37441527155755 C269.0509804556285 290.1882088989679, 315.9924644219729 234.5998379138375, 333.84281091827535 212.1653027072709 M226.50685452409715 336.6905621593964 C266.83343771917066 288.61801628836906, 306.57226113026775 245.97946501054213, 338.17227877366923 211.90815042556935 M233.7491509843205 332.4816044972506 C276.7516042003595 292.5428487916019, 307.2547585483831 251.971543256504, 338.81480965836533 224.49666418625486 M237.51954634520754 337.2360698760715 C268.7104529686781 296.21161666082116, 305.0811488437188 257.3926167959073, 337.79441803766974 221.172741589383 M245.70796235232115 335.1637601536077 C279.9085643674463 305.27534080698615, 305.81429832024514 267.842419821049, 337.6954845459163 234.53433975215285 M249.25990692852497 335.08039808835207 C277.264627801771 300.9482557830597, 306.9219166681557 267.73718411922675, 336.20208739200234 234.7603231706771 M257.7668561177827 336.9233236468788 C272.41623237509106 314.3877469516171, 289.1543683737666 299.6108494761687, 338.3341476456877 245.8011053914377 M258.7838444771744 335.96841984311305 C272.58606596574555 314.59861406792453, 292.8167907062019 296.6813261486817, 334.67794851080146 245.41266529654948 M271.05620337445527 333.90336138331406 C281.25051813832124 316.7668854723656, 299.7928501309557 301.88473390923525, 334.1576631094106 259.6962333499138 M270.7175796942809 336.19969568722956 C290.4593195596694 312.03290832767635, 310.28476341479967 289.67233825638743, 337.2931526551731 260.91209685342955 M282.31575021608865 334.3875647691633 C297.7567418244989 320.1958761840555, 310.0797864073252 302.1695996520608, 333.7340930018443 270.523749614054 M280.50764578296935 335.3784736675765 C296.05896442401433 318.8100570002383, 313.96699941813256 300.9359105025499, 338.22098649925175 269.35976296841505 M293.394617736433 333.30025021067667 C303.55496429067983 321.8559118041822, 319.78889967260176 302.91957999836166, 332.896933416739 284.97359559010823 M289.67088844636487 337.16368933102893 C306.3954276282097 315.2468694690891, 324.4391071879264 295.2898776686802, 335.6111082461624 284.90678668838103 M304.7513020292384 334.7063591141041 C310.56286969225584 325.1245730825972, 318.74228338029644 321.74858609479213, 339.58905544784466 297.3763376843266 M301.0444658875925 338.01896572446185 C311.877789854483 322.97631240386033, 322.04215010160465 313.2204721326299, 338.18348859903017 297.25897856020254 M308.2976151592641 335.0661674659183 C314.2671710464457 327.2401531959534, 325.79326102185036 322.11846116489176, 334.70664615992075 304.9578768831817 M309.37978978078655 336.71732297497294 C319.69643668868196 325.9944140038912, 327.8077350213511 317.1327525523737, 335.82235173198944 309.1815462109772 M323.52292127824137 334.71644751192383 C321.4038600204168 332.7630275171357, 326.58428374701583 329.8235525109099, 340.2234447046983 319.32061043247813 M323.2167613870532 336.0723399689918 C325.1590543596293 332.69915788705976, 331.7567159469344 328.10118616129535, 337.45041140614626 322.2302560271346" stroke="#fcdb00" stroke-width="1" fill="none"></path><path d="M0.2459886596084705 2.597698817624394 C125.61149197397786 -0.26499634053235743, 250.41864077931842 4.616458708661023, 334.28913496797185 0.7158721115494071 M0.2642235133870137 0.7262969902554429 C98.35645105928195 3.681183733417911, 194.86894503306604 1.755742699364041, 331.8853727696744 -0.3359481906589588 M334.22293720531906 2.5062608122428096 C337.61187849042597 106.80170644126723, 339.2669419456729 211.96975635324628, 330.1582091858757 335.3792616896247 M331.88126113151316 -0.6787413009543907 C335.2451703200556 111.5621973713998, 334.52724862782054 225.87644220490643, 333.0841872351233 332.93667120537185 M334.6519462687516 335.3940646223563 C203.61272971912194 332.31328090292965, 74.23296360159065 333.81408674673975, -1.6461566146313416 334.9688734162029 M332.08758800706596 333.71027650779615 C248.49208111977208 333.44586844112087, 163.27343874114302 331.31713621337195, 0.17093562673481655 333.1937752591894 M2.702879794800115 330.8305930820888 C-5.433034730831489 227.02679821418613, -2.4040810376956827 123.71194791578942, -1.035691912762331 0.03766762094350797 M-0.08074917280338703 332.47701332198966 C4.077244359929215 234.96268702702986, 2.7557026074132174 137.8846525200361, -0.3176134062860884 0.49549716422280443" stroke="#05263a" stroke-width="2" fill="none"></path></g><g><g transform="translate(200.60815295544285 84.40059385194888) rotate(0 -19.116488815909634 96.59280972547097)" fill-rule="evenodd"><path d="M-85.45942158575187 -2.73804016510406 C-85.45942158575187 -2.73804016510406, -85.45942158575187 -2.73804016510406, -85.45942158575187 -2.73804016510406 M-85.45942158575187 -2.73804016510406 C-85.45942158575187 -2.73804016510406, -85.45942158575187 -2.73804016510406, -85.45942158575187 -2.73804016510406 M-122.06558182835266 51.56655478130018 C-122.06558182835266 51.56655478130018, -122.06558182835266 51.56655478130018, -122.06558182835266 51.56655478130018 M-122.06558182835266 51.56655478130018 C-122.06558182835266 51.56655478130018, -122.06558182835266 51.56655478130018, -122.06558182835266 51.56655478130018 M-86.52292990688274 5.491675177595987 C-81.83017420392788 -1.248147430441847, -70.2421558849901 -4.072371463090202, -71.49571080207988 -8.59697448501802 M-82.41824718568513 6.6313101071933644 C-81.06188732531257 1.6283524551633928, -75.51355745513916 -0.2356892731913529, -70.68061295598909 -7.00884583631969 M-124.90856990744028 64.18955966099298 C-115.74212145476947 59.8736757887035, -110.4902280702473 56.27546842998147, -105.90742115218934 51.51877283485909 M-124.50269180317078 68.33153085424698 C-119.64779063853314 59.3702445396564, -115.28317316998472 53.44121543833469, -110.452710869804 49.83881385805388 M-78.26618427467594 15.699972082934316 C-77.34783481403424 11.656366212488638, -66.33171189868172 3.0976464088652804, -53.11555680685981 -14.945546186088254 M-79.29448523801813 18.58417059209102 C-73.88566447911633 6.035022434116131, -64.20953932438397 -4.370359966364955, -54.027848773238496 -12.19105525177591 M-120.91801337813637 79.94386630294872 C-109.91399692655584 55.62182527936449, -88.21617213114953 40.812119338168976, -45.466194889046136 -12.037114637910534 M-124.47499871914884 76.70447028962923 C-108.8260075482923 58.89855486342452, -93.40721618917277 40.87771223852971, -49.38467214862246 -8.852911646484543 M-118.72160122039467 82.13433143496619 C-90.63783610392338 49.20559800113153, -63.58184983386376 18.99770121069311, -42.4949871990779 -1.6915133974946492 M-116.59684460851103 82.26074367016659 C-98.58296684132138 60.6232318110757, -79.1180405008499 38.73455304992174, -42.777338655660444 -3.078674093583917 M-112.11330856948895 90.20808208944456 C-93.0143003204787 68.77454280045491, -74.98736544236235 46.53938103503689, -33.324301359695596 -0.3361617908678234 M-111.87738953351779 86.25586745353596 C-87.9155178656814 59.13492852298335, -63.64720960004001 33.87777444544746, -34.88265927646796 0.16883769027374385 M-100.18444401916915 87.60798936013389 C-81.19920669198248 64.84672362166773, -47.443533464206084 34.33895875515661, -27.123761935658724 7.701476695497162 M-104.02488544729405 89.65981234286237 C-77.00139687936709 62.193760209420404, -53.80285086801406 36.40475138279376, -29.010639435179502 2.2376973279906576 M-106.60234048208085 103.68810472323463 C-81.58122160251801 75.4400799360779, -61.50137701486205 51.85044858165991, -14.610250433745762 7.693894414682002 M-103.90954612186042 103.56466692372129 C-85.99687037290818 80.55178645543326, -62.607640155200706 58.315376848049105, -18.354478997948547 6.03687178202352 M-122.48611907380322 140.1948217165067 C-86.64488363949249 102.04023311441551, -54.013552244618026 61.43569556214503, -6.796377534678227 2.051216201105005 M-124.18931103217105 137.41579934324764 C-94.20877957259074 107.0571919545153, -67.10904583134311 75.440828597928, -6.489044504871613 5.323897996165639 M-120.20531747471274 144.08830413899716 C-77.06569042670017 97.97229841535861, -31.358009273677084 49.37204109845422, 1.4140481677938768 5.028813148516173 M-118.85847371797742 145.58328550986346 C-82.71792062750413 103.02338758419572, -43.324391804329 60.19746029102906, 3.2836620909262964 5.162496673542018 M-113.65343914040432 150.44260986843463 C-62.0803787244267 95.97939046653016, -12.941123517014969 31.861323925113034, 28.515670679362106 -11.62319334006149 M-113.31774358527086 151.82104291520108 C-66.40184523777603 101.17075725537147, -22.554748063033447 47.50578346233254, 24.08767829096414 -7.2797352983659085 M-107.72461450220753 160.70590259129906 C-52.95293422937803 97.37705639682528, 2.9975992860753142 32.24281879965473, 33.670388939220594 -7.54624328971917 M-110.8945558153367 158.55367093305054 C-72.1582350391066 116.90423434343987, -36.696946921438304 77.39131608202656, 32.15130775233968 -6.947994418001064 M-96.80598633803783 155.68097385771605 C-49.78444915033384 102.25486374961275, -9.102245346568868 53.502388567963976, 42.47539212679404 -2.951203129465137 M-96.01705890592525 154.26387496394736 C-66.07997457472968 119.61628505851321, -33.56096147915282 87.06535754350195, 40.116764064468924 -0.23497722518745734 M-82.60801384322777 151.73727251335455 C-31.4750339703786 100.45681200249021, 16.967803786237535 38.39552348908756, 47.94958900479727 -1.3095566138668389 M-83.94664620257463 155.28846888104425 C-51.943148294737284 116.49640687890368, -16.736236238557545 75.06491005826518, 47.05841976045533 0.6508545563624945 M-81.97425873429628 160.23967890882142 C-47.75692848190421 131.7216776297116, -20.959928989154086 98.17369569627215, 45.318910964295696 10.475289309218752 M-77.06898597479912 158.66105259650595 C-53.18753040345837 129.82383694956832, -26.32488236852557 97.11263708734367, 46.70832626567824 14.941302345887053 M-69.22206783699042 161.80577952438193 C-35.61790392921071 123.61434585980166, -4.213830781336867 86.49830387236223, 47.370374380654056 24.265940956209896 M-72.02300020711667 165.9993411602934 C-22.357057003270015 110.47198940300495, 24.17257649518025 56.046246049144, 47.71182582438584 26.46858133319497 M-67.67195694878 166.38766311343065 C-33.69512480730552 135.1253978421036, -2.4457622075984133 103.16094659918704, 54.70952558911952 31.753417519325353 M-67.51261343046325 170.05863578106514 C-34.221890492500904 137.17921317137225, -8.743573912387838 108.64497471094428, 54.32012895889196 31.188679804498292 M-63.18047772139601 175.14074493016307 C-14.535274061839779 133.11145096897803, 20.719834566371638 83.53784052853325, 55.62120182199906 42.596347573651734 M-58.706633155944864 176.09176382239167 C-16.84224677822847 124.49817631719927, 21.86789836854131 79.20778584827956, 56.73237954212855 40.25607594425863 M-71.27261932839862 192.9145876727846 C-39.29818483500176 162.0214080133095, -4.149122573020932 121.71556393731588, 66.31116045655214 50.28918679316184 M-66.27824191649667 196.5066375918534 C-30.52849748554224 158.4008265855012, 1.1119292306157575 120.26157907785934, 61.4827040919801 47.87201253582379 M-60.10114877188581 199.08767192437168 C-25.930026728184547 163.1344134276372, 9.974993908714477 122.59655779740933, 69.0078474545289 46.09253698896432 M-61.01299235051222 199.41468004897447 C-15.454316796197956 148.67111420796, 26.82323808792483 101.23295625903403, 71.51349454774078 46.87756541935183 M-49.269338281563876 203.02580545666882 C-19.36198597716237 165.30124817494675, 13.165533627329742 126.73377934886953, 79.35955658231808 48.04964015948894 M-52.508178321110364 202.12649330835148 C-2.881525718508497 147.9341565134714, 43.34120186030266 94.48247095254725, 81.02012570362001 47.966184125582565 M-45.23585138209606 204.37723008959813 C-33.83267561539462 201.04991387339655, -31.207087426261044 188.64180780819618, -24.662407428851836 186.44755367304188 M-43.21468072869325 204.30584049641413 C-35.81179389910257 200.38955399565515, -31.83571686160004 192.72657133689822, -27.20638775163006 185.97339284534556 M-24.169888050189726 184.85048107172352 C10.509633081823324 139.86668732713986, 51.52874606714452 91.83658071594775, 90.78035248039511 51.77408423854102 M-26.25474094682049 182.9163078081141 C17.742995980251578 131.96772830580022, 63.245277059900445 77.13375653543545, 86.85084573893097 54.55416702313413 M-14.059536879637818 184.51044568041215 C22.5461600296623 144.36887603539623, 64.40633444623785 98.89704844431076, 90.67902130403749 59.876656949551354 M-16.574410823860745 185.03028409549842 C9.577483926491123 159.60617299422438, 32.50527346135672 129.16461831985808, 90.52656291195385 60.55761267992998 M-4.225293497171847 184.1713715928117 C21.695589664166093 160.61714109605018, 46.88779631003121 130.091080551336, 75.89063830007177 86.42281073336915 M-4.408004345920531 184.53599164508975 C22.853111377137232 149.00110878652023, 56.18477964198414 112.02963303676309, 76.74054716606003 88.37368085240439 M2.6012904454771615 187.86367406311774 C27.941318491384145 155.4769106287879, 59.20298867197429 127.77667980526128, 78.62799215033024 102.21069515394244 M6.513170975894127 186.24875782045865 C31.063211116835944 151.45180063086255, 62.21214044770784 119.36502136820421, 77.9323938237068 100.98387071388039 M11.861111209606705 195.99127208619416 C28.668411109199937 170.9435677979921, 46.465268097270204 153.2855457812376, 76.44460062327178 111.45866706992223 M10.794318043505726 192.81835122584403 C28.4290382195896 171.8535465622197, 43.55098435203229 152.97452456622676, 78.29648979397805 116.00082623238399 M13.508398404400282 195.51094469423148 C37.61522099525041 169.4412559976293, 61.892970630743406 146.46870737958272, 79.02849541505142 119.34375177283076 M15.968035606722765 200.6583380028114 C38.181120890948776 171.40049519811242, 65.35187386990202 140.03474088877076, 82.82579841365381 122.95679730881241 M15.389534407117452 208.5265225612025 C27.052948885314457 198.2507245387687, 33.847305537256005 184.88043868210184, 45.879669931574185 177.2744063917893 M18.123137683429803 206.29027343470858 C30.940597206077918 194.3669095752595, 39.22353567757524 185.23547244675945, 45.2393072292641 174.32640318166196 M63.534041011561484 156.91835893333916 C69.59402153031486 148.23842706294118, 77.3624317449038 140.07666735840593, 82.55217735853276 126.3143382869655 M60.44564020805511 156.72317287714247 C66.44706579340871 148.71286981448029, 74.91690924405833 141.28644979843054, 86.4741260671266 130.70045082047523 M36.28900608010336 200.24118237132774 C39.21331571142205 197.98618317336727, 40.741621822505806 193.5601301672343, 42.556361549418895 190.39586592931488 M37.077515042198144 198.3572916486357 C37.48565919967121 196.35589584313118, 40.95758806451787 194.4369136248507, 45.125175372582405 188.80792385507561 M70.03978365089151 155.75971696932027 C77.1873721344025 148.6386421756296, 86.91317252213807 146.77477777371772, 94.19603752467034 134.40791064094398 M75.7157532888219 156.49010950733134 C78.6039099975825 149.0395013781876, 85.87558437282418 144.4458115373614, 91.09507945302127 136.06083406846616" stroke="#fcdb00" stroke-width="1" fill="none"></path><path d="M3.173849955201149 -3.0888124853372574 C-8.721055815696392 2.988557961050972, -24.129974644164466 3.76288291223269, -32.32519012967964 -0.7472552603089717 M0.4210051819682121 -1.6588612124323845 C-5.765960487125669 1.0953336868230559, -13.226984988578732 0.5647121468170204, -34.73418929706236 -1.546063991447678 M-35.30630356351753 1.926179950872669 C-42.79074706587496 -3.5844769091232305, -50.744157353723224 -9.759437063835762, -51.82344174597961 -13.5982784155633 M-33.28791358600279 -0.37121543492912323 C-38.043236498780345 -4.440831169060249, -44.45202263478239 -8.501153661433436, -53.39500590626699 -14.571859647693827 M-54.89403271888 -10.09513129031916 C-64.5393210182151 -7.081642647922671, -78.43694587761713 -1.940916363051631, -84.43322354047496 0.5477964087174314 M-52.41082736317617 -15.289406110706523 C-62.91383324597898 -11.725179601976485, -74.97144037343477 -6.015927715640473, -83.67469980060059 -4.752756115908824 M-88.72219830243785 -0.552938301975928 C-80.22553600611577 7.200607094086793, -84.58752793085094 13.49234880854143, -81.21957350252069 23.04438288870097 M-83.18191530047852 -1.552150723452769 C-85.48711102297003 3.06448872200735, -82.99993921010686 8.380078620160683, -78.76306482879318 21.17457238945008 M-78.48083830354608 16.53117259207011 C-87.13827361775601 25.575676167961035, -88.17524042990817 30.501498508813647, -95.72228923685589 47.11251145879648 M-78.47847124663986 18.791376512374885 C-85.31419994829426 27.2143214492844, -91.41967486737504 36.263495447265605, -100.16059195495882 41.802005912167054 M-96.33475032694378 43.003231826228124 C-106.70169761109634 46.51364189410115, -119.80736389956785 49.83935409353661, -122.00537851305444 45.45071942154527 M-97.48848616577425 43.02055564056061 C-106.47233626168658 43.03493461665383, -109.88616989344183 45.567142790752484, -125.47791980804641 50.4098688641584 M-126.97294214220483 48.18677670303941 C-128.68202647758378 58.47546562364144, -125.39457100678115 67.05052654817702, -125.25596036442698 75.25153446410383 M-125.51009868683059 49.1032110730207 C-127.51976638115363 53.77865827476589, -124.69513722938986 59.32052417946879, -128.78473578074158 73.7334135419556 M-130.20753278263987 73.89933490966047 C-125.44328498852616 77.966801245486, -118.24083185699448 79.88034929726476, -108.60294640670101 84.73444169121126 M-130.30049620249451 74.46209510628665 C-124.57567971672171 77.64035223505489, -117.17271493905028 80.85836513048997, -109.17845734814684 88.24578715967277 M-107.7924338639764 88.9853915508304 C-112.0228332623757 95.14985147692506, -108.21799299767711 97.75235062199795, -110.06759028857233 110.82170780101316 M-106.64459618786852 88.25785495447258 C-110.5956872258294 94.95954073442368, -107.08405716553496 103.45907421672898, -109.48478151833298 111.58385602483051 M-108.37389903491022 114.9922133246948 C-109.47925628959152 122.11289267289442, -119.72765572815312 120.32265284864624, -122.59096021917479 134.83618328286408 M-111.05559565102341 114.81485692509906 C-113.85245811130318 125.06630935135125, -120.28813930295479 134.18655482986642, -126.03515735980885 135.99600773615836 M-123.51799650457518 137.86765072060822 C-120.52308906959453 147.5979292973468, -114.21557961839056 152.04163554350112, -111.77569720984138 155.8254782415027 M-123.55244366046803 139.06898861689567 C-119.4902366602894 145.86219573935486, -116.42303077148684 149.65243768791916, -108.15854424328245 159.41632700777 M-113.45236728430427 157.28431384330935 C-101.7415380109714 157.54971996600656, -99.75629220786648 154.89848267618615, -85.32008100816847 152.8311931662834 M-111.15159958691038 157.64183474397606 C-100.98307165604196 155.58274925094884, -96.44397125227765 155.39603378545945, -89.36547777572514 153.48382643839483 M-84.50029112169386 148.90880318215255 C-80.2870420893307 157.06429881956217, -72.58871589051664 161.56651126287954, -60.93561251559753 168.6526551949126 M-87.05109903732182 150.85990790506963 C-77.21768136604152 158.9878538062611, -69.72711116361258 168.50836101145694, -65.0156522179534 173.05618277511422 M-64.99826891818543 172.16544587484424 C-62.57112744202482 175.42376140877604, -63.37153816580923 184.65493877715136, -65.8030577434613 198.90735767388747 M-64.29813627251883 172.26838484725778 C-66.44580418127731 180.32375842664433, -65.78059299382676 190.10292931998177, -65.52396444067494 195.0201764738004 M-64.75206668511169 195.29673526788162 C-54.895040758248705 199.5358683981248, -47.79295803472232 202.85809796591712, -42.292228032763234 203.61887224640822 M-68.99510816320912 195.4415460264127 C-60.69256255849356 197.60454067116262, -55.16239720394637 199.81074984178443, -43.830294144268265 203.62960378702854 M-44.756495763476124 202.95124300446486 C-36.869009613082014 197.84040013634404, -30.865613840675977 197.13297354973602, -23.989452581648024 179.94761808314814 M-43.769394409771195 207.3206876951096 C-39.25852129748402 197.79122435860745, -35.52057534276952 193.3271873764284, -25.17697638625303 184.98604599484696 M-29.222885351423415 180.91438825526728 C-13.350867473424051 186.74923762377804, -1.7727278877661732 181.48273704354096, 1.8353885875628748 184.26229045368171 M-25.55083006972471 182.69489113339677 C-16.95283197336466 182.44931586216111, -8.798676793219801 181.71133065905713, 0.6741654516742983 182.86029797620512 M-0.04611547127501581 186.17986628986336 C9.565217621526381 193.6093824697557, 10.557137404889888 198.11850599094743, 20.245348144854674 208.47502556164847 M2.2112614752338686 184.02245122022367 C6.776729827890151 194.22352339812042, 16.50615486527206 202.83887246097188, 19.708303180123934 204.77753304411755 M21.211866546954283 207.2848133118926 C25.29497618621993 200.13420057909994, 32.76258411394345 195.6951554019618, 39.86168617779707 195.78315878651296 M17.814552035714755 207.51604126860485 C26.217548644010314 205.12917531850738, 33.541847572860235 199.28147411817213, 39.13287852729057 195.5090611874238 M40.54732079083418 196.0515647008196 C38.810649567514766 191.9684107644217, 40.09211743575518 183.12008695091515, 43.01222183989306 174.36702688136592 M42.77898333991264 196.63447126737987 C40.351928812969334 189.88255751972994, 41.60395686870413 182.10057655391125, 43.77595478730221 172.52013126858964 M41.66306641386767 177.28545720973506 C44.342483143582264 165.15224799560485, 55.10222151808381 157.11644886480752, 61.901663020908465 154.34051742347395 M42.24511868195553 173.53049007901444 C48.754170487239946 165.6189682120887, 56.949907763384445 160.3183361854282, 58.506546490549674 152.67048047425664 M61.9569442279653 153.77712778384117 C64.6197177092228 154.09938763192818, 72.64267982462927 149.9618418989399, 79.17398207101424 153.39682778660355 M59.37217495772932 153.80157502013128 C65.62907467942107 152.2988193506371, 71.55332405515315 152.09277764509278, 79.05437877757174 151.71398287962532 M78.08499824656882 155.76354694055334 C82.25865739927016 144.76737666674535, 84.58423459426709 139.88187990857517, 87.39724047678509 131.82142852115766 M78.3533569912497 153.70851143138424 C80.22881246735591 147.35515808686614, 82.92184117334878 140.27234147329418, 85.70779382633962 132.54216486829654 M87.1702774335722 128.0883695917143 C86.33924042274664 124.20713385415603, 80.98545269079429 122.02118673662729, 75.90163181689424 109.80130142906867 M85.4703537170867 131.0706511201276 C83.64973241613134 126.73273766114492, 81.57095673772828 121.44120194038358, 76.47563030538005 113.2823391277548 M72.37425373461885 111.73389191368781 C76.312522581318 109.43019047294345, 73.30674553240894 102.9730383790702, 74.58979045476896 87.1376795108829 M75.31906177815837 112.5629616100546 C76.78084797523516 105.58751501606389, 77.25707139656939 99.27690318677942, 77.07369556900245 87.72144867586236 M76.88309108343107 91.05232565956454 C82.7665507118699 80.80854684943843, 89.30537746199047 80.35101111207032, 86.79262620325267 70.06824842078998 M75.84370174881202 86.68975426363092 C80.91933092755771 83.45296106060945, 84.07221682282103 78.47216392393622, 92.06751857067525 74.39771627618387 M89.40269929285228 68.90635648353413 C83.85419641766734 67.74941773076469, 83.43068512999909 51.95901256814433, 84.3223332158484 50.841167714078324 M91.92230258251607 72.67675184442118 C88.97889548465605 63.05897719112561, 84.76339567484597 57.80743406997931, 82.16797510452648 49.82077609338273 M87.12027251638551 46.169143940884965 C77.32043596144234 51.19509273415408, 75.90652004989624 48.33197001474241, 59.13722515155336 46.29199392405837 M82.57824007339855 49.72108851708879 C75.80564209425843 47.255399635859874, 69.02977611206396 45.481184171533165, 62.14612297017833 44.79859677014439 M63.36912441302797 44.30124456492751 C57.991323690861535 34.62240787940198, 49.97085168937245 28.18258075625682, 47.84173517485897 25.365658584040546 M62.89507202108165 45.3182329243192 C57.75382729586181 38.05588524488135, 53.140184917939614 35.191365853099335, 47.58320197274725 21.70945944915428 M44.12868814727108 24.872589888972186 C44.68547480203779 15.431223727557978, 44.312477311532795 14.080808233428765, 46.93366870300429 -1.6912240803569034 M46.76653823068182 24.533966208797835 C46.67377704885463 15.469648738393708, 46.631463660029425 7.553552158864633, 48.36788667009728 1.4442654654056355 M43.271769136353896 2.754794138637237 C36.51705697893596 -0.4602149194822518, 29.50575604071174 -7.190775793004771, 23.04046714224023 -12.907280228131356 M48.3938132600631 0.9466897055179402 C39.856715619015354 -3.741738152708614, 35.4151741212459 -4.510015793603149, 25.18255010910434 -8.42038673072392 M24.80080878652734 -7.455768845074715 C16.088920657582495 -9.800339864898461, 16.838312277230706 -6.067777482592104, 0.3862408548593521 -3.7676950842142105 M22.77177015610141 -11.179498135142865 C16.79262304579504 -8.17481780915138, 6.66113759572368 -4.336603121066464, -0.7797032073140144 -1.053520254790783 M0 0 C0 0, 0 0, 0 0 M0 0 C0 0, 0 0, 0 0" stroke="#05263a" stroke-width="2" fill="none"></path></g></g><g><g transform="translate(150.27576222025596 143.6052082124183) rotate(0 28.06947593173095 39.57179016324375)"><path d="M-3.4741546048441796 -0.7570163980126381 C-7.1354667573107005 7.460238715002491, -28.21837273500082 36.66100094025733, -21.93854846805334 50.58381357931825 C-15.658724201105862 64.50662621837918, 17.508413295300794 81.57096548925036, 34.20479099684069 82.7798594363529 C50.90116869838059 83.98875338345543, 73.09788337305721 70.96761791713125, 78.23971774118604 57.83717726193348 C83.38155210931487 44.70673660673572, 67.47491982357496 13.333738638931187, 65.05579720561366 3.9972155051662996 M1.1436805495401954 -3.636279109865427 C-1.846765944802038 4.977159320652044, -21.70032240308043 40.695239735845746, -16.588912314027546 54.390604558375806 C-11.47750222497466 68.08596938090587, 16.11598181029359 77.75075270638062, 31.81214108385751 78.53590982531493 C47.50830035742143 79.32106694424924, 72.43330813468035 72.56295289458916, 77.58804332735599 59.10154727198163 C82.74277852003164 45.640141649374094, 65.8629500281989 7.673079374356739, 62.74055223991136 -2.232523910330288" stroke="#05263a" stroke-width="2" fill="none"></path></g></g><g><g transform="translate(194.64668266304557 106.83685851015997) rotate(0 -14.559319496865442 56.55957670998197)"><path d="M-4.626999358623825 -0.8804670721292496 C-11.550164805645885 17.139741292803777, -23.74174225629133 45.29453923567751, -35.646801031061614 61.74427624604955 M-5.7971844104822505 1.116894669830799 C-11.413379632346082 21.87345116417759, -22.931712676945217 43.66376023923565, -31.846950291522944 64.33932451716915 M-30.916488683649504 62.65159817598119 C-25.742996089737822 66.7180662400283, -13.071305153096521 61.96307767708012, 4.020301339524866 66.50974793738668 M-31.994668721088374 65.8230109643127 C-18.15264809287981 66.81306603660181, -6.957817160774582 67.15297819978024, 6.528162037330747 67.45349172509258 M2.7392611478744753 69.41865678138082 C-5.550381266919963 85.51783720258639, -16.796474749683803 96.48048713149524, -27.461794301627343 110.83887216680488 M4.754283939796568 68.58384565270488 C-4.135018308234172 82.09565469213709, -15.222787017742728 92.02029378964512, -27.976903564987843 113.99962049209317" stroke="#05263a" stroke-width="2" fill="none"></path></g></g></svg>