<svg version="1.1" xmlns="http://www.w3.org/2000/svg" viewBox="0 0 381.3635253906249 381.363525390625">
  <!-- svg-source:excalidraw -->
  
  <defs>
    <style>
      @font-face {
        font-family: "Virgil";
        src: url("https://excalidraw.com/FG_Virgil.woff2");
      }
      @font-face {
        font-family: "Cascadia";
        src: url("https://excalidraw.com/Cascadia.woff2");
      }
    </style>
  </defs>
  <g stroke-opacity="0.5" fill-opacity="0.5" transform="translate(10 10) rotate(0 180.68176269531244 180.6817626953125)"><path d="M0 0 C0 0, 0 0, 0 0 M0 0 C0 0, 0 0, 0 0 M-1.2505445829499855 10.342615014731466 C5.419780051468797 6.353851902619269, 5.639121232765924 6.703691923326812, 13.163412286293639 1.1730825777247311 M0.9912038751970638 10.582438230931341 C3.82804009664925 7.7577679404503, 5.444957810057177 6.295861930213408, 12.145703537714613 -1.4459200804040073 M-3.3125739170052793 20.70480942511475 C8.722150292046486 19.679000134009677, 17.923813015128093 9.898997314548566, 19.2625322996619 3.493858774581504 M1.6123326124809 22.86789425247824 C4.78111882523809 17.039394962987878, 10.890940996642694 12.321830526775797, 19.546016795838142 -0.4260263020009276 M-0.7689530459326228 34.18815354798113 C12.443764604617296 19.946556750172977, 24.7610996380951 9.632092013073368, 35.056706102049745 -1.0439152641908045 M-0.45401446345266905 36.58846843782936 C5.729754649139534 30.076474559819633, 12.268554639328627 20.30675802141633, 30.38406939194242 -1.8905488549486513 M2.88020500354461 47.67653845683567 C17.3066103255325 34.945043988329886, 29.1937452813694 21.188674621403642, 41.97858071010165 -0.33609909300217566 M0.2980433758347445 48.15260727391474 C8.427733575643302 39.5807156266464, 20.67230101949484 29.131649641165822, 40.76020029615216 -0.7770608488143438 M-2.846842391314098 62.35191982565115 C11.55538392148336 49.566911258287035, 23.484288521496907 30.178922018036914, 49.968097530067624 0.5289283818973907 M-0.7536173517723768 60.41780354408215 C18.481273278458595 38.571055522174575, 37.326690377003054 19.002006290913855, 53.20053255534238 1.400033419526995 M-2.635153824258744 73.75091874817757 C13.284144391308415 55.91468577416522, 30.775598840735803 43.56043760749716, 64.60582296819766 -2.9278367457421055 M1.2296264006009707 74.55715295145659 C14.672369458984495 55.25490702179708, 30.89551083329101 38.65511626012805, 61.78587671638806 -0.553357846799635 M2.470837110960673 82.01953131816492 C15.172927256596562 61.44047804359674, 40.75713503730249 36.21200731143571, 77.61294843074175 2.9239766178293394 M0.641085179829787 86.06406369916306 C22.904169865990294 59.00026284761726, 39.6554920670465 37.44596448278284, 72.90173082616421 -0.2610139446692301 M0.9112627916036473 94.167838209586 C27.22199915055556 63.8995814592742, 50.01837229723624 32.626027918783805, 81.35129032394991 3.3241145663617147 M1.522698003798567 96.75696607054934 C33.0264924020549 59.50775677818592, 66.73041292243559 23.973580069303154, 85.98828043154583 -0.5264016709568011 M3.735057681901189 106.55116635574521 C27.739088716351816 86.57273993149609, 43.937550194627065 55.394434740158644, 99.32329005407215 -3.3783018063949726 M0.9392684773633206 111.01047410829486 C26.660058034814238 77.89437187508489, 55.29558472037092 44.674737635583625, 94.29039857940793 -2.082675322537341 M-0.8363958408872065 118.89834643061539 C37.41577983050543 81.85537626075816, 76.64399890988989 40.01220232728568, 104.67201402735841 -4.224776406690715 M1.7921106184085431 123.53364309574744 C24.46054892460862 95.14882637064098, 45.8755763020536 66.1207198443545, 105.60764581662548 -0.3426766962858423 M1.7149686294884674 132.79287452794648 C42.087315776151044 81.8095414091149, 93.51704669645247 27.563314537482583, 114.02509462106826 -1.3927285605527473 M0.19328497380924148 135.60113123603202 C42.65823045574209 91.33571960597965, 79.31616574722192 48.23517714644926, 114.388211161083 -1.3942255088545394 M2.0478424992781896 145.92762174148854 C42.11850133742117 95.95889965534445, 82.99546300378881 44.29978570706422, 124.61896629943266 2.285668665323378 M1.5595395904403944 147.05790923227366 C43.05532888282958 97.91897701931559, 87.65082953065381 44.03840514983685, 125.10314821763649 2.2310422824360145 M-2.8494258894801896 161.94361656017008 C51.00277790200788 97.06109891611528, 98.32926574666838 41.71144108193691, 140.4742235338468 1.2297459679264988 M0.5961457485919582 160.14558194082454 C44.2999491772952 105.20272540293034, 93.7637280169446 50.341610782402704, 137.11546091719111 -0.5508346190041484 M-1.9509729290659443 167.5421161100697 C47.22541228415326 117.02442932675442, 96.11781037620239 57.18698514320703, 150.9887586598151 1.9248496813351588 M1.0315895759663 172.3689645215355 C34.907458445939945 128.65879861633113, 69.22641961402759 89.62706950318052, 147.8327732535811 0.2864045605384396 M1.8937325662970457 180.15489017013783 C45.98665046179003 127.44847651345356, 93.6475794786991 70.334716292486, 159.18223990315403 1.1527529912403862 M0.23775339494832196 183.62072439589275 C59.02601579564583 112.34332045400771, 121.33383067740766 41.485034828947114, 157.36958121849287 0.8939873124381912 M2.1478470267845475 196.8387093555111 C67.79366996904268 119.93257735792446, 130.9689028062798 41.15889811180209, 171.2927272971643 2.3557169596539147 M0.046615302168869346 196.10282483210915 C66.26683232035603 117.30299543420963, 128.1053535726927 44.52714169789138, 168.15087798199468 -1.3144923935294885 M-0.18509164867767192 205.33352151257625 C65.20215825622972 135.1635154114935, 126.63455968835925 60.55805649572193, 182.77263654389674 3.1855896798374626 M-0.22507169011621275 207.7143716327725 C62.548850295467396 137.00238156362292, 125.92380683931756 64.91161993177515, 179.03647012977993 0.79446664678579 M0.5040286597984839 217.59760373950726 C49.50039957113278 163.38850658713133, 101.79834294307982 104.56137713717492, 190.8774810131004 -2.446679295204711 M-0.4762256713915478 218.93605006548384 C68.46458555331726 143.36862427575298, 137.5887623872731 63.83727681595899, 189.44547914354234 0.9016512673851429 M-2.3286965287059944 229.25587523367784 C62.59390924262218 156.24520467490998, 129.57094310567916 85.00286860269568, 199.1556367037303 0.5483139982109296 M0.2079857091027394 231.87662449908538 C71.57714992733152 145.13818156011314, 147.66239447812202 57.06417973240598, 202.7010088170336 1.1750768622724461 M-2.0853961934372656 244.228783983665 C64.7325309491987 166.99264371005083, 130.48653603355913 87.55096656162883, 209.7210219546568 1.211101970294769 M0.34328322717333487 245.22563707797187 C86.0317283294713 145.47815659180054, 172.9269284780969 49.988307783685514, 211.95637351140192 -0.8105391855435118 M-1.4847692110555137 255.5742083270665 C54.79802894797185 193.1599363525114, 109.97310993610708 129.54405285743442, 222.45721194859482 0.2273358492694775 M-0.7408997561934617 257.0760175731883 C62.101649229906535 188.52470973693318, 121.80886438531952 120.0473601832572, 221.2596345829462 -1.048481375330295 M-2.132229883220853 269.6588280264799 C83.80283374301105 170.46660384603842, 175.18141772520843 68.2134749996405, 234.43045764325916 -1.3969245116422744 M-0.51595676751128 267.78639644327967 C93.00967568793804 161.84858290776552, 182.95612523663866 59.5070091322724, 233.7969661004652 -1.0579867188554675 M-1.3278631191359618 280.6891577433528 C55.73164806814717 211.36724035658065, 116.63242919390348 148.2772952803347, 244.46645163392844 -1.4900956167011563 M0.987484136778747 279.86749200226956 C69.6863654006573 199.53532180457896, 141.55237288895026 115.39533913563788, 245.03058693649336 0.057734494935222924 M-0.7691002094278169 294.6862340590769 C80.28088451032636 205.94205958558786, 154.72275801357185 116.19085354328065, 256.6909697242419 -0.837729597636459 M-0.1187060235828502 291.8506045814678 C64.79470330145573 218.7465329282908, 127.75978364142927 143.73892922664325, 254.12918131853976 -0.010918845681161637 M-1.0054068492313624 304.9782474946253 C54.79791605259893 240.1004314948879, 112.37820310618724 177.21015833601953, 265.07109751816864 -1.7212420618725148 M-0.3558032099698097 304.97471828903525 C98.9025390893626 192.61643489949782, 198.898522195915 77.85069020426123, 265.92184032299826 0.22616506863412283 M-0.26028845954274854 318.8546787475565 C112.51476278511544 189.9919457435061, 223.33634464681973 64.16074897854259, 276.2107313103376 1.7813186225241846 M-0.668546478290391 317.5205117800988 C57.37716181892242 253.97298300524167, 114.04360279467883 189.97726086853424, 275.06980001114823 0.572191450820444 M-0.31258878010804136 327.35809933417903 C101.20995279040862 210.70634114147438, 200.60899478259336 95.57257316494751, 285.43746767662765 -1.7065108937626519 M0.47299862492223016 329.7623259504103 C80.8163286025443 236.54695219116468, 160.23202123705227 145.72800263494054, 287.00902185364384 -0.8764401455576308 M0.6515747658246128 341.39500722442256 C62.81153954920872 268.20442637278387, 127.50218604663286 196.37834677322473, 297.9251659398063 -1.3276748983389743 M0.40856155717570464 341.99927333297785 C81.90943580284207 243.53179307964453, 165.14033240964767 146.00259148382193, 296.539923962246 0.045389489875935496 M1.6538922956814446 351.9480551360533 C81.98722709603126 253.33631885317513, 169.14187194007374 158.84197244574042, 307.41466355838 -1.510394629662804 M-0.21791525510742252 353.2077358066315 C70.90080132998277 271.84860972856757, 142.2630319856867 188.27224037291714, 307.1386829478366 -1.0288461715651676 M0.9703741351207178 364.8561297593428 C112.29486099308211 234.1945551158345, 219.91227718491675 109.5960923786334, 319.06890250724155 -0.39709603762254897 M2.303951169082863 362.71609134606575 C67.37411737004692 288.0528385575462, 133.14285363161625 212.90050686664804, 318.80901834876073 0.27884193356147524 M14.06443992076756 362.3590924162574 C90.41702121188204 269.87240897882293, 168.86991689298043 177.44918963005114, 329.79575301213276 -0.5268131350109272 M13.035565380733829 363.80909844803483 C117.5130684553176 242.7324672850096, 221.73573842952874 123.17364672484484, 329.2477508524985 -0.012241642933138508 M24.788088994945923 362.4702173769257 C95.30102940894012 282.06055303095957, 168.18996034500037 197.30119207655898, 338.6318765877821 -1.0371396702472058 M23.889460468968686 363.63565432962133 C126.77339628348935 244.8341255256987, 232.77470076567786 122.97585076591007, 339.2313520901443 -0.1946307424471614 M32.75497340198797 364.54466460156317 C157.19687426438676 220.87478940035328, 281.23532231804205 79.64985366183816, 348.7350693009325 0.10428649066109935 M34.03424416517947 364.164231418906 C135.67787940852702 251.10005957115814, 233.67577018723895 137.50573359032055, 348.77059147264146 0.46712665412516874 M44.10448581298176 363.23698178094276 C154.46257951890146 239.88793192238828, 261.07245377156426 116.9191625932426, 359.0651680929809 0.35225476086092666 M45.13462216821123 363.08110666283943 C134.99684420308495 262.79648832542057, 224.52857538109294 159.09535996632061, 360.0938013554583 0.1499270073358603 M53.580919520536014 362.9409780294397 C129.2325273185399 278.33432537379326, 205.52959682809117 191.14539071576527, 366.15925091051287 5.738274625334634 M54.777516465717056 363.835334863516 C175.06460820391675 229.00574511701691, 290.8323299849579 94.56589705257973, 366.625292051694 4.936024580198511 M64.67112711926053 364.80155015714047 C127.90575574245624 287.90026515167614, 191.16589694497256 212.7046420601331, 368.0877712198247 15.346092808990512 M65.43358490025656 363.1590166171075 C170.15815585544144 245.9410640198521, 273.18426073847155 128.3319068008667, 366.341385204821 17.76240096658385 M75.0585104269999 363.2223881427209 C135.13716134173637 297.4193005338089, 195.44613068734984 229.78183607705284, 366.95651992897166 28.174269837830742 M76.17317195836478 362.9579494566518 C184.30985269084934 238.3620847549635, 292.0072746988683 114.23358986293304, 367.879682090794 29.552851965582136 M86.60766339264704 361.27635739407896 C143.14136324215826 293.2790891630582, 201.1286790262232 225.339209878097, 366.84011571576997 40.85763815606066 M86.2701292924033 363.0198125283001 C151.59724364323495 287.76247690528226, 214.6453306997838 214.27537613513243, 366.6252707453496 41.430174995555106 M97.01063921764013 365.34543253228793 C184.53700272184668 266.8477718905805, 269.48738302483264 168.90412195639055, 367.2559143434341 52.358441524449546 M97.90404869388817 362.14915650146514 C157.3810076940539 293.11129222510385, 215.56375263409006 225.0281153803332, 365.80272418954615 54.328499198141756 M107.00096343430802 363.5063350049939 C197.32024777034187 265.18744649553213, 286.7136598073824 165.7546783432341, 365.7137483369918 66.10034394061678 M108.10382650285595 362.1182624821863 C196.35926825949971 259.01431531954194, 285.3883350421401 157.69144997579946, 367.7307588353662 66.65190137039396 M120.28669023786554 365.35861002791967 C183.49136604627125 287.29370597322503, 248.99552502236773 214.58180884384373, 369.1792190510329 78.69026241091 M119.97609766935545 363.13562827744613 C189.0630466598557 282.4624457144896, 261.14210364304483 200.8959776698398, 367.37129147817103 76.81083439898161 M128.10077411727755 362.8945672230378 C191.51258179034298 289.50395097169803, 254.5579251834374 217.35753881765643, 369.29313913389717 90.2425593479268 M129.5320308465605 362.94853364110196 C213.11848062430474 271.8737194610292, 291.6126474485753 179.66708736448058, 367.89437551644716 88.8222134174496 M142.2104994485501 364.1386983771847 C225.84410530713163 269.0817033112005, 305.79536173564884 170.692077607443, 368.73901790073745 101.7447004680057 M140.31277294794202 363.70771552423713 C230.77064908386907 261.38782567062714, 317.92541293794716 158.14152060515556, 366.6968315130711 103.31015742588346 M149.15208197412815 364.91364145314793 C215.52607501669036 292.02623190910117, 272.32150462189486 223.91788463814646, 369.10729868669534 113.08566123274872 M151.9115904003078 364.22607196975895 C212.71374308075195 292.0835072208258, 276.7902130537679 219.0808291659221, 365.5744852244602 115.71143528026714 M160.71673884415813 364.29952636698346 C202.91223652839196 318.2783242470165, 247.33536279778798 266.0626979738378, 365.2014553434722 128.86507030587182 M162.44512841682456 361.56074214824883 C207.83186001433342 314.83592123367646, 252.28258692385253 264.22132790291454, 367.8785262946291 125.39449599955253 M170.7682398169408 360.591648855703 C240.01689418266997 289.47246712670676, 300.439708033091 219.49300334709486, 369.24244653249406 139.17482537126182 M171.80445950506072 361.9832028919823 C247.5819578766514 273.56846038467273, 323.9686487051963 187.57059150651594, 367.5586588545838 138.41373216757756 M180.45601169943401 365.3191695682799 C254.77160692337566 277.97235652603774, 325.86919225704236 189.2575501471886, 369.38046130597144 149.5180000925062 M181.94688324401284 364.5417203318034 C235.0384163379721 300.59600601266317, 292.11612498926144 236.6040859544052, 368.5724552766764 150.70499999354024 M194.85332851247674 365.64828364856385 C223.42669840194267 320.54821320997985, 259.9314435361037 279.37639568472184, 367.6928645614849 166.68566035711197 M194.25335517922395 362.23407420325407 C231.2466624715569 318.64613683944805, 271.17282304380916 274.71915589285805, 367.7474802201335 162.15376698417083 M205.0216317183221 365.39436150900576 C264.1216156873047 289.2955491690512, 328.4369244596112 216.07437035069498, 364.644056290796 177.30282212762276 M202.44285024052832 364.9513429238704 C244.35519103908933 320.6916712167931, 281.4873987208642 277.9541935745617, 366.6136925479807 176.88124228894205 M214.32275973512333 365.64235781737864 C262.1948056719973 304.3229514716056, 313.0495968500128 249.86189836462617, 366.8032180730551 184.34196815094734 M215.18053776632547 364.5554235763319 C257.86235721131203 312.7497197849411, 300.60444482975197 265.3153467748416, 365.26063785213705 187.9330330153045 M224.54587785868114 366.4053957731942 C263.1615627739858 314.79717220327746, 306.9320883996949 265.2004384466916, 368.50228450718805 200.9343343734723 M223.58553499543382 363.4251559616639 C262.29018710095437 319.73502037817855, 300.51764143448975 276.3208365475442, 365.67319479485855 199.27623531584598 M234.2418590722963 360.60396588846396 C282.62677559842734 302.0566849495203, 334.4538910155506 244.23530643392874, 369.2820446796205 210.96518205408444 M234.97702742292165 364.78101892464167 C274.4787956620527 318.4618212830734, 313.40789514377224 276.15591845109526, 368.33322649465094 213.45008898690443 M244.08788819794063 364.04500316154497 C274.32431476133723 330.05269870907205, 303.95256892140384 292.29548935229764, 365.2334999022196 225.9295519079707 M246.59814738665227 364.7663014612748 C280.24031516299203 320.09417578836366, 314.19443628492036 280.7758538503716, 368.43753450635177 223.88392797221164 M256.47694115071903 366.918697628632 C285.5849684069144 328.0491643162486, 322.2202484685599 292.8117815833876, 365.4843882983765 233.54350139202054 M255.84945376693616 361.47519504602235 C283.3186313941653 337.7831679370623, 306.5819140117178 307.5085645923484, 365.3947086176118 236.61563120038684 M265.0024839716616 362.29481824318003 C291.62778240362957 332.97161046546313, 322.12871217858054 301.2088257052514, 364.0968642189474 249.3488418672813 M265.72038142407564 363.922743721102 C298.0277606666773 328.26134134511085, 328.37670479224073 293.1647665927064, 365.6987989276023 248.33916334701905 M277.5107080670182 365.678736098939 C310.0413927239774 325.66303864952937, 342.7968689781132 287.2775245205234, 364.1827440701825 259.83531942750307 M277.5339284049455 362.54766818963867 C305.0612034722599 331.80846196650725, 330.8476397759185 299.0344083030947, 365.4149909831983 261.6260576152334 M290.48842984303883 360.18519728965884 C314.8334939203166 332.9639612999658, 342.3702195690208 302.3476936759434, 367.9944692583316 272.6020551664357 M287.6677802564209 364.6090016547573 C311.1803395435851 339.7397627204282, 332.4607952278005 311.6702582030902, 366.4131578312748 273.1181597081547 M295.5630907059736 362.03832290908963 C322.2197499156564 339.1532389406406, 339.573413983523 314.9713195335528, 366.7690471606543 286.6122547580521 M300.30431002537676 361.436089819583 C319.67617770100367 343.11514238392374, 335.0005972186225 322.5000233358321, 368.46180098971627 285.5323374091308 M310.00275706207236 366.0716090509814 C331.3145636592637 337.5681958689217, 353.0633647421032 310.096208915353, 365.85228724138153 298.6743701356566 M308.18057825868806 363.6785908872408 C325.4248712152369 343.8482998950691, 343.6263035739555 322.3854769023135, 368.6022865633787 295.89164226084114 M319.21612031758525 363.2279268090841 C330.88674962878736 348.90158786317585, 346.641794544171 333.34843424449673, 363.2624468777728 309.4703569732221 M321.3383330032299 364.5564755608556 C330.80127838312995 350.3163814018815, 343.18287114449663 338.5794771275764, 365.96249107014654 311.3035670466336 M331.2524968787621 366.0595222771477 C344.63304074030935 347.29813538269457, 355.49707883629094 333.188398676549, 366.8144674760781 322.0368363644985 M331.87400980587705 363.11002704355235 C343.27246786390435 350.43225380868375, 356.9563313402304 336.44692574926984, 365.13103755689485 321.191207469633 M343.30182815185304 362.22801654892226 C344.56982303483875 359.45867530057393, 350.9647152001468 351.56770080828255, 367.96391544254755 336.01980440323587 M342.68873171350475 363.44984103845616 C346.8815577386783 356.8657505903855, 351.2288823454955 348.47578247891425, 368.2512365704987 333.29797173296447 M348.1946805431081 364.00440571815784 C358.3244763368986 357.5944735064948, 360.2745768470832 356.53982238203685, 363.65092315444053 349.92934176340697 M352.238309272988 362.0068257486921 C358.3034344927721 358.2494342013367, 360.55309292395424 351.05901653282456, 367.1150271288425 345.6922901199758 M-0.057209688312838125 361.3137937673 C-0.057209688312838125 361.3137937673, -0.057209688312838125 361.3137937673, -0.057209688312838125 361.3137937673 M-0.057209688312838125 361.3137937673 C-0.057209688312838125 361.3137937673, -0.057209688312838125 361.3137937673, -0.057209688312838125 361.3137937673 M11.674104309611083 363.1602125644224 C5.582639046491247 359.4830343788761, 1.8088612209022719 353.71216445557167, 2.422794681442228 352.07455769713187 M10.55600169353938 362.428832167341 C9.250437026607553 355.9532767059264, 3.6585714917602057 352.7798148948079, -1.4465620163555535 351.9573983007219 M23.320550988070323 364.3762534818059 C17.33375427860829 354.1340199910185, 5.0954664056988115 349.63393821645354, 1.2911007724125625 338.54770640820516 M22.895741331033065 362.38929863631785 C20.832864137939673 355.9357732000469, 13.05151740217604 353.18055487123274, -0.24925201168463218 340.17846525252116 M38.371130103917636 360.5390916561434 C29.136131686670215 355.5222656155327, 15.565242645857708 343.11271798001644, 0.5154164629493039 325.9602357918525 M35.45207515612415 362.83770671689007 C26.84195861667609 351.1773525539665, 15.136631709543572 343.5355912521071, 1.5252901288185399 329.5719609657431 M51.772727788956274 364.64937116770136 C34.813911888315076 346.11123127818195, 13.744177550632934 332.3908566548544, -1.4763170408498354 317.4621053854607 M49.83792028722297 361.55645499942887 C35.193900854214796 347.76520856678485, 20.862819572840305 336.25308222122436, -1.2402144225727625 318.37159223804696 M63.454370029658946 360.7903971392202 C40.72665250213402 342.68307923317553, 15.217815842965067 322.64372970590813, -1.744158332734969 306.9649362827799 M62.34192185142723 361.80438571604964 C43.913531747840494 348.6837260547105, 27.492235585124384 333.2341661743594, 1.480357381016347 309.56295477255793 M73.73099823227571 359.49879066445 C50.73525604924404 338.7331782873945, 21.484519501508252 319.14366217424237, -1.7075410064559833 296.98972457756 M73.30270289561199 361.25459456987744 C44.14946217207972 336.47050155117535, 16.72751237722448 311.13332144338483, -0.7321839135390178 298.45195677240093 M82.55817880305653 359.9205478371407 C68.02789255563025 346.14105857168556, 42.14905256175703 322.63622207806486, -0.6452736557629635 284.16684136355104 M84.61357396665221 359.9004897640373 C52.701427320548014 333.1023790803356, 20.633605579968446 307.84234902840313, -1.9923402593639423 287.9148189407009 M96.78681272847416 359.967098780033 C61.05188367059907 327.8459646849617, 24.6027677052043 294.5026536712844, 2.804460125594119 276.73603273450306 M97.22724269164564 359.96185103064477 C58.473187233663964 329.0199084331595, 20.67254618037194 297.24915743905257, 0.6400738904166019 275.648074480583 M109.64429725433311 363.1910715288956 C82.0202624545479 339.4352811800904, 57.21014032355385 320.82236323412064, 1.1441017438652636 264.046419784166 M108.8869754570218 362.51059351484366 C87.98919186134017 340.9764489455633, 65.95957315261003 320.93258618923835, -0.09006841732238513 265.4185690951721 M119.76278336710611 360.2226462064691 C87.04363341958648 337.5232578093605, 54.58680639345874 308.7535356532907, 1.271427185523251 258.7125576352804 M123.40485488987842 362.6571219487496 C93.50809298753086 334.20375966592184, 62.4509955255268 308.3332405140686, -0.1284970554831233 254.9695200165837 M134.66033747304317 359.6453189065036 C81.67022075225904 320.86364606637295, 36.43718063503097 273.4281684972717, 3.960708696372521 247.49019932361517 M132.3929415370905 362.17609453548755 C91.5933317508581 324.5506648142566, 48.242731038906356 286.7936575375133, 1.6196168623638272 244.64627988996182 M146.75036055861705 358.8080197517395 C95.14665891194055 312.36847826083357, 39.91174976091074 261.976137431, -1.1090277371141326 236.71264997191093 M145.5226930257558 362.06854100717305 C91.87044936040209 316.7638126448793, 39.850011172876194 271.09667024756567, 0.5679184633162606 232.582690947422 M160.5794812817372 359.0334784981141 C104.40196781183971 314.5034958052948, 46.71198210281369 264.0406977918917, 0.14138520191621923 226.77118938925548 M160.07897879032328 362.9966514560085 C118.03205596465813 326.4570107664023, 74.25545472979957 290.41559033105244, 0.18808691768850527 223.37957543327576 M172.74339409783005 361.3953499274749 C108.12154284909883 309.7144216234722, 48.566141671440946 254.7787273771687, -2.2180512950993676 215.80352143309153 M171.07459280726295 361.42399216198146 C108.09952715850851 302.08925655051576, 40.25802937774964 242.89159950319868, 1.2936714118563424 211.94807529217152 M182.62006452387163 360.96633599200425 C132.43400166764442 314.2218213652652, 83.48597628835044 271.90258937589056, 2.0891018002556505 199.98165399842418 M183.34894007831028 360.49781149910075 C128.8022321751362 312.7712866098447, 71.37458219829016 261.45264071974844, -0.15727160295409198 202.32250446092448 M197.8362827900377 361.3188759068387 C131.54716815381994 303.21200683598113, 65.59919263952249 249.76507800832562, -0.027554478717929626 188.70347194726517 M194.8853818000961 362.67546083557903 C146.30193159096422 316.3627245672779, 98.00209660214028 276.9016448078601, 1.1980597433255755 192.13184180931003 M207.64828325096582 362.82848327469185 C151.18139906479198 309.87117339138507, 86.85397841726954 255.96665569787115, 1.072630075661238 178.6223438673029 M208.59782326083254 360.503627552305 C137.91995773595238 302.04102248429183, 64.31408668313088 237.8008863937607, 0.5698843523403069 182.45601344263312 M217.9148560274722 361.77181262658894 C137.24610823375468 289.89735849915365, 51.31674031268716 212.74631905488292, 3.0226705379910874 168.73290687468477 M220.2097747837944 362.1736910543111 C149.49792169556827 305.99806070948347, 83.64647844018424 247.004660474416, 0.20836181727335318 170.73361870894212 M234.07089731691192 361.49728818420505 C184.25990488058716 321.130250153166, 136.2506505688564 282.7545273114707, -1.919250109597276 161.14100822001217 M232.81367852709616 360.1828193868074 C161.76079163109955 300.8124301686689, 91.2128392943656 239.53243955428908, 0.1172537905346465 159.4995522880654 M246.29269396762487 358.8450365601378 C172.10018548624672 295.2443217633776, 95.51619696660295 227.5302974292775, 0.9284570406110049 150.41091140650784 M245.15896278922423 361.80823918333874 C152.3121021523979 278.78626327099676, 57.15356086954856 198.2804091830419, -1.0538574340769706 149.43093254323549 M253.27739570295086 362.8961306919849 C187.78181055267353 300.6972554165335, 117.29139971676462 244.26970077547296, 0.8124861713307464 136.65248626239435 M256.20716383116496 362.45759171495 C206.00009720794515 313.8491931427102, 153.7312664431873 270.1548052739205, 0.0951699997373011 139.1360280751847 M270.8764616604667 363.4405894472774 C186.64695768878735 285.2010203766176, 100.16267706399522 213.3328757082935, 1.158039166670226 130.6619541776473 M268.92622817641086 360.83580058820957 C166.8324474283589 273.8612912087403, 65.32243728816907 183.8140013299855, 1.0201513250791272 127.63141993371207 M280.5552790426503 362.66566024441585 C175.02727322739284 270.4224329227726, 72.28244854682852 180.7421836039493, 1.2807494382966906 118.22352174159253 M279.7193929503411 360.3622055885682 C197.44175004199255 286.02780942493035, 114.321069650076 214.07776214813197, -0.24597748412007098 116.29489136209732 M291.2002680775683 363.07208738257 C213.34519536761587 294.8084522220332, 132.78803025215808 222.785507156571, 0.9756339001575225 108.33999570905343 M293.64309981352926 361.88136435279415 C228.32989038081902 304.85514370242913, 160.63852454440445 245.12303107487642, -0.01684857281146393 107.94136382309979 M303.25912056297454 361.4900290405483 C228.96780821642545 300.53938279026477, 155.96485729411182 236.49644550702882, -0.3999917343683568 97.93887739321353 M304.7570603506919 361.49134434538917 C211.84120995677299 275.8917071938006, 114.87596702428525 192.07553942257138, -0.9349583390907404 97.07252963903389 M318.749085677873 360.18194571590936 C222.43736185257492 279.84313839686513, 129.59784885580973 198.61264891944498, -0.34770697065205586 83.72888062600644 M316.602409405921 360.28635832148024 C212.76535157861585 269.1592037984211, 111.8426574353955 182.0101112377222, 0.45303037832138215 86.26512492283908 M328.6773221162235 362.98662403718737 C241.7243941377434 282.24312473579323, 155.63244352614947 204.31213743906474, 1.202341705949256 75.30275793084104 M329.0719485162581 361.5307129088265 C256.5289487502105 297.34202950628287, 185.48933449243546 236.54735637178172, 0.5077720428571318 75.90591081090113 M342.9802623068797 361.5701442168109 C236.37872218408592 267.2104077900318, 127.34541623259707 172.3571780040398, -2.1231999661916396 65.76639270070271 M342.49198938028644 361.4707126343261 C234.6440315680519 269.83583126182333, 129.53058855054041 178.63727186645465, 0.15959458596000448 64.30477961272133 M352.81422463421194 360.784420684856 C262.1000590690133 277.0673875417637, 167.70168325733022 195.9171605222064, -0.361883841304948 54.61227738925945 M352.75297773979514 361.44381069164024 C269.9734356890273 288.06485961711144, 186.0993509295795 216.4023166735693, 0.5281450178049423 53.321082682781885 M364.1889378528741 358.2046442481271 C244.50623357514104 255.3896847822477, 123.08705768087596 147.9423991395928, 0.5407231845848959 43.446300400972746 M363.50042433342435 358.77201249070333 C250.68460233718753 264.46533827184794, 139.92680120518853 168.49763019798493, -0.2522188685187508 43.71827423484598 M364.71099604893544 347.07989461144575 C253.7939371870266 256.8499922358577, 144.12468025062464 163.3945883349066, -1.7746768376093103 32.794463747488365 M363.61762711271643 348.0604383824749 C266.9556399455725 267.14205197980516, 170.60459204993072 183.435736767603, -1.1601332283898638 31.817424379403796 M364.00714105412493 336.7715339966885 C225.273656707891 217.65397963394142, 85.51726378774312 94.69667424316565, -0.21683080332256954 23.645273981435466 M363.1778999152199 338.80611151109866 C266.5294134996041 254.91997959635063, 169.00800883329399 169.76257975098397, 0.7792242331843695 21.89504840788476 M362.1132963081505 326.2102789467299 C263.2050502826944 238.13922458657905, 165.16412075286382 151.5748435976109, 1.0820461630076599 12.083137591047127 M362.8544921773967 328.02362892989305 C279.209820191701 253.7185938106755, 192.3999796419407 177.66777159322868, 1.0694726595213129 11.11844360158151 M362.16472833229324 316.51180222352906 C231.85225464886003 201.45408915224922, 104.5614625618383 90.07728232267468, 0.9368081682050777 0.7437507586666058 M364.10270266232743 317.06670650249606 C280.17256629209464 245.29349654440045, 198.29565151972773 173.8658969826911, -0.5683767757628364 1.7704212834618516 M362.8102856788021 304.7126078346556 C235.89234357671893 197.48514851366315, 111.49563202227367 87.76542416542868, 5.4706107276274665 -6.152469706779962 M362.55803795754025 306.1347588049013 C230.9988410108794 195.4205756336003, 99.98858294336469 82.39861485896684, 5.113340993381361 -4.633987500512277 M364.63721247798014 294.88216724434636 C238.2031365316054 188.52191132130255, 112.57923923531058 77.04302677155252, 15.056875803555355 -6.757886179600373 M364.0419035006388 295.6877123995649 C277.91217541414755 218.69042607916572, 190.5690985050564 143.72338691204575, 16.310998343104902 -5.443272383396194 M361.7833768986732 284.8816875994167 C259.3641501847422 195.93864368640732, 151.3334671885739 101.47026848702566, 29.333919591818447 -4.97602831973646 M363.76292501105615 284.2435580364311 C267.0982586419452 201.25831395383358, 169.67118962180814 116.20587235248824, 28.99260776942451 -4.823026297417197 M364.31835931061136 273.64132735001317 C242.8176577247007 164.81733440276608, 117.41146981171966 59.19614309751339, 43.12646808739295 -4.9612613353259585 M362.4947438323952 273.68227117792935 C275.76229798942427 200.9590819991053, 187.12541969518512 123.88436779305967, 41.733427005601754 -5.234011678113 M362.3869429762924 262.4130929237277 C294.14186527373005 199.93810400904232, 221.97971753123974 137.32966980536253, 53.15640145940753 -3.970891807397739 M362.0915188379469 263.1941828497836 C263.72668590892215 172.6813613959642, 159.6045261386623 83.38921218176041, 52.70261497315262 -5.449081818428427 M361.4045465836483 251.64337828193922 C293.5616196335731 190.62455027816912, 224.9104851373525 133.730233959597, 67.72123694731567 -3.5567995816911946 M363.82331367598164 252.67852910419393 C277.88952254782043 178.0108837665967, 189.38274452490552 101.36273335079488, 65.21282956732702 -4.700816614078323 M361.06875612789383 241.62348324037058 C267.9773051858409 154.57453449848592, 168.52159512731006 65.95614121259909, 76.01735890570721 -3.301615451858679 M363.7695093965481 242.5116888481429 C288.4109473657507 178.29917207028157, 214.83286942680053 114.33534076573304, 78.58435128348628 -6.463987678392773 M362.9741890979938 233.38247042099422 C268.0784343763182 150.04026145264223, 172.20707105193304 67.0493721794291, 88.92638538292196 -3.573417605302525 M362.17962875282 230.6621605354878 C267.5606855244965 150.5771539129106, 172.1938337543594 68.4025787402777, 91.06642282011671 -6.460457977826849 M364.79796897946363 219.3095619329734 C308.3467677955406 170.7841500514522, 252.16868992941667 120.18235844200481, 101.77823598744462 -4.067192785449297 M362.3784917832989 222.1827858654262 C285.6392478026658 157.98315714417365, 212.6962529168934 95.07179209305292, 103.52049242765914 -6.48144719060865 M363.87240898596406 209.74598399795784 C305.263908054822 157.16339187605925, 243.81468810327237 107.23565782692815, 113.93285529548729 -5.404517245151338 M363.6960284352394 211.06335756725434 C281.4394476022246 132.54952060804624, 194.942039256531 60.973558952058234, 114.60971048916035 -5.366823452759871 M361.8507001244164 197.9996477133145 C319.40082783059904 157.30774604319424, 267.8848754936634 116.67456713060345, 127.97341166184908 -3.8837251839732594 M363.92474975758086 200.11357979580055 C290.89295722552237 136.3716793963239, 220.55510372520325 75.32154665580099, 125.8886306156915 -5.950257056259365 M365.23116247770844 188.10144545260647 C305.06082395769107 142.4738379530201, 246.78104904971735 90.24870565581699, 139.83016310828313 -4.4201397521479615 M363.3357183880379 191.10724416559154 C315.2848449325045 143.43036126002454, 263.1282261520715 99.81297777222603, 139.42948503067475 -4.657358386245505 M363.53539539280354 176.97347989253186 C294.40731491277296 120.24467474738141, 223.50835586503433 60.869676719528194, 149.5252611859618 -7.997536714258793 M362.6039865298201 178.14740041840273 C313.24830231034304 136.91262286020523, 261.10829744214783 93.7262743970569, 150.1908425563311 -5.338090817478889 M361.5627439322153 171.24866372322617 C288.39312559736 102.20118177289692, 215.43059318835225 37.457244081725165, 161.52035774282953 -2.728861444800563 M362.0674146841676 168.94409921224258 C317.5579187382794 125.45653286963517, 270.31002413173394 84.14843320642149, 165.0502615569957 -4.7800558287280275 M364.5076785564832 161.0458136351893 C316.5014552878296 125.13153772733557, 275.5924251591245 82.69684379669658, 174.59480073172546 -2.3738570362347966 M362.1170028762968 157.5188713579153 C310.9240656562381 110.18704730765143, 256.18640979295174 60.93867051268903, 176.24949556620504 -4.577191471741688 M363.9934749792067 146.18382240758336 C328.2098687980368 112.59571888028414, 282.91292308794544 79.81232721492579, 184.4188007610694 -4.758133962355295 M364.7075839391686 148.9375055291831 C323.4366549236813 115.10954294894722, 285.1270440113191 80.37948206399864, 188.03547835797363 -4.972848999414149 M362.4134154961868 139.25784983992 C326.92402855205955 101.97665122463752, 291.47352448221557 69.08998784221815, 199.31457902978715 -4.5276964767753825 M363.80274301160165 136.14129682707136 C309.61495467293554 91.87700236197193, 259.826298617589 46.201593460883295, 198.54447169455727 -4.74439215915756 M366.2156228907243 125.81117824421105 C319.5127836411007 84.54114787427804, 274.3183383015318 46.0161735586732, 213.06731682430444 -4.975227520608283 M362.75303908866414 126.05932979635556 C313.86551921035317 87.70748761421885, 268.6569707507195 43.537537549765034, 211.1161409944618 -4.4704042546339755 M362.82566076301373 113.09187260465302 C321.31850127550445 85.02203550431928, 285.746896311369 47.081833447437404, 224.14863743454927 -2.365041284684551 M361.55993423395194 115.20658826278128 C309.21264977370856 66.76540245079377, 253.33085392841429 19.00802792412395, 225.524440227158 -6.988439268295181 M362.2073556039411 105.3533704941597 C326.77481919210527 71.72540495606913, 286.0970454303548 38.12969717194248, 239.8707154662676 -2.3479471979313047 M361.4664801586348 106.55475011369849 C327.7590048713558 72.49421208457905, 288.52834864660014 42.26701414565133, 238.50602663022948 -5.2427515936665685 M359.3817903130325 94.96104453112731 C320.8397732908922 56.299001292232326, 279.98597365085675 25.362797351677287, 248.61063102239996 -6.295712119967135 M364.9145223601731 93.46969205494771 C327.1795960162162 65.58917369738646, 287.9983021654155 32.8733247210056, 249.2564042320314 -6.177110000580939 M363.1951562965381 80.42026580930587 C324.9192740196679 54.2331114321201, 287.53080232782514 13.805355675340081, 262.4802005091964 -4.718589957042013 M364.727058885442 82.89013478965398 C339.30179951433297 64.26815011207717, 314.0927650214208 46.01872509774729, 261.3407585794388 -6.7199812859132635 M363.1342699607077 75.84578042244539 C335.9375321535229 50.85464041506226, 307.81447724299795 30.772595347288238, 268.73186533290686 -7.017459615405983 M364.7817752813163 74.5751115209423 C338.279505797601 49.96209183259082, 313.312160342787 28.282980280447447, 272.12896271932664 -5.729519746538585 M359.8265727117913 64.46170946429584 C329.5005805099218 40.25809925384159, 301.88964374887144 13.368627732579519, 285.01340148000423 -7.327765972318446 M364.76104459467103 60.35396795193765 C334.76646107124344 40.20452320681502, 304.6310360967906 12.368782861581074, 286.3002867787928 -4.087508150341307 M363.540130956039 48.101549028607195 C340.0953803980694 28.124335843605316, 312.10188658190646 7.04103694280208, 298.84908119629284 -1.64375599201054 M364.90192737238124 51.376362285765 C337.21757165825727 31.606779333594144, 313.17058470933506 10.673919028855373, 297.57455964426657 -4.0735938521775665 M360.68363609970083 40.70817020912949 C346.4104227228481 23.454834906644685, 333.7316351804132 9.790119723177074, 310.6679304682456 -6.382124551741697 M362.746171661322 41.36226522554938 C347.5810620743547 27.164586811114084, 330.15797794941875 11.875808668238147, 309.9904264428459 -6.178934619931795 M360.30640454902664 29.833819099612725 C350.40943934915816 22.323674488888933, 336.7839860921343 7.66765601370474, 321.2848907021123 -3.506250557761888 M361.89021300836816 29.85195997441579 C349.8375394524417 19.79167104698925, 335.39869927987826 9.09997074552184, 319.6365102214056 -4.480434750478963 M360.5983777102665 18.140116793806953 C358.20805714246114 11.195350845623041, 344.7097224860937 1.6066040838335311, 331.1555283041431 -2.3701379163211413 M364.7351744603948 21.456042235489292 C358.6851838680391 15.955709720128825, 350.05567975947906 9.023377168390251, 332.1561215268208 -6.7346860406941005 M363.3901219896705 8.898059385462062 C354.99549125826195 7.474249764053645, 355.01801092353986 4.577657047471698, 347.63074426081073 -5.562356504678945 M361.2368665642769 9.105420211894767 C356.1405482960189 3.033491805452117, 352.823720120849 -0.9582084343276378, 348.25196798618924 -6.471908758461694" stroke="#ff5c01" stroke-width="1" fill="none"></path><path d="M2.1568037516380927 -1.068518490117928 C110.17908223458043 -5.36090401741277, 222.02403829548933 -4.906715407961968, 359.3326703914102 -2.2272327577211337 M-0.9426452377224499 1.2010800793071674 C90.570880476528 -0.47145215494639814, 181.85374106712743 -1.5582293528933429, 361.8465278412225 0.3327756179301457 M361.72529208365467 1.4406691144282384 C362.82584382453433 115.92211224398122, 361.12952595541867 236.377451337173, 360.7598007180496 361.686988694364 M360.1890696892692 0.605597918579702 C356.5343900132037 110.6498826770687, 357.2106345146637 219.97654100167148, 361.50929976206544 360.97815659154014 M359.5243271579537 362.4694991723303 C246.8046678721771 362.86461405622964, 137.57061168984973 358.86067307403925, -1.7377653110622617 362.0750373424653 M360.49814494156504 361.662732000858 C280.83039655797154 364.4048571369908, 199.8730022747525 365.2105324282738, 0.45834958293097244 360.50673763362795 M0.4951003345302544 362.6169894146003 C-2.918671016023628 219.69765287268606, 0.1466309783479396 79.01727922302194, 2.5153870881801876 -1.8484641768036496 M-0.6743168882895385 361.60183370380963 C-4.511799840568204 281.51613850479373, -3.2102710198202926 200.73161170090947, -0.5051256653611944 -0.5680126892771309" stroke="#ff5c01" stroke-width="2" fill="none"></path></g><g><g transform="translate(168.9137369067431 40.714930445275286) rotate(0 -1.6828460561725365 88.95787479554701)" fill-rule="evenodd"><path d="M-0.8383054428772887 -2.13670314848423 L-87.7067991346122 181.6481408938354 L-37.374681531873115 178.95114501218168 L2.2383380245414264 108.38650247438622 L32.053440986639885 182.250036703009 L86.07748018602686 170.82256312055313 L-1.6576976471619567 -3.0177961736917496" stroke="none" stroke-width="0" fill="#ffffff" fill-rule="evenodd"></path><path d="M0.2724833494944612 0.7490934282541275 C-35.375844242545774 58.390563990423374, -68.21051050748646 119.6771228132363, -93.92830671370041 175.25579072679935 M-4.037854588873859 0.42647045105695724 C-31.618844777791686 60.35376601177032, -61.25083616854984 122.14041025405723, -89.85227709263575 177.2816291391438 M-89.39964689314377 178.19398881639896 C-77.41470887443818 181.78809454421446, -60.99526539220005 174.6932167907215, -34.85591086694277 178.52991186479895 M-92.67340021580469 178.84735065098462 C-79.414366923645 177.52745736195362, -65.79397628226948 176.4584228245553, -35.69999981620587 181.5122419858989 M-32.78660163232363 178.15597616533606 C-19.15939065182295 154.56440083740563, -6.073284206389502 120.68222333593243, -1.8262519825253003 106.56227135642243 M-36.70648670890606 181.38344445477097 C-25.15996835833492 159.03162964205833, -15.004510293716521 133.69737160188188, -0.4902168873700612 106.31234959496928 M-1.8998870838436597 104.12229561789704 C6.09329050967121 131.80701320964374, 19.42003716133451 153.4262225849652, 27.083804516560466 180.92798949922977 M-2.7465206746015065 108.2722361458726 C3.4438536040971357 121.49205713718531, 13.265497827362726 137.7688339038674, 31.250743380255134 179.23387890453992 M29.808631329304607 175.04306747164188 C45.488954428212885 178.30812153962012, 66.94742098192329 174.5045977695511, 86.60181458691912 176.9684285907241 M29.36766957349244 177.3781526624745 C51.68932473196395 177.80075907514106, 75.25815665611614 176.84989084844432, 87.76191155264931 176.00906135273897 M89.69150956372576 175.6346540240737 C67.61896927140278 136.31352538913168, 49.52812121733351 97.95091585053866, -2.8009219163136443 -3.5964923948049545 M90.56261460135536 172.7459254427048 C58.58423737469029 113.58110109390421, 26.447749316190638 55.168759643015775, -3.263000405676838 -0.5872524455189705 M-2.434084757514473 0 C-2.434084757514473 0, -2.434084757514473 0, -2.434084757514473 0 M-2.434084757514473 0 C-2.434084757514473 0, -2.434084757514473 0, -2.434084757514473 0" stroke="#ff5c01" stroke-width="2" fill="none"></path></g></g><g><g transform="translate(244.3859904936768 209.7053651751644) rotate(180 -19.613386217586594 69.88765752396432)" fill-rule="evenodd"><path d="M-18.315237142230608 -1.6477967351675034 L-87.7053219228984 142.00896589619802 L-45.86340064690841 141.98015707714902 L-17.752041733641285 82.89335566387936 L1.8645491251273354 141.86163704259084 L52.41545549018715 139.40570319395184 L-22.664744474078752 3.2837876230478287" stroke="none" stroke-width="0" fill="#ffae89" fill-rule="evenodd"></path><path d="M-17.89083487548981 -3.3259788900613785 C-36.00872415017085 37.06078962706258, -59.92965609186351 66.61941032412885, -87.25663720071327 136.46919049484418 M-20.686624080027677 1.1333288624882698 C-42.59953689570224 40.347329883277425, -63.008125077642276 81.3757965257533, -92.28952867537748 137.76481697870182 M-91.76485024392616 136.51738156540083 C-77.70301145032488 142.28580529262464, -60.99493936189228 144.1083317485478, -49.883479276163705 136.76464429481373 M-89.13634378463041 141.15267823053287 C-80.98178994905088 140.5189838953963, -73.59220741180789 138.6856764290945, -48.94784748689664 140.6467440052186 M-46.692107358439095 139.47848477943288 C-40.67959513441761 119.53179520307262, -23.09443074697211 94.78725541013439, -22.836678392071384 82.39721658454701 M-48.21379101411832 142.2867414875184 C-36.170283567554264 122.48793320649943, -28.509215956572103 104.6634277658469, -22.47356185205664 82.39571963624522 M-18.824627763409275 84.09311273322865 C-12.091915581135405 104.23177171933915, -6.308091151475153 121.46037396619636, 1.3363566347880562 141.4819358752458 M-19.31293067224707 85.22340022401377 C-11.54346240968018 105.13099244433292, -3.1116774825803795 122.23967891124093, 1.820538552991887 141.42730949235843 M0.6651797243876656 143.10129393798994 C22.492555085033963 135.14290728977738, 36.219839563963895 136.36232009183402, 53.062756240204315 137.26020727257847 M4.565947564832707 141.06572006059574 C18.49761675371644 138.54940168400321, 36.48062914644362 137.37869623334984, 49.26026580466364 135.24439328860163 M47.579445540741425 132.3694334993851 C25.727575483977894 97.05968630857603, 3.510337278118911 47.60014259822471, -18.443604536439516 1.929717406630516 M51.06115577353571 138.00408071230768 C33.42673828845448 103.27832853129905, 16.085664266314836 72.47723746581966, -22.127760917033292 0.01706976443529129 M-21.739702187563516 0 C-21.739702187563516 0, -21.739702187563516 0, -21.739702187563516 0 M-21.739702187563516 0 C-21.739702187563516 0, -21.739702187563516 0, -21.739702187563516 0" stroke="#ff5c01" stroke-width="2" fill="none"></path></g></g></svg>