<svg version="1.1" xmlns="http://www.w3.org/2000/svg" viewBox="0 0 453.4116674030803 364.55210817766624">
  <!-- svg-source:excalidraw -->
  
  <defs>
    <style>
      @font-face {
        font-family: "Virgil";
        src: url("https://excalidraw.com/FG_Virgil.woff2");
      }
      @font-face {
        font-family: "Cascadia";
        src: url("https://excalidraw.com/Cascadia.woff2");
      }
    </style>
  </defs>
  <g><g transform="translate(10 306.65779500834765) rotate(0 216.70583370154014 -124.38174091951453)" fill-rule="evenodd"><path d="M38.40502003406779 -251.49281898881281 C38.40502003406779 -251.49281898881281, 38.40502003406779 -251.49281898881281, 38.40502003406779 -251.49281898881281 M38.40502003406779 -251.49281898881281 C38.40502003406779 -251.49281898881281, 38.40502003406779 -251.49281898881281, 38.40502003406779 -251.49281898881281 M45.17714996956832 -246.82950365998676 C45.442368791223906 -247.44132693627452, 45.447562558355145 -247.46378401298776, 45.79226940524371 -247.77932215458486 M45.02327600330657 -247.07972908065548 C45.34609936105247 -247.12544607379607, 45.47133244205466 -247.51423059087156, 45.776138256383845 -247.84600876881515 M46.50011095735782 -236.3994834784803 C46.144554416332575 -235.36518062619717, 51.07281951426194 -238.41237282950317, 52.93138244229835 -244.25480968611822 M45.679962845477995 -235.36899202954146 C47.60202337592759 -237.2496836868678, 52.49447146818101 -243.03198549158014, 53.323399543049746 -245.1973393152891 M46.663946966515624 -219.69130682944675 C53.616554112790496 -226.29858120119255, 51.934053442011624 -228.62381356664307, 58.05509558370741 -235.91856194630694 M44.9316486295925 -223.4643284454884 C50.80506219286814 -227.99183885690547, 54.16801192247348 -235.4548512291184, 61.28256387314232 -238.796762633775 M46.43667068982097 -213.5642805631703 C54.64455659917215 -218.78687475312816, 64.44136874910835 -229.60148529583466, 63.614186033134914 -239.2643768290826 M44.03671855384084 -209.65383645998895 C50.97719292154286 -219.76654440532513, 58.35403313411123 -229.0661019573934, 67.76412656111047 -237.4851509208628 M48.119321781290395 -197.33326564943297 C51.387380365494415 -201.56006269161023, 56.551897038265814 -212.60519518724763, 70.40224247798598 -233.81252864042452 M44.437191004944665 -197.4679706341575 C56.56538653023008 -207.72456780802676, 62.02757313035635 -220.3026489981528, 72.7373276688186 -232.91528195927074 M40.027796502221335 -179.4693430933708 C51.127047497526306 -197.4409052345517, 63.02137250410284 -209.14399952501068, 82.59319938249158 -230.33269044702826 M42.30076888482641 -184.81946236375512 C55.68860575600355 -197.50981845880608, 66.88762239222845 -208.86356962213492, 79.70447080112265 -228.15004170631943 M46.864032809683444 -178.94724882546652 C60.55474746401518 -186.3535232563707, 69.83513779607033 -203.4866251330058, 84.87738009492077 -223.46632199469832 M48.59525929118073 -178.91376046988952 C62.28451977350407 -193.77779907540835, 70.56301653521463 -206.94831913907225, 87.34831094691671 -221.16316529843834 M44.71865531293274 -161.20362799916293 C44.71865531293274 -161.20362799916293, 44.71865531293274 -161.20362799916293, 44.71865531293274 -161.20362799916293 M44.71865531293274 -161.20362799916293 C44.71865531293274 -161.20362799916293, 44.71865531293274 -161.20362799916293, 44.71865531293274 -161.20362799916293 M55.534083978808184 -175.72806522192198 C64.64391890550986 -190.82970348461927, 78.11107334503825 -199.83398534618212, 98.36880401373914 -221.14323591082967 M55.325060540414114 -173.4984599420591 C70.27336177153661 -187.96203028036544, 84.00211484182935 -206.0597423056199, 94.09951241166404 -220.11815967797912 M49.41764508527268 -151.78863868888888 C48.15770790890599 -154.77026755120113, 51.96075308373857 -156.984419341161, 52.68698745213904 -157.82393355024533 M47.753228248698015 -153.05375698496076 C48.863226974368324 -154.54409108191606, 49.81478514403072 -156.16414721485566, 53.10208825424769 -158.69311496382133 M60.03329774558916 -167.00113015353367 C71.16041787621172 -175.6868632260633, 79.11584402707959 -193.50186336328278, 98.74622212622324 -215.61432940689448 M62.43862033456936 -167.67443749040052 C73.36507529131703 -186.22225279275617, 87.91082164727123 -201.07716234598226, 103.58134307984272 -215.49077724096898 M48.34796655617192 -143.18113024241444 C57.314825934651836 -149.85300782904696, 56.72588198670138 -153.93978204072144, 61.5648436931093 -158.00632285303598 M52.36763355388775 -143.83548350154575 C53.80837015135628 -146.357597903029, 54.47382831660347 -151.1594837547494, 61.37045008625284 -154.5801194214744 M67.66264633103589 -162.15626529007886 C79.59242695927955 -180.98248965986699, 94.96349951912396 -195.76759886531443, 111.4037837403541 -208.65855289333837 M67.77011401965598 -162.58346790969108 C75.52644552359546 -175.2195733663352, 82.49778703772168 -181.5921928067353, 110.53365538443379 -210.62442152285354 M55.804958379440706 -137.26904256554207 C58.65154994694093 -141.54502604183253, 68.42196484072038 -146.99068486807636, 69.92149456987468 -148.31274970876947 M52.61832268404285 -135.36069511534532 C57.831458374523024 -139.44855992071513, 59.701919219502685 -143.77555580214243, 68.56467402378408 -151.39733004826084 M73.94127904312937 -155.09742104200308 C90.88572697095228 -177.40002404960362, 109.39956769400776 -191.92272260250508, 113.36140204815071 -205.28601845971568 M75.99689402865498 -160.50645473537628 C88.64705183092757 -176.00087848903348, 101.31179346890858 -191.61858256919626, 115.94706564245622 -204.71865773818715 M58.049611185169276 -126.17367057245778 C64.44074953604165 -136.25014872510604, 69.3463811945317 -139.08897691631458, 79.62192551573042 -146.39155948442047 M55.12626255718475 -127.13529201340484 C60.66375119791679 -132.7609475768738, 64.26812724652065 -136.34334859352143, 77.79824372162346 -149.33544282150095 M82.01410907388859 -150.95970949886075 C95.00895837388654 -174.70820326457982, 114.81411821125539 -188.91622416151571, 126.51322635759408 -203.775676516472 M82.04707667858534 -155.58046318201056 C95.37006724422275 -173.4947449481526, 111.75036438964207 -193.800541481043, 124.31142628689105 -202.8668894224154 M65.09708110850663 -121.19370439064357 C69.17572575579001 -130.63799820440465, 77.59081141533015 -129.8236044424528, 85.99526905924243 -146.30636779522771 M61.34220143270106 -120.99053520125005 C67.44237245083852 -126.97882158710294, 70.8636381081397 -131.03165738001874, 83.24369696438474 -147.44295867091293 M83.90028573129459 -148.14708107109746 C101.81180805015168 -166.62432916847013, 115.35540890049259 -184.3013786170329, 133.03522888969368 -198.39234873338464 M88.3480144024281 -147.8363967850395 C100.17584726638685 -160.79639616520566, 107.67845677137791 -172.8768941792177, 131.02341266374773 -198.77339137031558 M68.15516328349074 -117.3298369492084 C80.50338469955756 -122.61482779052882, 82.07197986462924 -132.9562966448292, 94.99855645041069 -140.2017058911912 M67.19463756962975 -114.86657073298993 C76.4274859923348 -126.40034817846883, 86.70579428252817 -132.79423993383335, 92.39126812706789 -140.6163619714968 M95.24472220736632 -140.29464784826763 C111.9656797350013 -164.2336448821934, 125.54953028736742 -182.29319287677455, 141.35338186545906 -197.6508567802307 M91.57782351720223 -145.16132075901754 C107.93614503033778 -158.67890719868865, 120.03751961677291 -177.05979603715724, 136.3547001190358 -193.0174383766648 M63.50528884267779 -97.21790900797583 C63.687157665452325 -97.42566871376557, 63.75505283964995 -97.72754783340869, 63.95708811844107 -98.19516662000557 M63.34555966182025 -97.30519818224946 C63.522008814906584 -97.49253643062247, 63.60566416485419 -97.76638408698676, 64.09545675071296 -98.00291822380264 M71.63632470844551 -109.62739619235148 C95.03015348276097 -131.2679436526234, 109.84980373262891 -149.94115131861346, 148.11183459287116 -194.58015106745577 M74.98361335424944 -112.65717459092488 C101.53676432001004 -140.12214710324102, 127.23768546984542 -170.0356656300634, 143.42014108573625 -191.3174339769087 M66.82632125688085 -91.54275028561538 C70.48172335326744 -91.7150683407225, 71.72627024814402 -95.07867011909057, 72.63452013009486 -94.83562723925701 M68.05609866564461 -90.35745184985286 C68.76166831851911 -92.06278926211759, 70.87816951206197 -92.96135142675352, 72.68898500786422 -96.36151243491462 M83.08049262982973 -103.63836628983417 C100.56287204225791 -131.37963007435388, 126.89152529521947 -155.73502118576027, 149.58050026394903 -185.4403436846144 M82.8539864338673 -105.31895159224668 C100.323607835501 -128.66936879545017, 121.5365326246729 -151.43994996046993, 149.58535188086807 -187.24794338560173 M71.07306125201535 -84.01705040342641 C76.74578417905583 -86.56377374929092, 79.49982656285695 -93.28291079122899, 83.94573467385196 -93.9395786811018 M73.51698161438358 -83.33723852678668 C76.5900296518406 -86.50895654463375, 78.99919058666512 -89.34849090240715, 83.27339981246912 -95.01567249227108 M89.66613217786073 -101.05254450269587 C115.26983429371214 -128.35659379691077, 135.28776958541874 -151.94609116564044, 154.90352818667364 -183.76038504215197 M88.18605208739757 -101.99859124996311 C106.64595122485109 -120.41493514483334, 120.18399670689641 -137.76200707005376, 159.71518493741226 -184.27737013818935 M6.0305083531879005 5.242240933716215 C6.0305083531879005 5.242240933716215, 6.0305083531879005 5.242240933716215, 6.0305083531879005 5.242240933716215 M6.0305083531879005 5.242240933716215 C6.0305083531879005 5.242240933716215, 6.0305083531879005 5.242240933716215, 6.0305083531879005 5.242240933716215 M76.29273984878527 -78.39201299514451 C81.16025152114355 -78.69001121615045, 87.41236434777652 -88.57159302114968, 90.71616127713668 -89.01820466444981 M79.412509936087 -75.97012885328212 C80.84424067435518 -81.6588069224196, 86.40417121206326 -88.0683802925092, 90.7905862964605 -92.44809688405287 M90.72305349051082 -97.84456480540926 C123.96633648620328 -123.73375135751759, 148.43029079717974 -162.2988883283117, 162.78610996874394 -176.47598394364283 M95.09718210785711 -94.28207688280041 C115.85515791822358 -120.34687692052648, 136.05293654028014 -146.18348020257417, 166.39496096195998 -177.6296904122846 M15.770267506156438 6.595218718518231 C15.796810479018303 5.916066127532693, 18.841456023954105 3.3754346708187737, 17.977203714575527 1.9522494492027842 M14.276204117972725 7.6614077025099725 C16.063702200477685 6.060392404364436, 18.045781280632816 4.639375969913029, 18.944554556261657 2.744728480363258 M84.66751746868874 -72.18202990889674 C113.81589075703124 -111.59410957385822, 149.94365721245515 -146.97672636811092, 176.6348937828212 -177.55378574121212 M83.72607573157336 -72.51612220555668 C109.95889055856172 -103.75382529999096, 138.08965322260923 -134.6253192990914, 174.01833860614587 -177.288719035568 M22.773257078283912 10.94375972429803 C25.352777885187034 6.383630562112373, 26.318217538385348 3.4222972867801733, 33.46613034961427 0.9080683780499483 M23.569545690023784 10.191337019750387 C26.489379301617145 6.750030676588917, 26.72388317063988 5.344508357743112, 33.79909477216805 -1.3662905285469509 M85.53617011529508 -66.13063284788701 C119.08853424462333 -100.90500637774421, 147.017843051604 -134.7340626122712, 185.81284019455472 -180.6238360739377 M89.44996490848365 -63.342170842331385 C118.79336388677795 -101.20670357147011, 144.63084588017446 -133.59645799932235, 186.27547479525367 -176.7890257350233 M265.4401155661735 -268.7863263464207 C265.4401155661735 -268.7863263464207, 265.4401155661735 -268.7863263464207, 265.4401155661735 -268.7863263464207 M265.4401155661735 -268.7863263464207 C265.4401155661735 -268.7863263464207, 265.4401155661735 -268.7863263464207, 265.4401155661735 -268.7863263464207 M29.058195317430993 15.83640643346151 C35.38608595930967 10.260337893355128, 39.0334807487299 4.621506097711418, 48.69552184410884 -7.756881901027494 M33.718736650689145 12.827104137717091 C37.825802036124784 5.242647984662999, 41.17359124152307 1.17201701997808, 44.07514529444768 -1.9533105948584613 M98.05822415035252 -59.021401749811794 C135.82341877388455 -107.65671812203064, 178.06899008838087 -156.5319959506619, 196.98116450927287 -178.16213143611273 M96.65069817137007 -61.7079332115871 C127.35048264801203 -93.77646168532834, 152.9878135621772 -125.48605818746515, 193.45535645059377 -176.44293193513474 M252.36499693232116 -242.77615474395336 C262.259826567294 -250.09139708713946, 270.06594442278555 -263.1186417307796, 287.4843429379743 -278.929525005742 M254.00949794041452 -245.06799306951345 C262.401355372653 -254.8187575805621, 275.16179915301785 -264.2201316533452, 282.77695743521866 -277.13512852333395 M41.078387780222805 13.585682697552341 C47.47727790631165 4.314864716082782, 55.45520723401088 -3.3738187669995465, 56.289740669013895 -5.841765935800755 M42.410879215333374 14.279746919828552 C46.100844643774835 8.64135511600928, 53.71458015208285 -0.758103946554133, 59.36706342774812 -8.39487907596656 M103.276163126146 -55.470098400615385 C135.83671428514802 -94.47351025608191, 169.90169779026897 -136.96714391562602, 201.51187767097707 -174.44829595341653 M105.11254006884019 -59.718697609506776 C137.76226141630042 -97.99155412349499, 172.5305009447365 -136.92056860252, 205.49668853739257 -175.6429632107851 M241.2312357701511 -217.35917362171818 C257.2754268546469 -229.18559564683824, 267.0650307137504 -247.1945879474388, 305.0019302350378 -285.1356733287818 M243.4813874416203 -220.28784013140609 C259.760241590989 -235.73441586081086, 279.38445002069045 -255.73130433255903, 302.33756569595096 -288.67633958860705 M45.97884452524118 14.572126320041612 C53.38111549828256 9.69529506664083, 66.19444681111568 1.9419573424706424, 71.055918653405 -8.905964438202801 M48.81071678730182 15.878088249303296 C56.519250400825 8.741976687846755, 61.44797119172374 1.0724005918689574, 70.92033433625727 -9.696537476363602 M110.03696404041605 -56.43016284927053 C147.20899688039066 -96.84483263930485, 187.47035538428804 -136.13500430811052, 216.07989070639832 -177.6123542550447 M113.29062189550953 -55.11183963193817 C142.92801201522096 -91.91107059538072, 176.41376870078204 -129.64440362354298, 216.04972387925608 -173.79526723804497 M248.65791686948927 -208.57604079870833 C259.91123909652225 -233.37140391329487, 283.5497685630471 -252.72874542587525, 323.25142894610633 -297.10566227150485 M245.509606960682 -208.6436488348092 C266.84471519979434 -238.6157617835718, 292.1620161846915 -262.61616132906295, 319.216061017661 -296.3509362564735 M60.04423352123612 16.00325683217932 C63.426174501839384 8.130960002724322, 77.90065302947924 -2.5140665571502083, 84.76271682401318 -10.673252037429187 M56.920446632219495 19.686337110516323 C62.803815120056456 12.921437141870879, 68.42565903961469 5.18796844331804, 83.08833584358115 -10.717558472120139 M121.92216986191268 -49.24095056452723 C148.57690889121523 -81.7020098698556, 166.71265085227498 -106.32045149544653, 221.28256255529615 -175.16082722952441 M120.6637034170031 -52.67471279450627 C141.1313495387442 -75.29676374798026, 164.12971936407894 -103.47138387269806, 225.22622571281883 -174.59655045231656 M249.27804150331352 -201.69995681832728 C263.7485679141586 -216.733399673912, 288.912109285055 -240.677654603523, 331.8786007790153 -291.8552110806562 M247.5540620674524 -199.91130527000126 C277.722146201531 -230.59407461449183, 307.0416960246493 -265.9566788057536, 330.2522969050591 -291.16951082055346 M67.94984773695762 22.94596876521546 C78.01429827308799 2.3991836554876294, 95.89018263552616 -10.933408598671761, 99.41336217857892 -14.75331878245268 M65.92195351571138 22.464014987842624 C79.06563048574444 9.226762478402051, 90.05105939839376 -4.287332707578745, 97.49807424433524 -15.61719265908394 M125.40394855938587 -51.8824420151355 C162.6828554173847 -96.98997496302349, 202.2726594507895 -132.91093317036416, 231.76393618642055 -172.49557034560567 M126.6402318989459 -51.2493581128361 C149.8530214639032 -76.29594637922162, 178.2230405294453 -108.50217304978338, 236.4737038037058 -171.30291636922485 M248.17277069835484 -190.76719630977055 C273.9588251188791 -221.62710795853982, 300.1339835235807 -250.74973479255, 334.19707205040083 -293.8895651876591 M250.81188058553755 -190.29383211305282 C276.01598757560527 -219.49697199319567, 301.01206072570756 -247.55719935384928, 337.4930539716564 -289.5462442591451 M74.26160514115568 20.826531650400046 C89.21015652922736 7.698941590033691, 103.11320790955779 -13.62406247325847, 121.96229700474782 -30.443575524473772 M76.42680970340248 21.415955865657214 C87.53179482951596 9.240635635165917, 98.4027285425452 -6.795712066916465, 122.51683362304016 -30.406473935330496 M133.3450931015856 -44.47524266984534 C177.0352769431978 -95.6031676463935, 222.2680183200319 -144.30597875342866, 242.40262053953097 -170.90435449181575 M136.8083421069629 -45.98250410255265 C179.8778542312818 -93.1063967062419, 217.3371555124105 -140.7570880556027, 245.51329638855145 -171.4704464241721 M249.3457133943727 -184.1905301615654 C285.4757289851884 -221.59234411869215, 323.10798093255596 -257.92580336189127, 345.038385729013 -289.79808006126365 M253.4417007515719 -182.78481079936608 C284.99209305312905 -217.30835096622002, 314.41017570029317 -249.51370430593377, 344.792091983078 -286.64349008787354 M83.14466642256629 27.41054186192605 C135.1155641551086 -34.12543495482526, 187.98959695760482 -93.29765121263365, 253.78828986086114 -167.70405008485034 M84.5797705106709 24.213402759634292 C138.8928674810708 -41.591883283750946, 198.16589226716042 -108.0019808169568, 253.5373763687612 -171.68741604253017 M253.34117444362914 -174.5906307957235 C286.8152193804097 -207.88172776368754, 310.6790276028373 -241.6520063594113, 350.81305807690615 -289.5502700714343 M258.02800929304635 -172.3856145775977 C288.28551616108956 -207.99501207609723, 316.14475908245856 -240.56920633153302, 353.5910377265095 -285.694604067313 M91.53771134357433 28.167401482042436 C191.55832893592614 -82.192906005197, 284.95231260393854 -192.16093879739958, 362.2025376931733 -284.39022081571045 M92.40988361405712 27.531860356533503 C191.70006939389037 -84.84560311522642, 287.3081306841185 -195.34791914394006, 363.1939078631108 -281.5762069639254 M101.40571476284634 29.96932280211167 C163.24179039245305 -43.04197541351856, 224.7453999821685 -115.9682724687434, 369.8165091104286 -278.3005688834757 M101.52759370141615 30.788667305313943 C208.14593832865555 -91.9650688592204, 315.1856317897516 -215.13755600381842, 370.2153582229326 -278.9482304037803 M109.2224434543894 32.80398831770057 C185.04334440638314 -53.57060412092617, 264.1205117633517 -144.58664359619843, 374.5414184755553 -273.82874610652794 M110.04025004977213 32.89675403655731 C189.56358464097812 -61.113371703524436, 268.13873884923055 -150.71116479318337, 375.03547819233194 -272.0864759841093 M120.89359497882079 33.3347337855323 C183.9957118807196 -37.330301805269755, 245.3969408482758 -106.55460600591427, 380.27869106962874 -269.29747522251324 M119.53742500910411 33.96922959152575 C176.38624730211635 -32.92175328415702, 238.57549171163714 -102.33380778346041, 382.1539852193707 -266.95975702680033 M127.2057221711453 36.7333393220469 C206.7185748980897 -58.607233492310726, 287.1555597230276 -149.84723163517427, 386.85217651774514 -260.2111184501098 M126.41241931339717 37.047684962496994 C196.48181846385785 -41.62369787480821, 265.94692745767475 -120.53354050138094, 386.24431549456983 -261.5242321464145 M134.5331715796773 39.490931411000254 C228.1551669866262 -65.67935538864275, 317.19659809523523 -171.27276360963845, 390.3745445960705 -254.58906286055813 M135.91951434724822 38.53224082725315 C208.2553776967241 -47.332875283760934, 280.426847019403 -131.2371475194969, 392.0564112049238 -255.06100290313367 M146.21127261881836 39.081314229856694 C205.02696287717072 -32.06901146949866, 263.28673480436265 -97.99155637884067, 390.4114410159392 -241.87431126165234 M144.32478652147844 41.47860873533583 C195.70024159582306 -18.373772270375607, 246.36134527625808 -79.54390724452087, 388.3610639270607 -241.22026611689898 M386.41796986214956 -237.75732944133932 C394.4846757560757 -247.74951167541417, 405.0666343344597 -255.58558596267852, 411.59945893928324 -266.54181040035763 M389.1079041530951 -239.9391712096637 C394.8965081995802 -250.44548862112742, 405.6234289600907 -258.89775335226255, 414.0146322686962 -267.7100263084678 M154.6363594887644 42.83445423589312 C250.44078891615462 -63.412097589866704, 342.34894976510253 -171.07193775646743, 404.9425012927877 -245.81953969607883 M153.9307376448317 43.78593456066769 C246.58248042955915 -64.04856753076875, 342.26172525765884 -172.88157572204878, 403.3197762388946 -245.4202273727009 M160.22191477188602 44.29536504049102 C217.9496544512976 -22.132784390704728, 277.4196329804803 -88.81969961772226, 418.8508026144402 -251.42587839658015 M160.994969862235 46.3328600748017 C237.90960752418727 -43.74213464270116, 315.4329891817749 -131.59158410948712, 418.5602930333588 -250.70816437896468 M168.29119784497308 48.996063666499595 C220.70195927448475 -14.862361465490089, 277.2168061878513 -73.02910122618164, 402.4253194026003 -218.87935224145647 M171.8056052878178 46.57009242276484 C226.08659390457177 -15.357238873699819, 277.03426715728665 -73.85999972336873, 401.61396843684037 -216.68234523889436 M181.34126855011985 49.35699226468524 C253.1124928185762 -35.789658820141575, 328.6826233511797 -123.74328346106253, 399.2146252882113 -206.1480801020058 M181.1420595606602 48.54263325711832 C250.64968895755413 -32.228054787487174, 320.61525308138005 -112.55106375008928, 400.7958370616874 -206.17615943876666 M194.47593679539617 45.96329299050258 C266.67657912240946 -45.2297380555195, 346.90896820637806 -133.45697337437747, 402.18322911215455 -192.06098352748785 M194.79072821842456 44.535181194425064 C258.44678562768013 -27.50262716441246, 321.3990127156639 -99.20798229997307, 403.2985573690274 -195.24242561710682 M209.4958141179643 42.58631925116056 C253.4758497927152 -14.821883900486101, 301.57216088091417 -73.62577736435463, 402.8232135159664 -180.74379450615174 M207.91097501623454 41.41779005350459 C256.70464068253716 -16.54110081817733, 306.01183958722714 -74.80764950832695, 404.17543936938745 -183.7280368197831 M221.72331573046813 40.48442739723079 C256.32124481539523 -4.844951554427915, 295.5452742187243 -51.61499297347601, 403.76044195909157 -174.3204254009293 M220.37603413783583 40.610829443062244 C288.48919677386374 -39.92753575316182, 358.1288672921802 -120.14531613849289, 404.48913916484634 -172.36200641377695 M234.97438384813594 35.32080711260601 C275.8544148099256 -14.91312859678956, 323.04207406719365 -68.11079490691667, 407.43005776359405 -158.34917365038874 M233.70534268874908 35.722413549423024 C285.62941464817624 -25.162970034578876, 336.8375738063537 -83.1131579160731, 403.766085696569 -160.35365941559542 M249.6952161369772 36.24503274289788 C280.86108371477246 -7.609046810858215, 316.97630821000024 -47.360590047105, 408.0495900273193 -150.35350115637922 M246.19005476785426 32.638734209302704 C296.40910184170883 -21.216983585892464, 345.72062685406576 -79.30956279330043, 406.9089035365801 -149.00756602885465 M260.8988117110555 28.53895844996986 C307.770309018413 -23.910850063343368, 354.77787735499646 -73.56217277086849, 410.0157720347545 -136.91146321798462 M259.76871486503444 30.741772966847932 C301.0159041798933 -12.737602752021715, 342.54664588852336 -61.46174479159366, 405.8596406752591 -140.10021022237493 M269.7313352102624 27.520892438397766 C304.4038432847372 -9.284681668548266, 343.0331849609921 -53.99798745353621, 392.89276933421434 -114.35093070540353 M274.3771189103113 28.14587749998367 C301.89636110945384 -3.1311814486558696, 326.277103197932 -33.638705676191606, 395.9121609081799 -113.30026381436511 M285.18760218427633 26.3622140386953 C320.8120453537291 -14.856062724443674, 359.16464689982536 -53.5400397401521, 384.1106872655466 -91.17272107743776 M287.7661578054831 23.82060531022688 C309.6117741115625 -6.337979700719316, 334.328702066216 -35.63824467490917, 387.9417951576426 -91.76366170936382 M299.3046884571758 21.471618202035472 C329.4763736794073 -9.924082561604074, 355.01882693804237 -35.764671630630765, 376.3557200650429 -64.13271030201105 M302.3750751426068 20.107310642008827 C317.8350390519448 -1.0541898476766463, 336.7653527666365 -19.76544048084921, 377.5207381839608 -67.54309201403049 M0 0 C0 0, 0 0, 0 0 M0 0 C0 0, 0 0, 0 0 M18.222165450135492 4.2262531714230684 C14.50398417099808 0.7684303665966019, 11.391974641826287 1.001588808907516, 9.130457955479184 -2.2853423388952123 M18.170298102924846 4.537535966345659 C14.59762374937613 2.781412264468708, 11.77331160471643 -0.35154570345536396, 10.490812636047163 -2.6045566419416772 M33.962739198763416 11.539482871013861 C33.13415157182085 7.253346800727406, 21.444187085424133 3.1375202556623805, 23.09074083542736 -8.091755634974263 M35.935727841515586 9.674257161039096 C30.738595204900463 4.935471439700942, 29.26783202180655 1.7858971466470148, 18.97903199320944 -4.389278336297295 M50.66363084965832 10.358172899958465 C45.72613015906211 6.279932759520543, 42.93134453856007 0.39928883027513606, 29.95292596632111 -10.174613537536295 M53.25775353515036 15.254324286159846 C46.56720572347589 7.64885209540795, 37.808954636432105 1.0780802561711216, 29.922594391940713 -6.3100404537183366 M70.36624674371728 17.407804701364004 C60.364490750436914 13.998383090444012, 53.95902180862117 1.181912736797786, 36.979432996628915 -8.27506482388739 M68.7824083181406 15.943163689112627 C60.856020575654625 12.776231075139243, 55.362446883154114 5.469204873004891, 38.82733080190245 -8.400106465182347 M90.35427828719033 25.75624936898048 C75.85021726681165 16.0325507198869, 71.66415980387592 5.101255988360974, 49.964868752378024 -12.996922429268057 M87.61394023736132 22.898246073022438 C70.55771804764481 7.513597617589351, 58.192874764569595 -1.611558719927455, 49.784967189746894 -13.025252196554835 M102.5520418863274 30.080752996557898 C88.20528083588616 13.98673705769017, 83.67675873291653 2.8397759483427443, 58.108593800263954 -9.866447201947274 M102.91128483968748 27.097354641014284 C86.9388351504237 11.501931593644697, 69.3777178680687 -2.6763882400101764, 55.95604576279457 -11.512763886729779 M123.2697693671558 27.511877648855744 C100.89139279016973 13.390043007001669, 76.79089840611522 -2.823108312750822, 67.98646496631395 -17.768702077165557 M119.88335559177138 29.932526067222653 C101.49062563999871 13.706252514946158, 82.51411438311999 -3.5557952573629343, 67.79166748769771 -16.837792361572696 M138.722446296371 37.757737477605026 C122.31943103059874 21.627176031926254, 113.40757593799944 13.901207477500805, 81.06967365677801 -20.823315961172906 M139.55788220093348 33.08428661275355 C117.59832625133548 18.55048265685462, 93.49939195262104 -0.7356003617668705, 76.80233041133133 -17.749116917958585 M155.00155450000028 36.66764454756526 C130.85836269009215 22.85103857497189, 113.40594736652262 -1.1159414799186465, 83.47003627790613 -23.54054276021931 M155.00315313382606 37.835297951741495 C135.69912841355725 25.296334958005335, 115.88462642895765 7.407696384495232, 87.55322008057041 -20.175204352762435 M175.59391038429362 40.35634495248642 C149.91281235699122 25.281865854899323, 129.25383398676587 10.767396040224213, 99.68528465572555 -25.977320409545293 M171.0968539373241 42.944593287311456 C144.759392673515 16.520117899139027, 115.21214385055437 -8.769898297237553, 97.6594999620672 -20.63026799184977 M181.315730812605 41.519192409241924 C164.19177490885394 26.701381474420334, 144.16750183615605 8.650295225161976, 103.09906603604071 -30.237270873381853 M178.71013311540662 38.71275094571186 C161.7884468085951 22.144860503519382, 139.37612474225458 0.4841492313766693, 102.53631144225113 -26.96426769007659 M192.51043547474876 38.4866274754299 C162.58165042753959 9.434359176845941, 129.9976207287771 -12.924653284010198, 107.7639101459927 -34.37828694201696 M191.1554044985129 37.786373593915826 C161.01850183306084 11.691447355554637, 131.07951757541892 -9.941429664704913, 109.4317408888883 -30.520496628355865 M199.32258703630654 37.233344157828796 C170.5769620036086 10.549161960234755, 134.44513006134144 -18.146801691121077, 117.84471423138598 -38.78524057968166 M200.7102873928496 34.91725484807681 C177.98982253079953 16.367180239161065, 157.17840831521116 1.9073101398056664, 117.12030468840817 -34.758289661543635 M208.80150190352845 35.311588550188645 C185.99194304842112 14.923428778694543, 166.19797404893677 -6.744394325671543, 125.6658388589161 -38.1093926346449 M207.97121734529185 32.64567791131984 C191.92900536058892 18.23915279248334, 174.3181939904576 1.7862452391900057, 124.20004504813129 -41.44243302853385 M87.81809327116949 -72.06235143413082 C87.81809327116949 -72.06235143413082, 87.81809327116949 -72.06235143413082, 87.81809327116949 -72.06235143413082 M87.81809327116949 -72.06235143413082 C87.81809327116949 -72.06235143413082, 87.81809327116949 -72.06235143413082, 87.81809327116949 -72.06235143413082 M221.62857288648092 34.163783278639755 C198.01207803378603 14.463324500594757, 177.62752135378014 2.7674550553230546, 131.96050107190337 -43.37066918261843 M218.23895881850922 30.103108216400585 C190.56059746589102 7.518190015697112, 161.49593765343096 -18.330992809662636, 130.87954584220375 -46.16056201257305 M110.8550168428551 -62.2273403434115 C101.27446913357431 -69.18538778100738, 90.86699644345703 -78.51496765754081, 60.34318424981106 -103.23298909727437 M111.53860896117794 -64.55219678115421 C98.2224599765118 -74.01420209742405, 84.58977541675588 -88.55143276973095, 63.50612765025366 -104.79210633251769 M230.4848285473124 31.85947600092514 C184.47200450516266 -13.449646710250814, 143.32216590610713 -46.80048227322379, 78.11576258972515 -99.23586970998878 M227.6100121668712 29.597975724299985 C177.2088284783786 -15.110328998454921, 127.7686839044124 -58.81396875876722, 77.90881220087637 -100.9380898295247 M238.36441123954395 27.1044678381278 C165.84181117862545 -33.344191340263976, 96.27965655629735 -94.49539994648845, 54.06732252776272 -132.26945288183768 M236.95561630101415 27.454812464503483 C171.96087810606448 -30.467500841356003, 108.26621396086007 -87.4812185762386, 56.68450964239689 -132.50021677576314 M250.2097723525739 24.896922030727087 C183.5086296436996 -37.20451646925464, 113.30551897997928 -90.61351407009566, 49.718567724938374 -147.47060350581256 M248.21187822843868 25.479409498369144 C181.7090859716788 -30.71408193494895, 114.01833762946222 -91.10501251149775, 50.31882792229094 -147.37838030017954 M255.72538778289572 23.656563017922853 C216.93017488376958 -16.398233463139018, 171.41054388944102 -57.09865408429052, 42.80295327544968 -165.6482128565253 M258.13351077025834 22.225937199827346 C181.37583824281282 -44.53154762730807, 102.28954418265138 -113.9011022703603, 45.482785900538246 -161.76188240647363 M265.22678951917396 16.85912753789285 C219.811071231014 -25.983859134399232, 167.86086707143676 -70.0077875277293, 64.11732600971979 -152.93021064990927 M266.1252705335202 18.668683045338064 C202.25347545772556 -33.98013544196075, 139.93813068403426 -84.62474218772553, 67.29681347849184 -154.33623755410423 M273.4331774582365 14.71991075141215 C205.95947243204617 -49.9403423995981, 135.77176321523856 -110.00054517116544, 89.67610513240287 -143.69584145542888 M277.4846749387713 17.044473647073488 C203.93496282324068 -47.154136347517905, 129.2198870392291 -111.09499492104611, 88.67056473826432 -147.9443189178441 M41.53934507013297 -186.49258111556185 C41.53934507013297 -186.49258111556185, 41.53934507013297 -186.49258111556185, 41.53934507013297 -186.49258111556185 M41.53934507013297 -186.49258111556185 C41.53934507013297 -186.49258111556185, 41.53934507013297 -186.49258111556185, 41.53934507013297 -186.49258111556185 M288.16310754780903 17.541998027731886 C194.23612861281066 -66.7040042817129, 98.41459713265556 -148.95479648331985, 41.26214787451645 -198.76722243779207 M285.4365652139112 16.169307246632545 C206.5524438036209 -53.5982554133301, 130.30402173203387 -119.47978412601043, 42.70765098012012 -198.44608704312952 M297.36109618172793 11.711692255940262 C218.5998967268481 -51.955453415346206, 144.5615960891668 -118.98901498590992, 40.82473280373691 -209.32226935409813 M295.32252664971963 14.035860682608762 C196.0906324529043 -75.73179525525624, 95.34456264322806 -164.48898547805436, 40.46863462602089 -207.6904554839436 M305.1535520014907 10.307736559026305 C250.3233015814346 -39.9572510511085, 198.4909080863253 -82.39668823728708, 41.53100856429854 -221.61003989535126 M304.7910501415053 9.302174803243854 C234.44541664327494 -54.15264861102593, 162.26835385841744 -116.17290106016812, 39.7344931700293 -218.2956062658306 M309.8358059614632 3.039693039162899 C247.57842813624242 -51.89889529528291, 187.89440987017215 -105.33081784766864, 40.47441192271867 -231.02905251459018 M310.53676531448775 4.763131686845792 C221.41539321782705 -71.64962053309557, 136.0592264103608 -144.6044507383582, 41.256425794872015 -230.6951258006296 M317.1230877451935 0.03541483472694029 C260.95064223366353 -54.22650171716823, 199.2055900794286 -101.61387898525777, 39.50981521594569 -239.18043126932508 M315.0466344828312 -1.0032398554899313 C238.58685041955047 -65.48531688172734, 166.14934120393127 -130.7793522816066, 41.17093776954743 -239.78176955979094 M321.7533178869947 -5.484784431886517 C245.9935063331866 -68.78720666403477, 172.2452554023106 -131.38469634223915, 40.22784491916093 -251.27213047546556 M321.98510888147825 -8.078968115514554 C217.330530523444 -102.99215960685875, 112.05389620352237 -195.16354698804585, 38.04357762497539 -251.94340010567078 M328.98116207825086 -13.20242335259626 C259.9743584435798 -75.54878005786361, 189.61776876994932 -130.55274674745408, 74.86416816520838 -228.88695804879893 M326.2786160478844 -13.719666370667518 C237.01007819532992 -89.17970725300027, 144.78768260245886 -171.40425616707478, 74.41783099849361 -231.5506365377301 M333.69551706976273 -20.27920223703514 C264.8509426577514 -76.34925940665691, 200.24123397300949 -132.71387593633924, 113.42585719421412 -212.43758834688435 M333.20527448291307 -19.645345655087453 C283.64211103836305 -56.000583517418185, 239.0379263826744 -96.77211088587582, 110.73560669195874 -210.94871391590817 M340.08265809569525 -23.748755295118997 C289.10559748908497 -66.17574041221135, 245.29781347500185 -107.0475813117049, 148.42939796397602 -188.73167750014554 M337.0489912299364 -25.315667540192276 C283.70352067870476 -69.32442296931993, 230.38410253394954 -115.18176285148444, 147.59350082911413 -187.66626801855654 M344.01951120375924 -27.6561372881237 C288.61610032572804 -78.17054025197952, 240.05437487497866 -120.1787496923731, 165.67029819123724 -185.75175100508383 M344.98828509162877 -31.3492167405863 C291.31207778769425 -73.97990030443088, 236.96623216382235 -120.12164171874197, 168.3145871986418 -181.00497218043844 M350.69059585527145 -35.450344791823696 C297.96386849241856 -80.91981379920935, 248.7395327883296 -126.44976218282696, 179.4333798821978 -181.30110784563794 M349.77782591938313 -36.1645616587986 C287.9650043087796 -90.96239686707129, 225.98202746537757 -145.17524734750972, 182.74086072297922 -181.95596088525892 M352.7367980418073 -42.089451077284906 C313.9136823921929 -76.30214814793122, 271.3977863779146 -108.08213569710854, 193.5148654398836 -179.6634570971159 M355.8865442836848 -41.13192780434802 C322.2903223209988 -72.00201500359212, 288.2108266098008 -101.5751520425177, 194.58393275229054 -178.82087430117502 M357.11438105228007 -44.738701187882604 C302.0648451356747 -96.98814406855229, 245.26494265292936 -139.75108695620779, 209.1217235334816 -180.97921822379135 M360.8103731379341 -46.350494583387544 C321.485710771626 -84.89398604914822, 279.83408598794153 -119.39637171398661, 208.06045390140173 -179.4056523504531 M367.62012565136433 -52.63312683374048 C326.8307255316522 -80.94269704273952, 292.149334506195 -113.47034981284637, 219.71266498848158 -176.74034671629957 M362.6499694958377 -55.04091026008487 C310.648273147081 -97.74291478832086, 261.6891216015838 -139.0773587892091, 221.57959479525047 -178.17164417500786 M367.33169396943276 -64.76936548452178 C330.6707429565763 -97.70020397089397, 286.8151155428416 -129.29980607154027, 236.89582233689544 -172.82373222781533 M365.8221799132866 -62.52236971508066 C330.51287643324497 -96.43370804488791, 293.2760310414542 -124.94685592897089, 236.37211403064248 -176.74738336427325 M370.60633673588814 -73.66899395885162 C329.2637846508413 -107.525569550809, 292.54465670722243 -137.0544695318578, 250.61244220972335 -174.13760174812015 M369.1577836878139 -68.77317755075387 C327.2660995120039 -111.32739305793618, 280.05185524193365 -147.41410210032305, 249.55061196476495 -173.7453561350816 M371.28082619653475 -76.63875922096102 C332.51524884274266 -118.98684269631232, 290.22768425872306 -148.91677200085013, 260.6819547912104 -179.59674044437855 M374.7203597058488 -78.91673112196057 C339.5736799728562 -110.55722195261234, 304.1075388049627 -142.94703779435736, 256.63788792248795 -178.74856054522246 M378.8513979180682 -84.75179711911898 C345.3416819028323 -112.32734083950776, 320.51294648965757 -134.8196249213619, 253.08325358649267 -196.38232236779317 M378.64701267471196 -86.63187916759472 C330.6979996427913 -124.06081729019226, 283.31642125057556 -168.27462425830714, 253.9802670495726 -192.64544603652342 M378.9360741462929 -94.59610461755653 C350.6906756705963 -116.02314504213098, 323.30240283334246 -145.18026405073235, 249.77533912493902 -204.60102501874684 M381.8606964808328 -92.15139404251238 C327.8359634047787 -137.14090421718493, 281.0555878294815 -180.26692395089958, 250.81824401601273 -206.53902799999236 M385.0576308676817 -98.1821265935331 C333.9554926414587 -152.76197006940572, 279.47244833892285 -194.54039973566344, 241.53719323257667 -218.09103633248006 M384.10318125130914 -102.41955851459795 C326.3974810477418 -148.34252577852908, 275.1611836735162 -196.49265695349825, 244.37635728846055 -220.80289476149474 M386.8794690687073 -107.41093292430827 C347.86261196667897 -135.00303722573443, 309.2833922095342 -172.16874275630806, 247.59964727832886 -232.55240186735676 M386.42092461323864 -109.81034285173604 C340.5686060366052 -145.76063836451038, 295.8409889183571 -183.59508983992316, 249.74505737646433 -227.46155477001952 M386.4414859951743 -114.54239557411299 C340.31547730313537 -157.807889897571, 293.25158273141767 -202.80950677838018, 254.22112770577235 -240.32120887751307 M389.65094295305096 -114.84558190878258 C333.45994931071147 -166.41956570586007, 282.95006741475663 -210.45025876363042, 252.7064523642258 -239.2146206703278 M393.943042213778 -126.10277539121628 C352.29409755770433 -161.34974370189678, 319.835218213638 -188.05591868944725, 257.8666200816027 -243.93934321121793 M392.45377847806645 -122.3525619246316 C354.93123139602415 -153.6092491769932, 320.58348531775994 -185.04390734083458, 255.16327195906555 -245.25656620131355 M396.2052849703231 -134.63319433984915 C369.33735515997506 -162.15879968732037, 335.5875516083409 -188.6082515415386, 258.1228966516243 -250.46355183270234 M398.02582257471465 -131.4624927541391 C359.86602822467773 -164.7576739844835, 323.09452766874523 -197.1299353048737, 258.30409504741294 -251.83578871783274 M400.4541152512822 -136.59722229727106 C363.3445774488204 -173.53333139345546, 325.0524944849748 -204.45877612063688, 262.2361929825327 -256.7169705902353 M400.1322828700933 -139.76809466518955 C351.97100436711975 -181.82763342024265, 303.23080345134446 -223.15703430509723, 261.3910263365886 -261.7561369587794 M407.3107686233509 -148.19299511175097 C359.35239064205166 -190.19377067405313, 315.05373775337864 -221.1855472395397, 261.57453132013245 -269.0375964480478 M406.347764071523 -145.3857163966769 C347.8509149294626 -191.5854994356213, 292.2624003140883 -239.69416380130593, 264.47201971302195 -268.3753832790095 M400.23530027077425 -155.72592295045357 C355.76416064385114 -197.29682690831334, 306.58937213074256 -243.5976064895491, 268.165397231119 -272.5298152544089 M401.7497530038737 -159.57804350639086 C376.3128162906636 -184.7095933125828, 349.40221879894517 -209.7451097457766, 267.16855488403354 -275.1067514174171 M404.40374366136166 -168.3950965166952 C357.14643382378495 -206.04108975897964, 307.5765161726227 -245.477037328191, 280.4410300228563 -278.220460770616 M402.0457772755799 -169.79050458827274 C360.9429159515819 -206.9153458842592, 317.2487525041501 -246.48101770159968, 276.67092779761225 -276.82497552592463 M403.84979020136325 -183.8826447167259 C376.56192146133094 -201.91521938765334, 345.0093452163743 -227.19496221823636, 286.4177790400349 -283.39970010585273 M400.96508493351666 -179.49062893919762 C362.93215722895997 -214.12931555357076, 325.56955447094987 -248.86150773854826, 285.16760693907366 -282.4571856043407 M401.2477562970288 -190.26132145679566 C355.7491693778857 -221.78238292785045, 316.3117676828927 -259.76348989893523, 293.29029526912745 -288.99985313737847 M400.2916115245588 -192.32563335604044 C362.96519339479204 -226.21055093559377, 317.9433857191066 -263.5129540273977, 293.6894249355155 -286.61172692054964 M400.4125833546084 -204.4945056431545 C373.33248105280194 -227.68134840717093, 338.26782177091366 -259.26466178991257, 303.8938546966069 -287.34386474245275 M398.6139800955814 -204.87242213567626 C379.13284984609913 -224.20527124249716, 354.3612031407527 -242.11593650379723, 298.8219019140356 -291.57663224243606 M396.7998377803521 -214.9362011820524 C363.50992313728716 -244.14059802062164, 332.5941285668733 -275.6973251765226, 304.9402295682777 -294.6134818853066 M400.0755011934595 -215.38758707498005 C379.9527225365556 -232.13648304891422, 356.82244115673626 -248.57739152536294, 307.1911167610634 -294.03779892485596 M400.76042056073265 -227.17497795074877 C370.3962563673248 -249.33762433507405, 336.1823369590907 -280.95507811986903, 318.0459458706125 -297.41289944319954 M399.87888244529086 -223.9013484418362 C372.35932661044063 -251.08782743866112, 347.56490850683986 -275.1930957710118, 316.7419646036967 -297.89263473569383 M407.05940558333657 -227.90973568155073 C402.9794772758832 -231.3585656809717, 393.16608747682113 -237.3235399867129, 389.62788806946526 -244.15980177121688 M404.055066879287 -230.34331885917686 C400.37979678948807 -232.3827801993423, 395.616093088385 -236.45785488463508, 388.8837615484143 -243.89109942066003 M390.69389377625237 -242.99832945066024 C368.66995990731124 -259.0128758638442, 351.3126198902696 -278.8441892404867, 322.5731924196819 -303.5257768742919 M387.5310870641614 -242.84112879382897 C372.7998697473607 -258.34868312918337, 357.36907455638664 -269.69298170121124, 322.41013799068725 -302.32611887531283 M413.09242726060177 -237.29122417056524 C404.15016735842886 -241.56014788748513, 400.22116398166634 -244.01155762042634, 397.03890717959814 -250.3475599206747 M410.956421461502 -236.02715251715446 C407.74975426661365 -238.55165514411055, 405.14083661357614 -241.5089767874509, 396.6222300819945 -245.9677383478494 M395.1753747293294 -246.40211522293677 C376.2128719967822 -263.1406278421837, 359.44172775913665 -277.0387880755634, 338.26116068952643 -293.46170143467344 M394.1286688053549 -251.94377139670243 C382.39947367647824 -260.33144616180743, 367.675888450855 -274.1820212127269, 341.02019154571855 -296.2832421852366 M413.7925602947411 -243.01031707577874 C412.8669561892773 -246.17423115318107, 408.9905417525225 -245.46807308223828, 405.7625863743957 -249.12037121452786 M416.5873834868011 -242.90001314782074 C414.2412732265205 -244.68409184618136, 411.47694439729247 -246.37353694577658, 406.8025932727393 -250.14738127239445 M399.21791189846755 -256.4612955091184 C398.18691161867304 -259.70984398360605, 393.6700882767431 -262.3589503275185, 390.9839580514565 -264.2262139159468 M401.79913906020283 -255.2449713846331 C396.72680154260604 -259.5670860568385, 393.61766285502114 -261.91918612750595, 389.9307924510077 -264.7829131822315 M421.52321275890193 -247.25609131995077 C419.30192494193426 -249.79650733962364, 415.69784699107703 -252.6860761291901, 414.3042250554593 -253.64073305926652 M421.9920337290349 -248.19904203246767 C420.558732640497 -249.6675178985117, 417.8872237076898 -252.55492066526816, 415.7767313211741 -254.49078074186477 M404.9505484768282 -261.33189321103805 C406.6282231415566 -260.45789192597016, 405.1449822345513 -264.64856065126935, 398.37702292074067 -268.82295626092 M407.2817982607614 -260.7735729733419 C403.8628258983837 -263.2327531374311, 399.38405527362073 -265.8678803117126, 398.79971648175814 -269.7820723845367 M426.6729852087823 -254.430946992956 C426.97417496210716 -255.3331805893008, 425.6254465934871 -256.24873754414546, 424.5253433486151 -256.33082750665363 M427.43230766877804 -253.97648053827126 C426.278561388175 -254.16722372267878, 425.9553936262194 -255.14192166286978, 424.5447770928668 -256.64455873148853 M414.5958649367915 -268.4319260774392 C411.4803797556285 -266.9024507056849, 407.2447521851254 -271.6633177722881, 404.0779014265562 -274.6175616929885 M414.0556791362242 -267.14070526009675 C409.3403131344311 -269.58582212415837, 407.85075667371586 -272.13402461008235, 404.9959991814966 -273.9208329653945 M419.8991730973742 -273.4145783419275 C416.8143856952814 -272.4846107524192, 417.3369939977919 -273.39106699009125, 413.8933232113144 -278.02363719550107 M418.4166955922417 -271.4862285955363 C415.7829340489463 -273.73453560937776, 413.9341795409816 -276.15994353931507, 411.5550537678769 -277.827941364992 M425.0124927111384 -278.13437408197814 C425.04276176684914 -279.53449341314024, 421.9020254193283 -279.495961137383, 418.55614331697586 -281.93527646679524 M424.68467414159744 -276.664544394502 C422.0422013054376 -279.3099200718671, 420.53105897323684 -281.3352599187206, 418.675350904814 -282.8658039303506 M430.39038518892846 -282.0574504311299 C430.8654586288915 -282.30703461159356, 429.32685750445023 -284.71504995454234, 425.66791531859957 -286.4200336528482 M431.04348735960446 -282.5625697302734 C429.83640439564863 -282.8616461846363, 428.74658582381556 -283.6972031126444, 427.0518063639017 -286.2153858726384" stroke="#55acee" stroke-width="1" fill="none"></path><path d="M1.9950488954782486 -0.9947663694620132 C48.53959207172101 16.763994908733714, 105.18701626709033 23.825323295860922, 172.7586676341378 44.72441799719935 M0.715823344886303 1.5086810067296028 C40.28379304090278 6.9623787324037085, 77.81208427079494 15.82077856583468, 176.2784497377359 44.126340781945046 M172.0721098643624 47.894313169318494 C210.88944496853455 41.711329823840515, 242.31105151604083 30.159094682208092, 298.11030400395293 20.142927944941476 M176.75615855426423 43.60862342049485 C215.46630013582825 36.36040702554364, 254.6034824645881 26.930717428484677, 299.2159570887675 15.122985028011755 M300.27567494511504 16.763628781123117 C311.98914082853105 4.744955190415647, 330.4662979188817 -13.436854245381415, 360.439494695057 -46.146689810302036 M297.85461561232705 17.80857577203031 C316.6915562483492 -1.4962900114640014, 337.30254995729297 -21.84351532679235, 359.7601462635294 -46.97482807978608 M356.95288809715663 -44.133777060057895 C373.02558721027293 -79.72065933860233, 393.12841598482623 -116.16501381531, 402.46321761596283 -142.18775611879735 M359.2179576191202 -46.962882355298774 C372.4861499470545 -69.5327870173078, 378.7269399907423 -89.26250353991524, 400.21417681115946 -141.63644478233962 M398.19572722899994 -146.2162252044907 C401.23001859732415 -174.0843999783258, 395.0718498901635 -196.5900203139341, 392.453514342011 -224.19109924251825 M401.46184412378153 -143.48759720238357 C399.9127779289396 -162.0156202294152, 396.53395237895415 -186.19250235406204, 396.35033444762325 -220.78778123224765 M393.6512339159856 -217.0695439141491 C409.3009598751557 -227.82467155286022, 414.4728213952055 -242.40873091618107, 431.12764411816823 -253.85161269461844 M396.6710608422766 -223.00398492182285 C410.4015279760894 -232.1563180944642, 422.9045586084569 -246.62072904242663, 430.55018505851257 -256.3778813332889 M433.41166740308034 -257.7636267021868 C413.0346516615889 -253.38064294595492, 396.97107572442553 -248.13954010097245, 389.88039573598655 -244.6692309816987 M429.53967366019714 -254.77358941739533 C416.1206412096894 -252.15313734964369, 398.348912101526 -247.24452544479544, 388.28688657600435 -240.94989248268908 M390.24681648183616 -245.17340807520455 C400.0562989882292 -254.42495283895593, 409.2468492470508 -268.5336111215598, 433.3552520159608 -283.72689461475386 M385.85334050972017 -242.65205808632678 C394.16888205938557 -250.01604795108256, 406.5082417674087 -258.7012006849259, 430.94635346121845 -283.6690305820681 M431.54562816612344 -282.1544003144942 C429.7558630839022 -284.2766907388831, 429.28969155192027 -285.5878814879068, 429.6180886130228 -287.0042763150326 M430.5251632001682 -282.0202059774989 C430.88280827935944 -282.9954226866504, 429.9423114859788 -283.48740633092325, 429.33130528774313 -286.3502201568366 M427.7409056599783 -290.01376280529973 C420.6456086512011 -277.6111174768241, 403.009620696481 -269.4980671877188, 385.8298062598951 -263.1241732886108 M431.04926961172094 -287.9774482358861 C415.92004733296426 -276.9852067234205, 404.61307915152736 -273.13686770742993, 388.18215009483174 -261.13491706308446 M388.16998188855723 -260.50640213992915 C383.51576544944623 -269.9795743322653, 377.70534448904715 -270.95624474018643, 361.8066572935237 -280.8339986793556 M386.0537187746413 -258.6431739753159 C380.5198668642472 -267.29191287612053, 369.246611344544 -276.51715505612617, 364.7908086941494 -284.86173907591484 M363.9636053831233 -282.79276561661146 C355.55064464192964 -290.43772936304975, 344.8656914534981 -292.1103233588808, 317.6994390994024 -295.909999746905 M363.9971552059902 -283.30926600767754 C349.2967896485341 -288.0045391894226, 332.13820604117575 -293.33019758007333, 316.1264103337836 -295.5815449320537 M319.5442533999395 -292.87889852009835 C294.44759315309267 -285.9510509976226, 281.02240747458063 -276.2604095581156, 265.33518991250475 -270.8852271239675 M316.1382378026557 -296.65779500834765 C306.2116922116718 -291.3334543337482, 290.83112221071997 -285.15786087260545, 265.82873738933284 -270.8549731548346 M268.11396417397935 -272.6728514830984 C257.86115894364684 -249.42582138934407, 243.00656213959346 -230.53342720692535, 243.18055973751598 -222.09691799404118 M266.42924894023616 -271.5618995006598 C260.9965618782746 -255.47049890002367, 252.5066329578192 -241.88010247095582, 240.34124650610738 -218.58591131838057 M245.5143877099281 -221.88686168910954 C247.34606403910786 -209.77490463680562, 248.1591076083128 -199.2517630580154, 252.3402466134771 -176.59625296829455 M243.62614526404195 -217.237967058737 C246.58337348443962 -208.65991217033448, 245.52758958737365 -201.49730273215644, 255.1595048637732 -176.18125292448514 M254.09822346397232 -177.01548980949008 C254.93426452140253 -174.63512988075757, 255.9462628647733 -172.0286844387852, 257.9451324250108 -170.77716652846152 M254.54092094255688 -175.4827482203927 C255.33065748424545 -173.47192277452655, 257.12352434628855 -172.12123192186553, 258.12203754640876 -169.6474643974729 M257.39048781470933 -172.53242039803104 C238.60833428400406 -175.22078940674604, 216.0022240478992 -177.2982196788813, 168.52567354167516 -182.64186339182723 M257.2982472799865 -169.0752720025523 C232.68802566201583 -172.34977799849008, 210.35112249727837 -177.63159413511448, 164.77016038770492 -177.01731868935693 M163.00122514689977 -181.2903275947081 C119.87379782489589 -205.6208086931676, 81.5951042986798 -227.53373216347092, 38.69010784147183 -254.04846671421762 M165.80743951673324 -178.51648136330712 C126.83720118057909 -199.27111506036096, 92.63066621396443 -220.25245866721013, 39.80330258278052 -251.02510900248524 M38.73927467534618 -251.76663794249183 C38.744375066753854 -251.97125275856686, 38.9491929548311 -251.92407528301118, 39.01428364961497 -252.10680869390552 M38.69868620569196 -251.84409820552435 C38.80944930837384 -251.89519798367684, 38.960312312493365 -252.03472009945963, 39.04970181394794 -252.11669163764523 M38.40383690549314 -254.54595251639685 C37.373426101721826 -232.05689533710938, 36.51196560553745 -205.93890678333642, 41.41439452431608 -181.69717199374725 M37.61065218551337 -250.36557065953812 C40.36575594123729 -230.5052414585542, 40.2181810792088 -211.54444845450604, 39.56278795413185 -184.5979213567524 M41.12151351235319 -183.3565004544406 C52.71435088004752 -174.7396995023418, 65.51484148924305 -167.01991552789536, 95.79439213731315 -144.28363857796128 M40.46377557925392 -185.02426908929635 C52.46112387694742 -173.80206897342745, 67.2632868292726 -160.53992557536912, 98.44570214160707 -142.89842130621608 M99.90422108628776 -142.73044262459214 C78.61533851423651 -147.92171147901882, 66.27840917163198 -152.10632486107613, 45.040077791531566 -160.15944747453486 M97.45099884876039 -142.22107030829127 C82.4908162509195 -148.88759590858254, 64.43499294642544 -155.17304087444913, 42.51557054462004 -160.6487631407932 M44.56665565807096 -161.03794097614966 C43.58531643873141 -163.39708457136453, 40.90831052224715 -163.32343211155157, 40.670763297360715 -164.6858269277715 M43.839904906028146 -161.0637455945629 C42.668693003613576 -162.32839227552176, 42.40651277295488 -162.821087213767, 40.0122226863494 -165.22546004892877 M36.49088777176225 -163.05589459426173 C46.34649590200016 -156.31774971728032, 51.66058710154052 -143.32730222483622, 52.87915038672164 -131.67521970952842 M39.9751927139529 -164.17203010953435 C45.167908204133724 -154.10494258157954, 48.90357810109917 -141.58116437758093, 52.444346222848445 -128.10701403255555 M49.42367171850875 -131.08601301397178 C66.63992492352517 -118.99569093806443, 71.02083982198995 -111.97486251404301, 96.71783356225261 -95.77535037637668 M52.586788926095515 -128.2552855932245 C68.40396354767982 -119.51436185097951, 81.86101596344442 -107.61794915979053, 95.19747551387319 -92.97870369941907 M96.39943985497722 -96.95799426675754 C83.73418799618129 -97.82852464120562, 66.02270321195965 -98.8507308840794, 58.58628372872348 -104.99260027537201 M97.7020397991515 -95.15608902961927 C88.97483250447715 -98.23054830402064, 78.26149670524981 -98.85661398761489, 58.09948953265424 -103.03523873368357 M59.914404255776645 -101.3231874650313 C60.64963764744468 -100.15427466544342, 60.843557701207146 -99.07365670309323, 61.2684448571286 -98.25238654331991 M59.959819520958426 -101.27162470419744 C60.566160861246715 -100.32510613306034, 61.440584758312866 -99.90507141717642, 62.14644956867882 -98.61374374782415 M62.689684858192436 -100.13967804071892 C69.27804168331947 -87.57705911443531, 78.60917284753789 -82.74400652304135, 85.95901122989372 -68.4698764649317 M60.59955075161599 -97.00313659218538 C65.92624877320941 -92.77163139084122, 70.79042831667536 -84.65390843531122, 84.99923701139406 -65.73117766204331 M83.27843490543083 -70.56963461312506 C99.35678833761449 -65.78263698908114, 116.4582805745732 -59.81056300706455, 137.64312794872896 -51.62200058088186 M84.91438479276613 -65.63262305083725 C98.73721568959824 -63.04879140530518, 110.00581058130165 -59.121493107334175, 138.1382356367387 -48.27879266277435 M134.83401158520357 -50.47798431501272 C118.44042307451102 -40.01148030810369, 102.38934778701693 -31.5233989103648, 92.98360422394194 -21.959137484146368 M137.67331750014202 -46.342164321099546 C123.90692908635114 -38.46122061055643, 109.82184486085683 -28.935755889984545, 95.47556311777748 -20.611373148573648 M94.66704157135405 -24.754940554214727 C67.44588372316959 -14.388783780063443, 44.85635165259877 -8.681750067867235, 0.16582287847995758 -3.5638328939676285 M93.72628218821205 -20.151124201430093 C60.64416373752648 -12.576393921176027, 27.260455889387188 -5.860876742225232, 0.21247141808271408 0.2078222706913948 M0 0 C0 0, 0 0, 0 0 M0 0 C0 0, 0 0, 0 0" stroke="#55acee" stroke-width="2" fill="none"></path></g></g></svg>